<svg width="166" height="81" viewBox="0 0 166 81" fill="none" xmlns="http://www.w3.org/2000/svg">
<path fill-rule="evenodd" clip-rule="evenodd" d="M165.727 72.6827C165.633 71.3569 165.208 70.306 163.739 68.839C152.847 57.9591 140.757 49.8492 127.112 44.9969C120.097 42.5026 112.553 41.3232 103.809 41.3542C103.491 40.9229 103.035 40.4449 102.794 39.9565C89.5074 13.135 52.0165 -7.43643 28.1873 3.08291C19.0942 7.09806 13.0442 13.7929 8.79961 22.1063C7.76709 24.1284 6.95596 26.2984 5.9978 28.3712C5.83782 28.7152 5.44508 28.9085 4.74247 29.5554C4.02083 21.4016 5.59629 14.8913 6.86508 7.61441C0.268767 13.8435 -2.27296 35.6657 2.67321 43.269C3.85544 42.6004 5.18309 42.16 6.05018 41.3082C11.2651 36.1902 16.3778 30.9807 21.5132 25.7909C21.7763 25.5239 21.9215 25.1538 21.8396 24.5666C16.7313 25.005 13.6893 27.8539 9.92678 30.2995C9.83561 29.6324 9.61276 29.1156 9.7478 28.835C14.0246 19.9443 19.5208 12.0644 28.8509 7.44972C39.0694 2.39554 51.3418 2.4702 66.2276 9.41585C81.5697 16.5736 92.8219 27.2451 100.161 41.6429C98.8884 41.8991 97.6991 42.0976 96.5612 42.3728C87.6822 44.5157 80.408 48.3393 76.8898 55.9986C75.5564 58.9003 74.9615 62.1476 76.0477 66.1443C78.0145 73.3732 84.8563 79.1388 92.536 79.9723C97.0955 80.4673 100.336 79.1475 102.767 76.7195C107.35 72.142 108.83 65.7464 108.13 58.2916C107.708 53.8043 106.349 49.0323 105.341 44.0406C109.133 43.3309 113.855 43.8396 118.66 44.7964C133.341 47.7215 147.045 55.0647 159.612 66.5953C161.735 68.5438 164.184 70.2816 165.808 72.6433L165.727 72.6827ZM101.151 44.1397C104.745 52.535 105.381 59.6394 103.848 65.9804C103.119 68.9972 101.435 71.5687 99.7184 73.9843C98.205 76.1121 95.5456 77.0898 92.1261 76.9091C85.7179 76.5703 79.7217 71.4785 79.0002 65.5208C78.7146 63.1623 78.9391 60.8413 79.5665 58.8659C81.5587 52.5932 86.6814 49.0544 92.8295 46.5541C95.3415 45.5319 98.2172 44.9729 101.151 44.1397Z" fill="#040404"/>
</svg>
