<svg width="105" height="105" viewBox="0 0 105 105" fill="none" xmlns="http://www.w3.org/2000/svg">
<rect width="105" height="105" rx="52.5" fill="#040404"/>
<path d="M52.5 36L56.9565 48.0435L69 52.5L56.9565 56.9565L52.5 69L48.0435 56.9565L36 52.5L48.0435 48.0435L52.5 36Z" fill="url(#paint0_linear_4505_2900)"/>
<path d="M37.1739 89.2977L38.7077 89.9355L39.6822 88.3902L40.5834 88.7649L39.6088 90.3102L40.5771 90.7128L40.2197 91.579L39.0981 91.1126L38.1371 92.6523L39.1053 93.0549L38.7479 93.9211L37.6263 93.4547L36.6518 95L35.7602 94.6293L36.7348 93.0839L35.2009 92.4461L34.2264 93.9915L33.3253 93.6167L34.2998 92.0714L33.3316 91.6688L33.689 90.8026L34.8106 91.269L35.7716 89.7293L34.8033 89.3267L35.1607 88.4605L36.2823 88.9269L37.2569 87.3816L38.1484 87.7523L37.1739 89.2977ZM36.6727 90.104L35.7021 91.6398L37.2359 92.2776L38.2065 90.7419L36.6727 90.104Z" fill="white"/>
<path d="M31.5567 84.1919L30.7924 85.1919L29.2447 83.9997L26.2885 87.8674L26.3626 87.9244L28.7065 87.2878L29.023 88.5164L26.2586 89.2755L24.3652 87.817L28.0099 83.0485L26.7916 82.11L27.5559 81.11L31.5567 84.1919Z" fill="white"/>
<path d="M18.2194 67.407C18.4629 67.9973 18.5704 68.5389 18.5417 69.0319C18.5066 69.5276 18.3888 69.9862 18.1884 70.4078L16.8231 69.848C17.1464 69.1799 17.1704 68.5122 16.8951 67.8449C16.7469 67.4856 16.5635 67.2499 16.345 67.1378C16.1266 67.0257 15.8959 67.0202 15.653 67.1212C15.4677 67.1982 15.3355 67.3133 15.2564 67.4665C15.171 67.6223 15.1707 67.8667 15.2557 68.1997L15.4434 68.8996C15.6478 69.649 15.6494 70.2609 15.4484 70.7354C15.2446 71.2034 14.8616 71.5544 14.2992 71.7883C13.9988 71.9132 13.7002 71.9697 13.4033 71.9579C13.1064 71.946 12.8248 71.8714 12.5585 71.7341C12.2895 71.5904 12.0436 71.3845 11.8206 71.1164C11.5887 70.8445 11.3906 70.5097 11.2265 70.1119C11.0174 69.605 10.9133 69.1259 10.9142 68.6745C10.9151 68.2231 11.0121 67.7957 11.205 67.3923L12.5839 67.9577C12.4647 68.1951 12.3953 68.4533 12.3756 68.7321C12.3468 69.0071 12.4039 69.3179 12.5468 69.6643C12.6818 69.9916 12.8399 70.2115 13.0212 70.324C13.2024 70.4366 13.3952 70.4503 13.5998 70.3653C13.8298 70.2696 13.9708 70.1396 14.0228 69.9751C14.0721 69.8043 14.0609 69.5684 13.9892 69.2675L13.8206 68.5596C13.6434 67.8215 13.6457 67.2192 13.8276 66.7527C14.0031 66.2889 14.3816 65.936 14.9632 65.6942C15.2827 65.5613 15.6006 65.4968 15.9166 65.5007C16.2327 65.5046 16.5329 65.5789 16.8173 65.7237C17.099 65.8621 17.3617 66.0724 17.6054 66.3544C17.8427 66.6391 18.0473 66.99 18.2194 67.407Z" fill="white"/>
<path d="M15.6705 57.7614C15.7247 58.1745 15.7078 58.5515 15.6199 58.8923C15.5252 59.2341 15.3727 59.5344 15.1625 59.7933C14.9445 60.0463 14.6682 60.2544 14.3338 60.4177C13.9985 60.5741 13.6148 60.6808 13.1827 60.7379C12.7575 60.7941 12.3662 60.7898 12.0088 60.725C11.6446 60.661 11.3251 60.5386 11.0502 60.3578C10.7744 60.1701 10.5506 59.9266 10.3787 59.6271C10.2 59.3285 10.084 58.9761 10.0307 58.5698C9.97206 58.1223 9.99739 57.7302 10.1067 57.3936C10.2152 57.05 10.3832 56.7616 10.6108 56.5284C10.8374 56.2883 11.1129 56.1013 11.4373 55.9674C11.7538 55.8275 12.0938 55.7335 12.4573 55.6855L12.91 55.6257L13.3664 59.1061L13.4487 59.0952C13.8053 59.0481 14.0773 58.9141 14.2647 58.6932C14.4451 58.4732 14.5083 58.1567 14.4541 57.7436C14.4126 57.4269 14.317 57.1768 14.1673 56.9935C14.0108 56.811 13.8322 56.6455 13.6313 56.497L14.4775 55.6076C14.7903 55.8114 15.0513 56.0991 15.2605 56.4707C15.4688 56.8355 15.6055 57.2657 15.6705 57.7614ZM11.148 58.3907C11.1887 58.7005 11.3236 58.9313 11.5528 59.0831C11.7743 59.229 12.053 59.2797 12.3891 59.2353L12.4714 59.2244L12.2222 57.3241L12.1296 57.3363C11.8004 57.3798 11.5463 57.4905 11.3673 57.6682C11.1805 57.84 11.1074 58.0808 11.148 58.3907Z" fill="white"/>
<path d="M15.4036 49.3836L10.0026 48.6698L10.2031 47.1413L11.3759 47.2963L11.3826 47.2446C11.2354 47.1972 11.0976 47.1299 10.9695 47.0429C10.8345 46.9551 10.7194 46.8488 10.6241 46.7241C10.5297 46.5926 10.462 46.4435 10.4211 46.277C10.3733 46.1096 10.3633 45.9192 10.3913 45.7057L10.4265 45.4372L11.8462 45.6248L11.7961 46.007C11.7374 46.4545 11.7519 46.7961 11.8396 47.0319C11.9282 47.2607 12.1303 47.396 12.4458 47.4377L15.604 47.8551L15.4036 49.3836Z" fill="white"/>
<path d="M17.7984 39.3543L12.0825 38.9167L12.6622 37.5117L14.9527 37.7312L16.9687 38.017L17.0004 37.9401L15.3736 36.7111L13.5914 35.2597L14.1473 33.9123L18.4972 37.6605L17.7984 39.3543Z" fill="white"/>
<path d="M18.291 26.3116C18.1015 26.5595 17.9077 26.6991 17.7095 26.7302C17.51 26.7516 17.3225 26.6947 17.1469 26.5594L16.9658 26.4199C16.7901 26.2846 16.6896 26.1196 16.664 25.9249C16.6372 25.7204 16.7186 25.4942 16.9081 25.2463C17.0976 24.9983 17.292 24.8637 17.4915 24.8423C17.6897 24.8111 17.8766 24.8632 18.0522 24.9985L18.2333 25.138C18.409 25.2733 18.5102 25.4431 18.537 25.6476C18.5625 25.8424 18.4805 26.0637 18.291 26.3116ZM18.2846 27.2783L19.2195 26.0552L23.5413 29.3844L22.6064 30.6075L18.2846 27.2783Z" fill="white"/>
<path d="M30.2898 23.0091C29.966 23.2585 29.6379 23.4281 29.3054 23.5179C28.9687 23.6022 28.6416 23.6134 28.3241 23.5517C28.0024 23.4844 27.6902 23.3441 27.3877 23.1307C27.0851 22.9174 26.8011 22.6372 26.5358 22.2901C26.2705 21.943 26.0765 21.5979 25.9538 21.2547C25.8268 20.9061 25.7726 20.5671 25.7911 20.2377C25.8097 19.9083 25.9051 19.594 26.0776 19.2949C26.25 18.9957 26.4981 18.7215 26.8219 18.472C27.261 18.1338 27.7017 17.9519 28.1442 17.9261C28.5921 17.8962 29.0161 18.0117 29.416 18.2725L28.7567 19.4632C28.5919 19.3276 28.405 19.2484 28.1958 19.2257C27.9866 19.203 27.775 19.2741 27.561 19.4389C27.314 19.6292 27.1906 19.8556 27.1907 20.1181C27.1866 20.3751 27.2898 20.6413 27.5004 20.9168L28.1194 21.7267C28.33 22.0022 28.5594 22.1712 28.8078 22.2337C29.0561 22.2963 29.3038 22.2324 29.5507 22.0422C29.7703 21.8731 29.8989 21.6821 29.9367 21.4691C29.9758 21.2465 29.9518 21.0154 29.8648 20.7761L31.1273 20.4601C31.3004 20.9832 31.3098 21.4574 31.1553 21.8828C31.0064 22.3039 30.7179 22.6793 30.2898 23.0091Z" fill="white"/>
<path d="M38.6497 18.242C38.2662 18.4015 37.8992 18.4827 37.5485 18.4857C37.1952 18.4823 36.8667 18.4122 36.5632 18.2753C36.2634 18.1294 35.9916 17.9154 35.748 17.6334C35.5107 17.3487 35.3087 17.0042 35.1419 16.6C34.9778 16.2022 34.8807 15.8217 34.8506 15.4584C34.8178 15.0886 34.8529 14.7471 34.9557 14.4337C35.0649 14.1177 35.2413 13.8376 35.485 13.5935C35.7261 13.3429 36.0351 13.1392 36.4122 12.9824C36.8276 12.8097 37.2114 12.7328 37.5636 12.7517C37.9223 12.7679 38.2432 12.8562 38.5265 13.0165C38.8162 13.1742 39.0674 13.3929 39.2802 13.6728C39.4967 13.9435 39.6752 14.2489 39.8155 14.589L39.9902 15.0124L36.7596 16.3558L36.7913 16.4328C36.929 16.7665 37.1283 16.9955 37.3893 17.12C37.6477 17.2381 37.9686 17.2174 38.3521 17.0579C38.646 16.9357 38.8619 16.7783 38.9996 16.5857C39.1346 16.3867 39.2476 16.1706 39.3385 15.9374L40.4133 16.5278C40.2981 16.8838 40.0888 17.2114 39.7854 17.5104C39.4884 17.8068 39.1098 18.0507 38.6497 18.242ZM36.8738 14.0195C36.5862 14.1391 36.399 14.3297 36.3123 14.5912C36.2293 14.8437 36.2526 15.1272 36.3823 15.4416L36.4141 15.5186L38.178 14.7851L38.1423 14.6985C38.0152 14.3905 37.843 14.1727 37.6256 14.0451C37.412 13.9084 37.1614 13.8999 36.8738 14.0195Z" fill="white"/>
<path d="M60.385 11.1884L60.3542 11.1843L59.6913 12.1684L57.9577 14.5344L56.9226 11.813L56.5264 10.6049L56.4955 10.6008L55.8657 15.4032L54.3946 15.2087L55.34 8L56.9963 8.21891L58.3126 11.8286L58.3331 11.8313L60.5146 8.68391L62.1812 8.90418L61.2358 16.1129L59.7647 15.9185L60.385 11.1884Z" fill="white"/>
<path d="M68.9336 18.9221C68.6779 18.8158 68.4969 18.6466 68.3906 18.4144C68.2906 18.1849 68.2738 17.9262 68.3403 17.6381L68.2827 17.6142C68.071 17.9095 67.7984 18.0893 67.4649 18.1536C67.1341 18.2114 66.7769 18.1606 66.3935 18.0012C65.8886 17.7912 65.5575 17.4957 65.4003 17.1146C65.243 16.7335 65.2557 16.3216 65.4384 15.8789C65.6581 15.3464 66.0127 15.0315 66.502 14.9344C67.0004 14.8334 67.5819 14.9211 68.2466 15.1975L69.0422 15.5284L69.1733 15.2108C69.2739 14.967 69.2894 14.748 69.2198 14.5536C69.1529 14.3529 68.9692 14.1901 68.6688 14.0652C68.3876 13.9483 68.1388 13.9162 67.9223 13.969C67.7059 14.0218 67.5116 14.1026 67.3394 14.2114L66.8055 13.11C67.1344 12.8935 67.4867 12.7656 67.8623 12.7263C68.2469 12.6833 68.7045 12.7721 69.2349 12.9927C69.9507 13.2903 70.4227 13.6708 70.6509 14.134C70.879 14.5972 70.8687 15.1303 70.6199 15.7334L69.7066 17.9469L70.1763 18.1422L69.7197 19.249L68.9336 18.9221ZM67.3297 17.2291C67.5662 17.3275 67.7887 17.3599 67.9972 17.3263C68.2121 17.2954 68.3672 17.1645 68.4625 16.9335L68.7087 16.3368L68.0185 16.0498C67.4625 15.8186 67.1064 15.8922 66.9502 16.2708L66.8906 16.4151C66.8138 16.6012 66.8144 16.7631 66.8924 16.9007C66.973 17.032 67.1188 17.1414 67.3297 17.2291Z" fill="white"/>
<path d="M74.6639 22.3363L77.9802 17.9976L79.1985 18.9362L78.4784 19.8783L78.5196 19.91C78.6341 19.8057 78.761 19.7196 78.9001 19.6517C79.0434 19.5782 79.1927 19.5313 79.3479 19.5108C79.5085 19.4945 79.6709 19.5102 79.8351 19.5578C80.0034 19.5999 80.1726 19.6865 80.3428 19.8176L80.5568 19.9825L79.6851 21.1229L79.3805 20.8883C79.0238 20.6135 78.7218 20.4553 78.4746 20.4137C78.2329 20.3763 78.0152 20.4843 77.8215 20.7378L75.8822 23.2749L74.6639 22.3363Z" fill="white"/>
<path d="M87.3792 23.6535L88.3141 24.8766L84.7167 27.6477L84.7546 27.6973L85.9637 27.6194L87.656 27.6945L88.6919 29.0498L85.9318 28.8782L84.4964 32.5443L83.3847 31.0898L84.4668 28.7068L83.4407 28.6307L82.2224 29.5692L81.2875 28.3461L87.3792 23.6535Z" fill="white"/>
<path d="M87.4676 38.8169C87.3088 38.432 87.2279 38.0635 87.2249 37.7114C87.2283 37.3567 87.2981 37.027 87.4344 36.7223C87.5798 36.4213 87.793 36.1485 88.0739 35.9039C88.3575 35.6657 88.7006 35.4629 89.1032 35.2955C89.4995 35.1307 89.8785 35.0332 90.2404 35.003C90.6087 34.9701 90.9489 35.0053 91.2611 35.1085C91.5759 35.2181 91.8549 35.3953 92.0981 35.6399C92.3477 35.8819 92.5505 36.1921 92.7067 36.5707C92.8788 36.9877 92.9554 37.373 92.9366 37.7266C92.9204 38.0866 92.8325 38.4088 92.6728 38.6932C92.5157 38.984 92.2978 39.2363 92.0191 39.4499C91.7494 39.6673 91.4452 39.8464 91.1065 39.9872L90.6846 40.1627L89.3465 36.9194L89.2698 36.9513C88.9375 37.0895 88.7093 37.2896 88.5853 37.5516C88.4677 37.811 88.4883 38.1332 88.6471 38.5181C88.7689 38.8133 88.9257 39.0299 89.1175 39.1682C89.3157 39.3037 89.531 39.4172 89.7633 39.5085L89.1752 40.5874C88.8205 40.4718 88.4942 40.2617 88.1964 39.9571C87.9011 39.6589 87.6582 39.2789 87.4676 38.8169ZM91.6737 37.0341C91.5546 36.7453 91.3648 36.5574 91.1042 36.4704C90.8527 36.387 90.5703 36.4105 90.2572 36.5407L90.1805 36.5726L90.9111 38.3434L90.9974 38.3075C91.3042 38.1799 91.5211 38.007 91.6482 37.7888C91.7843 37.5744 91.7929 37.3228 91.6737 37.0341Z" fill="white"/>
<path d="M90.149 48.8512C90.0795 48.321 90.1604 47.9006 90.3918 47.5898C90.6241 47.2859 90.9974 47.1 91.5118 47.032L94.1557 46.6826L94.0554 45.9183L95.2385 45.762L95.2886 46.1441C95.3157 46.3506 95.3822 46.4854 95.4882 46.5485C95.601 46.6106 95.75 46.6295 95.9351 46.605L96.8199 46.4881L97 47.8616L95.5392 48.0547L95.68 49.1288L94.497 49.2852L94.3561 48.2111L91.3213 48.6122L91.4513 49.6036L90.2682 49.76L90.149 48.8512Z" fill="white"/>
<path d="M95.758 56.3438L95.5576 57.8723L94.6523 57.7527L94.6455 57.8043C94.9374 57.9199 95.1617 58.1247 95.3185 58.4186C95.4744 58.7194 95.5294 59.0453 95.4833 59.3965C95.393 60.085 95.0848 60.5731 94.5587 60.8608C94.0325 61.1485 93.31 61.2316 92.3909 61.1101C91.4719 60.9886 90.792 60.7202 90.3511 60.3047C89.917 59.8901 89.7452 59.3385 89.8355 58.65C89.8589 58.471 89.9085 58.3059 89.9841 58.1548C90.0529 58.0028 90.1404 57.8673 90.2467 57.7483C90.359 57.637 90.4828 57.5448 90.6179 57.4716C90.76 57.3993 90.9057 57.352 91.0552 57.3298L91.062 57.2781L88.0991 56.8865L88.2996 55.358L95.758 56.3438ZM91.1363 58.3071C91.0984 58.5963 91.1667 58.847 91.3412 59.0592C91.5217 59.2791 91.7834 59.4118 92.1263 59.4571L93.0625 59.5808C93.4054 59.6262 93.6889 59.5656 93.9131 59.3991C94.1432 59.2404 94.2772 59.0164 94.3152 58.7272C94.3531 58.4381 94.3127 58.1876 94.1939 57.9758C94.0812 57.7717 93.9013 57.6534 93.6544 57.6208L92.0598 57.41C91.8129 57.3774 91.6053 57.4445 91.4369 57.6114C91.2744 57.786 91.1742 58.0179 91.1363 58.3071Z" fill="white"/>
<path d="M87.2178 68.1826C87.419 67.695 87.6855 67.3849 88.0173 67.2522C88.3464 67.126 88.7346 67.1559 89.182 67.3419L94.8955 69.7178L94.3078 71.1421L88.3163 68.6507L88.0542 69.2858L86.9518 68.8274L87.2178 68.1826Z" fill="white"/>
<path d="M81.4596 77.4963C81.628 77.2759 81.8377 77.1442 82.0886 77.1012C82.3353 77.0636 82.5886 77.1143 82.8486 77.2533L82.8865 77.2037C82.6572 76.922 82.5547 76.6111 82.5792 76.2711C82.6092 75.9353 82.7505 75.6021 83.0032 75.2715C83.3358 74.8363 83.7058 74.5917 84.1132 74.5379C84.5206 74.4841 84.9136 74.603 85.2923 74.8947C85.7478 75.2456 85.959 75.6709 85.9258 76.1705C85.894 76.6799 85.659 77.2211 85.2211 77.7941L84.6968 78.4801L84.9685 78.6893C85.177 78.85 85.3838 78.9217 85.5887 78.9045C85.7992 78.8916 86.0033 78.7556 86.2013 78.4967C86.3866 78.2543 86.4818 78.0213 86.487 77.7977C86.4922 77.5741 86.4648 77.3648 86.4047 77.1696L87.6026 76.937C87.7258 77.312 87.7577 77.6867 87.6982 78.0611C87.6401 78.4452 87.4362 78.8659 87.0867 79.3232C86.6151 79.9402 86.1269 80.2995 85.6221 80.4008C85.1174 80.5022 84.6071 80.3542 84.0912 79.9568L82.1978 78.4983L81.8883 78.9033L80.9416 78.174L81.4596 77.4963ZM83.5036 76.3792C83.3478 76.5831 83.2591 76.7905 83.2374 77.0013C83.2115 77.2177 83.2973 77.402 83.4949 77.5542L84.0053 77.9474L84.4601 77.3524C84.8265 76.873 84.8478 76.5087 84.524 76.2592L84.4005 76.1641C84.2413 76.0415 84.0854 76.0002 83.9328 76.0402C83.7857 76.0844 83.6426 76.1974 83.5036 76.3792Z" fill="white"/>
<path d="M75.3327 83.0584C75.6565 82.809 75.9846 82.6394 76.3171 82.5496C76.6537 82.4653 76.9808 82.4541 77.2983 82.5159C77.6201 82.5831 77.9322 82.7235 78.2348 82.9368C78.5374 83.1502 78.8213 83.4304 79.0866 83.7775C79.3519 84.1246 79.5459 84.4697 79.6687 84.8128C79.7957 85.1614 79.8499 85.5004 79.8313 85.8298C79.8128 86.1592 79.7173 86.4735 79.5449 86.7726C79.3725 87.0718 79.1243 87.3461 78.8005 87.5955C78.3615 87.9337 77.9207 88.1157 77.4783 88.1414C77.0303 88.1713 76.6064 88.0559 76.2064 87.795L76.8658 86.6043C77.0305 86.74 77.2175 86.8192 77.4267 86.8419C77.6358 86.8645 77.8475 86.7935 78.0615 86.6286C78.3084 86.4383 78.4319 86.212 78.4318 85.9494C78.4359 85.6924 78.3326 85.4262 78.1221 85.1507L77.5031 84.3408C77.2925 84.0654 77.063 83.8963 76.8147 83.8338C76.5663 83.7713 76.3187 83.8351 76.0717 84.0254C75.8522 84.1945 75.7235 84.3855 75.6858 84.5984C75.6467 84.8211 75.6707 85.0521 75.7577 85.2914L74.4952 85.6075C74.322 85.0843 74.3127 84.6101 74.4671 84.1848C74.6161 83.7636 74.9046 83.3882 75.3327 83.0584Z" fill="white"/>
<path d="M66.9728 87.8255C67.3562 87.666 67.7233 87.5848 68.074 87.5818C68.4273 87.5852 68.7557 87.6554 69.0593 87.7922C69.3591 87.9381 69.6308 88.1521 69.8745 88.4342C70.1117 88.7188 70.3138 89.0633 70.4805 89.4675C70.6447 89.8653 70.7418 90.2458 70.7719 90.6092C70.8046 90.9789 70.7696 91.3204 70.6668 91.6338C70.5576 91.9498 70.3811 92.2299 70.1374 92.474C69.8964 92.7246 69.5873 92.9283 69.2103 93.0851C68.7949 93.2578 68.411 93.3347 68.0588 93.3158C67.7002 93.2996 67.3792 93.2113 67.096 93.051C66.8063 92.8933 66.555 92.6746 66.3423 92.3948C66.1257 92.124 65.9473 91.8186 65.807 91.4786L65.6323 91.0551L68.8629 89.7117L68.8311 89.6347C68.6935 89.3011 68.4942 89.072 68.2331 88.9475C67.9748 88.8295 67.6539 88.8502 67.2704 89.0096C66.9764 89.1319 66.7606 89.2893 66.6229 89.4818C66.4879 89.6808 66.3749 89.8969 66.2839 90.1302L65.2092 89.5398C65.3243 89.1837 65.5336 88.8561 65.837 88.5571C66.134 88.2607 66.5126 88.0168 66.9728 87.8255ZM68.7487 92.048C69.0363 91.9285 69.2235 91.7379 69.3102 91.4763C69.3932 91.2238 69.3699 90.9403 69.2401 90.626L69.2084 90.549L67.4445 91.2825L67.4802 91.3691C67.6073 91.6771 67.7795 91.8948 67.9969 92.0224C68.2105 92.1591 68.4611 92.1676 68.7487 92.048Z" fill="white"/>
<defs>
<linearGradient id="paint0_linear_4505_2900" x1="52.5" y1="36" x2="52.5" y2="69" gradientUnits="userSpaceOnUse">
<stop stop-color="#262626"/>
<stop offset="1" stop-color="#FF852E"/>
</linearGradient>
</defs>
</svg>
