<svg width="188" height="54" viewBox="0 0 188 54" fill="none" xmlns="http://www.w3.org/2000/svg">
<g clip-path="url(#clip0_4505_65199)">
<path d="M3.50843 27.1791C5.35764 35.2553 19.176 39.4851 26.7629 41.9254C47.5981 47.9215 69.586 49.2695 91.2825 50.1062C107.583 50.5478 123.91 50.2573 140.135 48.6885C154.13 47.2243 169.469 46.0158 180.691 37.4051C185.618 33.5239 185.82 27.7834 181.324 23.4954C169.418 12.3166 138.589 8.07514 121.756 5.48378C103.226 2.86919 84.4557 3.671 65.8116 4.77494C77.9834 4.99573 90.1553 5.69295 102.238 7.07578C107.406 7.77301 112.802 8.85371 117.032 11.8053C113.093 10.957 109.015 10.9338 105 10.6084C76.8182 7.69166 47.1675 5.12355 19.9233 14.0713C13.9704 16.3256 2.97647 20.0442 3.50843 27.1791ZM0 26.2727C1.06393 10.6897 39.758 5.53027 53.3231 4.93763C51.1192 4.79818 48.9154 4.57739 46.7242 4.28688C50.3846 3.29915 54.121 2.54382 57.9081 2.10224C65.5583 1.43988 73.2464 1.25395 80.9092 0.823997C94.0944 0.150013 107.305 0.510245 120.414 2.06738C136.816 4.60063 197.384 11.8983 186.757 35.418C184.554 39.3573 180.399 41.9603 176.27 44.0403C166.163 49.1068 154.523 50.3618 143.263 51.6285C126.456 53.2902 109.559 53.8131 92.6631 53.325C67.7368 52.407 42.1772 51.001 18.6947 42.6459C11.1586 39.6943 0.126658 34.8834 0 26.2727Z" fill="#FF6900"/>
</g>
<defs>
<clipPath id="clip0_4505_65199">
<rect width="188" height="53" fill="white" transform="translate(0 0.5)"/>
</clipPath>
</defs>
</svg>
