<?xml version="1.0" encoding="UTF-8"?>
<svg xmlns="http://www.w3.org/2000/svg" xmlns:xlink="http://www.w3.org/1999/xlink" width="41px" height="41px" viewBox="0 0 41 41" version="1.1">
<g id="surface1">
<path style=" stroke:none;fill-rule:nonzero;fill:rgb(0%,0%,0%);fill-opacity:1;" d="M 35.089844 8 L 27.914062 0.824219 C 27.527344 0.4375 27.015625 0.226562 26.46875 0.226562 L 7.308594 0.226562 C 6.179688 0.226562 5.261719 1.144531 5.261719 2.273438 L 5.261719 38.683594 C 5.261719 39.8125 6.179688 40.730469 7.308594 40.730469 L 33.644531 40.730469 C 34.773438 40.730469 35.691406 39.8125 35.691406 38.683594 L 35.691406 9.449219 C 35.691406 8.902344 35.476562 8.386719 35.089844 8 Z M 27.710938 2.53125 L 33.386719 8.207031 L 28.285156 8.207031 C 27.96875 8.207031 27.710938 7.949219 27.710938 7.632812 Z M 33.644531 39.378906 L 7.308594 39.378906 C 6.925781 39.378906 6.613281 39.066406 6.613281 38.683594 L 6.613281 2.273438 C 6.613281 1.886719 6.925781 1.574219 7.308594 1.574219 L 26.359375 1.574219 L 26.359375 7.632812 C 26.359375 8.691406 27.222656 9.554688 28.285156 9.554688 L 34.339844 9.554688 L 34.339844 38.683594 C 34.339844 39.066406 34.027344 39.378906 33.644531 39.378906 Z M 33.644531 39.378906 "/>
<path style=" stroke:none;fill-rule:nonzero;fill:rgb(0%,0%,0%);fill-opacity:1;" d="M 30.914062 15.21875 L 19.039062 15.21875 C 18.667969 15.21875 18.367188 14.917969 18.367188 14.546875 C 18.367188 14.171875 18.667969 13.871094 19.039062 13.871094 L 30.914062 13.871094 C 31.289062 13.871094 31.589844 14.171875 31.589844 14.546875 C 31.589844 14.917969 31.289062 15.21875 30.914062 15.21875 Z M 30.914062 15.21875 "/>
<path style=" stroke:none;fill-rule:nonzero;fill:rgb(0%,0%,0%);fill-opacity:1;" d="M 15.730469 15.21875 L 10.039062 15.21875 C 9.667969 15.21875 9.363281 14.917969 9.363281 14.546875 C 9.363281 14.171875 9.667969 13.871094 10.039062 13.871094 L 15.730469 13.871094 C 16.105469 13.871094 16.40625 14.171875 16.40625 14.546875 C 16.40625 14.917969 16.105469 15.21875 15.730469 15.21875 Z M 15.730469 15.21875 "/>
<path style=" stroke:none;fill-rule:nonzero;fill:rgb(0%,0%,0%);fill-opacity:1;" d="M 19.261719 9.554688 L 10.039062 9.554688 C 9.667969 9.554688 9.363281 9.253906 9.363281 8.882812 C 9.363281 8.507812 9.667969 8.207031 10.039062 8.207031 L 19.261719 8.207031 C 19.632812 8.207031 19.9375 8.507812 19.9375 8.882812 C 19.9375 9.253906 19.632812 9.554688 19.261719 9.554688 Z M 19.261719 9.554688 "/>
<path style=" stroke:none;fill-rule:nonzero;fill:rgb(0%,0%,0%);fill-opacity:1;" d="M 30.914062 20.171875 L 10.039062 20.171875 C 9.667969 20.171875 9.363281 19.867188 9.363281 19.496094 C 9.363281 19.121094 9.667969 18.820312 10.039062 18.820312 L 30.914062 18.820312 C 31.289062 18.820312 31.589844 19.121094 31.589844 19.496094 C 31.589844 19.867188 31.289062 20.171875 30.914062 20.171875 Z M 30.914062 20.171875 "/>
<path style=" stroke:none;fill-rule:nonzero;fill:rgb(0%,0%,0%);fill-opacity:1;" d="M 21.914062 25.121094 L 10.039062 25.121094 C 9.667969 25.121094 9.363281 24.820312 9.363281 24.445312 C 9.363281 24.074219 9.667969 23.769531 10.039062 23.769531 L 21.914062 23.769531 C 22.285156 23.769531 22.589844 24.074219 22.589844 24.445312 C 22.589844 24.820312 22.285156 25.121094 21.914062 25.121094 Z M 21.914062 25.121094 "/>
<path style=" stroke:none;fill-rule:nonzero;fill:rgb(0%,0%,0%);fill-opacity:1;" d="M 30.914062 25.121094 L 25.222656 25.121094 C 24.851562 25.121094 24.546875 24.820312 24.546875 24.445312 C 24.546875 24.074219 24.851562 23.769531 25.222656 23.769531 L 30.914062 23.769531 C 31.289062 23.769531 31.589844 24.074219 31.589844 24.445312 C 31.589844 24.820312 31.289062 25.121094 30.914062 25.121094 Z M 30.914062 25.121094 "/>
<path style=" stroke:none;fill-rule:nonzero;fill:rgb(0%,0%,0%);fill-opacity:1;" d="M 30.914062 30.070312 L 10.039062 30.070312 C 9.667969 30.070312 9.363281 29.769531 9.363281 29.394531 C 9.363281 29.023438 9.667969 28.722656 10.039062 28.722656 L 30.914062 28.722656 C 31.289062 28.722656 31.589844 29.023438 31.589844 29.394531 C 31.589844 29.769531 31.289062 30.070312 30.914062 30.070312 Z M 30.914062 30.070312 "/>
<path style=" stroke:none;fill-rule:nonzero;fill:rgb(0%,0%,0%);fill-opacity:1;" d="M 30.914062 35.023438 L 25.222656 35.023438 C 24.851562 35.023438 24.546875 34.71875 24.546875 34.347656 C 24.546875 33.972656 24.851562 33.671875 25.222656 33.671875 L 30.914062 33.671875 C 31.289062 33.671875 31.589844 33.972656 31.589844 34.347656 C 31.589844 34.71875 31.289062 35.023438 30.914062 35.023438 Z M 30.914062 35.023438 "/>
</g>
</svg>
