<svg width="215" height="51" viewBox="0 0 215 51" fill="none" xmlns="http://www.w3.org/2000/svg">
<path d="M11.768 26.8342L3.94617 16.0943L25.0123 0.639526L25.1007 6.6389C25.161 10.7317 23.5837 14.6834 20.71 17.6386L11.768 26.8342Z" fill="url(#paint0_linear_1371_61754)"/>
<path d="M20.7107 17.6386C23.5844 14.6834 25.1618 10.7317 25.1015 6.6389L25.013 0.639526L48.1873 9.26193L44.697 29.548L14.7333 36.0995L11.7688 26.8342L20.7107 17.6386Z" fill="url(#paint1_linear_1371_61754)"/>
<path d="M37.683 50.6393L14.7325 36.0994L44.6963 29.5479L50.3688 34.5152L37.683 50.6393Z" fill="url(#paint2_linear_1371_61754)"/>
<path d="M44.6973 29.5479L50.3698 34.5152L52.6337 25.6361C53.6333 21.7148 53.0466 17.564 50.9964 14.0617L48.1876 9.26184L44.6973 29.5479Z" fill="url(#paint3_linear_1371_61754)"/>
<path d="M14.7335 36.0995L37.684 50.6394L21.7232 49.4851C17.7525 49.1979 14.0381 47.4438 11.3232 44.5737L0.235229 32.8516L14.7335 36.0995Z" fill="url(#paint4_linear_1371_61754)"/>
<path d="M3.94721 16.0944L0.235229 32.8516L14.7335 36.0996L11.7691 26.8343L3.94721 16.0944Z" fill="url(#paint5_linear_1371_61754)"/>
<path d="M37.6844 50.639L14.7339 36.0991L44.6976 29.5476L50.3702 34.5149L37.6844 50.639Z" fill="black" fill-opacity="0.17"/>
<path d="M44.6959 29.5481L50.3684 34.5155L52.6324 25.6364C53.6319 21.7151 53.0453 17.5643 50.9951 14.0619L48.1862 9.26208L44.6959 29.5481Z" fill="black" fill-opacity="0.1"/>
<path d="M14.7336 36.0995L37.684 50.6394L21.4088 49.2715C17.5209 48.9447 13.8932 47.2115 11.2246 44.4058L0.235229 32.8516L14.7336 36.0995Z" fill="black" fill-opacity="0.23"/>
<path d="M3.94725 16.0939L0.235229 32.8512L14.7336 36.0991L11.7691 26.8338L3.94725 16.0939Z" fill="#C0C0C0" fill-opacity="0.05"/>
<path d="M16.9062 31.2942C16.2976 28.921 16.1069 26.7315 16.3341 24.7258C16.5587 22.7098 17.2847 20.9841 18.5122 19.5488C19.7475 18.1004 21.527 17.0868 23.8506 16.508C24.6744 16.3028 25.5802 16.1326 26.5681 15.9972C27.5532 15.8515 28.5319 15.7683 29.5041 15.7476C30.1599 15.9386 30.7458 16.1637 31.2617 16.4227C31.7855 16.6688 32.3081 16.9981 32.8297 17.4109C33.0192 18.1499 33.1699 19.1533 33.2815 20.4212C33.3932 21.689 33.4307 22.8868 33.394 24.0144C33.3679 25.1394 33.2576 25.8922 33.0631 26.2729C32.8232 26.4766 32.6148 26.6282 32.4381 26.7276C32.2586 26.8166 31.9682 26.9111 31.5669 27.011C31.0705 27.1347 30.5964 27.214 30.1447 27.249C29.693 27.284 29.3402 27.2667 29.0864 27.197L27.1824 22.0734C26.3792 22.052 25.1538 22.2465 23.5061 22.6569C23.147 22.7463 22.8843 22.8173 22.718 22.8699C22.6322 24.4194 22.8739 26.4135 23.4431 28.8519L23.5993 29.4609C23.997 31.0118 24.4484 32.3556 24.9534 33.4923C25.2909 34.2388 25.5606 34.8084 25.7624 35.201C25.9748 35.5911 26.1843 35.8822 26.3909 36.0744C26.6054 36.2535 26.8288 36.3141 27.0612 36.2563C27.885 36.051 28.5469 35.5871 29.0471 34.8646C29.5578 34.1393 29.9333 33.2817 30.1738 32.2916L29.1734 30.1654C30.4396 29.3627 31.7473 28.7878 33.0965 28.4407C33.7513 28.2775 34.3403 28.2083 34.8636 28.233C35.3868 28.2577 35.7876 28.4624 36.066 28.8471C36.2604 30.4376 36.4228 32.4071 36.5532 34.7556C36.6835 37.104 36.6992 38.5453 36.6002 39.0794C35.9776 39.4559 35.3495 39.7232 34.7158 39.881C34.3884 39.9626 34.0332 40.0234 33.6501 40.0634C33.2777 40.1008 32.9408 40.1017 32.6395 40.066C32.5514 39.7225 32.3102 38.9132 31.9158 37.6383L31.572 36.4948L31.1122 36.4764C30.6931 37.8654 30.1255 39.0477 29.4094 40.0234C28.6906 40.9887 27.7979 41.6042 26.7311 41.87C25.3581 42.212 24.0418 42.0084 22.7821 41.259C21.5225 40.5097 20.3871 39.2809 19.3759 37.5727C18.3621 35.854 17.5389 33.7612 16.9062 31.2942Z" fill="#FFB991"/>
<path d="M15.4855 31.2942C14.8769 28.921 14.6862 26.7315 14.9135 24.7258C15.138 22.7098 15.8641 20.9841 17.0916 19.5488C18.3269 18.1004 20.1064 17.0868 22.43 16.508C23.2538 16.3028 24.1596 16.1326 25.1474 15.9972C26.1326 15.8515 27.1113 15.7683 28.0835 15.7476C28.7393 15.9386 29.3251 16.1637 29.841 16.4227C30.3648 16.6688 30.8875 16.9981 31.4091 17.4109C31.5986 18.1499 31.7492 19.1533 31.8609 20.4212C31.9725 21.689 32.01 22.8868 31.9734 24.0144C31.9473 25.1394 31.8369 25.8922 31.6424 26.2729C31.4025 26.4766 31.1942 26.6282 31.0174 26.7276C30.838 26.8166 30.5476 26.9111 30.1462 27.011C29.6498 27.1347 29.1758 27.214 28.7241 27.249C28.2723 27.284 27.9196 27.2667 27.6658 27.197L25.7618 22.0734C24.9586 22.052 23.7331 22.2465 22.0855 22.6569C21.7264 22.7463 21.4636 22.8173 21.2973 22.8699C21.2116 24.4194 21.4533 26.4135 22.0224 28.8519L22.1786 29.4609C22.5764 31.0118 23.0278 32.3556 23.5328 33.4923C23.8703 34.2388 24.14 34.8084 24.3418 35.201C24.5542 35.5911 24.7637 35.8822 24.9703 36.0744C25.1848 36.2535 25.4082 36.3141 25.6406 36.2563C26.4644 36.051 27.1263 35.5871 27.6264 34.8646C28.1371 34.1393 28.5127 33.2817 28.7532 32.2916L27.7528 30.1654C29.0189 29.3627 30.3266 28.7878 31.6758 28.4406C32.3307 28.2775 32.9197 28.2083 33.4429 28.233C33.9661 28.2577 34.367 28.4624 34.6454 28.8471C34.8398 30.4376 35.0022 32.4071 35.1325 34.7556C35.2629 37.104 35.2786 38.5453 35.1796 39.0794C34.557 39.4559 33.9289 39.7232 33.2952 39.881C32.9677 39.9626 32.6125 40.0234 32.2295 40.0634C31.8571 40.1008 31.5202 40.1017 31.2189 40.066C31.1308 39.7225 30.8896 38.9132 30.4952 37.6383L30.1514 36.4948L29.6916 36.4764C29.2725 37.8654 28.7049 39.0477 27.9887 40.0234C27.27 40.9887 26.3772 41.6042 25.3105 41.87C23.9374 42.212 22.6211 42.0084 21.3615 41.259C20.1018 40.5097 18.9665 39.2809 17.9553 37.5727C16.9415 35.854 16.1182 33.7612 15.4855 31.2942Z" fill="white"/>
<path d="M28.1074 13.2686C30.0689 13.2686 31.6591 11.7014 31.6591 9.76822C31.6591 7.835 30.0689 6.26782 28.1074 6.26782C26.1458 6.26782 24.5557 7.835 24.5557 9.76822C24.5557 11.7014 26.1458 13.2686 28.1074 13.2686Z" fill="#FFB990"/>
<path d="M27.2561 13.5485C29.2176 13.5485 30.8078 11.9813 30.8078 10.0481C30.8078 8.11491 29.2176 6.54773 27.2561 6.54773C25.2945 6.54773 23.7043 8.11491 23.7043 10.0481C23.7043 11.9813 25.2945 13.5485 27.2561 13.5485Z" fill="white"/>
<path d="M32.8671 43.7779C33.442 43.7779 33.9081 43.3186 33.9081 42.7519C33.9081 42.1853 33.442 41.726 32.8671 41.726C32.2921 41.726 31.826 42.1853 31.826 42.7519C31.826 43.3186 32.2921 43.7779 32.8671 43.7779Z" fill="white"/>
<path d="M35.7821 43.3675C36.3571 43.3675 36.8231 42.9082 36.8231 42.3415C36.8231 41.7749 36.3571 41.3156 35.7821 41.3156C35.2072 41.3156 34.7411 41.7749 34.7411 42.3415C34.7411 42.9082 35.2072 43.3675 35.7821 43.3675Z" fill="white"/>
<g filter="url(#filter0_f_1371_61754)">
<path d="M22.249 45.009C26.3886 45.009 29.7444 44.8253 29.7444 44.5986C29.7444 44.372 26.3886 44.1882 22.249 44.1882C18.1095 44.1882 14.7537 44.372 14.7537 44.5986C14.7537 44.8253 18.1095 45.009 22.249 45.009Z" fill="#170C0C" fill-opacity="0.2"/>
</g>
<path d="M61.2069 35.6274V14.74H68.2121C70.7995 14.74 73.0392 15.167 74.9325 16.0211C76.8252 16.8751 78.2897 18.082 79.3267 19.6416C80.3636 21.2011 80.8818 23.0485 80.8818 25.1837C80.8818 27.3095 80.3636 29.1569 79.3267 30.7258C78.2897 32.2854 76.8252 33.4922 74.9325 34.3463C73.0392 35.2003 70.7995 35.6274 68.2121 35.6274H61.2069ZM65.6011 31.8816H68.3691C70.0812 31.8816 71.532 31.6216 72.7206 31.1018C73.9192 30.5726 74.8277 29.8114 75.4459 28.8181C76.0737 27.8155 76.3875 26.604 76.3875 25.1837C76.3875 23.754 76.0737 22.5426 75.4459 21.5493C74.8277 20.556 73.9192 19.7993 72.7206 19.2795C71.532 18.7504 70.0812 18.4858 68.3691 18.4858H65.6011V31.8816Z" fill="white"/>
<path d="M87.7308 35.6275H83.6362V21.7026H87.2031L87.3458 24.1116C87.8214 23.2668 88.4681 22.6077 89.2859 22.1342C90.1043 21.6608 91.0412 21.4241 92.0971 21.4241C92.4015 21.4241 92.7059 21.4473 93.0102 21.4937C93.3241 21.5308 93.6427 21.5912 93.9661 21.6747L93.4521 25.2674C92.8243 25.091 92.2298 25.0028 91.6689 25.0028C90.8795 25.0028 90.1849 25.1792 89.5856 25.5319C88.9963 25.8754 88.5397 26.3581 88.2163 26.9801C87.8925 27.5928 87.7308 28.3123 87.7308 29.1385V35.6275Z" fill="white"/>
<path d="M108.99 34.0679C107.22 35.2933 105.285 35.906 103.182 35.906C101.623 35.906 100.22 35.5811 98.9736 34.9313C97.7371 34.2721 96.7575 33.3809 96.0345 32.2577C95.3209 31.1344 94.9644 29.8672 94.9644 28.4562C94.9644 27.1101 95.2877 25.9079 95.9344 24.8496C96.5911 23.7913 97.4801 22.9558 98.6028 22.3431C99.7251 21.7304 101 21.4241 102.426 21.4241C103.901 21.4241 105.199 21.7629 106.322 22.4406C107.444 23.109 108.319 24.0466 108.947 25.2535C109.575 26.451 109.889 27.8388 109.889 29.417V29.8626H99.3733C99.5445 30.4103 99.8252 30.893 100.215 31.3108C100.605 31.7192 101.09 32.0442 101.67 32.2855C102.25 32.5269 102.916 32.6476 103.667 32.6476C105.123 32.6476 106.479 32.188 107.734 31.269L108.99 34.0679ZM99.1874 27.8296H106.107C106.031 27.2261 105.836 26.697 105.522 26.2421C105.218 25.7779 104.814 25.4159 104.31 25.156C103.815 24.896 103.259 24.766 102.641 24.766C102.013 24.766 101.451 24.9007 100.957 25.1699C100.472 25.4391 100.077 25.8011 99.7725 26.256C99.4681 26.7109 99.2732 27.2354 99.1874 27.8296Z" fill="white"/>
<path d="M125.212 35.6275H121.645L121.431 33.9704C120.908 34.5831 120.261 35.0612 119.491 35.4047C118.72 35.7389 117.873 35.906 116.951 35.906C115.952 35.906 115.063 35.7203 114.283 35.349C113.503 34.9684 112.889 34.4485 112.442 33.7894C111.995 33.121 111.772 32.3644 111.772 31.5196C111.772 30.6285 112.014 29.844 112.5 29.1663C112.985 28.4887 113.65 27.9595 114.497 27.5789C115.353 27.189 116.323 26.994 117.407 26.994C118.045 26.994 118.682 27.0637 119.32 27.2029C119.966 27.3421 120.566 27.5371 121.117 27.7878V27.4257C121.117 26.8687 120.955 26.3906 120.632 25.9914C120.318 25.583 119.88 25.2674 119.32 25.0445C118.768 24.8218 118.149 24.7104 117.465 24.7104C116.808 24.7104 116.157 24.8125 115.51 25.0167C114.873 25.221 114.283 25.5273 113.741 25.9358L112.628 22.8862C113.589 22.4035 114.559 22.0414 115.538 21.8001C116.528 21.5494 117.484 21.4241 118.406 21.4241C119.795 21.4241 120.998 21.6933 122.016 22.2317C123.034 22.7609 123.819 23.5128 124.37 24.4875C124.931 25.453 125.212 26.5995 125.212 27.927V35.6275ZM117.85 32.8286C118.392 32.8286 118.91 32.7125 119.405 32.4804C119.899 32.2484 120.299 31.9328 120.603 31.5336C120.917 31.1344 121.084 30.6935 121.103 30.2107V30.1132C120.684 29.8347 120.218 29.6212 119.704 29.4727C119.2 29.3149 118.687 29.2359 118.164 29.2359C117.384 29.2359 116.746 29.4031 116.252 29.7373C115.757 30.0715 115.51 30.5031 115.51 31.0323C115.51 31.3758 115.61 31.6868 115.81 31.9653C116.019 32.2345 116.299 32.4479 116.651 32.6058C117.003 32.7543 117.403 32.8286 117.85 32.8286Z" fill="white"/>
<path d="M151.621 35.6275H147.526V28.6372C147.526 27.4768 147.293 26.5809 146.827 25.9497C146.361 25.3184 145.699 25.0028 144.843 25.0028C143.968 25.0028 143.284 25.3231 142.788 25.9636C142.303 26.6041 142.061 27.4954 142.061 28.6372V35.6275H137.966V28.6372C137.966 27.4768 137.733 26.5809 137.267 25.9497C136.801 25.3184 136.135 25.0028 135.27 25.0028C134.404 25.0028 133.724 25.3231 133.23 25.9636C132.744 26.6041 132.502 27.4954 132.502 28.6372V35.6275H128.407V21.7026H131.674L131.817 24.0002C132.293 23.1554 132.93 22.5148 133.729 22.0786C134.537 21.6422 135.474 21.4241 136.539 21.4241C137.652 21.4241 138.613 21.6515 139.422 22.1064C140.23 22.5613 140.853 23.2157 141.291 24.0698C141.776 23.2065 142.418 22.552 143.217 22.1064C144.025 21.6515 144.981 21.4241 146.085 21.4241C147.825 21.4241 149.181 21.9672 150.151 23.0533C151.13 24.1301 151.621 25.6387 151.621 27.5789V35.6275Z" fill="white"/>
<path d="M170.462 20.4074C169.834 19.7947 169.083 19.3213 168.208 18.9871C167.342 18.6529 166.415 18.4858 165.426 18.4858C164.437 18.4858 163.533 18.6529 162.715 18.9871C161.897 19.3213 161.193 19.7993 160.604 20.4213C160.014 21.0433 159.557 21.786 159.234 22.6493C158.91 23.5034 158.749 24.4596 158.749 25.5179C158.749 26.5761 158.91 27.5462 159.234 28.4282C159.567 29.3101 160.033 30.0713 160.632 30.7118C161.241 31.3431 161.959 31.8352 162.786 32.1879C163.623 32.5407 164.546 32.717 165.554 32.717C166.391 32.717 167.157 32.5917 167.852 32.3411C168.555 32.0904 169.173 31.733 169.706 31.2689C170.239 30.8047 170.676 30.2431 171.019 29.584C171.371 28.9248 171.613 28.1868 171.747 27.3699H165.54V24.0975H175.613L175.742 25.7128C175.742 27.3003 175.489 28.7531 174.985 30.0713C174.491 31.3895 173.787 32.5267 172.874 33.4829C171.96 34.4298 170.871 35.1632 169.606 35.6831C168.351 36.2029 166.957 36.4628 165.426 36.4628C163.838 36.4628 162.363 36.189 161.003 35.6413C159.652 35.0936 158.468 34.3277 157.45 33.3437C156.442 32.3596 155.657 31.2085 155.096 29.8903C154.535 28.5628 154.255 27.1285 154.255 25.5875C154.255 24.0465 154.53 22.6215 155.082 21.3125C155.643 19.9943 156.423 18.8432 157.422 17.8591C158.43 16.8751 159.605 16.1093 160.946 15.5615C162.287 15.0138 163.747 14.74 165.326 14.74C166.8 14.74 168.227 14.9906 169.606 15.4919C170.986 15.9932 172.217 16.708 173.302 17.6363L170.462 20.4074Z" fill="white"/>
<path d="M180.549 18.7924C180.007 18.7924 179.55 18.6067 179.179 18.2353C178.808 17.864 178.623 17.4138 178.623 16.8846C178.623 16.3555 178.808 15.9099 179.179 15.5479C179.55 15.1765 180.007 14.9908 180.549 14.9908C181.101 14.9908 181.562 15.1765 181.933 15.5479C182.313 15.9099 182.504 16.3555 182.504 16.8846C182.504 17.4138 182.313 17.864 181.933 18.2353C181.562 18.6067 181.101 18.7924 180.549 18.7924ZM182.604 36.0453H178.509V22.1204H182.604V36.0453Z" fill="white"/>
<path d="M191.964 36.2123C190.679 36.2123 189.528 35.9013 188.51 35.2793C187.493 34.6481 186.694 33.794 186.114 32.7171C185.533 31.631 185.243 30.401 185.243 29.0271C185.243 27.6438 185.533 26.4138 186.114 25.3369C186.694 24.2601 187.493 23.4107 188.51 22.7887C189.528 22.1574 190.684 21.8418 191.978 21.8418C192.986 21.8418 193.908 22.0367 194.746 22.4266C195.592 22.8073 196.32 23.3364 196.929 24.0141L197.114 22.1203H200.709V35.6553C200.709 37.1963 200.362 38.5378 199.668 39.6796C198.983 40.8308 198.013 41.7173 196.757 42.3393C195.501 42.9705 194.032 43.2862 192.348 43.2862C190.009 43.2862 187.887 42.5713 185.985 41.1418L187.64 37.8833C188.905 39.0994 190.379 39.7074 192.063 39.7074C192.967 39.7074 193.756 39.5311 194.432 39.1783C195.116 38.8256 195.649 38.3335 196.03 37.7023C196.419 37.071 196.615 36.3377 196.615 35.5021V34.3603C196.025 34.9358 195.335 35.3908 194.546 35.725C193.756 36.0499 192.896 36.2123 191.964 36.2123ZM193.019 32.6475C193.685 32.6475 194.289 32.5083 194.831 32.2298C195.373 31.942 195.806 31.5475 196.129 31.0461C196.453 30.5356 196.615 29.96 196.615 29.3195V28.7207C196.615 28.0802 196.448 27.5092 196.115 27.0079C195.792 26.5066 195.359 26.1168 194.817 25.8383C194.284 25.5505 193.685 25.4066 193.019 25.4066C192.334 25.4066 191.721 25.5644 191.178 25.88C190.636 26.1956 190.208 26.6273 189.894 27.175C189.58 27.7135 189.424 28.3308 189.424 29.0271C189.424 29.7233 189.58 30.3453 189.894 30.893C190.208 31.4407 190.636 31.8724 191.178 32.188C191.721 32.4944 192.334 32.6475 193.019 32.6475Z" fill="white"/>
<path d="M203.05 34.8477L203.949 31.45C204.234 31.7563 204.614 32.0395 205.09 32.2994C205.575 32.5594 206.093 32.7682 206.645 32.926C207.206 33.0746 207.734 33.1489 208.229 33.1489C208.819 33.1489 209.28 33.0421 209.613 32.8286C209.946 32.6058 210.112 32.3087 210.112 31.9374C210.112 31.631 209.998 31.3757 209.77 31.1715C209.551 30.958 209.251 30.7723 208.871 30.6145C208.5 30.4474 208.086 30.285 207.63 30.1271C207.011 29.895 206.374 29.6258 205.718 29.3195C205.071 29.0131 204.524 28.5954 204.077 28.0662C203.63 27.5371 203.407 26.8362 203.407 25.9636C203.407 25.1281 203.63 24.404 204.077 23.7913C204.524 23.1693 205.157 22.6912 205.974 22.357C206.792 22.0135 207.744 21.8418 208.828 21.8418C210.588 21.8418 212.342 22.2735 214.093 23.1368L212.937 26.2978C212.633 26.0657 212.252 25.8522 211.796 25.6572C211.339 25.453 210.868 25.2905 210.383 25.1699C209.908 25.0492 209.48 24.9888 209.099 24.9888C208.633 24.9888 208.267 25.0817 208 25.2673C207.744 25.453 207.615 25.7083 207.615 26.0332C207.615 26.2745 207.705 26.4927 207.887 26.6877C208.067 26.8733 208.333 27.0544 208.686 27.2307C209.047 27.3979 209.489 27.5788 210.012 27.7738C210.659 28.0059 211.311 28.2844 211.967 28.6093C212.633 28.9249 213.189 29.352 213.636 29.8904C214.093 30.4195 214.321 31.1251 214.321 32.007C214.321 32.8703 214.079 33.6269 213.593 34.2767C213.118 34.9266 212.443 35.4325 211.567 35.7946C210.702 36.1473 209.684 36.3237 208.514 36.3237C206.564 36.3237 204.743 35.8317 203.05 34.8477Z" fill="white"/>
<defs>
<filter id="filter0_f_1371_61754" x="10.7537" y="40.1882" width="22.9907" height="8.8208" filterUnits="userSpaceOnUse" color-interpolation-filters="sRGB">
<feFlood flood-opacity="0" result="BackgroundImageFix"/>
<feBlend mode="normal" in="SourceGraphic" in2="BackgroundImageFix" result="shape"/>
<feGaussianBlur stdDeviation="2" result="effect1_foregroundBlur_1371_61754"/>
</filter>
<linearGradient id="paint0_linear_1371_61754" x1="25.6056" y1="0.60332" x2="28.6924" y2="51.1882" gradientUnits="userSpaceOnUse">
<stop stop-color="#FC9C56"/>
<stop offset="0.380208" stop-color="#FF852E"/>
<stop offset="0.776042" stop-color="#FF2A1F"/>
</linearGradient>
<linearGradient id="paint1_linear_1371_61754" x1="25.6064" y1="0.603319" x2="28.6931" y2="51.1882" gradientUnits="userSpaceOnUse">
<stop stop-color="#FC9C56"/>
<stop offset="0.380208" stop-color="#FF852E"/>
<stop offset="0.776042" stop-color="#FF2A1F"/>
</linearGradient>
<linearGradient id="paint2_linear_1371_61754" x1="25.6057" y1="0.603199" x2="28.6924" y2="51.1881" gradientUnits="userSpaceOnUse">
<stop stop-color="#FC9C56"/>
<stop offset="0.380208" stop-color="#FF852E"/>
<stop offset="0.776042" stop-color="#FF2A1F"/>
</linearGradient>
<linearGradient id="paint3_linear_1371_61754" x1="25.6066" y1="0.603235" x2="28.6933" y2="51.1881" gradientUnits="userSpaceOnUse">
<stop stop-color="#FC9C56"/>
<stop offset="0.380208" stop-color="#FF852E"/>
<stop offset="0.776042" stop-color="#FF2A1F"/>
</linearGradient>
<linearGradient id="paint4_linear_1371_61754" x1="25.6067" y1="0.603354" x2="28.6934" y2="51.1882" gradientUnits="userSpaceOnUse">
<stop stop-color="#FC9C56"/>
<stop offset="0.380208" stop-color="#FF852E"/>
<stop offset="0.776042" stop-color="#FF2A1F"/>
</linearGradient>
<linearGradient id="paint5_linear_1371_61754" x1="25.6067" y1="0.603429" x2="28.6934" y2="51.1883" gradientUnits="userSpaceOnUse">
<stop stop-color="#FC9C56"/>
<stop offset="0.380208" stop-color="#FF852E"/>
<stop offset="0.776042" stop-color="#FF2A1F"/>
</linearGradient>
</defs>
</svg>
