<svg width="91" height="91" viewBox="0 0 91 91" fill="none" xmlns="http://www.w3.org/2000/svg">
<circle cx="45.5" cy="45.5" r="45.5" fill="#040404"/>
<g clip-path="url(#clip0_402_31665)">
<rect width="44" height="44" transform="translate(23 23)" fill="#040404"/>
<path d="M28.5 39.5C28.5 38.5275 28.8863 37.5949 29.5739 36.9073C30.2616 36.2196 31.1942 35.8333 32.1667 35.8333H57.8333C58.8058 35.8333 59.7384 36.2196 60.4261 36.9073C61.1137 37.5949 61.5 38.5275 61.5 39.5V56C61.5 56.9724 61.1137 57.9051 60.4261 58.5927C59.7384 59.2803 58.8058 59.6666 57.8333 59.6666H32.1667C31.1942 59.6666 30.2616 59.2803 29.5739 58.5927C28.8863 57.9051 28.5 56.9724 28.5 56V39.5Z" stroke="#FEFEFE" stroke-width="4" stroke-linecap="round" stroke-linejoin="round"/>
<path d="M37.6667 35.8333V32.1667C37.6667 31.1942 38.053 30.2616 38.7406 29.5739C39.4283 28.8863 40.3609 28.5 41.3334 28.5H48.6667C49.6391 28.5 50.5718 28.8863 51.2594 29.5739C51.947 30.2616 52.3334 31.1942 52.3334 32.1667V35.8333" stroke="#FEFEFE" stroke-width="4" stroke-linecap="round" stroke-linejoin="round"/>
</g>
<defs>
<clipPath id="clip0_402_31665">
<rect width="44" height="44" fill="white" transform="translate(23 23)"/>
</clipPath>
</defs>
</svg>
