<svg width="155" height="12" viewBox="0 0 155 12" fill="none" xmlns="http://www.w3.org/2000/svg">
<path d="M1 7.71445C6.19086 8.78211 14.3909 6.79883 19.4014 5.92853C25.5123 4.86714 31.6137 3.98892 37.8029 3.15043C39.2316 2.95686 42.1701 2.11661 40.7885 3.66636C39.0716 5.59237 36.6867 7.22585 35.2437 9.26224C33.8714 11.1988 36.579 10.3616 38.595 10.056C51.0231 8.17228 63.4789 6.43396 76.0681 5.05541C77.1419 4.93781 87.1745 3.18554 88.9245 4.22198C89.5382 4.58534 85.7199 6.66505 85.4516 6.80164C84.1766 7.45032 82.8378 8.22247 81.4303 8.74632C79.7994 9.35324 85.1178 8.27679 86.9444 7.99223C95.3955 6.67601 103.53 4.73312 111.774 2.97183C112.237 2.87293 121.411 1.29099 121.249 1.52325C120.632 2.40785 113.564 7.62074 115.278 7.85337C120.494 8.56114 128.019 6.51761 132.948 5.73009C139.931 4.61444 146.889 3.42643 154 2.71387" stroke="#FF6625" stroke-width="2" stroke-linecap="round"/>
</svg>
