<svg width="163" height="48" viewBox="0 0 163 48" fill="none" xmlns="http://www.w3.org/2000/svg">
<g clip-path="url(#clip0_1494_37677)">
<path d="M64.1352 14.3628V18.1428H53.9897V22.2732H63.33V26.0802H53.9897V34.0242H49.1116V14.3628H64.1352Z" fill="white"/>
<path d="M68.121 14.3359H72.3349V17.6712H68.121V14.3359ZM68.121 19.4568H72.3349V34.0175H68.121V19.4568Z" fill="white"/>
<path d="M75.3541 19.4837H79.8498C81.628 25.9454 81.9299 27.2661 82.3996 30.0421C82.9834 26.8146 83.0706 26.4575 83.9295 23.0279L84.8152 19.4702H89.1968L84.4998 34.004H80.0444L75.3541 19.4837Z" fill="white"/>
<path d="M105.368 30.3116C104.874 31.1052 104.285 31.8359 103.617 32.488C102.12 33.8414 100.169 34.5777 98.1547 34.5498C93.8536 34.5498 90.8341 31.767 90.8341 27.0302C90.8341 23.5197 92.5519 19.0053 98.2621 19.0053C99.2273 18.9757 100.188 19.1459 101.085 19.5052C101.982 19.8646 102.796 20.4054 103.476 21.094C105.368 23.1154 105.489 25.9723 105.529 27.6097H95.1956C95.1956 29.4222 96.1887 31.228 98.5103 31.228C100.832 31.228 101.644 29.6917 102.174 28.6675L105.368 30.3116ZM101.121 24.9212C101.086 24.1636 100.803 23.4389 100.315 22.8594C99.7513 22.332 99.0058 22.0446 98.2353 22.0576C97.8295 22.055 97.4278 22.1376 97.0557 22.3C96.6836 22.4625 96.3494 22.7012 96.0746 23.0009C95.6133 23.5466 95.3156 24.2125 95.2158 24.9212H101.121Z" fill="white"/>
<path d="M109.756 15.2792H114.004V19.8206H116.802V22.4349H113.977V29.0112C113.977 29.9006 113.977 30.6754 115.084 30.6754L116.614 30.6216V33.9569C115.872 34.0913 115.12 34.1656 114.366 34.1792C112.89 34.1792 111.286 34.0983 110.34 32.7575C109.756 31.895 109.729 30.8641 109.729 29.4761V22.408H107.622V19.7869H109.729L109.756 15.2792Z" fill="white"/>
<path d="M124.478 20.9863C125.641 19.9637 127.12 19.3758 128.665 19.322V23.1222L127.256 23.3445C125.203 23.7017 124.572 24.0183 124.572 25.8511V34.0175H120.324V19.4567H124.485L124.478 20.9863Z" fill="white"/>
<path d="M131.752 23.6208C131.743 23.0011 131.877 22.3877 132.142 21.828C132.407 21.2684 132.797 20.7775 133.281 20.3933C134.623 19.3422 136.328 19.1198 138.025 19.1198C139.723 19.1198 144.111 19.5308 144.111 23.2906V31.7064C144.111 33.2696 144.192 33.4919 144.527 33.9906H140.367V32.643C139.26 33.4515 138.066 34.3746 135.939 34.3746C132.624 34.3746 131.201 31.9759 131.201 29.9275C131.201 27.5894 133.06 26.2553 134.248 25.7567C136.112 25.1559 138.022 24.7052 139.958 24.4091V23.6275C139.904 22.9537 139.85 21.842 138.3 21.842C136.415 21.842 136.16 23.0144 136.053 23.5467L131.752 23.6208ZM137.16 28.0005C136.442 28.2767 135.328 28.6743 135.328 29.8063C135.35 30.2174 135.534 30.603 135.838 30.8793C136.142 31.1556 136.542 31.3002 136.952 31.2819C137.476 31.2657 137.985 31.1023 138.421 30.8102C139.83 29.9208 139.891 28.5867 139.924 27.0774L137.16 28.0005Z" fill="white"/>
<path d="M153.264 20.7908C153.657 20.3081 154.152 19.9192 154.713 19.6521C155.547 19.3008 156.44 19.1132 157.344 19.0995C158.239 19.0776 159.126 19.2766 159.927 19.679C161.45 20.4876 161.839 21.7948 161.839 24.052V34.0174H157.599V25.8308C157.672 25.1018 157.606 24.3654 157.404 23.6612C157.236 23.3024 156.963 23.0037 156.621 22.805C156.279 22.6063 155.885 22.5171 155.492 22.5494C153.244 22.5494 153.244 24.3619 153.244 26.1677V34.0174H148.99V19.5106H153.291L153.264 20.7908Z" fill="white"/>
<path d="M23.0702 24.0385H27.5726C27.7506 24.0385 27.9212 23.9675 28.047 23.8412C28.1729 23.7148 28.2436 23.5434 28.2436 23.3647C28.2432 23.2723 28.225 23.1807 28.1899 23.0952L20.4466 1.93122C20.3988 1.8067 20.3152 1.69924 20.2065 1.62247C20.0978 1.5457 19.9688 1.50308 19.836 1.5H15.3202C15.1422 1.5 14.9716 1.57098 14.8457 1.69734C14.7199 1.8237 14.6492 1.9951 14.6492 2.1738C14.6493 2.25193 14.6629 2.32944 14.6894 2.40289L22.4394 23.6208C22.4906 23.746 22.5782 23.8528 22.6907 23.9273C22.8032 24.0018 22.9354 24.0406 23.0702 24.0385Z" fill="white"/>
<path d="M22.2716 46.5299H26.774C26.9519 46.5299 27.1226 46.4589 27.2484 46.3325C27.3743 46.2062 27.445 46.0348 27.445 45.8561C27.4449 45.778 27.4312 45.7004 27.4047 45.627L11.4417 1.94466C11.3934 1.8191 11.3089 1.71092 11.1988 1.63407C11.0888 1.55721 10.9584 1.51519 10.8244 1.51344H6.32867C6.15071 1.51344 5.98005 1.58442 5.85421 1.71078C5.72837 1.83715 5.65767 2.00854 5.65767 2.18724C5.65776 2.26537 5.67138 2.34289 5.69793 2.41633L21.661 46.1054C21.7098 46.2287 21.7938 46.3347 21.9024 46.4102C22.0111 46.4857 22.1395 46.5274 22.2716 46.5299Z" fill="white"/>
<path d="M13.4011 46.5299H17.8968C18.0658 46.5305 18.2289 46.4669 18.3533 46.352C18.4777 46.2371 18.5543 46.0792 18.5678 45.91C18.5676 45.8209 18.554 45.7323 18.5275 45.6472L10.7574 24.463C10.7096 24.3385 10.626 24.231 10.5173 24.1543C10.4086 24.0775 10.2797 24.0349 10.1468 24.0318H5.62427C5.45338 24.0421 5.29288 24.1176 5.17562 24.2429C5.05836 24.3681 4.99323 24.5337 4.99354 24.7056C4.99333 24.7794 5.00698 24.8525 5.03379 24.9212L12.7704 46.1122C12.8216 46.2374 12.9091 46.3442 13.0216 46.4187C13.1341 46.4932 13.2664 46.5319 13.4011 46.5299Z" fill="white"/>
<path d="M23.6137 2.4231L27.2438 12.3347C27.2916 12.4592 27.3751 12.5667 27.4838 12.6434C27.5926 12.7202 27.7215 12.7628 27.8544 12.7659H32.3367C32.5146 12.7659 32.6853 12.6949 32.8111 12.5685C32.9369 12.4422 33.0076 12.2708 33.0076 12.0921C33.0076 12.014 32.9939 11.9364 32.9674 11.863L29.3373 1.94469C29.2895 1.82017 29.2059 1.71271 29.0972 1.63594C28.9885 1.55917 28.8596 1.51655 28.7267 1.51347H24.2243C24.0463 1.51347 23.8757 1.58445 23.7498 1.71081C23.624 1.83717 23.5533 2.00856 23.5533 2.18727C23.559 2.26891 23.5795 2.34883 23.6137 2.4231Z" fill="white"/>
<path d="M5.10088 46.5299H9.59656C9.77452 46.5299 9.94518 46.4589 10.071 46.3326C10.1969 46.2062 10.2676 46.0348 10.2676 45.8561C10.2675 45.778 10.2538 45.7005 10.2273 45.627L6.57708 35.6885C6.52884 35.5629 6.44428 35.4548 6.33426 35.3779C6.22423 35.3011 6.09379 35.259 5.95977 35.2573H1.4708C1.29284 35.2573 1.12218 35.3283 0.996345 35.4546C0.870509 35.581 0.799805 35.7524 0.799805 35.9311C0.80005 36.0114 0.813656 36.0911 0.840063 36.1669L4.47014 46.1054C4.52028 46.2319 4.60741 46.3401 4.72 46.4159C4.83259 46.4917 4.96535 46.5314 5.10088 46.5299Z" fill="white"/>
</g>
<defs>
<clipPath id="clip0_1494_37677">
<rect width="162" height="48" fill="white" transform="translate(0.799805)"/>
</clipPath>
</defs>
</svg>
