<svg width="149" height="48" viewBox="0 0 149 48" fill="none" xmlns="http://www.w3.org/2000/svg">
<g clip-path="url(#clip0_1494_37696)">
<path d="M36.2243 33.4793C36.1596 33.834 35.9952 34.1628 35.7503 34.4273L28.1661 42.0115C28.135 42.0737 28.0919 42.1293 28.0393 42.1749C27.9867 42.2205 27.9257 42.2553 27.8597 42.2773C27.7936 42.2993 27.7239 42.3081 27.6545 42.3031C27.5851 42.2982 27.5173 42.2796 27.4551 42.2485C27.3928 42.2174 27.3373 42.1743 27.2917 42.1217C27.2461 42.0692 27.2113 42.0081 27.1893 41.9421C27.1673 41.8761 27.1585 41.8063 27.1634 41.7369C27.1684 41.6675 27.1869 41.5997 27.2181 41.5375V24.9471L36.2243 15.9409V33.4793Z" fill="white"/>
<path d="M30.0622 9.77821C30.0622 9.65249 30.0122 9.53193 29.9233 9.44303C29.8344 9.35414 29.7139 9.3042 29.5882 9.3042C29.4625 9.3042 29.3419 9.35414 29.253 9.44303C29.1641 9.53193 29.1142 9.65249 29.1142 9.77821L18.2119 21.1545V33.9528L27.2181 24.9466L36.2243 15.9403L30.0622 9.77821Z" fill="white"/>
<path d="M0.200195 33.4793C0.264863 33.834 0.429293 34.1628 0.674206 34.4273L8.25838 42.0115C8.32123 42.1372 8.43146 42.2328 8.5648 42.2773C8.69814 42.3217 8.84368 42.3114 8.96939 42.2485C9.09511 42.1856 9.1907 42.0754 9.23515 41.9421C9.2796 41.8087 9.26926 41.6632 9.2064 41.5375V24.9471L0.200195 15.9409V33.4793Z" fill="white"/>
<path d="M7.31035 9.77821C7.31035 9.65249 7.26041 9.53193 7.17152 9.44303C7.08262 9.35414 6.96206 9.3042 6.83634 9.3042C6.71063 9.3042 6.59006 9.35414 6.50117 9.44303C6.41227 9.53193 6.36233 9.65249 6.36233 9.77821L0.200195 15.9403L9.2064 24.9466L18.2126 33.9528V21.1545L7.31035 9.77821Z" fill="white"/>
<path d="M47.6016 33.4791V16.8887H51.8677V18.7848C52.3318 17.9625 53.031 17.2977 53.8755 16.8754C54.7201 16.4531 55.6715 16.2927 56.6078 16.4147C57.5036 16.4811 58.3671 16.7778 59.1145 17.2761C59.862 17.7744 60.468 18.4574 60.8739 19.2588C62.7699 17.3627 64.1919 16.4147 66.088 16.4147C69.8801 16.4147 72.2501 18.3107 72.2501 22.5768V33.4791H67.51V24.4729C67.51 22.1028 67.036 21.1548 65.14 21.1548C63.2439 21.1548 62.2959 22.1028 62.2959 24.4729V33.4791H57.0818V24.4729C57.0818 22.1028 56.6078 21.1548 55.1857 21.1548C53.7637 21.1548 52.3417 22.1028 52.3417 24.4729V33.4791H47.6016ZM77.9382 18.7848C79.1939 17.6035 80.7623 16.8075 82.457 16.4912C84.1518 16.175 85.9017 16.3518 87.4989 17.0006C89.0961 17.6495 90.4735 18.7432 91.4676 20.1517C92.4616 21.5603 93.0305 23.2246 93.1066 24.9469C93.1407 26.08 92.9487 27.2085 92.5417 28.2665C92.1348 29.3245 91.5211 30.2908 90.7365 31.109C89.9055 32.0394 88.8807 32.7762 87.7341 33.2676C86.5875 33.759 85.3472 33.993 84.1004 33.9531C82.9282 33.9557 81.7696 33.7026 80.7053 33.2114C79.641 32.7202 78.6967 32.0027 77.9382 31.109C77.1537 30.2908 76.54 29.3245 76.133 28.2665C75.7261 27.2085 75.5341 26.08 75.5682 24.9469C75.5341 23.8138 75.7261 22.6853 76.133 21.6273C76.54 20.5693 77.1537 19.6029 77.9382 18.7848ZM84.1004 29.213C85.2318 29.213 86.3169 28.7635 87.117 27.9635C87.917 27.1634 88.3665 26.0783 88.3665 24.9469C88.3665 23.8783 87.942 22.8535 87.1864 22.0979C86.4308 21.3423 85.406 20.9178 84.3374 20.9178C83.2688 20.9178 82.244 21.3423 81.4884 22.0979C80.7328 22.8535 80.3083 23.8783 80.3083 24.9469C80.3018 26.0008 80.6856 27.0198 81.3858 27.8075C82.086 28.5953 83.053 29.0959 84.1004 29.213V29.213ZM96.4247 33.4791V16.8887H101.165V18.7848C102.113 17.3627 103.535 16.4147 105.905 16.4147C109.223 16.4147 111.593 18.7848 111.593 22.5768V33.4791H106.853V24.4729C106.853 22.1028 106.379 21.1548 104.483 21.1548C102.587 21.1548 101.165 22.1028 101.165 24.4729V33.4791H96.4247ZM132.449 18.7848C133.705 17.6035 135.274 16.8075 136.968 16.4912C138.663 16.175 140.413 16.3518 142.01 17.0006C143.607 17.6495 144.985 18.7432 145.979 20.1517C146.973 21.5603 147.542 23.2246 147.618 24.9469C147.652 26.08 147.46 27.2085 147.053 28.2665C146.646 29.3245 146.032 30.2908 145.248 31.109C144.47 31.9794 143.522 32.6809 142.462 33.1701C141.402 33.6593 140.253 33.9258 139.086 33.9531C137.834 34.0278 136.583 33.8096 135.431 33.3159C134.279 32.8221 133.258 32.0665 132.449 31.109C131.665 30.2908 131.051 29.3245 130.644 28.2665C130.237 27.2085 130.045 26.08 130.079 24.9469C130.045 23.8138 130.237 22.6853 130.644 21.6273C131.051 20.5693 131.665 19.6029 132.449 18.7848V18.7848ZM139.086 29.213C140.133 29.0959 141.1 28.5953 141.8 27.8075C142.5 27.0198 142.884 26.0008 142.878 24.9469C142.878 23.8783 142.453 22.8535 141.698 22.0979C140.942 21.3423 139.917 20.9178 138.849 20.9178C137.78 20.9178 136.755 21.3423 136 22.0979C135.244 22.8535 134.82 23.8783 134.82 24.9469C134.82 26.0783 135.269 27.1634 136.069 27.9635C136.869 28.7635 137.954 29.213 139.086 29.213ZM115.385 33.4791V30.161L122.021 21.1548H115.385V16.8887H127.709V20.6808L121.547 29.213H127.709V33.4791H115.385Z" fill="white"/>
</g>
<defs>
<clipPath id="clip0_1494_37696">
<rect width="148" height="48" fill="white" transform="translate(0.200195)"/>
</clipPath>
</defs>
</svg>
