<svg width="143" height="48" viewBox="0 0 143 48" fill="none" xmlns="http://www.w3.org/2000/svg">
<g clip-path="url(#clip0_1494_37682)">
<path fill-rule="evenodd" clip-rule="evenodd" d="M3.03851 35.8519C-0.213398 32.6276 -0.213347 27.4 3.0386 24.1757L11.871 15.4183C14.6201 12.6926 18.813 12.271 22.0087 14.1536C22.9972 14.7359 22.9885 16.0717 22.1755 16.8778C21.3626 17.6839 20.0354 17.6145 18.9319 17.2945C17.5188 16.8847 15.9296 17.2323 14.8152 18.3374L5.98272 27.0947C4.35675 28.7069 4.35673 31.3207 5.98268 32.9329C7.60867 34.5451 10.245 34.5451 11.8709 32.9329L29.5357 15.4184C32.7877 12.194 38.0601 12.194 41.3121 15.4183L50.1447 24.1757C53.3966 27.3999 53.3966 32.6276 50.1447 35.8519C46.8927 39.0763 41.6202 39.0763 38.3682 35.8519L35.4241 32.9329L31.7439 36.5818C28.9949 39.3074 24.8019 39.729 21.6062 37.8464C20.6178 37.2641 20.6264 35.9283 21.4395 35.1222C22.2524 34.3161 23.5795 34.3854 24.6831 34.7055C26.0962 35.1153 27.6853 34.7676 28.7997 33.6626L32.5851 29.9095C34.153 28.3549 36.6951 28.3549 38.2631 29.9095L41.3124 32.9329C42.9383 34.545 45.5745 34.545 47.2005 32.9329C48.8265 31.3207 48.8265 28.7069 47.2005 27.0947L38.368 18.3375C36.742 16.7253 34.1058 16.7253 32.4798 18.3375L14.8151 35.852C11.563 39.0764 6.29048 39.0764 3.03851 35.8519Z" fill="white"/>
<path d="M85.8445 17.6796C83.7983 17.6796 82.2481 18.4123 81.225 19.8777C80.3259 18.4123 78.8997 17.6796 77.0085 17.6796C75.0553 17.6796 73.6291 18.3512 72.6989 19.7251V18.107H68.6995V33.3721H72.6989V24.7931C72.6989 22.5644 73.8461 21.3432 75.6133 21.3432C77.2565 21.3432 78.2176 22.4118 78.2176 24.2436V33.3721H82.2171V24.7931C82.2171 22.5644 83.2713 21.3432 85.1005 21.3432C86.7437 21.3432 87.7047 22.4118 87.7047 24.2436V33.3721H91.7043V23.9688C91.7043 20.1525 89.41 17.6796 85.8445 17.6796Z" fill="white"/>
<path d="M106.572 19.9083C105.363 18.4123 103.689 17.6796 101.519 17.6796C99.4415 17.6796 97.6744 18.4734 96.1862 20.0304C94.729 21.5874 93.9849 23.4803 93.9849 25.7396C93.9849 27.9988 94.729 29.9222 96.1862 31.4793C97.6744 33.0363 99.4415 33.7996 101.519 33.7996C103.689 33.7996 105.363 33.0668 106.572 31.5708V33.3721H110.572V18.107H106.572V19.9083ZM99.1935 28.8536C98.3874 28.0293 97.9843 26.9913 97.9843 25.7396C97.9843 24.4878 98.3874 23.4498 99.1935 22.656C99.9996 21.8317 101.023 21.4348 102.263 21.4348C103.503 21.4348 104.526 21.8317 105.332 22.656C106.169 23.4498 106.572 24.4878 106.572 25.7396C106.572 26.9913 106.169 28.0293 105.332 28.8536C104.526 29.6475 103.503 30.0443 102.263 30.0443C101.023 30.0443 99.9996 29.6475 99.1935 28.8536Z" fill="white"/>
<path d="M125.329 20.7325V18.1069H113.703V21.8011H119.934L113.392 30.7465V33.372H125.639V29.6779H118.755L125.329 20.7325Z" fill="white"/>
<path d="M142.361 27.3577C142.455 26.7776 142.516 26.2586 142.516 25.7396C142.516 23.4498 141.773 21.5569 140.285 19.9999C138.828 18.4428 136.936 17.6796 134.673 17.6796C132.285 17.6796 130.302 18.4428 128.782 19.9999C127.263 21.5264 126.487 23.4498 126.487 25.7396C126.487 28.0599 127.263 29.9833 128.813 31.5097C130.363 33.0363 132.41 33.7996 134.983 33.7996C137.959 33.7996 140.223 32.7004 141.742 30.5328L138.518 28.701C137.742 29.7085 136.564 30.2275 135.045 30.2275C132.658 30.2275 131.201 29.2811 130.673 27.3577H142.361ZM130.612 24.3046C131.076 22.3507 132.533 21.2211 134.673 21.2211C136.502 21.2211 138.052 22.2286 138.518 24.3046H130.612Z" fill="white"/>
</g>
<defs>
<clipPath id="clip0_1494_37682">
<rect width="142" height="48" fill="white" transform="translate(0.599609)"/>
</clipPath>
</defs>
</svg>
