<svg width="169" height="48" viewBox="0 0 169 48" fill="none" xmlns="http://www.w3.org/2000/svg">
<g clip-path="url(#clip0_1496_36820)">
<path fill-rule="evenodd" clip-rule="evenodd" d="M44.8464 10.1057L30.6003 37.9552H17.2192L23.1812 26.4131H22.9138C17.9952 32.7981 10.6566 37.0013 0.200195 37.9552V26.5729C0.200195 26.5729 6.8894 26.1779 10.8218 22.0435H0.200195V10.1059H12.1377V19.9244L12.4057 19.9233L17.2838 10.1059H26.3118V19.8621L26.5798 19.8617L31.6408 10.1057H44.8464Z" fill="white"/>
<path d="M122.531 34.8814H126.375V12.8135H122.531V34.8814Z" fill="white"/>
<path fill-rule="evenodd" clip-rule="evenodd" d="M101.336 34.656C102.172 35.0034 103.021 35.177 103.885 35.177C105.312 35.177 106.589 34.8297 107.715 34.135C108.842 33.4402 109.715 32.4825 110.335 31.2621C110.955 30.0321 111.264 28.638 111.264 27.0794C111.264 25.5209 110.945 24.1267 110.307 22.8968C109.668 21.6669 108.781 20.714 107.645 20.038C106.509 19.3526 105.218 19.0146 103.772 19.024C102.852 19.024 101.97 19.2024 101.125 19.5592C100.28 19.9159 99.5757 20.4229 99.0123 21.0801C98.9688 21.1302 98.9266 21.1807 98.8856 21.2317V12.8276H95.0268V34.8814H98.8574L98.8497 32.8211C98.9488 32.9426 99.0547 33.0612 99.1673 33.1772C99.7775 33.8064 100.5 34.2993 101.336 34.656ZM105.279 31.093C104.65 31.4779 103.932 31.6705 103.125 31.6705C102.326 31.6705 101.594 31.4733 100.928 31.0789C100.261 30.6752 99.7305 30.126 99.3362 29.4313C98.9513 28.7365 98.7589 27.9479 98.7589 27.0654C98.7494 26.1828 98.9372 25.3942 99.3221 24.6994C99.7165 23.9953 100.247 23.4507 100.913 23.0658C101.58 22.6715 102.317 22.479 103.125 22.4884C103.932 22.479 104.65 22.6668 105.279 23.0517C105.918 23.4273 106.406 23.9671 106.744 24.6712C107.091 25.366 107.265 26.1641 107.265 27.0654C107.265 27.9666 107.091 28.7647 106.744 29.4594C106.406 30.1542 105.918 30.6987 105.279 31.093Z" fill="white"/>
<path d="M50.416 14.1514H54.8099L58.7404 28.5056L62.9217 14.1514H66.5832L71.1179 28.2175L74.892 14.1514H78.9197L72.9768 34.8814H69.1884L64.5774 21.1398L60.3444 34.8814H56.5138L50.416 14.1514Z" fill="white"/>
<path fill-rule="evenodd" clip-rule="evenodd" d="M85.4083 35.2475C83.8779 35.2568 82.4978 34.9188 81.2678 34.2335C80.0474 33.5388 79.0851 32.5764 78.3809 31.3466C77.6862 30.1166 77.3387 28.713 77.3387 27.1357C77.3387 25.6055 77.6956 24.2206 78.4091 22.9813C79.1225 21.742 80.0897 20.775 81.3101 20.0802C82.5306 19.3855 83.8919 19.0381 85.3942 19.0381C87.0841 19.0381 88.5628 19.4136 89.8303 20.1647C91.1071 20.9158 92.0601 21.9814 92.6891 23.3615C93.3275 24.7323 93.5575 26.3049 93.3792 28.0792H81.3161C81.3498 28.7862 81.5262 29.4294 81.8453 30.0086C82.2021 30.647 82.6997 31.1447 83.338 31.5014C83.9764 31.8581 84.69 32.0365 85.4787 32.0365C86.0795 32.0272 86.6381 31.9239 87.1545 31.7268C87.6709 31.5203 88.1074 31.2432 88.4643 30.8959C88.8303 30.5485 89.0885 30.1542 89.2387 29.713H93.2665C93.0224 30.7926 92.5342 31.755 91.8019 32.5999C91.0695 33.4354 90.1494 34.0879 89.0416 34.5574C87.9337 35.0268 86.7226 35.2568 85.4083 35.2475ZM81.8594 24.2065C81.6343 24.5989 81.4785 25.0214 81.3918 25.474H89.388C89.33 24.9021 89.1535 24.3811 88.8585 23.9108C88.5206 23.3569 88.0605 22.9297 87.4784 22.6292C86.8963 22.3194 86.2392 22.1645 85.5068 22.1645C84.7276 22.1645 84.0188 22.3429 83.3804 22.6996C82.7419 23.0564 82.2348 23.5587 81.8594 24.2065Z" fill="white"/>
<path d="M114.095 19.362C114.095 18.1039 114.381 16.9867 114.954 16.0103C115.527 15.0245 116.33 14.2593 117.362 13.7148C118.404 13.1608 119.62 12.8745 121.01 12.8557V16.2779C120.362 16.2872 119.808 16.4234 119.348 16.6863C118.897 16.9397 118.55 17.3106 118.306 17.7988C118.081 18.2483 117.96 18.7693 117.942 19.362H120.925V22.6151H117.94V34.8814H114.095V22.6151H111.616V19.362H114.095Z" fill="white"/>
<path fill-rule="evenodd" clip-rule="evenodd" d="M136.149 35.2194C134.581 35.2194 133.177 34.8766 131.938 34.1913C130.708 33.4965 129.741 32.5388 129.037 31.3184C128.342 30.0884 127.995 28.6943 127.995 27.1357C127.995 25.5679 128.342 24.169 129.037 22.9391C129.741 21.6998 130.708 20.7374 131.938 20.0521C133.177 19.3667 134.581 19.024 136.149 19.024C137.726 19.024 139.134 19.3667 140.374 20.0521C141.622 20.7374 142.594 21.6951 143.289 22.925C143.983 24.1549 144.335 25.5585 144.345 27.1357C144.335 28.6943 143.983 30.0884 143.289 31.3184C142.603 32.5388 141.636 33.4965 140.388 34.1913C139.139 34.8766 137.726 35.2194 136.149 35.2194ZM136.149 31.6846C136.975 31.6846 137.707 31.4968 138.346 31.1212C138.984 30.7363 139.477 30.201 139.824 29.5157C140.172 28.821 140.345 28.0277 140.345 27.1357C140.345 26.2345 140.172 25.4364 139.824 24.7417C139.477 24.0469 138.984 23.5118 138.346 23.1362C137.707 22.7513 136.975 22.5588 136.149 22.5588C135.332 22.5588 134.604 22.7513 133.966 23.1362C133.337 23.5118 132.849 24.0469 132.501 24.7417C132.154 25.4364 131.985 26.2345 131.994 27.1357C131.994 28.0277 132.168 28.821 132.515 29.5157C132.872 30.201 133.36 30.7363 133.98 31.1212C134.609 31.4968 135.332 31.6846 136.149 31.6846Z" fill="white"/>
<path d="M148.499 19.362H144.218L148.851 34.8814H152.597L155.645 24.9692L158.935 34.8814H162.625L167.272 19.362H163.4L160.764 29.0218L157.851 19.362H154.104L151.205 29.2347L148.499 19.362Z" fill="white"/>
</g>
<defs>
<clipPath id="clip0_1496_36820">
<rect width="168" height="48" fill="white" transform="translate(0.200195)"/>
</clipPath>
</defs>
</svg>
