<svg width="146" height="48" viewBox="0 0 146 48" fill="none" xmlns="http://www.w3.org/2000/svg">
<g clip-path="url(#clip0_1496_36818)">
<path d="M11.4304 12.7407C17.3993 12.7407 22.2612 17.6025 22.2612 23.6196C22.2612 29.6367 17.3993 34.4985 11.4304 34.4985C5.46142 34.4985 0.599609 29.6848 0.599609 23.6196C0.599609 17.5544 5.46142 12.7407 11.4304 12.7407ZM96.3436 12.5V31.5622C96.3436 33.0063 96.9213 33.3914 98.0284 33.6802L98.0765 33.9209H91.9632V31.5622C91.2411 33.2951 89.7489 34.3541 87.8234 34.3541C84.5501 34.3541 82.384 31.3696 82.384 26.941C82.384 24.4379 83.106 22.3199 84.4538 20.7314C85.7535 19.191 87.5346 18.3727 89.5082 18.3727C90.4709 18.3727 91.2893 18.5652 91.9632 18.9985V16.3991C91.9632 15.8214 91.8188 15.4363 91.53 15.1475C91.1449 14.8106 90.5191 14.6662 89.5563 14.7624H89.5082V14.5217L96.3436 12.5ZM119.546 18.4208V31.5622C119.546 33.0063 120.123 33.3914 121.23 33.6802V33.9209H115.117V31.514C114.395 33.2469 112.806 34.3541 111.025 34.3541C108.907 34.3541 107.559 33.3913 107.03 31.514L106.934 31.0326C106.837 30.5513 106.789 30.0699 106.789 29.5885V22.5606C106.789 21.0202 106.452 20.5388 105.105 20.4426H105.056V20.2019L111.17 18.4208V29.4923C111.17 31.1289 111.892 32.0435 113.24 32.0435C114.058 32.0435 114.732 31.6103 115.117 30.8882V22.5606C115.117 20.9721 114.828 20.4907 113.721 20.3944H113.673V20.1537L119.546 18.4208ZM75.4041 18.3727C77.0408 18.3727 78.6293 18.9503 79.6883 19.9612C80.8917 21.1165 81.5175 22.8013 81.5656 25.0156V25.0637H72.3715C72.179 28.2407 74.1526 30.8401 76.752 30.9364C78.6293 31.0808 80.266 29.9255 81.1805 28.0482L81.4212 28.1444C80.8917 31.6584 78.8218 34.3059 75.2116 34.3059C71.12 34.3059 68.8094 30.8882 68.7131 26.6041V25.4969C68.9057 23.6196 69.4833 21.9348 70.4942 20.6832C71.12 19.9131 71.842 19.3354 72.7085 18.9503C73.4305 18.5652 74.4895 18.3727 75.356 18.3727H75.4041ZM139.089 18.4208C141.688 18.4208 143.277 20.0575 143.277 22.8494V31.8028C143.277 32.8618 143.758 33.3914 144.962 33.6802H145.01V33.9209H138.848V22.9938C138.848 21.2609 138.223 20.3944 136.923 20.3944C135.864 20.3944 135.334 21.1646 135.046 21.8385C135.094 22.1755 135.142 22.5124 135.142 22.8494V31.9472C135.142 33.0544 135.479 33.4395 136.442 33.6802H136.49V33.9209H130.761V22.9938C130.761 21.2609 130.087 20.3944 128.836 20.3944C127.825 20.3944 127.296 21.1165 127.055 21.6941V31.9954C127.055 33.1025 127.392 33.4876 128.355 33.7283H128.403V33.969H122.674V22.5124C122.674 20.9721 122.289 20.4907 120.99 20.3944H120.942V20.1537L127.055 18.469V21.0202C127.681 19.3836 129.125 18.4208 130.954 18.4208C133.024 18.4208 134.468 19.4317 134.949 21.2609C135.575 19.528 137.164 18.4208 139.089 18.4208ZM51.2876 13.4627L57.0159 26.8929L62.7442 13.4627H68.9057L68.8575 13.7034L68.7876 13.719C67.7261 13.9609 67.1727 14.3579 67.1727 15.677V32.0435C67.269 33.1025 67.8467 33.4395 68.8575 33.6802H68.9057V33.9209H61.0594V33.6802H61.1075C62.1184 33.4395 62.696 33.1025 62.7923 32.0435V16.1103L55.2348 33.8727H54.8016L47.4367 16.5916V31.6584C47.4367 33.0063 48.0143 33.3914 49.1215 33.632H49.1696V33.8727H44.6447V33.632H44.6929C45.8 33.3914 46.3777 33.0063 46.3777 31.6584V15.677C46.3777 14.3292 45.8 13.9441 44.6929 13.7034H44.6447V13.4627H51.2876ZM103.805 18.4208V31.5622L103.806 31.651C103.829 33.0223 104.406 33.3974 105.49 33.6802L105.538 33.9209H99.4244V22.5606C99.4244 21.0202 99.0874 20.5388 97.7396 20.4426H97.6915V20.2019L103.805 18.4208ZM28.7596 13.3665C31.696 13.3665 34.1509 17.9876 34.1509 23.6196C34.1509 29.2997 31.7441 33.8727 28.7596 33.8727C25.7751 33.8727 23.3683 29.2997 23.3683 23.6196C23.3683 17.9395 25.7751 13.3665 28.7596 13.3665ZM37.0391 14.4255C38.1463 14.4255 38.9646 18.5652 38.9646 23.6196C38.9646 28.674 38.0981 32.8137 37.0391 32.8137C35.9907 32.8137 35.131 28.7563 35.1139 23.7709L35.1137 23.6196C35.1137 18.5652 35.9801 14.4255 37.0391 14.4255ZM90.2303 19.2391C88.3048 19.2391 87.1014 21.7904 87.1014 25.7376C87.1014 27.6149 87.4383 29.2516 88.016 30.3587C88.5455 31.4177 89.3157 31.9954 90.1821 31.9954C91.0486 31.9954 91.6744 31.6103 91.9632 30.8882V20.2982C91.6262 19.6242 91.0004 19.2391 90.2303 19.2391ZM75.356 19.2873C73.6231 19.2873 72.6122 21.3572 72.4678 24.2454V24.2935H77.7147C77.811 22.0311 77.4259 20.5388 76.7038 19.8168C76.3187 19.4798 75.8855 19.2873 75.356 19.2873ZM101.446 12.6444C102.842 12.6444 103.901 13.7034 103.901 15.0994C103.901 16.4954 102.842 17.5544 101.446 17.5544C100.05 17.5544 98.9911 16.4954 98.9911 15.0994C98.9911 13.7034 100.05 12.6444 101.446 12.6444Z" fill="white"/>
</g>
<defs>
<clipPath id="clip0_1496_36818">
<rect width="145" height="48" fill="white" transform="translate(0.599609)"/>
</clipPath>
</defs>
</svg>
