<svg width="119" height="48" viewBox="0 0 119 48" fill="none" xmlns="http://www.w3.org/2000/svg">
<path d="M62.1444 17.0814C61.1714 16.2641 59.4978 15.8554 57.1236 15.8554H51.7915V32.3384H55.7809V27.1619H57.5712C59.7313 27.1619 61.3271 26.6754 62.339 25.7218C63.4872 24.6515 64.0516 23.2309 64.0516 21.4405C64.0516 19.6113 63.4094 18.1517 62.1444 17.0814ZM57.4545 23.4255H55.7614V19.5723H57.2793C59.1281 19.5723 60.0427 20.2145 60.0427 21.5184C60.0622 22.7833 59.1864 23.4255 57.4545 23.4255ZM70.8627 15.8359H66.7176V32.3189H75.6889V28.5825H70.8627V15.8359ZM83.8428 15.8359L77.3041 32.3189H81.78L82.6363 29.9253H88.3187L89.0971 32.3189H93.6314L87.1511 15.8359H83.8428ZM83.7844 26.5976L85.4969 20.954L87.19 26.5976H83.7844Z" fill="white"/>
<path d="M95.7139 32.3193H99.8784V15.8364H95.7139V32.3193ZM116.011 18.9306C115.486 18.1716 114.805 17.5294 114.026 17.0234C112.761 16.2256 111.049 15.8364 108.889 15.8364H103.401V32.3193H109.803C112.119 32.3193 113.987 31.5604 115.388 30.0425C116.79 28.5245 117.49 26.5201 117.49 24.0097C117.51 22.0248 117.004 20.3317 116.011 18.9306ZM109.356 28.5829H107.585V19.5728H109.395C110.659 19.5728 111.652 19.962 112.333 20.7598C113.014 21.5577 113.364 22.6864 113.364 24.146C113.345 27.1039 112.022 28.5829 109.356 28.5829ZM18.0085 2L4.52239 5.52234L0.805451 19.0862L5.47595 23.854L0.74707 28.544L4.24994 42.1663L17.6776 45.9222L22.4065 41.2322L27.0576 46L40.5436 42.4777L44.2606 28.9138L39.6095 24.146L44.3384 19.456L40.8355 5.8337L27.4078 2.07784L22.679 6.7678L18.0085 2ZM9.73778 8.13003L16.8408 6.26183L19.9545 9.45334L15.4202 13.9487L9.73778 8.13003ZM25.3256 9.51172L28.4782 6.37859L35.5423 8.36356L29.7625 14.1044C29.782 14.0849 25.3256 9.51172 25.3256 9.51172ZM5.06728 17.977L7.03278 10.835L12.7152 16.6537L8.18095 21.1491L5.06728 17.977ZM32.4481 16.8288L38.2278 11.088L40.0766 18.2689L36.924 21.402C36.9045 21.402 32.4481 16.8288 32.4481 16.8288ZM18.0863 16.7121L22.6206 12.2167L27.077 16.7899L22.5427 21.2853L18.0863 16.7121ZM10.847 23.893L15.3813 19.3976L19.8377 23.9708L15.3035 28.4662L10.847 23.893ZM25.2088 24.0097L29.7431 19.5144L34.1995 24.0876L29.6652 28.5829C29.6652 28.6024 25.2088 24.0097 25.2088 24.0097ZM4.98944 29.7311L8.14203 26.598L12.5985 31.1712L6.83818 36.912C6.81872 36.912 4.98944 29.7311 4.98944 29.7311ZM17.9695 31.2101L22.5038 26.7147L26.9602 31.2879L22.426 35.7833L17.9695 31.2101ZM32.3313 31.3268L36.8656 26.8315L39.9793 30.023L38.0332 37.165C38.0138 37.165 32.3313 31.3268 32.3313 31.3268ZM9.4848 39.6364L15.2451 33.8956L19.7015 38.4688L16.5489 41.6019L9.4848 39.6364ZM25.0921 38.5272L29.6263 34.0318L35.3088 39.8505L28.2057 41.7187L25.0921 38.5272Z" fill="white"/>
</svg>
