<svg width="103" height="26" viewBox="0 0 103 26" fill="none" xmlns="http://www.w3.org/2000/svg">
<path d="M5.53603 12.5744L1.78125 7.41882L11.8937 0L11.9362 2.87992C11.9652 4.84462 11.208 6.74156 9.82847 8.16019L5.53603 12.5744Z" fill="url(#paint0_linear_5235_13963)"/>
<path d="M9.8276 8.16019C11.2071 6.74156 11.9643 4.84462 11.9353 2.87992L11.8929 0L23.0174 4.13906L21.3419 13.8771L6.9582 17.0221L5.53516 12.5744L9.8276 8.16019Z" fill="url(#paint1_linear_5235_13963)"/>
<path d="M17.977 23.9996L6.95996 17.02L21.3437 13.875L24.0667 16.2595L17.977 23.9996Z" fill="url(#paint2_linear_5235_13963)"/>
<path d="M21.3418 13.8708L24.0648 16.2553L25.1516 11.9931C25.6314 10.1107 25.3498 8.11816 24.3656 6.43691L23.0173 4.13281L21.3418 13.8708Z" fill="url(#paint3_linear_5235_13963)"/>
<path d="M6.95972 16.9966L17.9768 23.9763L10.315 23.4222C8.4089 23.2843 6.62589 22.4423 5.32265 21.0645L0 15.4375L6.95972 16.9966Z" fill="url(#paint4_linear_5235_13963)"/>
<path d="M1.78189 7.4375L0 15.4816L6.95971 17.0407L5.53667 12.5931L1.78189 7.4375Z" fill="url(#paint5_linear_5235_13963)"/>
<path d="M17.978 23.9996L6.96094 17.02L21.3446 13.875L24.0676 16.2595L17.978 23.9996Z" fill="black" fill-opacity="0.17"/>
<path d="M21.3418 13.8708L24.0648 16.2553L25.1516 11.9931C25.6314 10.1107 25.3498 8.11816 24.3656 6.43691L23.0173 4.13281L21.3418 13.8708Z" fill="black" fill-opacity="0.1"/>
<path d="M6.95972 16.9966L17.9768 23.9763L10.1641 23.3197C8.29772 23.1628 6.5563 22.3308 5.2753 20.9839L0 15.4375L6.95972 16.9966Z" fill="black" fill-opacity="0.23"/>
<path d="M1.7819 7.4375L0 15.4816L6.95973 17.0407L5.53666 12.5931L1.7819 7.4375Z" fill="#C0C0C0" fill-opacity="0.05"/>
<path d="M8.00367 14.7286C7.71151 13.5893 7.61997 12.5383 7.72905 11.5755C7.83685 10.6077 8.18536 9.77936 8.77459 9.09034C9.36761 8.39509 10.2218 7.90853 11.3372 7.63068C11.7327 7.53216 12.1675 7.45044 12.6417 7.38547C13.1146 7.31553 13.5844 7.27557 14.0511 7.26562C14.3659 7.35734 14.6472 7.46537 14.8948 7.58972C15.1462 7.70784 15.3972 7.86595 15.6475 8.06407C15.7385 8.41883 15.8108 8.90051 15.8644 9.50913C15.918 10.1177 15.936 10.6927 15.9184 11.234C15.9059 11.774 15.8529 12.1354 15.7595 12.3182C15.6444 12.416 15.5444 12.4887 15.4595 12.5364C15.3734 12.5792 15.234 12.6245 15.0413 12.6725C14.803 12.7319 14.5755 12.7699 14.3586 12.7867C14.1418 12.8035 13.9724 12.7952 13.8506 12.7618L12.9366 10.3022C12.551 10.292 11.9628 10.3853 11.1719 10.5824C10.9995 10.6253 10.8734 10.6594 10.7935 10.6846C10.7524 11.4284 10.8684 12.3856 11.1416 13.5562L11.2166 13.8485C11.4075 14.593 11.6242 15.2381 11.8666 15.7837C12.0286 16.1421 12.1581 16.4155 12.255 16.604C12.3569 16.7912 12.4575 16.931 12.5567 17.0232C12.6596 17.1092 12.7669 17.1383 12.8784 17.1105C13.2739 17.012 13.5916 16.7893 13.8317 16.4425C14.0769 16.0943 14.2572 15.6827 14.3726 15.2074L13.8924 14.1867C14.5002 13.8014 15.1279 13.5254 15.7756 13.3588C16.0899 13.2805 16.3727 13.2472 16.6238 13.2591C16.875 13.2709 17.0674 13.3692 17.2011 13.5539C17.2944 14.3174 17.3723 15.2628 17.4349 16.3902C17.4975 17.5175 17.505 18.2094 17.4575 18.4657C17.1586 18.6465 16.8571 18.7748 16.5529 18.8505C16.3957 18.8897 16.2252 18.9189 16.0414 18.9381C15.8626 18.9561 15.7009 18.9565 15.5562 18.9393C15.5139 18.7745 15.3981 18.386 15.2088 17.774L15.0438 17.225L14.8231 17.2162C14.6219 17.883 14.3494 18.4505 14.0057 18.9189C13.6606 19.3823 13.2321 19.6778 12.72 19.8053C12.0609 19.9695 11.429 19.8718 10.8243 19.512C10.2197 19.1523 9.67461 18.5625 9.18924 17.7425C8.70257 16.9174 8.30739 15.9128 8.00367 14.7286Z" fill="#FFB991"/>
<path d="M7.31813 14.7286C7.02596 13.5893 6.93442 12.5383 7.04351 11.5755C7.1513 10.6077 7.49984 9.77936 8.08907 9.09034C8.68209 8.39509 9.53631 7.90853 10.6517 7.63068C11.0472 7.53216 11.482 7.45044 11.9562 7.38547C12.4291 7.31553 12.8989 7.27557 13.3656 7.26562C13.6804 7.35734 13.9616 7.46537 14.2093 7.58972C14.4607 7.70784 14.7116 7.86595 14.962 8.06407C15.053 8.41883 15.1253 8.90051 15.1789 9.50913C15.2325 10.1177 15.2505 10.6927 15.2329 11.234C15.2203 11.774 15.1674 12.1354 15.074 12.3182C14.9588 12.416 14.8588 12.4887 14.774 12.5364C14.6878 12.5792 14.5484 12.6245 14.3558 12.6725C14.1175 12.7319 13.8899 12.7699 13.6731 12.7867C13.4562 12.8035 13.2869 12.7952 13.1651 12.7618L12.2511 10.3022C11.8655 10.292 11.2772 10.3853 10.4863 10.5824C10.3139 10.6253 10.1878 10.6594 10.108 10.6846C10.0668 11.4284 10.1828 12.3856 10.4561 13.5562L10.5311 13.8485C10.722 14.593 10.9387 15.2381 11.1811 15.7837C11.3431 16.1421 11.4726 16.4155 11.5694 16.604C11.6714 16.7912 11.772 16.931 11.8711 17.0232C11.9741 17.1092 12.0813 17.1383 12.1929 17.1105C12.5884 17.012 12.9061 16.7893 13.1462 16.4425C13.3913 16.0943 13.5716 15.6827 13.6871 15.2074L13.2069 14.1867C13.8146 13.8014 14.4424 13.5254 15.0901 13.3587C15.4044 13.2805 15.6871 13.2472 15.9383 13.2591C16.1895 13.2709 16.3819 13.3692 16.5155 13.5539C16.6089 14.3174 16.6868 15.2628 16.7494 16.3902C16.812 17.5175 16.8195 18.2094 16.772 18.4657C16.4731 18.6465 16.1716 18.7748 15.8674 18.8505C15.7102 18.8897 15.5397 18.9189 15.3558 18.9381C15.177 18.9561 15.0153 18.9565 14.8707 18.9393C14.8284 18.7745 14.7126 18.386 14.5233 17.774L14.3582 17.225L14.1375 17.2162C13.9363 17.883 13.6639 18.4505 13.3201 18.9189C12.9751 19.3823 12.5465 19.6778 12.0344 19.8053C11.3753 19.9695 10.7435 19.8718 10.1388 19.512C9.53411 19.1523 8.98909 18.5625 8.50369 17.7425C8.01702 16.9174 7.62184 15.9128 7.31813 14.7286Z" fill="white"/>
<path d="M13.3778 6.04032C14.3194 6.04032 15.0828 5.28801 15.0828 4.36C15.0828 3.43199 14.3194 2.67969 13.3778 2.67969C12.4362 2.67969 11.6729 3.43199 11.6729 4.36C11.6729 5.28801 12.4362 6.04032 13.3778 6.04032Z" fill="#FFB990"/>
<path d="M12.9696 6.19657C13.9112 6.19657 14.6746 5.44426 14.6746 4.51625C14.6746 3.58824 13.9112 2.83594 12.9696 2.83594C12.028 2.83594 11.2646 3.58824 11.2646 4.51625C11.2646 5.44426 12.028 6.19657 12.9696 6.19657Z" fill="white"/>
<path d="M15.6638 20.6959C15.9398 20.6959 16.1635 20.4754 16.1635 20.2034C16.1635 19.9314 15.9398 19.7109 15.6638 19.7109C15.3878 19.7109 15.1641 19.9314 15.1641 20.2034C15.1641 20.4754 15.3878 20.6959 15.6638 20.6959Z" fill="white"/>
<path d="M17.0632 20.5085C17.3392 20.5085 17.5629 20.2879 17.5629 20.0159C17.5629 19.7439 17.3392 19.5234 17.0632 19.5234C16.7872 19.5234 16.5635 19.7439 16.5635 20.0159C16.5635 20.2879 16.7872 20.5085 17.0632 20.5085Z" fill="white"/>
<g filter="url(#filter0_f_5235_13963)">
<path d="M10.5639 21.2768C12.551 21.2768 14.1619 21.1886 14.1619 21.0798C14.1619 20.971 12.551 20.8828 10.5639 20.8828C8.57672 20.8828 6.96582 20.971 6.96582 21.0798C6.96582 21.1886 8.57672 21.2768 10.5639 21.2768Z" fill="#170C0C" fill-opacity="0.2"/>
</g>
<path d="M29.2676 16.7923V6.76562H32.6303C33.8724 6.76562 34.9475 6.9706 35.8563 7.3806C36.7649 7.79057 37.4679 8.36989 37.9657 9.11856C38.4635 9.8672 38.7122 10.754 38.7122 11.779C38.7122 12.7994 38.4635 13.6863 37.9657 14.4394C37.4679 15.188 36.7649 15.7673 35.8563 16.1773C34.9475 16.5873 33.8724 16.7923 32.6303 16.7923H29.2676ZM31.377 14.9942H32.7057C33.5275 14.9942 34.224 14.8694 34.7946 14.6199C35.37 14.3658 35.806 14.0004 36.1028 13.5236C36.4042 13.0423 36.5548 12.4608 36.5548 11.779C36.5548 11.0927 36.4042 10.5111 36.1028 10.0343C35.806 9.5575 35.37 9.1943 34.7946 8.94475C34.224 8.69074 33.5275 8.56373 32.7057 8.56373H31.377V14.9942Z" fill="white"/>
<path d="M42.0007 16.7869H40.0352V10.1024H41.7474L41.8159 11.2589C42.0442 10.8533 42.3546 10.5369 42.7472 10.3097C43.1401 10.0824 43.5898 9.96875 44.0967 9.96875C44.2428 9.96875 44.3889 9.97989 44.535 10.0022C44.6857 10.02 44.8386 10.049 44.9939 10.0891L44.7471 11.8137C44.4458 11.729 44.1604 11.6867 43.8911 11.6867C43.5122 11.6867 43.1787 11.7713 42.8911 11.9407C42.6082 12.1055 42.389 12.3373 42.2338 12.6359C42.0783 12.93 42.0007 13.2753 42.0007 13.6719V16.7869Z" fill="white"/>
<path d="M52.2062 16.0382C51.3568 16.6265 50.4278 16.9206 49.4186 16.9206C48.6698 16.9206 47.9963 16.7646 47.3982 16.4527C46.8046 16.1363 46.3344 15.7085 45.9873 15.1693C45.6448 14.6301 45.4736 14.0218 45.4736 13.3444C45.4736 12.6982 45.6289 12.1211 45.9393 11.6131C46.2545 11.1051 46.6813 10.704 47.2202 10.4099C47.759 10.1158 48.3707 9.96875 49.0556 9.96875C49.7634 9.96875 50.3866 10.1314 50.9255 10.4567C51.4643 10.7776 51.8844 11.2277 52.1858 11.807C52.4871 12.3818 52.6378 13.0481 52.6378 13.8056V14.0195H47.5901C47.6722 14.2825 47.807 14.5142 47.9941 14.7147C48.1814 14.9108 48.4142 15.0668 48.6928 15.1826C48.9711 15.2985 49.2909 15.3564 49.6514 15.3564C50.3502 15.3564 51.0009 15.1358 51.6036 14.6947L52.2062 16.0382ZM47.5008 13.0436H50.8227C50.7863 12.754 50.6925 12.4999 50.5418 12.2816C50.3957 12.0588 50.2018 11.885 49.9598 11.7602C49.7222 11.6354 49.4553 11.573 49.1585 11.573C48.8571 11.573 48.5876 11.6376 48.3503 11.7669C48.1174 11.8961 47.9278 12.0699 47.7817 12.2883C47.6356 12.5066 47.5421 12.7584 47.5008 13.0436Z" fill="white"/>
<path d="M59.9908 16.7869H58.2786L58.1757 15.9915C57.9247 16.2856 57.6142 16.5151 57.2444 16.68C56.8745 16.8404 56.468 16.9206 56.0251 16.9206C55.5458 16.9206 55.1188 16.8315 54.7444 16.6532C54.37 16.4705 54.0755 16.2209 53.8609 15.9046C53.6463 15.5837 53.5391 15.2205 53.5391 14.815C53.5391 14.3872 53.6554 14.0106 53.8884 13.6853C54.1213 13.36 54.4408 13.106 54.8471 12.9233C55.2581 12.7361 55.7238 12.6425 56.2443 12.6425C56.5502 12.6425 56.8563 12.676 57.1622 12.7428C57.4727 12.8096 57.7603 12.9032 58.025 13.0236V12.8498C58.025 12.5824 57.9474 12.3529 57.7922 12.1613C57.6415 11.9652 57.4314 11.8137 57.1622 11.7067C56.8973 11.5998 56.6005 11.5463 56.2718 11.5463C55.9566 11.5463 55.6439 11.5953 55.3334 11.6934C55.0276 11.7914 54.7444 11.9384 54.4843 12.1345L53.9499 10.6706C54.4112 10.4389 54.8769 10.2651 55.3471 10.1492C55.8221 10.0289 56.2809 9.96875 56.7239 9.96875C57.3905 9.96875 57.9681 10.098 58.4566 10.3564C58.9452 10.6105 59.3219 10.9714 59.5866 11.4393C59.8561 11.9028 59.9908 12.4532 59.9908 13.0904V16.7869ZM56.4566 15.4433C56.717 15.4433 56.9658 15.3876 57.2032 15.2762C57.4405 15.1648 57.6324 15.0133 57.7785 14.8217C57.9292 14.6301 58.0091 14.4184 58.0182 14.1867V14.1399C57.8172 14.0062 57.5935 13.9037 57.347 13.8324C57.1051 13.7566 56.8586 13.7187 56.6073 13.7187C56.2329 13.7187 55.927 13.799 55.6896 13.9594C55.4523 14.1198 55.3334 14.327 55.3334 14.581C55.3334 14.7459 55.3815 14.8952 55.4773 15.0289C55.5777 15.1581 55.7124 15.2606 55.8813 15.3364C56.0504 15.4077 56.242 15.4433 56.4566 15.4433Z" fill="white"/>
<path d="M72.6699 16.7869H70.7041V13.4313C70.7041 12.8743 70.5923 12.4442 70.3686 12.1412C70.1449 11.8382 69.8274 11.6867 69.4166 11.6867C68.9964 11.6867 68.6678 11.8404 68.4301 12.1479C68.1973 12.4554 68.081 12.8832 68.081 13.4313V16.7869H66.1152V13.4313C66.1152 12.8743 66.0035 12.4442 65.7797 12.1412C65.556 11.8382 65.2362 11.6867 64.8209 11.6867C64.4053 11.6867 64.0789 11.8404 63.8415 12.1479C63.6084 12.4554 63.4922 12.8832 63.4922 13.4313V16.7869H61.5264V10.1024H63.095L63.1633 11.2054C63.3918 10.7999 63.6977 10.4924 64.0812 10.2829C64.4692 10.0735 64.919 9.96875 65.4304 9.96875C65.9645 9.96875 66.4257 10.0779 66.814 10.2963C67.202 10.5147 67.5011 10.8288 67.7112 11.2388C67.944 10.8244 68.2521 10.5102 68.6356 10.2963C69.0237 10.0779 69.4828 9.96875 70.0124 9.96875C70.8479 9.96875 71.4986 10.2295 71.9643 10.7508C72.4345 11.2678 72.6699 11.9919 72.6699 12.9233V16.7869Z" fill="white"/>
<path d="M81.7138 9.4862C81.4125 9.19208 81.052 8.96481 80.6318 8.80438C80.2162 8.64395 79.771 8.56373 79.2963 8.56373C78.8215 8.56373 78.3877 8.64395 77.9949 8.80438C77.6022 8.96481 77.2645 9.1943 76.9814 9.49288C76.6982 9.79145 76.479 10.148 76.3238 10.5624C76.1686 10.9724 76.091 11.4314 76.091 11.9394C76.091 12.4474 76.1686 12.9131 76.3238 13.3364C76.4836 13.7598 76.7073 14.1252 76.995 14.4327C77.2873 14.7357 77.6321 14.9719 78.0292 15.1412C78.4309 15.3106 78.8738 15.3952 79.358 15.3952C79.7597 15.3952 80.1272 15.3351 80.4607 15.2148C80.7984 15.0944 81.0952 14.9229 81.351 14.7001C81.6066 14.4773 81.8167 14.2077 81.981 13.8913C82.1499 13.5748 82.2664 13.2206 82.3304 12.8284H79.3511V11.2576H84.1865L84.2481 12.033C84.2481 12.795 84.1271 13.4924 83.8851 14.1252C83.6477 14.758 83.3098 15.3039 82.8714 15.7629C82.433 16.2174 81.9102 16.5695 81.303 16.8191C80.7003 17.0686 80.0314 17.1934 79.2963 17.1934C78.5338 17.1934 77.826 17.0619 77.173 16.799C76.5248 16.5361 75.9563 16.1684 75.4676 15.6961C74.9837 15.2237 74.6071 14.6711 74.3376 14.0383C74.0681 13.4011 73.9336 12.7126 73.9336 11.9728C73.9336 11.2331 74.0658 10.549 74.3307 9.92069C74.6002 9.28788 74.9746 8.73532 75.4539 8.26293C75.9381 7.79057 76.5018 7.42293 77.1457 7.16C77.7896 6.89708 78.4903 6.76562 79.2482 6.76562C79.9561 6.76562 80.6409 6.88594 81.303 7.12657C81.9651 7.36722 82.5564 7.71035 83.0769 8.15597L81.7138 9.4862Z" fill="white"/>
<path d="M86.5565 8.73111C86.2961 8.73111 86.0769 8.64199 85.899 8.46372C85.7207 8.28548 85.6318 8.06935 85.6318 7.81534C85.6318 7.56134 85.7207 7.34742 85.899 7.17363C86.0769 6.99537 86.2961 6.90625 86.5565 6.90625C86.8212 6.90625 87.0426 6.99537 87.2209 7.17363C87.4034 7.34742 87.4946 7.56134 87.4946 7.81534C87.4946 8.06935 87.4034 8.28548 87.2209 8.46372C87.0426 8.64199 86.8212 8.73111 86.5565 8.73111ZM87.5427 17.0131H85.5771V10.3287H87.5427V17.0131Z" fill="white"/>
<path d="M92.0346 17.0624C91.418 17.0624 90.8656 16.9131 90.377 16.6146C89.8886 16.3115 89.5048 15.9015 89.2265 15.3846C88.9479 14.8632 88.8086 14.2728 88.8086 13.6132C88.8086 12.9492 88.9479 12.3588 89.2265 11.8419C89.5048 11.3249 89.8886 10.9172 90.377 10.6186C90.8656 10.3156 91.4203 10.1641 92.0414 10.1641C92.5253 10.1641 92.9682 10.2576 93.3701 10.4448C93.7764 10.6275 94.1258 10.8815 94.418 11.2068L94.507 10.2978H96.2329V16.795C96.2329 17.5348 96.0663 18.1787 95.7328 18.7269C95.4042 19.2794 94.9385 19.705 94.3358 20.0036C93.7329 20.3066 93.0276 20.4581 92.2194 20.4581C91.0962 20.4581 90.0779 20.115 89.1648 19.4287L89.9593 17.8646C90.5666 18.4483 91.2742 18.7402 92.0824 18.7402C92.5162 18.7402 92.8951 18.6556 93.2195 18.4862C93.5481 18.3169 93.8037 18.0807 93.9865 17.7777C94.1735 17.4746 94.2673 17.1226 94.2673 16.7215V16.1734C93.9842 16.4497 93.653 16.6681 93.2741 16.8285C92.8951 16.9844 92.4821 17.0624 92.0346 17.0624ZM92.5412 15.3512C92.861 15.3512 93.151 15.2844 93.4111 15.1507C93.6715 15.0125 93.879 14.8231 94.0343 14.5825C94.1897 14.3374 94.2673 14.0611 94.2673 13.7536V13.4662C94.2673 13.1587 94.1875 12.8846 94.0274 12.644C93.8722 12.4034 93.6647 12.2162 93.4043 12.0825C93.1487 11.9444 92.861 11.8753 92.5412 11.8753C92.2126 11.8753 91.918 11.951 91.6577 12.1026C91.3975 12.2541 91.192 12.4613 91.0413 12.7242C90.8907 12.9827 90.8153 13.279 90.8153 13.6132C90.8153 13.9475 90.8907 14.246 91.0413 14.509C91.192 14.7719 91.3975 14.9791 91.6577 15.1306C91.918 15.2777 92.2126 15.3512 92.5412 15.3512Z" fill="white"/>
<path d="M97.3574 16.4073L97.789 14.7763C97.926 14.9234 98.1085 15.0593 98.3368 15.1841C98.5699 15.3089 98.8186 15.4091 99.0833 15.4849C99.3528 15.5562 99.6063 15.5919 99.8437 15.5919C100.127 15.5919 100.348 15.5406 100.508 15.4381C100.668 15.3311 100.748 15.1886 100.748 15.0103C100.748 14.8632 100.693 14.7407 100.583 14.6427C100.478 14.5402 100.334 14.451 100.152 14.3753C99.9739 14.2951 99.7752 14.2171 99.556 14.1413C99.2592 14.0299 98.9534 13.9007 98.6384 13.7536C98.3277 13.6066 98.0653 13.406 97.8506 13.152C97.636 12.898 97.5288 12.5616 97.5288 12.1427C97.5288 11.7416 97.636 11.394 97.8506 11.0999C98.0653 10.8013 98.3689 10.5718 98.7615 10.4114C99.1541 10.2465 99.6109 10.1641 100.131 10.1641C100.976 10.1641 101.818 10.3713 102.659 10.7857L102.104 12.3031C101.958 12.1917 101.775 12.0892 101.556 11.9956C101.337 11.8976 101.111 11.8196 100.878 11.7617C100.65 11.7037 100.444 11.6747 100.261 11.6747C100.038 11.6747 99.8619 11.7193 99.734 11.8084C99.6109 11.8976 99.5492 12.0201 99.5492 12.1761C99.5492 12.2919 99.5924 12.3967 99.6794 12.4903C99.7661 12.5794 99.8938 12.6663 100.063 12.7509C100.236 12.8312 100.449 12.918 100.7 13.0117C101.01 13.123 101.323 13.2567 101.638 13.4127C101.958 13.5642 102.225 13.7692 102.439 14.0277C102.659 14.2817 102.768 14.6204 102.768 15.0437C102.768 15.4582 102.652 15.8213 102.419 16.1333C102.19 16.4452 101.866 16.6881 101.446 16.8619C101.031 17.0312 100.542 17.1159 99.9807 17.1159C99.0446 17.1159 98.1702 16.8797 97.3574 16.4073Z" fill="white"/>
<defs>
<filter id="filter0_f_5235_13963" x="2.96582" y="16.8828" width="15.1963" height="8.39062" filterUnits="userSpaceOnUse" color-interpolation-filters="sRGB">
<feFlood flood-opacity="0" result="BackgroundImageFix"/>
<feBlend mode="normal" in="SourceGraphic" in2="BackgroundImageFix" result="shape"/>
<feGaussianBlur stdDeviation="2" result="effect1_foregroundBlur_5235_13963"/>
</filter>
<linearGradient id="paint0_linear_5235_13963" x1="12.1786" y1="-0.0173805" x2="13.6603" y2="24.2652" gradientUnits="userSpaceOnUse">
<stop stop-color="#FC9C56"/>
<stop offset="0.380208" stop-color="#FF852E"/>
<stop offset="0.776042" stop-color="#FF2A1F"/>
</linearGradient>
<linearGradient id="paint1_linear_5235_13963" x1="12.1777" y1="-0.0173806" x2="13.6594" y2="24.2652" gradientUnits="userSpaceOnUse">
<stop stop-color="#FC9C56"/>
<stop offset="0.380208" stop-color="#FF852E"/>
<stop offset="0.776042" stop-color="#FF2A1F"/>
</linearGradient>
<linearGradient id="paint2_linear_5235_13963" x1="12.1795" y1="-0.0194763" x2="13.6612" y2="24.2631" gradientUnits="userSpaceOnUse">
<stop stop-color="#FC9C56"/>
<stop offset="0.380208" stop-color="#FF852E"/>
<stop offset="0.776042" stop-color="#FF2A1F"/>
</linearGradient>
<linearGradient id="paint3_linear_5235_13963" x1="12.1776" y1="-0.0236295" x2="13.6593" y2="24.2589" gradientUnits="userSpaceOnUse">
<stop stop-color="#FC9C56"/>
<stop offset="0.380208" stop-color="#FF852E"/>
<stop offset="0.776042" stop-color="#FF2A1F"/>
</linearGradient>
<linearGradient id="paint4_linear_5235_13963" x1="12.1792" y1="-0.0427971" x2="13.661" y2="24.2397" gradientUnits="userSpaceOnUse">
<stop stop-color="#FC9C56"/>
<stop offset="0.380208" stop-color="#FF852E"/>
<stop offset="0.776042" stop-color="#FF2A1F"/>
</linearGradient>
<linearGradient id="paint5_linear_5235_13963" x1="12.1792" y1="0.00129932" x2="13.661" y2="24.2838" gradientUnits="userSpaceOnUse">
<stop stop-color="#FC9C56"/>
<stop offset="0.380208" stop-color="#FF852E"/>
<stop offset="0.776042" stop-color="#FF2A1F"/>
</linearGradient>
</defs>
</svg>
