<svg width="215" height="51" viewBox="0 0 215 51" fill="none" xmlns="http://www.w3.org/2000/svg">
<path d="M12.3418 26.6653L4.5199 15.9253L25.586 0.470581L25.6745 6.46996C25.7348 10.5628 24.1574 14.5145 21.2837 17.4697L12.3418 26.6653Z" fill="url(#paint0_linear_1371_61699)"/>
<path d="M21.2844 17.4697C24.1582 14.5145 25.7355 10.5628 25.6752 6.46996L25.5868 0.470581L48.7611 9.09298L45.2708 29.379L15.307 35.9306L12.3425 26.6653L21.2844 17.4697Z" fill="url(#paint1_linear_1371_61699)"/>
<path d="M38.2569 50.4703L15.3064 35.9304L45.2702 29.3789L50.9427 34.3462L38.2569 50.4703Z" fill="url(#paint2_linear_1371_61699)"/>
<path d="M45.271 29.3789L50.9435 34.3463L53.2075 25.4672C54.207 21.5459 53.6203 17.3951 51.5702 13.8927L48.7613 9.0929L45.271 29.3789Z" fill="url(#paint3_linear_1371_61699)"/>
<path d="M15.3073 35.9306L38.2578 50.4705L22.2969 49.3162C18.3262 49.029 14.6119 47.2749 11.897 44.4047L0.80896 32.6826L15.3073 35.9306Z" fill="url(#paint4_linear_1371_61699)"/>
<path d="M4.52094 15.9254L0.80896 32.6827L15.3073 35.9307L12.3428 26.6654L4.52094 15.9254Z" fill="url(#paint5_linear_1371_61699)"/>
<path d="M38.2581 50.4701L15.3076 35.9302L45.2713 29.3787L50.9439 34.346L38.2581 50.4701Z" fill="black" fill-opacity="0.17"/>
<path d="M45.2697 29.3792L50.9421 34.3465L53.2061 25.4674C54.2057 21.5461 53.619 17.3953 51.5688 13.893L48.7599 9.09314L45.2697 29.3792Z" fill="black" fill-opacity="0.1"/>
<path d="M15.3073 35.9306L38.2578 50.4705L21.9825 49.1025C18.0946 48.7758 14.4669 47.0425 11.7984 44.2368L0.80896 32.6826L15.3073 35.9306Z" fill="black" fill-opacity="0.23"/>
<path d="M4.52098 15.9249L0.80896 32.6822L15.3073 35.9302L12.3428 26.6649L4.52098 15.9249Z" fill="#C0C0C0" fill-opacity="0.05"/>
<path d="M17.4799 31.1253C16.8713 28.752 16.6806 26.5625 16.9079 24.5569C17.1324 22.5409 17.8584 20.8152 19.0859 19.3798C20.3213 17.9315 22.1007 16.9179 24.4243 16.3391C25.2481 16.1339 26.154 15.9636 27.1418 15.8283C28.1269 15.6826 29.1057 15.5993 30.0779 15.5786C30.7336 15.7697 31.3195 15.9947 31.8354 16.2538C32.3592 16.4998 32.8819 16.8292 33.4034 17.2419C33.593 17.9809 33.7436 18.9844 33.8552 20.2522C33.9669 21.5201 34.0044 22.7178 33.9677 23.8455C33.9416 24.9704 33.8313 25.7233 33.6368 26.104C33.3969 26.3077 33.1886 26.4592 33.0118 26.5586C32.8324 26.6476 32.542 26.7421 32.1406 26.8421C31.6442 26.9658 31.1702 27.0451 30.7184 27.0801C30.2667 27.1151 29.9139 27.0977 29.6601 27.0281L27.7562 21.9044C26.9529 21.883 25.7275 22.0775 24.0798 22.488C23.7208 22.5774 23.458 22.6484 23.2917 22.7009C23.2059 24.2505 23.4477 26.2445 24.0168 28.683L24.173 29.2919C24.5707 30.8429 25.0221 32.1867 25.5271 33.3233C25.8646 34.0698 26.1343 34.6394 26.3362 35.0321C26.5486 35.4221 26.758 35.7133 26.9646 35.9055C27.1791 36.0846 27.4025 36.1452 27.6349 36.0873C28.4587 35.8821 29.1207 35.4182 29.6208 34.6956C30.1315 33.9704 30.5071 33.1128 30.7475 32.1226L29.7471 29.9964C31.0133 29.1938 32.321 28.6188 33.6702 28.2717C34.325 28.1086 34.9141 28.0393 35.4373 28.0641C35.9605 28.0888 36.3613 28.2935 36.6397 28.6782C36.8342 30.2687 36.9965 32.2382 37.1269 34.5866C37.2573 36.9351 37.2729 38.3764 37.1739 38.9104C36.5514 39.287 35.9232 39.5542 35.2895 39.7121C34.9621 39.7936 34.6069 39.8544 34.2239 39.8944C33.8514 39.9319 33.5146 39.9327 33.2133 39.897C33.1252 39.5535 32.8839 38.7443 32.4895 37.4694L32.1457 36.3258L31.6859 36.3074C31.2668 37.6964 30.6992 38.8788 29.9831 39.8545C29.2643 40.8198 28.3716 41.4353 27.3048 41.701C25.9318 42.0431 24.6155 41.8394 23.3559 41.09C22.0962 40.3407 20.9608 39.1119 19.9497 37.4037C18.9359 35.685 18.1126 33.5922 17.4799 31.1253Z" fill="#FFB991"/>
<path d="M16.0594 31.1253C15.4508 28.752 15.2601 26.5625 15.4873 24.5569C15.7119 22.5409 16.4379 20.8152 17.6654 19.3798C18.9008 17.9315 20.6803 16.9179 23.0038 16.3391C23.8277 16.1339 24.7335 15.9636 25.7213 15.8283C26.7064 15.6826 27.6851 15.5993 28.6574 15.5786C29.3132 15.7697 29.899 15.9947 30.4149 16.2538C30.9387 16.4998 31.4614 16.8292 31.983 17.2419C32.1725 17.9809 32.3231 18.9844 32.4348 20.2522C32.5464 21.5201 32.5839 22.7178 32.5472 23.8455C32.5211 24.9704 32.4108 25.7233 32.2163 26.104C31.9764 26.3077 31.768 26.4592 31.5913 26.5586C31.4118 26.6476 31.1214 26.7421 30.7201 26.8421C30.2237 26.9658 29.7496 27.0451 29.2979 27.0801C28.8462 27.1151 28.4935 27.0977 28.2396 27.0281L26.3357 21.9044C25.5324 21.883 24.307 22.0775 22.6593 22.488C22.3002 22.5774 22.0375 22.6484 21.8712 22.7009C21.7854 24.2505 22.0271 26.2445 22.5963 28.683L22.7525 29.2919C23.1503 30.8429 23.6016 32.1867 24.1066 33.3233C24.4441 34.0698 24.7138 34.6394 24.9156 35.0321C25.128 35.4221 25.3375 35.7133 25.5441 35.9055C25.7586 36.0846 25.982 36.1452 26.2144 36.0873C27.0382 35.8821 27.7002 35.4182 28.2003 34.6956C28.711 33.9704 29.0865 33.1128 29.327 32.1226L28.3267 29.9964C29.5928 29.1938 30.9005 28.6188 32.2497 28.2717C32.9046 28.1086 33.4935 28.0393 34.0168 28.0641C34.54 28.0888 34.9408 28.2935 35.2193 28.6782C35.4136 30.2687 35.576 32.2382 35.7064 34.5866C35.8367 36.9351 35.8524 38.3764 35.7534 38.9104C35.1308 39.287 34.5027 39.5542 33.869 39.7121C33.5416 39.7936 33.1864 39.8544 32.8034 39.8944C32.4309 39.9319 32.0941 39.9327 31.7927 39.897C31.7046 39.5535 31.4634 38.7443 31.069 37.4694L30.7252 36.3258L30.2654 36.3074C29.8463 37.6964 29.2787 38.8788 28.5626 39.8545C27.8438 40.8198 26.9511 41.4353 25.8843 41.701C24.5113 42.0431 23.195 41.8394 21.9353 41.09C20.6757 40.3407 19.5403 39.1119 18.5291 37.4037C17.5153 35.685 16.6921 33.5922 16.0594 31.1253Z" fill="white"/>
<path d="M28.6811 13.0995C30.6427 13.0995 32.2328 11.5324 32.2328 9.59915C32.2328 7.66593 30.6427 6.09875 28.6811 6.09875C26.7196 6.09875 25.1294 7.66593 25.1294 9.59915C25.1294 11.5324 26.7196 13.0995 28.6811 13.0995Z" fill="#FFB990"/>
<path d="M27.8298 13.3796C29.7914 13.3796 31.3815 11.8124 31.3815 9.87918C31.3815 7.94596 29.7914 6.37878 27.8298 6.37878C25.8682 6.37878 24.2781 7.94596 24.2781 9.87918C24.2781 11.8124 25.8682 13.3796 27.8298 13.3796Z" fill="white"/>
<path d="M33.4408 43.609C34.0157 43.609 34.4818 43.1496 34.4818 42.583C34.4818 42.0163 34.0157 41.557 33.4408 41.557C32.8659 41.557 32.3998 42.0163 32.3998 42.583C32.3998 43.1496 32.8659 43.609 33.4408 43.609Z" fill="white"/>
<path d="M36.356 43.1984C36.9309 43.1984 37.397 42.7391 37.397 42.1725C37.397 41.6058 36.9309 41.1465 36.356 41.1465C35.781 41.1465 35.3149 41.6058 35.3149 42.1725C35.3149 42.7391 35.781 43.1984 36.356 43.1984Z" fill="white"/>
<g filter="url(#filter0_f_1371_61699)">
<path d="M22.8229 44.8401C26.9625 44.8401 30.3183 44.6563 30.3183 44.4297C30.3183 44.203 26.9625 44.0193 22.8229 44.0193C18.6833 44.0193 15.3275 44.203 15.3275 44.4297C15.3275 44.6563 18.6833 44.8401 22.8229 44.8401Z" fill="#170C0C" fill-opacity="0.2"/>
</g>
<path d="M61.7806 35.4584V14.571H68.7859C71.3732 14.571 73.613 14.998 75.5062 15.8521C77.3989 16.7062 78.8635 17.913 79.9004 19.4726C80.9373 21.0322 81.4555 22.8796 81.4555 25.0147C81.4555 27.1406 80.9373 28.988 79.9004 30.5569C78.8635 32.1164 77.3989 33.3232 75.5062 34.1773C73.613 35.0314 71.3732 35.4584 68.7859 35.4584H61.7806ZM66.1748 31.7126H68.9428C70.6549 31.7126 72.1058 31.4527 73.2944 30.9328C74.493 30.4036 75.4014 29.6424 76.0197 28.6491C76.6474 27.6465 76.9613 26.4351 76.9613 25.0147C76.9613 23.5851 76.6474 22.3736 76.0197 21.3803C75.4014 20.387 74.493 19.6304 73.2944 19.1105C72.1058 18.5814 70.6549 18.3168 68.9428 18.3168H66.1748V31.7126Z" fill="black"/>
<path d="M88.3046 35.4586H84.2101V21.5336H87.7769L87.9197 23.9427C88.3952 23.0979 89.0419 22.4388 89.8598 21.9653C90.6782 21.4919 91.615 21.2551 92.6709 21.2551C92.9753 21.2551 93.2797 21.2783 93.5841 21.3248C93.898 21.3619 94.2166 21.4223 94.5399 21.5058L94.0259 25.0984C93.3982 24.9221 92.8036 24.8338 92.2428 24.8338C91.4534 24.8338 90.7587 25.0102 90.1594 25.363C89.5701 25.7064 89.1135 26.1892 88.7902 26.8112C88.4663 27.4239 88.3046 28.1434 88.3046 28.9695V35.4586Z" fill="black"/>
<path d="M109.563 33.899C107.794 35.1244 105.858 35.737 103.756 35.737C102.196 35.737 100.793 35.4121 99.5473 34.7623C98.3108 34.1032 97.3313 33.212 96.6082 32.0887C95.8946 30.9655 95.5381 29.6983 95.5381 28.2872C95.5381 26.9411 95.8614 25.7389 96.5081 24.6807C97.1648 23.6224 98.0538 22.7869 99.1766 22.1742C100.299 21.5615 101.573 21.2551 103 21.2551C104.474 21.2551 105.773 21.594 106.895 22.2716C108.018 22.9401 108.893 23.8777 109.521 25.0845C110.148 26.282 110.462 27.6699 110.462 29.248V29.6936H99.947C100.118 30.2413 100.399 30.7241 100.789 31.1418C101.179 31.5503 101.664 31.8752 102.244 32.1166C102.824 32.3579 103.49 32.4786 104.241 32.4786C105.697 32.4786 107.052 32.0191 108.308 31.1001L109.563 33.899ZM99.7611 27.6606H106.681C106.605 27.0572 106.41 26.5281 106.096 26.0731C105.792 25.609 105.388 25.247 104.884 24.987C104.389 24.7271 103.833 24.5971 103.214 24.5971C102.587 24.5971 102.025 24.7317 101.531 25.0009C101.046 25.2702 100.651 25.6322 100.346 26.0871C100.042 26.542 99.847 27.0665 99.7611 27.6606Z" fill="black"/>
<path d="M125.786 35.4586H122.219L122.005 33.8015C121.482 34.4142 120.835 34.8923 120.064 35.2358C119.294 35.57 118.447 35.737 117.524 35.737C116.526 35.737 115.636 35.5514 114.857 35.1801C114.077 34.7994 113.463 34.2796 113.016 33.6205C112.569 32.9521 112.346 32.1955 112.346 31.3507C112.346 30.4595 112.588 29.6751 113.073 28.9974C113.558 28.3197 114.224 27.7906 115.07 27.4099C115.927 27.02 116.897 26.8251 117.981 26.8251C118.618 26.8251 119.256 26.8947 119.893 27.034C120.54 27.1732 121.139 27.3682 121.691 27.6188V27.2568C121.691 26.6998 121.529 26.2217 121.206 25.8225C120.892 25.414 120.454 25.0984 119.893 24.8756C119.341 24.6528 118.723 24.5414 118.038 24.5414C117.382 24.5414 116.73 24.6435 116.084 24.8478C115.446 25.052 114.857 25.3583 114.315 25.7668L113.201 22.7173C114.162 22.2345 115.133 21.8724 116.112 21.6311C117.102 21.3805 118.057 21.2551 118.98 21.2551C120.369 21.2551 121.572 21.5243 122.59 22.0628C123.608 22.5919 124.392 23.3439 124.944 24.3186C125.505 25.2841 125.786 26.4306 125.786 27.7581V35.4586ZM118.423 32.6597C118.966 32.6597 119.484 32.5436 119.979 32.3115C120.473 32.0794 120.873 31.7638 121.177 31.3646C121.491 30.9655 121.657 30.5245 121.676 30.0418V29.9443C121.258 29.6658 120.792 29.4523 120.278 29.3037C119.774 29.1459 119.261 29.067 118.737 29.067C117.957 29.067 117.32 29.2341 116.826 29.5683C116.331 29.9025 116.084 30.3342 116.084 30.8633C116.084 31.2068 116.184 31.5178 116.383 31.7963C116.592 32.0655 116.873 32.279 117.225 32.4368C117.577 32.5854 117.976 32.6597 118.423 32.6597Z" fill="black"/>
<path d="M152.194 35.4586H148.099V28.4683C148.099 27.3078 147.866 26.412 147.4 25.7807C146.934 25.1495 146.273 24.8338 145.417 24.8338C144.542 24.8338 143.857 25.1541 143.362 25.7947C142.877 26.4352 142.635 27.3264 142.635 28.4683V35.4586H138.54V28.4683C138.54 27.3078 138.307 26.412 137.841 25.7807C137.375 25.1495 136.709 24.8338 135.844 24.8338C134.978 24.8338 134.298 25.1541 133.803 25.7947C133.318 26.4352 133.076 27.3264 133.076 28.4683V35.4586H128.98V21.5336H132.248L132.39 23.8312C132.866 22.9865 133.504 22.3459 134.303 21.9096C135.111 21.4733 136.048 21.2551 137.113 21.2551C138.226 21.2551 139.187 21.4826 139.995 21.9374C140.804 22.3924 141.427 23.0468 141.864 23.9009C142.35 23.0375 142.991 22.3831 143.79 21.9374C144.599 21.4826 145.555 21.2551 146.658 21.2551C148.399 21.2551 149.754 21.7982 150.724 22.8843C151.704 23.9612 152.194 25.4697 152.194 27.4099V35.4586Z" fill="black"/>
<path d="M171.036 20.2385C170.408 19.6258 169.657 19.1523 168.782 18.8181C167.916 18.4839 166.989 18.3168 166 18.3168C165.011 18.3168 164.107 18.4839 163.289 18.8181C162.471 19.1523 161.767 19.6304 161.177 20.2524C160.587 20.8744 160.131 21.6171 159.808 22.4804C159.484 23.3344 159.323 24.2906 159.323 25.3489C159.323 26.4072 159.484 27.3773 159.808 28.2592C160.14 29.1411 160.606 29.9024 161.206 30.5429C161.815 31.1742 162.533 31.6662 163.36 32.0189C164.197 32.3717 165.12 32.5481 166.128 32.5481C166.965 32.5481 167.731 32.4228 168.425 32.1722C169.129 31.9215 169.747 31.5641 170.28 31.0999C170.813 30.6357 171.25 30.0741 171.592 29.415C171.944 28.7559 172.187 28.0179 172.32 27.2009H166.114V23.9286H176.187L176.315 25.5439C176.315 27.1313 176.063 28.5841 175.559 29.9024C175.065 31.2206 174.36 32.3578 173.447 33.314C172.534 34.2608 171.445 34.9943 170.18 35.5141C168.925 36.034 167.531 36.2939 166 36.2939C164.411 36.2939 162.937 36.0201 161.576 35.4723C160.226 34.9246 159.042 34.1588 158.024 33.1747C157.016 32.1907 156.231 31.0395 155.67 29.7213C155.108 28.3938 154.828 26.9596 154.828 25.4186C154.828 23.8775 155.104 22.4525 155.656 21.1436C156.217 19.8253 156.997 18.6743 157.995 17.6902C159.004 16.7062 160.178 15.9403 161.52 15.3926C162.861 14.8449 164.321 14.571 165.9 14.571C167.374 14.571 168.801 14.8217 170.18 15.3229C171.559 15.8243 172.791 16.5391 173.875 17.4674L171.036 20.2385Z" fill="black"/>
<path d="M181.123 18.6234C180.581 18.6234 180.124 18.4378 179.753 18.0664C179.382 17.6951 179.197 17.2448 179.197 16.7157C179.197 16.1866 179.382 15.7409 179.753 15.3789C180.124 15.0076 180.581 14.8219 181.123 14.8219C181.674 14.8219 182.136 15.0076 182.507 15.3789C182.887 15.7409 183.077 16.1866 183.077 16.7157C183.077 17.2448 182.887 17.6951 182.507 18.0664C182.136 18.4378 181.674 18.6234 181.123 18.6234ZM183.177 35.8764H179.083V21.9515H183.177V35.8764Z" fill="black"/>
<path d="M192.537 36.0434C191.253 36.0434 190.102 35.7324 189.084 35.1104C188.067 34.4791 187.267 33.625 186.687 32.5482C186.107 31.4621 185.817 30.232 185.817 28.8581C185.817 27.4749 186.107 26.2448 186.687 25.168C187.267 24.0911 188.067 23.2417 189.084 22.6198C190.102 21.9885 191.258 21.6729 192.551 21.6729C193.559 21.6729 194.482 21.8678 195.319 22.2577C196.166 22.6383 196.894 23.1675 197.502 23.8452L197.688 21.9514H201.283V35.4864C201.283 37.0274 200.936 38.3688 200.241 39.5107C199.557 40.6618 198.587 41.5484 197.331 42.1703C196.075 42.8016 194.606 43.1172 192.922 43.1172C190.582 43.1172 188.461 42.4024 186.559 40.9728L188.214 37.7144C189.479 38.9305 190.953 39.5385 192.637 39.5385C193.54 39.5385 194.33 39.3621 195.006 39.0094C195.69 38.6566 196.223 38.1646 196.603 37.5333C196.993 36.9021 197.188 36.1687 197.188 35.3332V34.1914C196.599 34.7669 195.909 35.2218 195.119 35.556C194.33 35.8809 193.469 36.0434 192.537 36.0434ZM193.593 32.4786C194.259 32.4786 194.863 32.3393 195.405 32.0608C195.947 31.773 196.38 31.3785 196.703 30.8772C197.027 30.3666 197.188 29.7911 197.188 29.1505V28.5517C197.188 27.9112 197.022 27.3403 196.689 26.839C196.365 26.3377 195.933 25.9478 195.391 25.6693C194.858 25.3815 194.259 25.2376 193.593 25.2376C192.908 25.2376 192.294 25.3954 191.752 25.7111C191.21 26.0267 190.782 26.4584 190.468 27.0061C190.154 27.5445 189.997 28.1618 189.997 28.8581C189.997 29.5544 190.154 30.1763 190.468 30.724C190.782 31.2718 191.21 31.7034 191.752 32.019C192.294 32.3254 192.908 32.4786 193.593 32.4786Z" fill="black"/>
<path d="M203.623 34.6787L204.522 31.2811C204.808 31.5874 205.188 31.8706 205.663 32.1305C206.149 32.3904 206.667 32.5993 207.219 32.7571C207.78 32.9056 208.308 32.9799 208.803 32.9799C209.393 32.9799 209.854 32.8731 210.187 32.6596C210.52 32.4368 210.686 32.1398 210.686 31.7684C210.686 31.4621 210.572 31.2068 210.344 31.0025C210.125 30.789 209.825 30.6034 209.445 30.4455C209.074 30.2785 208.66 30.116 208.203 29.9582C207.585 29.7261 206.948 29.4569 206.292 29.1505C205.644 28.8442 205.098 28.4264 204.651 27.8973C204.204 27.3682 203.98 26.6673 203.98 25.7946C203.98 24.9591 204.204 24.235 204.651 23.6223C205.098 23.0003 205.73 22.5223 206.548 22.1881C207.366 21.8446 208.318 21.6729 209.402 21.6729C211.161 21.6729 212.916 22.1045 214.667 22.9679L213.511 26.1288C213.206 25.8967 212.826 25.6832 212.37 25.4883C211.913 25.284 211.442 25.1216 210.957 25.0009C210.482 24.8802 210.053 24.8199 209.673 24.8199C209.207 24.8199 208.841 24.9127 208.574 25.0984C208.318 25.284 208.189 25.5393 208.189 25.8642C208.189 26.1056 208.279 26.3238 208.46 26.5187C208.641 26.7044 208.907 26.8854 209.259 27.0618C209.621 27.2289 210.063 27.4099 210.586 27.6049C211.233 27.8369 211.885 28.1154 212.541 28.4404C213.206 28.756 213.763 29.183 214.21 29.7214C214.667 30.2506 214.895 30.9561 214.895 31.8381C214.895 32.7014 214.653 33.458 214.167 34.1078C213.691 34.7577 213.016 35.2636 212.141 35.6256C211.276 35.9784 210.258 36.1548 209.088 36.1548C207.138 36.1548 205.316 35.6628 203.623 34.6787Z" fill="black"/>
<defs>
<filter id="filter0_f_1371_61699" x="11.3275" y="40.0193" width="22.9907" height="8.8208" filterUnits="userSpaceOnUse" color-interpolation-filters="sRGB">
<feFlood flood-opacity="0" result="BackgroundImageFix"/>
<feBlend mode="normal" in="SourceGraphic" in2="BackgroundImageFix" result="shape"/>
<feGaussianBlur stdDeviation="2" result="effect1_foregroundBlur_1371_61699"/>
</filter>
<linearGradient id="paint0_linear_1371_61699" x1="26.1794" y1="0.434374" x2="29.2661" y2="51.0192" gradientUnits="userSpaceOnUse">
<stop stop-color="#FC9C56"/>
<stop offset="0.380208" stop-color="#FF852E"/>
<stop offset="0.776042" stop-color="#FF2A1F"/>
</linearGradient>
<linearGradient id="paint1_linear_1371_61699" x1="26.1801" y1="0.434374" x2="29.2669" y2="51.0192" gradientUnits="userSpaceOnUse">
<stop stop-color="#FC9C56"/>
<stop offset="0.380208" stop-color="#FF852E"/>
<stop offset="0.776042" stop-color="#FF2A1F"/>
</linearGradient>
<linearGradient id="paint2_linear_1371_61699" x1="26.1795" y1="0.434253" x2="29.2663" y2="51.0191" gradientUnits="userSpaceOnUse">
<stop stop-color="#FC9C56"/>
<stop offset="0.380208" stop-color="#FF852E"/>
<stop offset="0.776042" stop-color="#FF2A1F"/>
</linearGradient>
<linearGradient id="paint3_linear_1371_61699" x1="26.1803" y1="0.43429" x2="29.2671" y2="51.0192" gradientUnits="userSpaceOnUse">
<stop stop-color="#FC9C56"/>
<stop offset="0.380208" stop-color="#FF852E"/>
<stop offset="0.776042" stop-color="#FF2A1F"/>
</linearGradient>
<linearGradient id="paint4_linear_1371_61699" x1="26.1804" y1="0.434409" x2="29.2671" y2="51.0193" gradientUnits="userSpaceOnUse">
<stop stop-color="#FC9C56"/>
<stop offset="0.380208" stop-color="#FF852E"/>
<stop offset="0.776042" stop-color="#FF2A1F"/>
</linearGradient>
<linearGradient id="paint5_linear_1371_61699" x1="26.1804" y1="0.434484" x2="29.2671" y2="51.0193" gradientUnits="userSpaceOnUse">
<stop stop-color="#FC9C56"/>
<stop offset="0.380208" stop-color="#FF852E"/>
<stop offset="0.776042" stop-color="#FF2A1F"/>
</linearGradient>
</defs>
</svg>
