<svg width="296" height="276" viewBox="0 0 296 276" fill="none" xmlns="http://www.w3.org/2000/svg">
<path d="M64.6393 144.684L20.9111 85.4402L138.681 0.188263L139.176 33.2822C139.513 55.8593 130.695 77.6576 114.629 93.9594L64.6393 144.684Z" fill="url(#paint0_linear_4468_36955)"/>
<path d="M114.633 93.9594C130.699 77.6576 139.517 55.8593 139.18 33.2822L138.685 0.188263L268.241 47.7514L248.729 159.654L81.2162 195.794L64.6434 144.684L114.633 93.9594Z" fill="url(#paint1_linear_4468_36955)"/>
<path d="M209.517 275.999L81.2124 195.794L248.725 159.654L280.437 187.055L209.517 275.999Z" fill="url(#paint2_linear_4468_36955)"/>
<path d="M248.73 159.654L280.442 187.055L293.099 138.076C298.687 116.445 295.407 93.5481 283.946 74.2283L268.242 47.7512L248.73 159.654Z" fill="url(#paint3_linear_4468_36955)"/>
<path d="M81.2177 195.794L209.522 275.999L120.293 269.632C98.0949 268.048 77.33 258.371 62.1524 242.539L0.164856 177.877L81.2177 195.794Z" fill="url(#paint4_linear_4468_36955)"/>
<path d="M20.9167 85.44L0.164856 177.877L81.2177 195.794L64.6449 144.684L20.9167 85.44Z" fill="url(#paint5_linear_4468_36955)"/>
<path d="M209.524 275.998L81.2198 195.792L248.732 159.653L280.444 187.054L209.524 275.998Z" fill="black" fill-opacity="0.17"/>
<path d="M248.723 159.655L280.435 187.056L293.091 138.077C298.679 116.446 295.4 93.5489 283.938 74.2292L268.235 47.7521L248.723 159.655Z" fill="black" fill-opacity="0.1"/>
<path d="M81.2177 195.795L209.522 276L118.535 268.454C96.8001 266.652 76.5195 257.091 61.601 241.614L0.164856 177.878L81.2177 195.795Z" fill="black" fill-opacity="0.23"/>
<path d="M20.9169 85.4387L0.164856 177.876L81.2179 195.792L64.6448 144.683L20.9169 85.4387Z" fill="#C0C0C0" fill-opacity="0.05"/>
<path d="M93.3642 169.287C89.9617 156.196 88.8956 144.118 90.166 133.054C91.4214 121.934 95.4802 112.414 102.342 104.496C109.249 96.5072 119.197 90.9159 132.187 87.7231C136.792 86.591 141.856 85.652 147.379 84.9053C152.886 84.1016 158.358 83.6424 163.793 83.5282C167.459 84.5821 170.734 85.8235 173.618 87.2524C176.547 88.6098 179.469 90.4267 182.385 92.7033C183.444 96.78 184.286 102.315 184.91 109.309C185.535 116.303 185.744 122.91 185.539 129.13C185.393 135.336 184.777 139.488 183.689 141.589C182.348 142.712 181.183 143.548 180.195 144.097C179.192 144.588 177.569 145.109 175.325 145.66C172.55 146.342 169.899 146.78 167.374 146.973C164.849 147.166 162.877 147.07 161.457 146.686L150.814 118.423C146.323 118.305 139.472 119.378 130.261 121.642C128.254 122.135 126.785 122.527 125.855 122.816C125.375 131.364 126.727 142.364 129.909 155.815L130.782 159.174C133.005 167.729 135.529 175.142 138.352 181.412C140.239 185.53 141.747 188.672 142.875 190.838C144.062 192.99 145.234 194.596 146.389 195.656C147.588 196.644 148.837 196.978 150.136 196.659C154.741 195.527 158.442 192.968 161.238 188.982C164.093 184.982 166.192 180.251 167.537 174.789L161.944 163.06C169.023 158.632 176.333 155.461 183.876 153.546C187.537 152.646 190.83 152.265 193.755 152.401C196.68 152.537 198.921 153.666 200.477 155.788C201.564 164.562 202.472 175.426 203.201 188.381C203.929 201.336 204.017 209.286 203.463 212.232C199.983 214.309 196.471 215.783 192.929 216.654C191.098 217.104 189.112 217.439 186.971 217.66C184.889 217.866 183.006 217.871 181.321 217.674C180.829 215.78 179.48 211.315 177.275 204.283L175.353 197.975L172.783 197.873C170.44 205.535 167.267 212.057 163.263 217.44C159.245 222.764 154.254 226.16 148.29 227.626C140.615 229.512 133.256 228.389 126.214 224.255C119.172 220.122 112.824 213.343 107.171 203.921C101.504 194.44 96.9013 182.896 93.3642 169.287Z" fill="#FFB991"/>
<path d="M85.4223 169.287C82.0198 156.196 80.9537 144.118 82.2241 133.054C83.4795 121.934 87.5386 112.414 94.4007 104.496C101.307 96.5072 111.255 90.9159 124.245 87.7231C128.851 86.591 133.915 85.652 139.437 84.9053C144.945 84.1016 150.416 83.6424 155.851 83.5282C159.517 84.5821 162.792 85.8235 165.677 87.2524C168.605 88.6098 171.527 90.4267 174.443 92.7033C175.503 96.78 176.344 102.315 176.969 109.309C177.593 116.303 177.802 122.91 177.598 129.13C177.452 135.336 176.835 139.488 175.747 141.589C174.406 142.712 173.241 143.548 172.253 144.097C171.25 144.588 169.627 145.109 167.383 145.66C164.608 146.342 161.957 146.78 159.432 146.973C156.907 147.166 154.935 147.07 153.516 146.686L142.872 118.423C138.381 118.305 131.53 119.378 122.319 121.642C120.312 122.135 118.843 122.527 117.913 122.816C117.434 131.364 118.785 142.364 121.967 155.815L122.84 159.174C125.064 167.729 127.587 175.142 130.41 181.412C132.297 185.53 133.805 188.672 134.933 190.838C136.12 192.99 137.292 194.596 138.447 195.656C139.646 196.644 140.895 196.978 142.194 196.659C146.799 195.527 150.5 192.968 153.296 188.982C156.151 184.982 158.251 180.251 159.595 174.789L154.002 163.06C161.081 158.632 168.391 155.461 175.934 153.546C179.595 152.646 182.888 152.265 185.813 152.401C188.738 152.537 190.979 153.666 192.535 155.788C193.622 164.562 194.53 175.426 195.259 188.381C195.987 201.336 196.075 209.286 195.522 212.232C192.041 214.309 188.53 215.783 184.987 216.654C183.156 217.104 181.171 217.439 179.03 217.66C176.947 217.866 175.064 217.871 173.38 217.674C172.887 215.78 171.539 211.315 169.334 204.283L167.411 197.975L164.841 197.873C162.498 205.535 159.325 212.057 155.321 217.44C151.303 222.764 146.312 226.16 140.348 227.626C132.673 229.512 125.314 228.389 118.272 224.255C111.23 220.122 104.882 213.343 99.2294 203.921C93.5616 194.44 88.9594 182.896 85.4223 169.287Z" fill="white"/>
<path d="M155.984 69.8531C166.95 69.8531 175.84 61.2081 175.84 50.5441C175.84 39.88 166.95 31.2351 155.984 31.2351C145.018 31.2351 136.128 39.88 136.128 50.5441C136.128 61.2081 145.018 69.8531 155.984 69.8531Z" fill="#FFB990"/>
<path d="M151.225 71.3978C162.191 71.3978 171.081 62.7529 171.081 52.0888C171.081 41.4247 162.191 32.7798 151.225 32.7798C140.259 32.7798 131.369 41.4247 131.369 52.0888C131.369 62.7529 140.259 71.3978 151.225 71.3978Z" fill="white"/>
<path d="M182.593 238.15C185.808 238.15 188.413 235.616 188.413 232.49C188.413 229.365 185.808 226.831 182.593 226.831C179.379 226.831 176.774 229.365 176.774 232.49C176.774 235.616 179.379 238.15 182.593 238.15Z" fill="white"/>
<path d="M198.89 235.885C202.104 235.885 204.71 233.352 204.71 230.226C204.71 227.1 202.104 224.566 198.89 224.566C195.676 224.566 193.07 227.1 193.07 230.226C193.07 233.352 195.676 235.885 198.89 235.885Z" fill="white"/>
<g filter="url(#filter0_f_4468_36955)">
<path d="M123.233 244.941C146.375 244.941 165.136 243.928 165.136 242.678C165.136 241.427 146.375 240.414 123.233 240.414C100.091 240.414 81.3303 241.427 81.3303 242.678C81.3303 243.928 100.091 244.941 123.233 244.941Z" fill="#170C0C" fill-opacity="0.2"/>
</g>
<defs>
<filter id="filter0_f_4468_36955" x="77.3303" y="236.414" width="91.8057" height="12.5276" filterUnits="userSpaceOnUse" color-interpolation-filters="sRGB">
<feFlood flood-opacity="0" result="BackgroundImageFix"/>
<feBlend mode="normal" in="SourceGraphic" in2="BackgroundImageFix" result="shape"/>
<feGaussianBlur stdDeviation="2" result="effect1_foregroundBlur_4468_36955"/>
</filter>
<linearGradient id="paint0_linear_4468_36955" x1="141.998" y1="-0.0114619" x2="158.801" y2="279.054" gradientUnits="userSpaceOnUse">
<stop stop-color="#FC9C56"/>
<stop offset="0.380208" stop-color="#FF852E"/>
<stop offset="0.776042" stop-color="#FF2A1F"/>
</linearGradient>
<linearGradient id="paint1_linear_4468_36955" x1="142.002" y1="-0.0114631" x2="158.805" y2="279.054" gradientUnits="userSpaceOnUse">
<stop stop-color="#FC9C56"/>
<stop offset="0.380208" stop-color="#FF852E"/>
<stop offset="0.776042" stop-color="#FF2A1F"/>
</linearGradient>
<linearGradient id="paint2_linear_4468_36955" x1="141.999" y1="-0.0114708" x2="158.801" y2="279.054" gradientUnits="userSpaceOnUse">
<stop stop-color="#FC9C56"/>
<stop offset="0.380208" stop-color="#FF852E"/>
<stop offset="0.776042" stop-color="#FF2A1F"/>
</linearGradient>
<linearGradient id="paint3_linear_4468_36955" x1="142.004" y1="-0.0116858" x2="158.806" y2="279.054" gradientUnits="userSpaceOnUse">
<stop stop-color="#FC9C56"/>
<stop offset="0.380208" stop-color="#FF852E"/>
<stop offset="0.776042" stop-color="#FF2A1F"/>
</linearGradient>
<linearGradient id="paint4_linear_4468_36955" x1="142.004" y1="-0.0115957" x2="158.807" y2="279.054" gradientUnits="userSpaceOnUse">
<stop stop-color="#FC9C56"/>
<stop offset="0.380208" stop-color="#FF852E"/>
<stop offset="0.776042" stop-color="#FF2A1F"/>
</linearGradient>
<linearGradient id="paint5_linear_4468_36955" x1="142.004" y1="-0.0116172" x2="158.807" y2="279.054" gradientUnits="userSpaceOnUse">
<stop stop-color="#FC9C56"/>
<stop offset="0.380208" stop-color="#FF852E"/>
<stop offset="0.776042" stop-color="#FF2A1F"/>
</linearGradient>
</defs>
</svg>
