<svg width="14" height="14" viewBox="0 0 14 14" fill="none" xmlns="http://www.w3.org/2000/svg">
<g clip-path="url(#clip0_1015_18286)">
<path d="M5.83331 2.91667C5.83331 2.60725 5.95623 2.3105 6.17502 2.09171C6.39381 1.87292 6.69056 1.75 6.99998 1.75C7.3094 1.75 7.60615 1.87292 7.82494 2.09171C8.04373 2.3105 8.16665 2.60725 8.16665 2.91667C8.83655 3.23343 9.40763 3.72652 9.81868 4.34309C10.2297 4.95966 10.4652 5.67646 10.5 6.41667V8.16667C10.5439 8.52933 10.6723 8.87662 10.875 9.18057C11.0776 9.48453 11.3488 9.73666 11.6666 9.91667H2.33331C2.65119 9.73666 2.92237 9.48453 3.12501 9.18057C3.32764 8.87662 3.45608 8.52933 3.49998 8.16667V6.41667C3.53472 5.67646 3.77024 4.95966 4.18128 4.34309C4.59233 3.72652 5.16341 3.23343 5.83331 2.91667Z" stroke="#363636" stroke-width="1.5" stroke-linecap="round" stroke-linejoin="round"/>
<path d="M5.25 9.91797V10.5013C5.25 10.9654 5.43437 11.4106 5.76256 11.7387C6.09075 12.0669 6.53587 12.2513 7 12.2513C7.46413 12.2513 7.90925 12.0669 8.23744 11.7387C8.56563 11.4106 8.75 10.9654 8.75 10.5013V9.91797" stroke="#363636" stroke-width="1.5" stroke-linecap="round" stroke-linejoin="round"/>
</g>
<defs>
<clipPath id="clip0_1015_18286">
<rect width="14" height="14" fill="white"/>
</clipPath>
</defs>
</svg>
