<svg width="16" height="17" viewBox="0 0 16 17" fill="none" xmlns="http://www.w3.org/2000/svg">
<g clip-path="url(#clip0_605_2801)">
<path d="M9.33301 3.16663H13.333V7.16663H9.33301V3.16663Z" stroke="#4F4F4F" stroke-width="1.5" stroke-linecap="round" stroke-linejoin="round"/>
<path d="M2.66699 9.83337H6.66699V13.8334H2.66699V9.83337Z" stroke="#4F4F4F" stroke-width="1.5" stroke-linecap="round" stroke-linejoin="round"/>
<path d="M9.33301 11.8334C9.33301 12.3638 9.54372 12.8725 9.91879 13.2476C10.2939 13.6227 10.8026 13.8334 11.333 13.8334C11.8634 13.8334 12.3721 13.6227 12.7472 13.2476C13.1223 12.8725 13.333 12.3638 13.333 11.8334C13.333 11.3029 13.1223 10.7942 12.7472 10.4192C12.3721 10.0441 11.8634 9.83337 11.333 9.83337C10.8026 9.83337 10.2939 10.0441 9.91879 10.4192C9.54372 10.7942 9.33301 11.3029 9.33301 11.8334Z" stroke="#4F4F4F" stroke-width="2" stroke-linecap="round" stroke-linejoin="round"/>
<path d="M2.66699 5.16663C2.66699 5.42927 2.71872 5.68934 2.81923 5.93199C2.91974 6.17464 3.06706 6.39512 3.25278 6.58084C3.4385 6.76656 3.65897 6.91388 3.90163 7.01438C4.14428 7.11489 4.40435 7.16663 4.66699 7.16663C4.92964 7.16663 5.18971 7.11489 5.43236 7.01438C5.67501 6.91388 5.89549 6.76656 6.08121 6.58084C6.26692 6.39512 6.41424 6.17464 6.51475 5.93199C6.61526 5.68934 6.66699 5.42927 6.66699 5.16663C6.66699 4.90398 6.61526 4.64391 6.51475 4.40126C6.41424 4.15861 6.26692 3.93813 6.08121 3.75241C5.89549 3.5667 5.67501 3.41938 5.43236 3.31887C5.18971 3.21836 4.92964 3.16663 4.66699 3.16663C4.40435 3.16663 4.14428 3.21836 3.90163 3.31887C3.65897 3.41938 3.4385 3.5667 3.25278 3.75241C3.06706 3.93813 2.91974 4.15861 2.81923 4.40126C2.71872 4.64391 2.66699 4.90398 2.66699 5.16663Z" stroke="#4F4F4F" stroke-width="2" stroke-linecap="round" stroke-linejoin="round"/>
</g>
<defs>
<clipPath id="clip0_605_2801">
<rect width="16" height="16" fill="white" transform="translate(0 0.5)"/>
</clipPath>
</defs>
</svg>
