<svg width="49" height="48" viewBox="0 0 49 48" fill="none" xmlns="http://www.w3.org/2000/svg">
<g clip-path="url(#clip0_54_11217)">
<path d="M21.6 40H10.6C9.53917 40 8.52175 39.5786 7.77161 38.8284C7.02146 38.0783 6.60004 37.0609 6.60004 36V18C6.60004 16.9391 7.02146 15.9217 7.77161 15.1716C8.52175 14.4214 9.53917 14 10.6 14H12.6C13.6609 14 14.6783 13.5786 15.4285 12.8284C16.1786 12.0783 16.6 11.0609 16.6 10C16.6 9.46957 16.8108 8.96086 17.1858 8.58579C17.5609 8.21071 18.0696 8 18.6 8H30.6C31.1305 8 31.6392 8.21071 32.0142 8.58579C32.3893 8.96086 32.6 9.46957 32.6 10C32.6 11.0609 33.0215 12.0783 33.7716 12.8284C34.5218 13.5786 35.5392 14 36.6 14H38.6C39.6609 14 40.6783 14.4214 41.4285 15.1716C42.1786 15.9217 42.6 16.9391 42.6 18V22" stroke="white" stroke-width="2" stroke-linecap="round" stroke-linejoin="round"/>
<path d="M29.42 22.424C28.9033 21.7277 28.2418 21.1517 27.4811 20.7356C26.7204 20.3195 25.8785 20.0732 25.0134 20.0137C24.1484 19.9542 23.2807 20.0829 22.4702 20.391C21.6597 20.699 20.9255 21.1791 20.3184 21.7981C19.7112 22.4172 19.2454 23.1604 18.9531 23.9768C18.6607 24.7931 18.5488 25.6631 18.625 26.5268C18.7012 27.3905 18.9637 28.2275 19.3944 28.9801C19.8252 29.7326 20.4139 30.3828 21.12 30.886" stroke="white" stroke-width="2" stroke-linecap="round" stroke-linejoin="round"/>
<path d="M36.6 44L43.3 37.432C43.7109 37.0333 44.0377 36.5563 44.2612 36.0292C44.4847 35.5022 44.6003 34.9356 44.6013 34.3631C44.6022 33.7906 44.4884 33.2237 44.2666 32.6959C44.0449 32.1681 43.7196 31.69 43.31 31.29C42.4743 30.4727 41.3524 30.014 40.1835 30.0118C39.0145 30.0096 37.8909 30.4639 37.052 31.278L36.604 31.718L36.158 31.278C35.3224 30.4613 34.2009 30.003 33.0325 30.0008C31.864 29.9985 30.7408 30.4525 29.902 31.266C29.491 31.6646 29.1641 32.1414 28.9404 32.6685C28.7167 33.1955 28.6009 33.762 28.5998 34.3345C28.5987 34.907 28.7123 35.4739 28.9339 36.0018C29.1555 36.5297 29.4806 37.0078 29.89 37.408L36.6 44Z" stroke="white" stroke-width="2" stroke-linecap="round" stroke-linejoin="round"/>
</g>
<defs>
<clipPath id="clip0_54_11217">
<rect width="48" height="48" fill="white" transform="translate(0.600037)"/>
</clipPath>
</defs>
</svg>
