<svg width="49" height="48" viewBox="0 0 49 48" fill="none" xmlns="http://www.w3.org/2000/svg">
<g clip-path="url(#clip0_54_11203)">
<path d="M20.2 28L16.2 24L20.2 20" stroke="white" stroke-width="2" stroke-linecap="round" stroke-linejoin="round"/>
<path d="M28.2 20L32.2 24L28.2 28" stroke="white" stroke-width="2" stroke-linecap="round" stroke-linejoin="round"/>
<path d="M6.20001 24C6.20001 26.3638 6.6656 28.7044 7.57018 30.8883C8.47477 33.0722 9.80064 35.0565 11.4721 36.7279C13.1435 38.3994 15.1278 39.7252 17.3117 40.6298C19.4956 41.5344 21.8362 42 24.2 42C26.5638 42 28.9045 41.5344 31.0883 40.6298C33.2722 39.7252 35.2565 38.3994 36.9279 36.7279C38.5994 35.0565 39.9253 33.0722 40.8298 30.8883C41.7344 28.7044 42.2 26.3638 42.2 24C42.2 21.6362 41.7344 19.2956 40.8298 17.1117C39.9253 14.9278 38.5994 12.9435 36.9279 11.2721C35.2565 9.60062 33.2722 8.27475 31.0883 7.37017C28.9045 6.46558 26.5638 6 24.2 6C21.8362 6 19.4956 6.46558 17.3117 7.37017C15.1278 8.27475 13.1435 9.60062 11.4721 11.2721C9.80064 12.9435 8.47477 14.9278 7.57018 17.1117C6.6656 19.2956 6.20001 21.6362 6.20001 24Z" stroke="white" stroke-width="2" stroke-linecap="round" stroke-linejoin="round"/>
</g>
<defs>
<clipPath id="clip0_54_11203">
<rect width="48" height="48" fill="white" transform="translate(0.200012)"/>
</clipPath>
</defs>
</svg>
