<svg width="48" height="48" viewBox="0 0 48 48" fill="none" xmlns="http://www.w3.org/2000/svg">
<g clip-path="url(#clip0_54_11196)">
<path d="M36 16C37.5913 16 39.1174 16.6321 40.2426 17.7574C41.3679 18.8826 42 20.4087 42 22C42 23.5913 41.3679 25.1174 40.2426 26.2426C39.1174 27.3679 37.5913 28 36 28" stroke="white" stroke-width="2" stroke-linecap="round" stroke-linejoin="round"/>
<path d="M20 16V38C20 38.5304 19.7893 39.0391 19.4142 39.4142C19.0391 39.7893 18.5304 40 18 40H16C15.4696 40 14.9609 39.7893 14.5858 39.4142C14.2107 39.0391 14 38.5304 14 38V28" stroke="white" stroke-width="2" stroke-linecap="round" stroke-linejoin="round"/>
<path d="M24 16L33.048 8.45999C33.3109 8.241 33.6308 8.10149 33.9701 8.0578C34.3095 8.0141 34.6543 8.06804 34.9641 8.21329C35.2739 8.35853 35.5359 8.58907 35.7194 8.87789C35.9028 9.1667 36.0002 9.50182 36 9.84399V34.156C36.0002 34.4981 35.9028 34.8333 35.7194 35.1221C35.5359 35.4109 35.2739 35.6414 34.9641 35.7867C34.6543 35.9319 34.3095 35.9859 33.9701 35.9422C33.6308 35.8985 33.3109 35.759 33.048 35.54L24 28H8C7.46957 28 6.96086 27.7893 6.58579 27.4142C6.21071 27.0391 6 26.5304 6 26V18C6 17.4696 6.21071 16.9608 6.58579 16.5858C6.96086 16.2107 7.46957 16 8 16H24Z" stroke="white" stroke-width="2" stroke-linecap="round" stroke-linejoin="round"/>
</g>
<defs>
<clipPath id="clip0_54_11196">
<rect width="48" height="48" fill="white"/>
</clipPath>
</defs>
</svg>
