<svg width="49" height="48" viewBox="0 0 49 48" fill="none" xmlns="http://www.w3.org/2000/svg">
<g clip-path="url(#clip0_54_11210)">
<path d="M35.4 21L37.4 19C37.9253 18.4747 38.342 17.8511 38.6263 17.1648C38.9106 16.4785 39.0569 15.7429 39.0569 15C39.0569 14.2571 38.9106 13.5215 38.6263 12.8352C38.342 12.1489 37.9253 11.5253 37.4 11C36.8747 10.4747 36.2511 10.058 35.5648 9.77374C34.8785 9.48946 34.1429 9.34314 33.4 9.34314C32.6572 9.34314 31.9216 9.48946 31.2352 9.77374C30.5489 10.058 29.9253 10.4747 29.4 11L8.40002 32V40H16.4L20.4 36" stroke="white" stroke-width="2" stroke-linecap="round" stroke-linejoin="round"/>
<path d="M27.4 13L35.4 21" stroke="white" stroke-width="2" stroke-linecap="round" stroke-linejoin="round"/>
<path d="M36 41.634L31.656 43.91C31.5271 43.9771 31.3821 44.0071 31.2371 43.9965C31.0922 43.9859 30.953 43.9353 30.8352 43.8503C30.7174 43.7652 30.6255 43.6491 30.5698 43.5148C30.5142 43.3806 30.4969 43.2335 30.52 43.09L31.35 38.268L27.836 34.854C27.7311 34.7526 27.6569 34.6238 27.6217 34.4822C27.5865 34.3406 27.5919 34.192 27.6371 34.0533C27.6824 33.9146 27.7657 33.7915 27.8776 33.6979C27.9896 33.6043 28.1255 33.544 28.27 33.524L33.126 32.82L35.298 28.434C35.363 28.3034 35.4631 28.1935 35.5871 28.1166C35.7111 28.0398 35.8541 27.9991 36 27.9991C36.1459 27.9991 36.2889 28.0398 36.4129 28.1166C36.5369 28.1935 36.6371 28.3034 36.702 28.434L38.874 32.82L43.73 33.524C43.8741 33.5447 44.0095 33.6054 44.1209 33.699C44.2323 33.7927 44.3153 33.9157 44.3605 34.0541C44.4056 34.1925 44.4112 34.3407 44.3764 34.4821C44.3417 34.6235 44.2681 34.7523 44.164 34.854L40.65 38.268L41.478 43.088C41.5029 43.2317 41.4869 43.3796 41.432 43.5147C41.377 43.6498 41.2853 43.7668 41.1672 43.8524C41.0491 43.938 40.9094 43.9888 40.7639 43.999C40.6183 44.0092 40.4729 43.9783 40.344 43.91L36 41.634Z" stroke="white" stroke-width="2" stroke-linecap="round" stroke-linejoin="round"/>
</g>
<defs>
<clipPath id="clip0_54_11210">
<rect width="48" height="48" fill="white" transform="translate(0.400024)"/>
</clipPath>
</defs>
</svg>
