<svg width="49" height="48" viewBox="0 0 49 48" fill="none" xmlns="http://www.w3.org/2000/svg">
<g clip-path="url(#clip0_54_11246)">
<path d="M28.2 6V14C28.2 14.5304 28.4107 15.0391 28.7858 15.4142C29.1609 15.7893 29.6696 16 30.2 16H38.2" stroke="white" stroke-width="2" stroke-linecap="round" stroke-linejoin="round"/>
<path d="M34.2 42H14.2C13.1391 42 12.1217 41.5786 11.3716 40.8284C10.6214 40.0783 10.2 39.0609 10.2 38V10C10.2 8.93913 10.6214 7.92172 11.3716 7.17157C12.1217 6.42143 13.1391 6 14.2 6H28.2L38.2 16V38C38.2 39.0609 37.7786 40.0783 37.0284 40.8284C36.2783 41.5786 35.2609 42 34.2 42Z" stroke="white" stroke-width="2" stroke-linecap="round" stroke-linejoin="round"/>
<path d="M22.2 36H26.2" stroke="white" stroke-width="2" stroke-linecap="round" stroke-linejoin="round"/>
<path d="M24.2 36V22" stroke="white" stroke-width="2" stroke-linecap="round" stroke-linejoin="round"/>
<path d="M18.2 24V22H30.2V24" stroke="white" stroke-width="2" stroke-linecap="round" stroke-linejoin="round"/>
</g>
<defs>
<clipPath id="clip0_54_11246">
<rect width="48" height="48" fill="white" transform="translate(0.200012)"/>
</clipPath>
</defs>
</svg>
