<svg width="16" height="16" viewBox="0 0 16 16" fill="none" xmlns="http://www.w3.org/2000/svg">
<g clip-path="url(#clip0_422_14402)">
<path d="M11.8667 13.2129L10.4187 13.9716C10.3757 13.994 10.3274 14.004 10.279 14.0004C10.2307 13.9969 10.1843 13.98 10.1451 13.9517C10.1058 13.9233 10.0752 13.8846 10.0566 13.8399C10.0381 13.7951 10.0323 13.7461 10.04 13.6983L10.3167 12.0909L9.14534 10.9529C9.11038 10.9191 9.08562 10.8762 9.0739 10.829C9.06218 10.7818 9.06396 10.7323 9.07905 10.686C9.09413 10.6398 9.12191 10.5988 9.15921 10.5676C9.19652 10.5364 9.24184 10.5163 9.29001 10.5096L10.9087 10.2749L11.6327 8.81294C11.6543 8.7694 11.6877 8.73276 11.729 8.70715C11.7704 8.68154 11.818 8.66797 11.8667 8.66797C11.9153 8.66797 11.963 8.68154 12.0043 8.70715C12.0456 8.73276 12.079 8.7694 12.1007 8.81294L12.8247 10.2749L14.4433 10.5096C14.4914 10.5165 14.5365 10.5367 14.5736 10.568C14.6108 10.5992 14.6384 10.6402 14.6535 10.6863C14.6685 10.7324 14.6704 10.7819 14.6588 10.829C14.6472 10.8761 14.6227 10.919 14.588 10.9529L13.4167 12.0909L13.6927 13.6976C13.701 13.7455 13.6956 13.7948 13.6773 13.8398C13.659 13.8849 13.6284 13.9239 13.5891 13.9524C13.5497 13.981 13.5031 13.9979 13.4546 14.0013C13.4061 14.0047 13.3576 13.9944 13.3147 13.9716L11.8667 13.2129Z" stroke="#1D1D1D" stroke-width="1.5" stroke-linecap="round" stroke-linejoin="round"/>
<path d="M4.13334 13.2129L2.68534 13.9716C2.64236 13.994 2.59402 14.004 2.54571 14.0004C2.49739 13.9969 2.45101 13.98 2.41173 13.9517C2.37245 13.9233 2.34183 13.8846 2.32327 13.8399C2.30472 13.7951 2.29897 13.7461 2.30667 13.6983L2.58334 12.0909L1.412 10.9529C1.37704 10.9191 1.35229 10.8762 1.34056 10.829C1.32884 10.7818 1.33063 10.7323 1.34571 10.686C1.3608 10.6398 1.38857 10.5988 1.42588 10.5676C1.46318 10.5364 1.5085 10.5163 1.55667 10.5096L3.17534 10.2749L3.89934 8.81294C3.92099 8.7694 3.95436 8.73276 3.9957 8.70715C4.03704 8.68154 4.0847 8.66797 4.13334 8.66797C4.18197 8.66797 4.22963 8.68154 4.27097 8.70715C4.31231 8.73276 4.34568 8.7694 4.36734 8.81294L5.09134 10.2749L6.71 10.5096C6.75803 10.5165 6.80316 10.5367 6.8403 10.568C6.87744 10.5992 6.9051 10.6402 6.92015 10.6863C6.93521 10.7324 6.93705 10.7819 6.92548 10.829C6.9139 10.8761 6.88938 10.919 6.85467 10.9529L5.68334 12.0909L5.95934 13.6976C5.96762 13.7455 5.9623 13.7948 5.94399 13.8398C5.92567 13.8849 5.8951 13.9239 5.85573 13.9524C5.81636 13.981 5.76978 13.9979 5.72128 14.0013C5.67278 14.0047 5.62429 13.9944 5.58134 13.9716L4.13334 13.2129Z" stroke="#1D1D1D" stroke-width="1.5" stroke-linecap="round" stroke-linejoin="round"/>
<path d="M8 6.54498L6.552 7.30364C6.50903 7.32601 6.46069 7.33599 6.41238 7.33247C6.36406 7.32895 6.31768 7.31208 6.2784 7.28372C6.23912 7.25537 6.20849 7.21666 6.18994 7.17191C6.17139 7.12716 6.16564 7.07814 6.17334 7.03031L6.45 5.42298L5.27867 4.28498C5.24371 4.25118 5.21895 4.20823 5.20723 4.16104C5.19551 4.11384 5.19729 4.0643 5.21238 4.01807C5.22746 3.97184 5.25524 3.93079 5.29255 3.89959C5.32985 3.86839 5.37517 3.84831 5.42334 3.84164L7.042 3.60698L7.766 2.14498C7.78766 2.10143 7.82103 2.06479 7.86237 2.03918C7.90371 2.01357 7.95137 2 8 2C8.04863 2 8.0963 2.01357 8.13764 2.03918C8.17898 2.06479 8.21235 2.10143 8.234 2.14498L8.958 3.60698L10.5767 3.84164C10.6247 3.84855 10.6698 3.86876 10.707 3.89999C10.7441 3.93121 10.7718 3.97221 10.7868 4.01834C10.8019 4.06446 10.8037 4.11388 10.7921 4.161C10.7806 4.20813 10.756 4.25107 10.7213 4.28498L9.55 5.42298L9.826 7.02964C9.83429 7.07755 9.82897 7.12683 9.81066 7.17187C9.79234 7.21691 9.76177 7.25591 9.7224 7.28445C9.68303 7.31298 9.63645 7.32991 9.58795 7.3333C9.53944 7.3367 9.49096 7.32642 9.448 7.30364L8 6.54498Z" stroke="#1D1D1D" stroke-width="1.5" stroke-linecap="round" stroke-linejoin="round"/>
</g>
<defs>
<clipPath id="clip0_422_14402">
<rect width="16" height="16" fill="white"/>
</clipPath>
</defs>
</svg>
