<svg width="16" height="16" viewBox="0 0 16 16" fill="none" xmlns="http://www.w3.org/2000/svg">
<g clip-path="url(#clip0_422_14434)">
<path d="M11.3333 5.33464V3.33464C11.3333 3.15782 11.2631 2.98826 11.1381 2.86323C11.013 2.73821 10.8435 2.66797 10.6667 2.66797H3.99999C3.64637 2.66797 3.30723 2.80844 3.05718 3.05849C2.80713 3.30854 2.66666 3.64768 2.66666 4.0013M2.66666 4.0013C2.66666 4.35492 2.80713 4.69406 3.05718 4.94411C3.30723 5.19416 3.64637 5.33464 3.99999 5.33464H12C12.1768 5.33464 12.3464 5.40487 12.4714 5.5299C12.5964 5.65492 12.6667 5.82449 12.6667 6.0013V8.0013M2.66666 4.0013V12.0013C2.66666 12.3549 2.80713 12.6941 3.05718 12.9441C3.30723 13.1942 3.64637 13.3346 3.99999 13.3346H12C12.1768 13.3346 12.3464 13.2644 12.4714 13.1394C12.5964 13.0143 12.6667 12.8448 12.6667 12.668V10.668" stroke="#1D1D1D" stroke-width="1.5" stroke-linecap="round" stroke-linejoin="round"/>
<path d="M13.3333 8V10.6667H10.6667C10.3131 10.6667 9.97392 10.5262 9.72387 10.2761C9.47382 10.0261 9.33334 9.68696 9.33334 9.33333C9.33334 8.97971 9.47382 8.64057 9.72387 8.39052C9.97392 8.14048 10.3131 8 10.6667 8H13.3333Z" stroke="#1D1D1D" stroke-width="1.5" stroke-linecap="round" stroke-linejoin="round"/>
</g>
<defs>
<clipPath id="clip0_422_14434">
<rect width="16" height="16" fill="white"/>
</clipPath>
</defs>
</svg>
