<svg width="15" height="15" viewBox="0 0 15 15" fill="none" xmlns="http://www.w3.org/2000/svg">
<g clip-path="url(#clip0_4750_13433)">
<path d="M2.25 7.5C2.25 8.89239 2.80312 10.2277 3.78769 11.2123C4.77226 12.1969 6.10761 12.75 7.5 12.75C8.89239 12.75 10.2277 12.1969 11.2123 11.2123C12.1969 10.2277 12.75 8.89239 12.75 7.5C12.75 6.10761 12.1969 4.77226 11.2123 3.78769C10.2277 2.80312 8.89239 2.25 7.5 2.25" stroke="white" stroke-linejoin="round"/>
<path d="M10.4167 7.4987C10.4167 6.92184 10.2456 6.35793 9.92516 5.87829C9.60467 5.39864 9.14915 5.02481 8.6162 4.80405C8.08325 4.58329 7.49681 4.52554 6.93103 4.63808C6.36525 4.75062 5.84555 5.0284 5.43765 5.4363C5.02974 5.84421 4.75196 6.36391 4.63942 6.92969C4.52688 7.49546 4.58464 8.08191 4.80539 8.61486C5.02615 9.14781 5.39999 9.60333 5.87963 9.92382C6.35927 10.2443 6.92318 10.4154 7.50004 10.4154" stroke="white" stroke-linecap="round" stroke-linejoin="round"/>
</g>
<defs>
<clipPath id="clip0_4750_13433">
<rect width="14" height="14" fill="white" transform="translate(0.5 0.5)"/>
</clipPath>
</defs>
</svg>
