<svg width="14" height="14" viewBox="0 0 14 14" fill="none" xmlns="http://www.w3.org/2000/svg">
<g clip-path="url(#clip0_591_1875)">
<path d="M1.75 7C1.75 8.39239 2.30312 9.72774 3.28769 10.7123C4.27226 11.6969 5.60761 12.25 7 12.25C8.39239 12.25 9.72774 11.6969 10.7123 10.7123C11.6969 9.72774 12.25 8.39239 12.25 7C12.25 5.60761 11.6969 4.27226 10.7123 3.28769C9.72774 2.30312 8.39239 1.75 7 1.75" stroke="white" stroke-width="1.5" stroke-linecap="round" stroke-linejoin="round"/>
<path d="M9.91671 6.99998C9.91671 6.42312 9.74565 5.85921 9.42516 5.37957C9.10467 4.89992 8.64915 4.52609 8.1162 4.30533C7.58325 4.08458 6.99681 4.02682 6.43103 4.13936C5.86525 4.2519 5.34555 4.52968 4.93765 4.93759C4.52974 5.34549 4.25196 5.86519 4.13942 6.43097C4.02688 6.99675 4.08464 7.58319 4.30539 8.11614C4.52615 8.64909 4.89999 9.10461 5.37963 9.4251C5.85927 9.74559 6.42318 9.91665 7.00004 9.91665" stroke="white" stroke-width="1.5" stroke-linecap="round" stroke-linejoin="round"/>
</g>
<defs>
<clipPath id="clip0_591_1875">
<rect width="14" height="14" fill="white"/>
</clipPath>
</defs>
</svg>
