<svg width="16" height="16" viewBox="0 0 16 16" fill="none" xmlns="http://www.w3.org/2000/svg">
<g clip-path="url(#clip0_54_11112)">
<path d="M10 7.33333C9.99986 6.96589 9.89849 6.60559 9.70703 6.29197C9.51557 5.97836 9.24141 5.72355 8.91465 5.55551C8.58788 5.38747 8.22114 5.31269 7.85467 5.33939C7.4882 5.36609 7.13617 5.49323 6.83721 5.70686C6.53826 5.92049 6.30393 6.21235 6.15995 6.5504C6.01596 6.88846 5.96789 7.25964 6.02101 7.62322C6.07412 7.9868 6.22638 8.32873 6.46105 8.61146C6.69573 8.8942 7.00376 9.10682 7.35133 9.22599" stroke="#1D1D1D" stroke-linecap="round" stroke-linejoin="round"/>
<path d="M7.83999 14.3133C7.54406 14.278 7.26861 14.1442 7.05799 13.9333L4.22866 11.1046C3.60717 10.4831 3.14895 9.71751 2.89475 8.87608C2.64055 8.03466 2.59826 7.14345 2.77163 6.28173C2.94501 5.42002 3.32867 4.61451 3.8885 3.93687C4.44833 3.25922 5.16697 2.73045 5.98049 2.39758C6.79401 2.06472 7.67719 1.93808 8.55146 2.02894C9.42574 2.11979 10.264 2.42532 10.9917 2.91835C11.7194 3.41138 12.3139 4.07662 12.7225 4.8549C13.131 5.63318 13.3408 6.50036 13.3333 7.37931" stroke="#363636" stroke-linecap="round" stroke-linejoin="round"/>
<path d="M12 14.6667L14.2333 12.4773C14.3703 12.3444 14.4792 12.1854 14.5537 12.0097C14.6282 11.834 14.6668 11.6452 14.6671 11.4544C14.6674 11.2635 14.6295 11.0746 14.5555 10.8986C14.4816 10.7227 14.3732 10.5633 14.2367 10.43C13.9581 10.1576 13.5841 10.0047 13.1945 10.0039C12.8048 10.0032 12.4303 10.1546 12.1507 10.426L12.0013 10.5727L11.8527 10.426C11.5741 10.1538 11.2003 10.001 10.8108 10.0002C10.4213 9.9995 10.0469 10.1508 9.76733 10.422C9.63033 10.5548 9.52134 10.7138 9.44678 10.8895C9.37223 11.0651 9.33363 11.254 9.33325 11.4448C9.33288 11.6357 9.37075 11.8246 9.44461 12.0006C9.51848 12.1766 9.62685 12.3359 9.76333 12.4693L12 14.6667Z" stroke="#363636" stroke-linecap="round" stroke-linejoin="round"/>
</g>
<defs>
<clipPath id="clip0_54_11112">
<rect width="16" height="16" fill="white"/>
</clipPath>
</defs>
</svg>
