<svg width="16" height="17" viewBox="0 0 16 17" fill="none" xmlns="http://www.w3.org/2000/svg">
<g clip-path="url(#clip0_211_34976)">
<path d="M6 7.83301C6 8.36344 6.21071 8.87215 6.58579 9.24722C6.96086 9.62229 7.46957 9.83301 8 9.83301C8.53043 9.83301 9.03914 9.62229 9.41421 9.24722C9.78929 8.87215 10 8.36344 10 7.83301C10 7.30257 9.78929 6.79387 9.41421 6.41879C9.03914 6.04372 8.53043 5.83301 8 5.83301C7.46957 5.83301 6.96086 6.04372 6.58579 6.41879C6.21071 6.79387 6 7.30257 6 7.83301Z" stroke="#1D1D1D" stroke-width="1.5" stroke-linecap="round" stroke-linejoin="round"/>
<path d="M8.52203 14.7171C8.27748 14.821 8.00746 14.8495 7.74661 14.7989C7.48576 14.7483 7.24597 14.6209 7.05803 14.4331L4.22869 11.6044C3.60781 10.9835 3.14985 10.2189 2.89546 9.37842C2.64107 8.53798 2.59813 7.64773 2.77045 6.78671C2.94277 5.92569 3.32502 5.12053 3.88326 4.44273C4.4415 3.76492 5.15846 3.23544 5.97049 2.90128C6.78252 2.56712 7.66449 2.43863 8.53811 2.52721C9.41172 2.61579 10.25 2.9187 10.9784 3.40906C11.7068 3.89942 12.3029 4.56204 12.7137 5.3381C13.1245 6.11417 13.3374 6.97966 13.3334 7.85775" stroke="#1D1D1D" stroke-width="1.5" stroke-linecap="round" stroke-linejoin="round"/>
<path d="M14.0806 13.9144C14.3604 13.6347 14.5509 13.2784 14.6282 12.8904C14.7054 12.5024 14.6658 12.1003 14.5144 11.7348C14.3631 11.3693 14.1067 11.0569 13.7778 10.8371C13.4489 10.6173 13.0622 10.5 12.6666 10.5C12.271 10.5 11.8843 10.6173 11.5554 10.8371C11.2265 11.0569 10.9702 11.3693 10.8188 11.7348C10.6675 12.1003 10.6279 12.5024 10.7051 12.8904C10.7823 13.2784 10.9729 13.6347 11.2526 13.9144C11.5313 14.1938 12.0026 14.6111 12.6666 15.1671C13.3673 14.5738 13.8393 14.1564 14.0806 13.9144Z" stroke="#1D1D1D" stroke-width="1.5" stroke-linecap="round" stroke-linejoin="round"/>
<path d="M12.6666 12.5V12.5067" stroke="#1D1D1D" stroke-width="1.5" stroke-linecap="round" stroke-linejoin="round"/>
</g>
<defs>
<clipPath id="clip0_211_34976">
<rect width="16" height="16" fill="white" transform="translate(0 0.5)"/>
</clipPath>
</defs>
</svg>
