<svg width="16" height="17" viewBox="0 0 16 17" fill="none" xmlns="http://www.w3.org/2000/svg">
<g clip-path="url(#clip0_666_21297)">
<path d="M6 7.83333C6 8.36376 6.21071 8.87247 6.58579 9.24754C6.96086 9.62261 7.46957 9.83333 8 9.83333C8.53043 9.83333 9.03914 9.62261 9.41421 9.24754C9.78929 8.87247 10 8.36376 10 7.83333C10 7.3029 9.78929 6.79419 9.41421 6.41911C9.03914 6.04404 8.53043 5.83333 8 5.83333C7.46957 5.83333 6.96086 6.04404 6.58579 6.41911C6.21071 6.79419 6 7.3029 6 7.83333Z" stroke="#1D1D1D" stroke-width="1.5" stroke-linecap="round" stroke-linejoin="round"/>
<path d="M7.91333 14.82C7.59065 14.7995 7.28653 14.6621 7.05799 14.4333L4.22866 11.6047C3.56456 10.9403 3.08774 10.1122 2.84642 9.20436C2.60511 8.29649 2.60787 7.34099 2.85442 6.43453C3.10098 5.52806 3.58258 4.7028 4.25051 4.04224C4.91843 3.38168 5.74898 2.90926 6.65812 2.67277C7.56726 2.43627 8.52274 2.4441 9.42788 2.69547C10.333 2.94683 11.1557 3.43281 11.8127 4.10423C12.4697 4.77565 12.9377 5.60869 13.1694 6.51908C13.4011 7.42946 13.3882 8.38488 13.132 9.28867" stroke="#1D1D1D" stroke-width="1.5" stroke-linecap="round" stroke-linejoin="round"/>
<path d="M10 13.1667L11.3333 14.5L14 11.8333" stroke="#1D1D1D" stroke-width="1.5" stroke-linecap="round" stroke-linejoin="round"/>
</g>
<defs>
<clipPath id="clip0_666_21297">
<rect width="16" height="16" fill="white" transform="translate(0 0.5)"/>
</clipPath>
</defs>
</svg>
