<svg width="48" height="48" viewBox="0 0 48 48" fill="none" xmlns="http://www.w3.org/2000/svg">
<g clip-path="url(#clip0_317_9738)">
<path d="M35 21.0006L37 19.0006C37.5253 18.4753 37.942 17.8517 38.2263 17.1654C38.5105 16.4791 38.6569 15.7435 38.6569 15.0006C38.6569 14.2577 38.5105 13.5221 38.2263 12.8358C37.942 12.1495 37.5253 11.5259 37 11.0006C36.4747 10.4753 35.8511 10.0586 35.1648 9.77435C34.4785 9.49007 33.7429 9.34375 33 9.34375C32.2571 9.34375 31.5215 9.49007 30.8352 9.77435C30.1489 10.0586 29.5253 10.4753 29 11.0006L8 32.0006V40.0006H16L20 36.0006" stroke="white" stroke-width="2" stroke-linecap="round" stroke-linejoin="round"/>
<path d="M27 13L35 21" stroke="white" stroke-width="2" stroke-linecap="round" stroke-linejoin="round"/>
<path d="M35.6 41.6349L31.256 43.9109C31.1271 43.978 30.9821 44.008 30.8371 43.9974C30.6922 43.9869 30.553 43.9362 30.4352 43.8512C30.3173 43.7661 30.2255 43.65 30.1698 43.5157C30.1142 43.3815 30.0969 43.2344 30.12 43.0909L30.95 38.2689L27.436 34.8549C27.3311 34.7535 27.2568 34.6247 27.2217 34.4831C27.1865 34.3415 27.1919 34.1929 27.2371 34.0542C27.2824 33.9155 27.3657 33.7924 27.4776 33.6988C27.5895 33.6052 27.7255 33.5449 27.87 33.5249L32.726 32.8209L34.898 28.4349C34.963 28.3043 35.0631 28.1944 35.1871 28.1175C35.3111 28.0407 35.4541 28 35.6 28C35.7459 28 35.8889 28.0407 36.0129 28.1175C36.1369 28.1944 36.237 28.3043 36.302 28.4349L38.474 32.8209L43.33 33.5249C43.4741 33.5457 43.6095 33.6063 43.7209 33.7C43.8323 33.7936 43.9153 33.9166 43.9605 34.055C44.0056 34.1934 44.0111 34.3417 43.9764 34.483C43.9417 34.6244 43.8681 34.7532 43.764 34.8549L40.25 38.2689L41.078 43.0889C41.1028 43.2327 41.0869 43.3805 41.032 43.5156C40.977 43.6507 40.8853 43.7677 40.7672 43.8533C40.6491 43.939 40.5093 43.9897 40.3638 43.9999C40.2183 44.0101 40.0729 43.9793 39.944 43.9109L35.6 41.6349Z" stroke="white" stroke-width="2" stroke-linecap="round" stroke-linejoin="round"/>
</g>
<defs>
<clipPath id="clip0_317_9738">
<rect width="48" height="48" fill="white"/>
</clipPath>
</defs>
</svg>
