<svg width="48" height="48" viewBox="0 0 48 48" fill="none" xmlns="http://www.w3.org/2000/svg">
<g clip-path="url(#clip0_317_9724)">
<path d="M36 16C37.5913 16 39.1174 16.6321 40.2426 17.7574C41.3679 18.8826 42 20.4087 42 22C42 23.5913 41.3679 25.1174 40.2426 26.2426C39.1174 27.3679 37.5913 28 36 28" stroke="white" stroke-width="2" stroke-linecap="round" stroke-linejoin="round"/>
<path d="M20 16V38C20 38.5304 19.7893 39.0391 19.4142 39.4142C19.0391 39.7893 18.5304 40 18 40H16C15.4696 40 14.9609 39.7893 14.5858 39.4142C14.2107 39.0391 14 38.5304 14 38V28" stroke="white" stroke-width="2" stroke-linecap="round" stroke-linejoin="round"/>
<path d="M24 15.9999L33.048 8.4599C33.3109 8.24091 33.6308 8.1014 33.9701 8.05771C34.3095 8.01401 34.6543 8.06795 34.9641 8.2132C35.2739 8.35844 35.5359 8.58898 35.7194 8.8778C35.9028 9.16661 36.0002 9.50173 36 9.84389V34.1559C36.0002 34.4981 35.9028 34.8332 35.7194 35.122C35.5359 35.4108 35.2739 35.6413 34.9641 35.7866C34.6543 35.9318 34.3095 35.9858 33.9701 35.9421C33.6308 35.8984 33.3109 35.7589 33.048 35.5399L24 27.9999H8C7.46957 27.9999 6.96086 27.7892 6.58579 27.4141C6.21071 27.039 6 26.5303 6 25.9999V17.9999C6 17.4695 6.21071 16.9608 6.58579 16.5857C6.96086 16.2106 7.46957 15.9999 8 15.9999H24Z" stroke="white" stroke-width="2" stroke-linecap="round" stroke-linejoin="round"/>
</g>
<defs>
<clipPath id="clip0_317_9724">
<rect width="48" height="48" fill="white"/>
</clipPath>
</defs>
</svg>
