<svg width="32" height="32" viewBox="0 0 32 32" fill="none" xmlns="http://www.w3.org/2000/svg">
<g clip-path="url(#clip0_237_17302)">
<path d="M4 22.667C4 23.7279 4.42143 24.7453 5.17157 25.4954C5.92172 26.2456 6.93913 26.667 8 26.667C9.06087 26.667 10.0783 26.2456 10.8284 25.4954C11.5786 24.7453 12 23.7279 12 22.667C12 21.6061 11.5786 20.5887 10.8284 19.8386C10.0783 19.0884 9.06087 18.667 8 18.667C6.93913 18.667 5.92172 19.0884 5.17157 19.8386C4.42143 20.5887 4 21.6061 4 22.667Z" stroke="#FF6900" stroke-width="1.5" stroke-linecap="round" stroke-linejoin="round"/>
<path d="M17.3334 22.667C17.3334 23.7279 17.7548 24.7453 18.5049 25.4954C19.2551 26.2456 20.2725 26.667 21.3334 26.667C22.3942 26.667 23.4117 26.2456 24.1618 25.4954C24.9119 24.7453 25.3334 23.7279 25.3334 22.667C25.3334 21.6061 24.9119 20.5887 24.1618 19.8386C23.4117 19.0884 22.3942 18.667 21.3334 18.667C20.2725 18.667 19.2551 19.0884 18.5049 19.8386C17.7548 20.5887 17.3334 21.6061 17.3334 22.667Z" stroke="#FF6900" stroke-width="1.5" stroke-linecap="round" stroke-linejoin="round"/>
<path d="M12 22.6663V5.33301H25.3333V22.6663" stroke="#FF6900" stroke-width="1.5" stroke-linecap="round" stroke-linejoin="round"/>
<path d="M12 10.667H25.3333" stroke="#1D1D1D" stroke-width="1.5" stroke-linecap="round" stroke-linejoin="round"/>
</g>
<defs>
<clipPath id="clip0_237_17302">
<rect width="32" height="32" fill="white"/>
</clipPath>
</defs>
</svg>
