<svg width="32" height="32" viewBox="0 0 32 32" fill="none" xmlns="http://www.w3.org/2000/svg">
<g clip-path="url(#clip0_237_17321)">
<path d="M13.3334 6.66667C13.3334 7.37391 13.6143 8.05219 14.1144 8.55228C14.6145 9.05238 15.2928 9.33333 16 9.33333C16.7073 9.33333 17.3856 9.05238 17.8857 8.55228C18.3858 8.05219 18.6667 7.37391 18.6667 6.66667C18.6667 5.95942 18.3858 5.28115 17.8857 4.78105C17.3856 4.28095 16.7073 4 16 4C15.2928 4 14.6145 4.28095 14.1144 4.78105C13.6143 5.28115 13.3334 5.95942 13.3334 6.66667Z" stroke="#FF6900" stroke-width="1.5" stroke-linecap="round" stroke-linejoin="round"/>
<path d="M4 25.3337C4 26.0409 4.28095 26.7192 4.78105 27.2193C5.28115 27.7194 5.95942 28.0003 6.66667 28.0003C7.37391 28.0003 8.05219 27.7194 8.55228 27.2193C9.05238 26.7192 9.33333 26.0409 9.33333 25.3337C9.33333 24.6264 9.05238 23.9481 8.55228 23.448C8.05219 22.9479 7.37391 22.667 6.66667 22.667C5.95942 22.667 5.28115 22.9479 4.78105 23.448C4.28095 23.9481 4 24.6264 4 25.3337Z" stroke="#FF6900" stroke-width="1.5" stroke-linecap="round" stroke-linejoin="round"/>
<path d="M22.6666 25.3337C22.6666 26.0409 22.9476 26.7192 23.4477 27.2193C23.9478 27.7194 24.626 28.0003 25.3333 28.0003C26.0405 28.0003 26.7188 27.7194 27.2189 27.2193C27.719 26.7192 28 26.0409 28 25.3337C28 24.6264 27.719 23.9481 27.2189 23.448C26.7188 22.9479 26.0405 22.667 25.3333 22.667C24.626 22.667 23.9478 22.9479 23.4477 23.448C22.9476 23.9481 22.6666 24.6264 22.6666 25.3337Z" stroke="#FF6900" stroke-width="1.5" stroke-linecap="round" stroke-linejoin="round"/>
<path d="M12 18.667C12 19.7279 12.4214 20.7453 13.1716 21.4954C13.9217 22.2456 14.9391 22.667 16 22.667C17.0609 22.667 18.0783 22.2456 18.8284 21.4954C19.5786 20.7453 20 19.7279 20 18.667C20 17.6061 19.5786 16.5887 18.8284 15.8386C18.0783 15.0884 17.0609 14.667 16 14.667C14.9391 14.667 13.9217 15.0884 13.1716 15.8386C12.4214 16.5887 12 17.6061 12 18.667Z" stroke="#1D1D1D" stroke-width="1.5" stroke-linecap="round" stroke-linejoin="round"/>
<path d="M16 9.33301V14.6663" stroke="#363636" stroke-width="2" stroke-linecap="round" stroke-linejoin="round"/>
<path d="M8.93335 23.7331L12.6667 21.0664" stroke="#363636" stroke-width="2" stroke-linecap="round" stroke-linejoin="round"/>
<path d="M23.0667 23.7331L19.3334 21.0664" stroke="#363636" stroke-width="2" stroke-linecap="round" stroke-linejoin="round"/>
</g>
<defs>
<clipPath id="clip0_237_17321">
<rect width="32" height="32" fill="white"/>
</clipPath>
</defs>
</svg>
