<svg width="20" height="20" viewBox="0 0 20 20" fill="none" xmlns="http://www.w3.org/2000/svg">
<g clip-path="url(#clip0_925_2553)">
<path d="M15 6.66663C15.663 6.66663 16.2989 6.93002 16.7678 7.39886C17.2366 7.8677 17.5 8.50358 17.5 9.16663C17.5 9.82967 17.2366 10.4656 16.7678 10.9344C16.2989 11.4032 15.663 11.6666 15 11.6666" stroke="#FF6900" stroke-width="1.5" stroke-linecap="round" stroke-linejoin="round"/>
<path d="M8.33337 6.66663V15.8333C8.33337 16.0543 8.24558 16.2663 8.0893 16.4225C7.93302 16.5788 7.72105 16.6666 7.50004 16.6666H6.66671C6.44569 16.6666 6.23373 16.5788 6.07745 16.4225C5.92117 16.2663 5.83337 16.0543 5.83337 15.8333V11.6666" stroke="#1D1D1D" stroke-width="1.5" stroke-linecap="round" stroke-linejoin="round"/>
<path d="M10 6.6667L13.77 3.52504C13.8795 3.43379 14.0128 3.37566 14.1542 3.35746C14.2956 3.33925 14.4393 3.36173 14.5684 3.42225C14.6975 3.48277 14.8066 3.57882 14.8831 3.69916C14.9595 3.8195 15.0001 3.95914 15 4.1017V14.2317C15.0001 14.3743 14.9595 14.5139 14.8831 14.6342C14.8066 14.7546 14.6975 14.8506 14.5684 14.9112C14.4393 14.9717 14.2956 14.9942 14.1542 14.9759C14.0128 14.9577 13.8795 14.8996 13.77 14.8084L10 11.6667H3.33333C3.11232 11.6667 2.90036 11.5789 2.74408 11.4226C2.5878 11.2663 2.5 11.0544 2.5 10.8334V7.50004C2.5 7.27902 2.5878 7.06706 2.74408 6.91078C2.90036 6.7545 3.11232 6.6667 3.33333 6.6667H10Z" stroke="#FF6900" stroke-width="1.5" stroke-linecap="round" stroke-linejoin="round"/>
</g>
<defs>
<clipPath id="clip0_925_2553">
<rect width="20" height="20" fill="white"/>
</clipPath>
</defs>
</svg>
