<svg width="41" height="41" viewBox="0 0 41 41" fill="none" xmlns="http://www.w3.org/2000/svg">
<g clip-path="url(#clip0_5253_56692)">
<path d="M20.5 5.5C24.3931 8.94429 29.4742 10.7376 34.6667 10.5C35.4227 13.0717 35.654 15.7691 35.3469 18.432C35.0398 21.0948 34.2006 23.6688 32.8791 26.0009C31.5575 28.333 29.7807 30.3756 27.6541 32.0075C25.5276 33.6393 23.0947 34.827 20.5 35.5C17.9054 34.827 15.4725 33.6393 13.346 32.0075C11.2194 30.3756 9.44257 28.333 8.12104 26.0009C6.79952 23.6688 5.96027 21.0948 5.65317 18.432C5.34608 15.7691 5.5774 13.0717 6.33338 10.5C11.5259 10.7376 16.607 8.94429 20.5 5.5Z" fill="#27AE60" stroke="#27AE60" stroke-linecap="round" stroke-linejoin="round"/>
<path d="M18.833 18.8307C18.833 19.2728 19.0086 19.6967 19.3212 20.0092C19.6337 20.3218 20.0576 20.4974 20.4997 20.4974C20.9417 20.4974 21.3656 20.3218 21.6782 20.0092C21.9907 19.6967 22.1663 19.2728 22.1663 18.8307C22.1663 18.3887 21.9907 17.9648 21.6782 17.6522C21.3656 17.3397 20.9417 17.1641 20.4997 17.1641C20.0576 17.1641 19.6337 17.3397 19.3212 17.6522C19.0086 17.9648 18.833 18.3887 18.833 18.8307Z" stroke="white" stroke-linecap="round" stroke-linejoin="round"/>
<path d="M20.5 20.5V24.6667" stroke="white" stroke-linecap="round" stroke-linejoin="round"/>
</g>
<defs>
<clipPath id="clip0_5253_56692">
<rect width="40" height="40" fill="white" transform="translate(0.5 0.5)"/>
</clipPath>
</defs>
</svg>
