<svg width="24" height="25" viewBox="0 0 24 25" fill="none" xmlns="http://www.w3.org/2000/svg">
<g clip-path="url(#clip0_426_15443)">
<path d="M11 4.50781C11 4.77303 11.1054 5.02738 11.2929 5.21492C11.4804 5.40246 11.7348 5.50781 12 5.50781C12.2652 5.50781 12.5196 5.40246 12.7071 5.21492C12.8946 5.02738 13 4.77303 13 4.50781C13 4.2426 12.8946 3.98824 12.7071 3.80071C12.5196 3.61317 12.2652 3.50781 12 3.50781C11.7348 3.50781 11.4804 3.61317 11.2929 3.80071C11.1054 3.98824 11 4.2426 11 4.50781Z" stroke="#1D1D1D" stroke-width="2" stroke-linecap="round" stroke-linejoin="round"/>
<path d="M3 12.5078C3 12.773 3.10536 13.0274 3.29289 13.2149C3.48043 13.4025 3.73478 13.5078 4 13.5078C4.26522 13.5078 4.51957 13.4025 4.70711 13.2149C4.89464 13.0274 5 12.773 5 12.5078C5 12.2426 4.89464 11.9882 4.70711 11.8007C4.51957 11.6132 4.26522 11.5078 4 11.5078C3.73478 11.5078 3.48043 11.6132 3.29289 11.8007C3.10536 11.9882 3 12.2426 3 12.5078Z" stroke="#1D1D1D" stroke-width="2" stroke-linecap="round" stroke-linejoin="round"/>
<path d="M19 12.5078C19 12.773 19.1054 13.0274 19.2929 13.2149C19.4804 13.4025 19.7348 13.5078 20 13.5078C20.2652 13.5078 20.5196 13.4025 20.7071 13.2149C20.8946 13.0274 21 12.773 21 12.5078C21 12.2426 20.8946 11.9882 20.7071 11.8007C20.5196 11.6132 20.2652 11.5078 20 11.5078C19.7348 11.5078 19.4804 11.6132 19.2929 11.8007C19.1054 11.9882 19 12.2426 19 12.5078Z" stroke="#1D1D1D" stroke-width="2" stroke-linecap="round" stroke-linejoin="round"/>
<path d="M11 20.5078C11 20.773 11.1054 21.0274 11.2929 21.2149C11.4804 21.4025 11.7348 21.5078 12 21.5078C12.2652 21.5078 12.5196 21.4025 12.7071 21.2149C12.8946 21.0274 13 20.773 13 20.5078C13 20.2426 12.8946 19.9882 12.7071 19.8007C12.5196 19.6132 12.2652 19.5078 12 19.5078C11.7348 19.5078 11.4804 19.6132 11.2929 19.8007C11.1054 19.9882 11 20.2426 11 20.5078Z" stroke="#1D1D1D" stroke-width="2" stroke-linecap="round" stroke-linejoin="round"/>
<path d="M5.5 6.00781L8.5 9.00781" stroke="#1D1D1D" stroke-width="2" stroke-linecap="round" stroke-linejoin="round"/>
<path d="M15.5 16.0078L18.5 19.0078" stroke="#1D1D1D" stroke-width="2" stroke-linecap="round" stroke-linejoin="round"/>
<path d="M18.5 6.00781L15.5 9.00781" stroke="#1D1D1D" stroke-width="2" stroke-linecap="round" stroke-linejoin="round"/>
<path d="M8.5 16.0078L5.5 19.0078" stroke="#1D1D1D" stroke-width="2" stroke-linecap="round" stroke-linejoin="round"/>
</g>
<defs>
<clipPath id="clip0_426_15443">
<rect width="24" height="24" fill="white" transform="translate(0 0.507812)"/>
</clipPath>
</defs>
</svg>
