<svg width="55" height="55" viewBox="0 0 55 55" fill="none" xmlns="http://www.w3.org/2000/svg">
<path d="M24.5045 4.07659C26.2619 2.31923 29.1111 2.31923 30.8685 4.07659L51.1111 24.3192C52.8685 26.0766 52.8685 28.9258 51.1111 30.6832L30.8685 50.9258C29.1111 52.6832 26.2619 52.6832 24.5045 50.9258L4.2619 30.6832C2.50454 28.9258 2.50454 26.0766 4.2619 24.3192L24.5045 4.07659Z" fill="#F4F9FE"/>
<path d="M24.5045 4.07659C26.2619 2.31923 29.1111 2.31923 30.8685 4.07659L51.1111 24.3192C52.8685 26.0766 52.8685 28.9258 51.1111 30.6832L30.8685 50.9258C29.1111 52.6832 26.2619 52.6832 24.5045 50.9258L4.2619 30.6832C2.50454 28.9258 2.50454 26.0766 4.2619 24.3192L24.5045 4.07659Z" stroke="#2F80ED"/>
<g clip-path="url(#clip0_4664_39238)">
<path d="M30.8197 24.8333C30.687 24.4568 30.4447 24.1286 30.1239 23.891C29.8031 23.6534 29.4185 23.5172 29.0197 23.5H26.353C25.8226 23.5 25.3139 23.7107 24.9388 24.0858C24.5637 24.4609 24.353 24.9696 24.353 25.5C24.353 26.0304 24.5637 26.5391 24.9388 26.9142C25.3139 27.2893 25.8226 27.5 26.353 27.5H29.0197C29.5501 27.5 30.0588 27.7107 30.4339 28.0858C30.809 28.4609 31.0197 28.9696 31.0197 29.5C31.0197 30.0304 30.809 30.5391 30.4339 30.9142C30.0588 31.2893 29.5501 31.5 29.0197 31.5H26.353C25.9542 31.4828 25.5696 31.3466 25.2488 31.109C24.9281 30.8714 24.6857 30.5432 24.553 30.1667" stroke="#2F80ED" stroke-width="1.5" stroke-linecap="round" stroke-linejoin="round"/>
<path d="M27.6865 21.5V23.5M27.6865 31.5V33.5" stroke="#2F80ED" stroke-width="1.5" stroke-linecap="round" stroke-linejoin="round"/>
</g>
<defs>
<clipPath id="clip0_4664_39238">
<rect width="16" height="16" fill="white" transform="translate(19.6865 19.5)"/>
</clipPath>
</defs>
</svg>
