<svg width="16" height="16" viewBox="0 0 16 16" fill="none" xmlns="http://www.w3.org/2000/svg">
<g clip-path="url(#clip0_431_22250)">
<path d="M10 5.33203H10.0067" stroke="white" stroke-linecap="round" stroke-linejoin="round"/>
<path d="M2 4C2 3.46957 2.21071 2.96086 2.58579 2.58579C2.96086 2.21071 3.46957 2 4 2H12C12.5304 2 13.0391 2.21071 13.4142 2.58579C13.7893 2.96086 14 3.46957 14 4V12C14 12.5304 13.7893 13.0391 13.4142 13.4142C13.0391 13.7893 12.5304 14 12 14H4C3.46957 14 2.96086 13.7893 2.58579 13.4142C2.21071 13.0391 2 12.5304 2 12V4Z" stroke="#FF6900" stroke-linecap="round" stroke-linejoin="round"/>
<path d="M2 10.6666L5.33333 7.33322C5.952 6.73789 6.71467 6.73789 7.33333 7.33322L10.6667 10.6666" stroke="white" stroke-width="1.5" stroke-linecap="round" stroke-linejoin="round"/>
<path d="M9.33325 9.33192L9.99992 8.66525C10.6186 8.06992 11.3813 8.06992 11.9999 8.66525L13.9999 10.6652" stroke="white" stroke-width="1.5" stroke-linecap="round" stroke-linejoin="round"/>
</g>
<defs>
<clipPath id="clip0_431_22250">
<rect width="16" height="16" fill="white"/>
</clipPath>
</defs>
</svg>
