<svg width="340" height="340" viewBox="0 0 340 340" fill="none" xmlns="http://www.w3.org/2000/svg">
<g clip-path="url(#clip0_4662_36979)">
<path d="M170 340C263.888 340 340 263.888 340 170C340 76.1116 263.888 0 170 0C76.1116 0 0 76.1116 0 170C0 263.888 76.1116 340 170 340Z" fill="#F0F0F0"/>
<path d="M162.609 169.997H340C340 154.652 337.955 139.789 334.144 125.648H162.609V169.997Z" fill="#D80027"/>
<path d="M162.609 81.3012H315.048C304.642 64.3198 291.337 49.31 275.823 36.9531H162.609V81.3012Z" fill="#D80027"/>
<path d="M170 339.995C210.009 339.995 246.783 326.167 275.823 303.039H64.1772C93.2174 326.167 129.991 339.995 170 339.995V339.995Z" fill="#D80027"/>
<path d="M24.9516 258.692H315.049C323.403 245.06 329.882 230.158 334.144 214.344H5.85645C10.1177 230.158 16.597 245.06 24.9516 258.692V258.692Z" fill="#D80027"/>
<path d="M170 170C170 76.1122 170 65.0436 170 0C76.1122 0 0 76.1122 0 170H170Z" fill="#0052B4"/>
<path d="M113.046 145.518C89.8289 145.518 71.0081 126.697 71.0081 103.481C71.0081 80.2643 89.8296 61.4428 113.046 61.4428C120.285 61.4428 127.096 63.2736 133.043 66.4957C123.714 57.3734 110.956 51.7422 96.8773 51.7422C68.3033 51.7422 45.1382 74.9067 45.1382 103.481C45.1382 132.056 68.3033 155.22 96.8773 155.22C110.956 155.22 123.714 149.589 133.043 140.467C127.096 143.688 120.285 145.518 113.046 145.518V145.518Z" fill="#FFDA44"/>
<path d="M124.892 73.9141L132.356 89.5209L149.21 85.6268L141.663 101.192L155.217 111.941L138.341 115.745L138.388 133.045L124.892 122.222L111.396 133.045L111.442 115.745L94.5659 111.941L108.121 101.192L100.572 85.6268L117.428 89.5209L124.892 73.9141Z" fill="#FFDA44"/>
</g>
<defs>
<clipPath id="clip0_4662_36979">
<rect width="340" height="340" fill="white"/>
</clipPath>
</defs>
</svg>
