<svg width="340" height="340" viewBox="0 0 340 340" fill="none" xmlns="http://www.w3.org/2000/svg">
<g clip-path="url(#clip0_4600_19143)">
<path d="M170 340C263.888 340 340 263.888 340 170C340 76.1116 263.888 0 170 0C76.1116 0 0 76.1116 0 170C0 263.888 76.1116 340 170 340Z" fill="#6DA544"/>
<path d="M96.0874 203.258C96.0874 215.504 106.015 225.432 118.261 225.432H184.783C184.783 235.637 193.056 243.91 203.261 243.91H225.435C235.64 243.91 243.913 235.637 243.913 225.432V203.258H96.0874Z" fill="white"/>
<path d="M245.761 96.0859V147.825C245.761 155.976 239.129 162.608 230.978 162.608V184.781C251.356 184.781 267.934 168.202 267.934 147.825V96.0859H245.761Z" fill="white"/>
<path d="M86.8481 147.825C86.8481 155.976 80.2168 162.608 72.0654 162.608V184.781C92.4435 184.781 109.022 168.202 109.022 147.825V96.0859H86.8481V147.825Z" fill="white"/>
<path d="M212.5 96.0859H234.674V147.825H212.5V96.0859Z" fill="white"/>
<path d="M179.239 125.651C179.239 127.689 177.581 129.347 175.543 129.347C173.506 129.347 171.848 127.689 171.848 125.651V96.0859H149.674V125.651C149.674 127.689 148.016 129.347 145.979 129.347C143.941 129.347 142.283 127.689 142.283 125.651V96.0859H120.109V125.651C120.109 139.916 131.714 151.521 145.979 151.521C151.473 151.521 156.567 149.795 160.761 146.862C164.955 149.794 170.05 151.521 175.544 151.521C176.65 151.521 177.738 151.444 178.808 151.307C177.237 157.781 171.406 162.608 164.457 162.608V184.781C184.835 184.781 201.413 168.202 201.413 147.825V125.651V96.0859H179.24V125.651H179.239Z" fill="white"/>
<path d="M120.109 162.609H153.37V184.783H120.109V162.609Z" fill="white"/>
</g>
<defs>
<clipPath id="clip0_4600_19143">
<rect width="340" height="340" fill="white"/>
</clipPath>
</defs>
</svg>
