<svg width="341" height="340" viewBox="0 0 341 340" fill="none" xmlns="http://www.w3.org/2000/svg">
<g clip-path="url(#clip0_4662_37126)">
<path d="M170.5 340C264.388 340 340.5 263.888 340.5 170C340.5 76.1116 264.388 0 170.5 0C76.6116 0 0.5 76.1116 0.5 170C0.5 263.888 76.6116 340 170.5 340Z" fill="#F0F0F0"/>
<path d="M0.5 170.001C0.5 76.1122 76.6122 0 170.5 0C264.388 0 340.5 76.1122 340.5 170.001" fill="#D80027"/>
<path d="M103.978 88.6916C103.978 63.9234 121.385 43.2325 144.63 38.1557C141.057 37.3761 137.351 36.9531 133.543 36.9531C104.968 36.9531 81.8037 60.117 81.8037 88.6922C81.8037 117.268 104.968 140.431 133.543 140.431C137.35 140.431 141.057 140.008 144.63 139.228C121.385 134.151 103.978 113.46 103.978 88.6916V88.6916Z" fill="#F0F0F0"/>
<path d="M170.5 40.6484L174.17 51.9408H186.044L176.437 58.9208L180.106 70.2132L170.5 63.2345L160.894 70.2132L164.563 58.9208L154.957 51.9408H166.83L170.5 40.6484Z" fill="#F0F0F0"/>
<path d="M141.696 62.8203L145.365 74.1134H157.239L147.633 81.0927L151.303 92.385L141.696 85.4064L132.089 92.385L135.759 81.0927L126.152 74.1134H138.026L141.696 62.8203Z" fill="#F0F0F0"/>
<path d="M199.304 62.8203L202.975 74.1134H214.848L205.241 81.0927L208.911 92.385L199.304 85.4064L189.698 92.385L193.368 81.0927L183.761 74.1134H195.635L199.304 62.8203Z" fill="#F0F0F0"/>
<path d="M188.218 96.0859L191.887 107.379H203.761L194.155 114.358L197.824 125.651L188.218 118.672L178.612 125.651L182.281 114.358L172.675 107.379H184.548L188.218 96.0859Z" fill="#F0F0F0"/>
<path d="M152.782 96.0859L156.451 107.379H168.326L158.719 114.358L162.389 125.651L152.782 118.672L143.175 125.651L146.845 114.358L137.239 107.379H149.113L152.782 96.0859Z" fill="#F0F0F0"/>
</g>
<defs>
<clipPath id="clip0_4662_37126">
<rect width="340" height="340" fill="white" transform="translate(0.5)"/>
</clipPath>
</defs>
</svg>
