<svg width="340" height="340" viewBox="0 0 340 340" fill="none" xmlns="http://www.w3.org/2000/svg">
<g clip-path="url(#clip0_4662_37027)">
<path d="M170 340C263.888 340 340 263.888 340 170C340 76.1116 263.888 0 170 0C76.1116 0 0 76.1116 0 170C0 263.888 76.1116 340 170 340Z" fill="#D80027"/>
<path d="M163.039 138.914L176.988 158.135L199.577 150.811L185.607 170.015L199.553 189.236L176.972 181.884L163.002 201.088L163.017 177.341L140.435 169.988L163.025 162.664L163.039 138.914Z" fill="#F0F0F0"/>
<path d="M124.973 218.042C98.4393 218.042 76.929 196.531 76.929 169.998C76.929 143.465 98.4393 121.954 124.973 121.954C133.245 121.954 141.03 124.047 147.826 127.729C137.164 117.302 122.583 110.867 106.494 110.867C73.8371 110.867 47.3643 137.341 47.3643 169.997C47.3643 202.654 73.8378 229.127 106.494 229.127C122.585 229.127 137.165 222.692 147.826 212.266C141.03 215.949 133.245 218.042 124.973 218.042V218.042Z" fill="#F0F0F0"/>
</g>
<defs>
<clipPath id="clip0_4662_37027">
<rect width="340" height="340" fill="white"/>
</clipPath>
</defs>
</svg>
