<svg width="340" height="340" viewBox="0 0 340 340" fill="none" xmlns="http://www.w3.org/2000/svg">
<g clip-path="url(#clip0_4662_37053)">
<path d="M170 340C263.888 340 340 263.888 340 170C340 76.1116 263.888 0 170 0C76.1116 0 0 76.1116 0 170C0 263.888 76.1116 340 170 340Z" fill="#F0F0F0"/>
<path d="M96.0874 229.133L110.87 329.43C129.286 336.264 149.206 340.003 170 340.003C243.094 340.003 305.407 293.869 329.426 229.133H96.0874Z" fill="black"/>
<path d="M96.0874 110.87L110.87 10.5725C129.286 3.73867 149.206 0 170 0C243.094 0 305.407 46.1338 329.426 110.87H96.0874Z" fill="#6DA544"/>
<path d="M0 169.996C0 243.09 46.1344 305.403 110.87 329.423V10.5703C46.1344 34.5901 0 96.9024 0 169.996Z" fill="#A2001D"/>
</g>
<defs>
<clipPath id="clip0_4662_37053">
<rect width="340" height="340" fill="white"/>
</clipPath>
</defs>
</svg>
