<svg width="340" height="340" viewBox="0 0 340 340" fill="none" xmlns="http://www.w3.org/2000/svg">
<g clip-path="url(#clip0_6486_41325)">
<path d="M170 340C263.888 340 340 263.888 340 170C340 76.1116 263.888 0 170 0C76.1116 0 0 76.1116 0 170C0 263.888 76.1116 340 170 340Z" fill="#F0F0F0"/>
<path d="M35.1423 66.5C21.7886 83.8739 11.7195 103.899 5.85645 125.653H94.2949L35.1423 66.5Z" fill="#0052B4"/>
<path d="M334.144 125.66C328.281 103.906 318.211 83.8817 304.858 66.5078L245.707 125.66H334.144Z" fill="#0052B4"/>
<path d="M5.85645 214.352C11.7201 236.105 21.7893 256.13 35.1423 273.503L94.293 214.352H5.85645Z" fill="#0052B4"/>
<path d="M273.5 35.1459C256.126 21.7922 236.102 11.723 214.348 5.85938V94.2972L273.5 35.1459Z" fill="#0052B4"/>
<path d="M66.5005 304.862C83.8744 318.215 103.899 328.284 125.653 334.148V245.711L66.5005 304.862Z" fill="#0052B4"/>
<path d="M125.652 5.85938C103.898 11.723 83.8737 21.7922 66.5005 35.1452L125.652 94.2966V5.85938Z" fill="#0052B4"/>
<path d="M214.348 334.148C236.101 328.284 256.126 318.215 273.5 304.862L214.348 245.711V334.148Z" fill="#0052B4"/>
<path d="M245.707 214.352L304.858 273.504C318.211 256.13 328.281 236.105 334.144 214.352H245.707Z" fill="#0052B4"/>
<path d="M338.561 147.826H192.175H192.174V1.43902C184.916 0.494063 177.515 0 170 0C162.483 0 155.084 0.494063 147.826 1.43902V147.825V147.826H1.43902C0.494063 155.084 0 162.485 0 170C0 177.517 0.494063 184.916 1.43902 192.174H147.825H147.826V338.561C155.084 339.506 162.483 340 170 340C177.515 340 184.916 339.507 192.174 338.561V192.175V192.174H338.561C339.506 184.916 340 177.517 340 170C340 162.485 339.506 155.084 338.561 147.826V147.826Z" fill="#D80027"/>
<path d="M214.348 214.352L290.208 290.212C293.697 286.724 297.025 283.078 300.201 279.298L235.254 214.352H214.348V214.352Z" fill="#D80027"/>
<path d="M125.652 214.352H125.651L49.7915 290.211C53.2792 293.7 56.9255 297.028 60.7054 300.204L125.652 235.256V214.352Z" fill="#D80027"/>
<path d="M125.652 125.651V125.65L49.7921 49.7891C46.3031 53.2767 42.9749 56.9231 39.7993 60.7029L104.747 125.65H125.652V125.651Z" fill="#D80027"/>
<path d="M214.348 125.65L290.209 49.789C286.721 46.3 283.075 42.9718 279.295 39.7969L214.348 104.744V125.65Z" fill="#D80027"/>
</g>
<defs>
<clipPath id="clip0_6486_41325">
<rect width="340" height="340" fill="white"/>
</clipPath>
</defs>
</svg>
