<svg width="340" height="340" viewBox="0 0 340 340" fill="none" xmlns="http://www.w3.org/2000/svg">
<g clip-path="url(#clip0_4662_37101)">
<path d="M170 340C263.888 340 340 263.888 340 170C340 76.1116 263.888 0 170 0C76.1116 0 0 76.1116 0 170C0 263.888 76.1116 340 170 340Z" fill="#F0F0F0"/>
<path d="M170 125.653H334.144C329.881 109.839 323.402 94.9366 315.049 81.3047H170V125.653Z" fill="#338AF3"/>
<path d="M64.1772 303.043H275.823C291.337 290.687 304.642 275.677 315.048 258.695H24.9517C35.3582 275.677 48.6633 290.687 64.1772 303.043V303.043Z" fill="#338AF3"/>
<path d="M170 0V36.9564H275.823C246.784 13.8284 210.009 0 170 0V0Z" fill="#338AF3"/>
<path d="M170 125.653H334.144C329.881 109.839 323.402 94.9366 315.049 81.3047H170V125.653Z" fill="#338AF3"/>
<path d="M0 170C0 185.344 2.04531 200.208 5.85637 214.348H334.144C337.955 200.208 340 185.344 340 170H0Z" fill="#338AF3"/>
<path d="M147.826 99.4907L127.064 109.257L138.119 129.365L115.575 125.052L112.718 147.826L97.0153 131.076L81.3116 147.826L78.4554 125.052L55.9105 129.364L66.9658 109.256L46.2046 99.4907L66.9665 89.7257L55.9105 69.6178L78.4548 73.9303L81.3122 51.1562L97.0153 67.9066L112.718 51.1562L115.575 73.9303L138.12 69.6178L127.064 89.7263L147.826 99.4907Z" fill="#FFDA44"/>
</g>
<defs>
<clipPath id="clip0_4662_37101">
<rect width="340" height="340" fill="white"/>
</clipPath>
</defs>
</svg>
