<svg width="341" height="340" viewBox="0 0 341 340" fill="none" xmlns="http://www.w3.org/2000/svg">
<g clip-path="url(#clip0_4662_38389)">
<path d="M170.5 340C264.388 340 340.5 263.888 340.5 170C340.5 76.1116 264.388 0 170.5 0C76.6116 0 0.5 76.1116 0.5 170C0.5 263.888 76.6116 340 170.5 340Z" fill="#F0F0F0"/>
<path d="M163.109 169.997H340.5C340.5 154.653 338.455 139.788 334.644 125.648H163.109V169.997Z" fill="#D80027"/>
<path d="M163.109 81.3012H315.548C305.142 64.3198 291.836 49.31 276.322 36.9531H163.109V81.3012Z" fill="#D80027"/>
<path d="M170.5 339.995C210.509 339.995 247.283 326.167 276.322 303.039H64.6777C93.7172 326.167 130.491 339.995 170.5 339.995Z" fill="#D80027"/>
<path d="M25.4516 258.692H315.549C323.903 245.059 330.382 230.158 334.644 214.344H6.35645C10.6177 230.158 17.097 245.059 25.4516 258.692V258.692Z" fill="#D80027"/>
<path d="M79.2472 26.5479H94.7391L80.3289 37.0168L85.8334 53.9564L71.4239 43.4875L57.0144 53.9564L61.7691 39.3225C49.0815 49.891 37.9611 62.2731 28.797 76.0697H33.7609L24.5882 82.7336C23.1591 85.1175 21.7885 87.5394 20.475 89.9971L24.8552 103.478L16.6832 97.5408C14.6518 101.845 12.7938 106.245 11.1237 110.738L15.9494 125.591H33.7609L19.3507 136.06L24.8552 153L10.4457 142.531L1.81418 148.802C0.950234 155.747 0.5 162.821 0.5 170H170.5C170.5 76.1122 170.5 65.0436 170.5 0C136.917 0 105.611 9.7418 79.2472 26.5479V26.5479ZM85.8334 153L71.4239 142.531L57.0144 153L62.5188 136.06L48.1086 125.591H65.9201L71.4239 108.652L76.9276 125.591H94.7391L80.3289 136.06L85.8334 153ZM80.3289 86.5386L85.8334 103.478L71.4239 93.0093L57.0144 103.478L62.5188 86.5386L48.1086 76.0697H65.9201L71.4239 59.1301L76.9276 76.0697H94.7391L80.3289 86.5386ZM146.812 153L132.402 142.531L117.993 153L123.497 136.06L109.087 125.591H126.898L132.402 108.652L137.906 125.591H155.717L141.307 136.06L146.812 153ZM141.307 86.5386L146.812 103.478L132.402 93.0093L117.993 103.478L123.497 86.5386L109.087 76.0697H126.898L132.402 59.1301L137.906 76.0697H155.717L141.307 86.5386ZM141.307 37.0168L146.812 53.9564L132.402 43.4875L117.993 53.9564L123.497 37.0168L109.087 26.5479H126.898L132.402 9.60832L137.906 26.5479H155.717L141.307 37.0168Z" fill="#0052B4"/>
</g>
<defs>
<clipPath id="clip0_4662_38389">
<rect width="340" height="340" fill="white" transform="translate(0.5)"/>
</clipPath>
</defs>
</svg>
