<svg width="44" height="14" viewBox="0 0 44 14" fill="none" xmlns="http://www.w3.org/2000/svg">
<path d="M1.16549 1.37841C1.39759 1.44473 1.99442 1.65196 2.49177 1.83432C2.99742 2.01669 3.48649 2.17418 3.58596 2.18247C3.67714 2.18247 3.75175 2.21563 3.73517 2.2405C3.70201 2.28194 5.06146 2.97825 5.16922 2.96996C5.20237 2.96996 4.91225 2.80417 4.52265 2.60523C4.13305 2.40628 3.83464 2.2405 3.85951 2.2405C3.88438 2.23221 4.19108 2.32339 4.54752 2.43115C4.89567 2.5472 5.1858 2.61352 5.1858 2.59694C5.1858 2.57207 5.2604 2.59694 5.35158 2.64667C5.44276 2.69641 6.01472 2.88706 6.61984 3.06943C7.21667 3.25179 7.85495 3.49218 8.02073 3.60823C8.45178 3.88178 8.70875 4.37085 9.09005 5.63911C9.27242 6.23594 9.47965 6.83277 9.54596 6.94882C9.62057 7.08145 9.65373 7.09803 9.62057 6.99855C9.58741 6.90737 9.3636 5.99555 9.11492 4.96768C8.63414 2.96167 8.56783 2.74615 8.31915 2.43115C7.95442 1.97524 7.73061 1.92551 4.47292 1.6188C2.79019 1.45302 1.26496 1.30381 1.08259 1.28723C0.759312 1.24578 0.759312 1.25407 1.16549 1.37841Z" fill="#EC9615"/>
<path d="M4.23282 1.58151C6.01502 1.75559 7.57341 1.94624 7.69775 1.99598C8.05419 2.14519 8.32774 2.39387 8.49352 2.71715C8.57642 2.89122 8.82509 3.77818 9.0489 4.69829C9.26443 5.6184 9.46337 6.35615 9.47995 6.33957C9.54626 6.27326 8.65931 2.26124 8.50181 1.92138C8.37747 1.64783 8.24484 1.52349 7.97959 1.40744C7.6563 1.25823 7.41591 1.24165 4.31572 1.24994L1 1.25823L4.23282 1.58151Z" fill="#ECC115"/>
<path d="M5.51714 3.74678C5.68293 4.3519 6.35436 6.7558 7.00921 9.09338L8.20287 13.3375L10.0514 13.3624C11.8087 13.3872 11.9413 13.3707 11.9082 13.1551C11.9082 13.122 11.9413 13.0971 11.9828 13.0971C12.0242 13.0971 12.0574 13.0722 12.0574 13.0308C12.0325 12.865 12.074 12.6826 12.1734 12.5832C12.2232 12.5251 12.2729 12.434 12.2729 12.3925C12.2729 12.3428 12.5465 11.6465 12.8863 10.8341L13.4997 9.35035L12.3144 8.18156C11.6678 7.53499 11.1539 7.04592 11.187 7.10395C11.2119 7.15368 11.2036 7.21171 11.1704 7.22829C11.129 7.23658 10.8969 7.73393 10.6565 8.31419C10.1757 9.45811 10.1509 9.4664 10.0348 8.62089C9.96849 8.04893 9.82757 7.51841 9.74468 7.46039C9.71152 7.43552 9.56232 7.17855 9.41311 6.88014C8.65049 5.37149 7.09211 3.73021 5.59175 2.86812L5.20215 2.64431L5.51714 3.74678Z" fill="#151540"/>
<path d="M38.135 4.93841C38.2013 5.29484 38.9971 9.00016 39.0468 9.1991C39.08 9.30686 38.8894 9.32344 37.646 9.32344H36.2036L36.3694 8.90898C36.4606 8.67688 36.8087 7.76505 37.1403 6.8781C37.4719 5.99115 37.7869 5.14564 37.8449 5.01301C37.8946 4.87209 37.9029 4.79749 37.8615 4.84722C37.762 4.94669 31.6942 13.0868 31.5948 13.236C31.545 13.3189 31.86 13.3438 33.0703 13.3438H34.5955L34.9271 12.3656L35.2504 11.3958H37.4304H39.6188L39.7266 11.9346C39.7846 12.233 39.8758 12.6723 39.9255 12.9044L40.0084 13.3438H41.5834C42.8682 13.3438 43.1501 13.3189 43.1501 13.2277C43.1501 13.1614 42.9097 12.0755 42.6112 10.8155C42.3128 9.54725 42.0724 8.5028 42.0724 8.49451C42.0724 8.48622 41.1772 7.60756 40.0747 6.54653C38.1433 4.67315 38.0853 4.62341 38.135 4.93841Z" fill="#151540"/>
<path d="M27.8816 9.84605C27.9396 10.5755 27.1936 11.0894 25.9668 11.164C25.0798 11.2221 24.2426 11.0894 23.2147 10.7247C22.7588 10.5672 22.3278 10.4263 22.2615 10.418C22.1703 10.4014 22.0957 10.6833 21.9299 11.6448C21.8139 12.3245 21.6978 12.9297 21.6564 12.9877C21.5072 13.2198 23.4966 13.6674 25.0135 13.7337C27.1605 13.8332 29.0836 13.3276 30.0783 12.3992L30.443 12.0593L29.1499 10.7993C27.8568 9.53934 27.8568 9.53934 27.8816 9.84605Z" fill="#151540"/>
<path d="M16.674 11.7854C16.5497 12.4817 16.4254 13.1199 16.4088 13.1945C16.3673 13.3355 16.4834 13.3438 18.0418 13.3438H19.7162L18.3568 11.9511C17.619 11.1885 16.989 10.5585 16.9559 10.542C16.931 10.5337 16.7984 11.0891 16.674 11.7854Z" fill="#151540"/>
<path d="M27.5515 0.990936C26.3662 1.20646 25.4958 1.61263 24.8409 2.25091C24.0535 3.02181 23.7053 3.99995 23.7716 5.24334C23.8462 6.64424 24.5094 7.48974 26.217 8.34354C26.7226 8.60051 27.1205 8.84919 27.0956 8.89063C27.0708 8.94037 27.0873 8.94866 27.1454 8.9155C27.2034 8.87406 27.8085 9.42115 28.7784 10.3744C29.6239 11.2116 30.345 11.8996 30.3865 11.9162C30.5108 11.966 31.1242 10.9381 31.2651 10.449C31.3646 10.1092 31.3895 9.81904 31.348 9.24707C31.2817 8.25236 31.2734 8.21091 31.2071 8.25236C31.1242 8.30209 31.0413 8.03684 31.1076 7.93737C31.1325 7.88763 31.1242 7.87105 31.0828 7.89592C31.0413 7.92079 30.917 7.81303 30.8092 7.66382C30.4942 7.19133 29.9223 6.78515 28.712 6.17175C28.0821 5.84846 27.593 5.55005 27.6261 5.5086C27.6676 5.47545 27.6427 5.46716 27.5847 5.50031C27.4686 5.56663 26.9713 5.24334 26.7226 4.93664C26.391 4.53047 26.6231 3.96679 27.2614 3.61864C27.5764 3.45286 27.7256 3.43628 28.7701 3.44457C29.9057 3.45286 30.4031 3.54404 31.2983 3.92535C31.4061 3.96679 31.4641 3.76785 31.663 2.798C31.7957 2.14315 31.92 1.57119 31.9366 1.51316C31.9614 1.45514 31.8371 1.37224 31.6382 1.31422C31.4475 1.25619 31.2983 1.18159 31.2983 1.14843C31.2983 1.11528 31.2237 1.10699 31.1325 1.13185C31.0413 1.15672 30.9667 1.14014 30.9667 1.10699C30.9667 1.0158 30.9004 1.0158 29.226 0.957779C28.5214 0.932911 27.7671 0.94949 27.5515 0.990936Z" fill="#154096"/>
<path d="M13.2275 3.53677C12.6307 4.76358 11.9841 6.08987 11.8018 6.48776L11.4619 7.21722L12.4898 8.25338C13.0535 8.81705 13.5342 9.28125 13.5674 9.28125C13.6254 9.28125 17.1235 1.53076 17.1235 1.40642C17.1235 1.35668 16.593 1.32353 15.7143 1.32353H14.3051L13.2275 3.53677Z" fill="#154096"/>
<path d="M19.1128 1.38436C19.1128 1.45067 17.7783 7.35265 17.2809 9.483L17.0322 10.5523L18.3834 11.9118C19.9003 13.4287 19.776 13.4038 19.9501 12.2765C20.0081 11.9035 20.0827 11.6051 20.1241 11.6051C20.1656 11.6051 20.1739 11.5636 20.149 11.5222C20.0827 11.4227 20.4391 9.25919 20.522 9.21774C20.5552 9.20945 20.5552 9.08511 20.5386 8.95248C20.5137 8.79499 20.5386 8.70381 20.5966 8.70381C20.6546 8.70381 20.6712 8.66236 20.6464 8.62091C20.58 8.51315 20.9448 6.34965 21.0277 6.31649C21.0691 6.29991 21.0774 6.24189 21.0525 6.18386C21.0194 6.10097 21.6494 2.22158 21.8069 1.5087L21.8483 1.32633H20.4806C19.7262 1.32633 19.1128 1.3512 19.1128 1.38436Z" fill="#154096"/>
<path d="M37.5569 1.44032C37.4243 1.49835 37.2336 1.63927 37.1341 1.74703C37.043 1.85479 36.3715 3.0816 35.6504 4.47421C34.9292 5.86681 33.7024 8.22926 32.9149 9.73791C32.1274 11.2383 31.3897 12.6723 31.2653 12.9044L31.0498 13.3438H31.2487C31.4145 13.3438 31.9699 12.6474 34.6971 8.99187C36.4793 6.59626 37.9797 4.62341 38.0211 4.59025C38.0625 4.56539 38.7423 5.17051 39.5298 5.94141C40.3089 6.70403 41.1959 7.55782 41.4777 7.83137L42.0083 8.32873L41.9419 8.0386C41.9088 7.8811 41.8756 7.65729 41.8756 7.54124C41.8673 7.42519 41.8425 7.31743 41.8176 7.29257C41.7347 7.22625 41.486 6.04917 41.5358 5.95799C41.5689 5.91654 41.5523 5.88339 41.5109 5.88339C41.4197 5.88339 41.2208 5.00472 41.2871 4.88867C41.312 4.84722 41.3037 4.80578 41.2622 4.80578C41.171 4.80578 40.8892 3.57896 40.9555 3.4712C40.9887 3.42975 40.9721 3.3966 40.9306 3.3966C40.8395 3.3966 40.6405 2.51793 40.7068 2.40188C40.7317 2.36044 40.7234 2.31899 40.682 2.31899C40.6405 2.31899 40.5576 2.09518 40.4996 1.82163L40.3918 1.32427H39.0987C38.2035 1.33256 37.731 1.36572 37.5569 1.44032Z" fill="#154096"/>
<path d="M28.4613 0.878191C28.7432 0.89477 29.1908 0.89477 29.456 0.878191C29.713 0.861612 29.4809 0.853323 28.9338 0.853323C28.3867 0.853323 28.1712 0.861612 28.4613 0.878191Z" fill="#404096"/>
<path d="M27.5086 0.964129C27.5832 0.980707 27.7158 0.980707 27.7987 0.964129C27.8733 0.939261 27.807 0.922682 27.6495 0.922682C27.492 0.922682 27.4257 0.939261 27.5086 0.964129Z" fill="#404096"/>
<path d="M30.0789 0.964129C30.1535 0.980707 30.2861 0.980707 30.369 0.964129C30.4436 0.939261 30.3773 0.922682 30.2198 0.922682C30.0623 0.922682 29.996 0.939261 30.0789 0.964129Z" fill="#404096"/>
<path d="M26.8618 1.07224C26.6545 1.16342 26.8701 1.16342 27.1519 1.07224C27.3177 1.0225 27.326 1.00592 27.1933 1.00592C27.1022 1.00592 26.953 1.03079 26.8618 1.07224Z" fill="#404096"/>
<path d="M31.3796 1.21385C31.4459 1.23871 31.6282 1.31332 31.7775 1.37134C31.9184 1.42937 32.0427 1.44595 32.0427 1.41279C32.0427 1.37963 31.9018 1.30503 31.7194 1.25529C31.4044 1.15582 31.1475 1.13095 31.3796 1.21385Z" fill="#404096"/>
<path d="M20.4546 1.29638L21.8389 1.32125L21.7892 1.63624C21.7312 2.03413 21.8058 1.95953 21.8804 1.54506L21.9384 1.23836L20.5044 1.25493L19.0703 1.27151L20.4546 1.29638Z" fill="#404096"/>
<path d="M39.1638 1.29531L40.3906 1.32847L40.5067 1.84241C40.5647 2.12424 40.631 2.29832 40.6393 2.232C40.6559 2.16569 40.6144 1.91701 40.5564 1.6932L40.4487 1.27874H39.1887L37.9287 1.27045L39.1638 1.29531Z" fill="#404096"/>
<path d="M17.1215 1.40436C17.1215 1.45409 16.2594 3.39379 15.2149 5.72308C14.1622 8.06066 13.3167 9.98378 13.3332 9.99207C13.3498 10.0086 14.1207 8.33421 15.0491 6.27017C15.9775 4.21443 16.8562 2.24986 17.0137 1.91829C17.1629 1.59501 17.2458 1.32146 17.2043 1.32146C17.1546 1.32146 17.1215 1.36291 17.1215 1.40436Z" fill="#404096"/>
<path d="M31.6278 2.95353C31.52 3.49234 31.4372 3.93996 31.4289 3.94825C31.4206 3.94825 31.1056 3.84878 30.716 3.71615C30.3264 3.58352 29.9036 3.48405 29.7627 3.48405C29.5969 3.48405 29.6881 3.52549 30.0114 3.6001C30.2849 3.65812 30.716 3.78246 30.9647 3.88193C31.2133 3.97311 31.4372 4.02285 31.4703 3.98969C31.5366 3.91509 31.9014 2.05829 31.8516 2.01684C31.835 1.99197 31.7273 2.41473 31.6278 2.95353Z" fill="#404096"/>
<path d="M40.6719 2.48208C40.6719 2.5484 40.7216 2.78878 40.7796 3.02089C40.846 3.2447 40.904 3.37732 40.904 3.31101C40.904 3.2447 40.8542 2.99602 40.7962 2.77221C40.7299 2.54011 40.6719 2.41577 40.6719 2.48208Z" fill="#404096"/>
<path d="M21.5239 3.11263C21.4659 3.45249 21.4327 3.75919 21.4576 3.77577C21.4742 3.80064 21.5405 3.52709 21.5902 3.17894C21.6482 2.83908 21.6814 2.53238 21.6565 2.5158C21.6399 2.49093 21.5736 2.76448 21.5239 3.11263Z" fill="#404096"/>
<path d="M13.408 3.02053C13.1594 3.53447 13.1842 3.60907 13.4412 3.12001C13.5572 2.89619 13.6401 2.69725 13.6236 2.68067C13.5987 2.66409 13.5075 2.82159 13.408 3.02053Z" fill="#404096"/>
<path d="M5.3179 3.51513C5.33448 3.64776 5.42566 3.98762 5.51685 4.26117C5.60803 4.53472 5.65776 4.64248 5.6329 4.50985C5.61632 4.36893 5.52514 4.03736 5.43395 3.76381C5.34277 3.49027 5.29304 3.37422 5.3179 3.51513Z" fill="#404096"/>
<path d="M36.0631 3.55991C35.9885 3.69254 35.9554 3.80859 35.972 3.80859C35.9968 3.80859 36.0714 3.69254 36.146 3.55991C36.2206 3.419 36.2538 3.31124 36.2372 3.31124C36.2123 3.31124 36.1377 3.419 36.0631 3.55991Z" fill="#404096"/>
<path d="M28.2956 3.4485C28.5359 3.46508 28.909 3.46508 29.1245 3.4485C29.34 3.43192 29.1411 3.42364 28.6851 3.42364C28.2292 3.42364 28.0552 3.43192 28.2956 3.4485Z" fill="#404096"/>
<path d="M27.2188 3.64134C26.8127 3.85686 26.5723 4.18844 26.5723 4.52001C26.5723 4.95105 27.0033 5.29091 28.57 6.09497C30.7252 7.19745 31.264 7.82744 31.3883 9.36095L31.4464 10.1484L31.4298 9.36095C31.4049 8.45742 31.2474 8.03467 30.7003 7.41297C30.2527 6.89903 29.8382 6.63378 28.4622 5.94577C27.1111 5.27433 26.6552 4.9096 26.6552 4.52001C26.6552 4.08067 26.995 3.7491 27.6499 3.55016C27.8157 3.50042 27.8239 3.49213 27.6913 3.48384C27.6001 3.48384 27.3929 3.55845 27.2188 3.64134Z" fill="#404096"/>
<path d="M41.0039 3.89224C41.0039 3.95855 41.0536 4.19894 41.1117 4.43104C41.178 4.65485 41.236 4.78748 41.236 4.72117C41.236 4.65485 41.1863 4.40617 41.1282 4.18236C41.0619 3.95026 41.0039 3.82592 41.0039 3.89224Z" fill="#404096"/>
<path d="M23.6953 4.92563C23.6953 5.19918 23.7119 5.29865 23.7285 5.14944C23.745 5.00024 23.745 4.77642 23.7285 4.65209C23.7119 4.52775 23.6953 4.65209 23.6953 4.92563Z" fill="#404096"/>
<path d="M5.69141 4.88511C5.69141 4.95143 5.72456 5.08406 5.76601 5.17524C5.80746 5.283 5.84061 5.29129 5.84061 5.21668C5.84061 5.15037 5.80746 5.01774 5.76601 4.92656C5.72456 4.8188 5.69141 4.81051 5.69141 4.88511Z" fill="#404096"/>
<path d="M21.1098 5.51497C21.0518 5.85483 21.0186 6.16154 21.0435 6.17812C21.0601 6.20298 21.1264 5.92944 21.1761 5.58129C21.2342 5.24143 21.2673 4.93472 21.2425 4.91814C21.2259 4.89328 21.1596 5.16682 21.1098 5.51497Z" fill="#404096"/>
<path d="M41.2529 4.97036C41.2529 5.03668 41.3027 5.27707 41.3607 5.50917C41.427 5.73298 41.485 5.86561 41.485 5.79929C41.485 5.73298 41.4353 5.4843 41.3773 5.26049C41.311 5.02839 41.2529 4.90405 41.2529 4.97036Z" fill="#404096"/>
<path d="M5.85742 5.46324C5.85742 5.52955 5.89058 5.66218 5.93203 5.75336C5.97347 5.86112 6.00663 5.86941 6.00663 5.79481C6.00663 5.7285 5.97347 5.59587 5.93203 5.50468C5.89058 5.39692 5.85742 5.38863 5.85742 5.46324Z" fill="#404096"/>
<path d="M6.064 6.16748C6.08058 6.30011 6.17176 6.63997 6.26294 6.91351C6.35412 7.18706 6.40386 7.29482 6.37899 7.16219C6.36241 7.02127 6.27123 6.6897 6.18005 6.41616C6.08886 6.14261 6.03913 6.02656 6.064 6.16748Z" fill="#404096"/>
<path d="M11.7092 6.51142C11.4025 7.12483 11.4357 7.19943 11.7424 6.59431C11.8833 6.32906 11.9828 6.09696 11.9662 6.08038C11.9496 6.0638 11.8336 6.25445 11.7092 6.51142Z" fill="#404096"/>
<path d="M41.584 6.38052C41.584 6.44683 41.6337 6.68722 41.6917 6.91932C41.7581 7.14313 41.8161 7.27576 41.8161 7.20945C41.8161 7.14313 41.7663 6.89445 41.7083 6.67064C41.642 6.43854 41.584 6.3142 41.584 6.38052Z" fill="#404096"/>
<path d="M24.417 7.14622C24.417 7.1628 24.5413 7.27885 24.6905 7.41977L24.9558 7.66016L24.7154 7.38661C24.4833 7.13793 24.417 7.07991 24.417 7.14622Z" fill="#404096"/>
<path d="M20.6948 7.92122C20.6368 8.26108 20.6036 8.56779 20.6285 8.58437C20.645 8.60923 20.7114 8.33569 20.7611 7.98754C20.8191 7.64768 20.8523 7.34097 20.8274 7.32439C20.8108 7.29953 20.7445 7.57307 20.6948 7.92122Z" fill="#404096"/>
<path d="M33.9485 7.62155C33.8573 7.80392 33.7993 7.95312 33.8241 7.95312C33.8407 7.95312 33.9402 7.80392 34.0314 7.62155C34.1225 7.43919 34.1806 7.28998 34.1557 7.28998C34.1391 7.28998 34.0397 7.43919 33.9485 7.62155Z" fill="#404096"/>
<path d="M41.833 7.45864C41.833 7.52496 41.8827 7.76535 41.9408 7.99745C42.0071 8.22126 42.0651 8.35389 42.0651 8.28757C42.0651 8.22126 42.0154 7.97258 41.9573 7.74877C41.891 7.51667 41.833 7.39233 41.833 7.45864Z" fill="#404096"/>
<path d="M6.4375 7.53746C6.4375 7.60377 6.47066 7.7364 6.5121 7.82758C6.55355 7.93534 6.58671 7.94363 6.58671 7.86903C6.58671 7.80271 6.55355 7.67009 6.5121 7.5789C6.47066 7.47114 6.4375 7.46285 6.4375 7.53746Z" fill="#404096"/>
<path d="M6.60352 8.11558C6.60352 8.1819 6.63667 8.31452 6.67812 8.40571C6.71957 8.51347 6.75272 8.52176 6.75272 8.44715C6.75272 8.38084 6.71957 8.24821 6.67812 8.15703C6.63667 8.04927 6.60352 8.04098 6.60352 8.11558Z" fill="#404096"/>
<path d="M25.5771 8.07736C25.5771 8.10222 25.9253 8.29288 26.3398 8.50011C26.7625 8.71563 27.2433 8.98089 27.4008 9.10523C27.5832 9.24615 27.6495 9.26273 27.5666 9.16325C27.4008 8.94773 25.5771 7.95302 25.5771 8.07736Z" fill="#404096"/>
<path d="M6.81009 8.81982C6.82667 8.95245 6.91785 9.29231 7.00903 9.56586C7.10022 9.8394 7.14995 9.94717 7.12508 9.81454C7.10851 9.67362 7.01732 9.34205 6.92614 9.0685C6.83496 8.79495 6.78522 8.6789 6.81009 8.81982Z" fill="#404096"/>
<path d="M7.18359 10.1898C7.18359 10.2561 7.21675 10.3887 7.2582 10.4799C7.29964 10.5877 7.3328 10.596 7.3328 10.5214C7.3328 10.4551 7.29964 10.3224 7.2582 10.2312C7.21675 10.1235 7.18359 10.1152 7.18359 10.1898Z" fill="#404096"/>
<path d="M13.1597 10.3142C13.0188 10.6209 13.0437 10.6872 13.1929 10.4137C13.2675 10.281 13.3089 10.1567 13.284 10.1401C13.2675 10.1235 13.2094 10.1982 13.1597 10.3142Z" fill="#404096"/>
<path d="M20.1977 10.8197C20.1397 11.1595 20.1065 11.4662 20.1314 11.4828C20.148 11.5077 20.2143 11.2341 20.264 10.886C20.3221 10.5461 20.3552 10.2394 20.3303 10.2228C20.3138 10.198 20.2475 10.4715 20.1977 10.8197Z" fill="#404096"/>
<path d="M31.2384 10.5376C31.1804 10.7448 30.9648 11.1675 30.7576 11.4825C30.4841 11.8804 30.4343 11.9882 30.5918 11.8473C30.8571 11.5986 31.4042 10.5127 31.3627 10.3055C31.3544 10.2226 31.2964 10.3303 31.2384 10.5376Z" fill="#404096"/>
<path d="M22.3439 10.3084C22.3439 10.3581 23.6454 10.8555 23.7697 10.8555C23.8277 10.8472 23.5459 10.7228 23.1314 10.5653C22.3108 10.2504 22.3439 10.2586 22.3439 10.3084Z" fill="#404096"/>
<path d="M7.34961 10.7679C7.34961 10.8342 7.38277 10.9669 7.42421 11.0581C7.46566 11.1658 7.49882 11.1741 7.49882 11.0995C7.49882 11.0332 7.46566 10.9006 7.42421 10.8094C7.38277 10.7016 7.34961 10.6933 7.34961 10.7679Z" fill="#404096"/>
<path d="M26.9032 10.854C26.696 10.9452 26.5799 11.0115 26.638 11.0115C26.7706 11.0198 27.3177 10.796 27.3177 10.7379C27.3177 10.7048 27.3094 10.6882 27.3011 10.6965C27.2845 10.7048 27.1105 10.7711 26.9032 10.854Z" fill="#404096"/>
<path d="M25.1872 11.0774C25.4525 11.094 25.8586 11.094 26.099 11.0774C26.3394 11.0608 26.1239 11.0525 25.6183 11.0525C25.1209 11.0525 24.922 11.0608 25.1872 11.0774Z" fill="#404096"/>
<path d="M7.55618 11.4722C7.57276 11.6048 7.66395 11.9447 7.75513 12.2182C7.84631 12.4917 7.89605 12.5995 7.87118 12.4669C7.8546 12.326 7.76342 11.9944 7.67223 11.7208C7.58105 11.4473 7.53132 11.3312 7.55618 11.4722Z" fill="#404096"/>
<path d="M31.9186 11.5209C31.844 11.6535 31.8108 11.7695 31.8274 11.7695C31.8523 11.7695 31.9269 11.6535 32.0015 11.5209C32.0761 11.3799 32.1093 11.2722 32.0927 11.2722C32.0678 11.2722 31.9932 11.3799 31.9186 11.5209Z" fill="#404096"/>
<path d="M19.8152 12.9692C19.7904 13.1847 19.7821 13.3754 19.7987 13.3919C19.8235 13.4168 19.865 13.2593 19.8981 13.0521C19.923 12.8366 19.9313 12.6459 19.9147 12.6293C19.8898 12.6045 19.8484 12.762 19.8152 12.9692Z" fill="#404096"/>
<path d="M7.92969 12.8421C7.92969 12.9085 7.96284 13.0411 8.00429 13.1323C8.04574 13.24 8.07889 13.2483 8.07889 13.1737C8.07889 13.1074 8.04574 12.9748 8.00429 12.8836C7.96284 12.7758 7.92969 12.7675 7.92969 12.8421Z" fill="#404096"/>
<path d="M31.0896 13.089C30.9238 13.4123 30.9238 13.4206 31.2388 13.4123C31.4875 13.3957 31.4875 13.3957 31.2802 13.3626C31.0564 13.3294 31.0481 13.3211 31.1725 13.0807C31.2471 12.9481 31.2802 12.8403 31.2637 12.8403C31.2388 12.8403 31.1642 12.9481 31.0896 13.089Z" fill="#404096"/>
<path d="M8.08691 13.4404C8.08691 13.4818 8.93242 13.4984 9.97687 13.4901C11.8834 13.4735 11.6596 13.4404 9.34689 13.4072C8.65888 13.3906 8.08691 13.4072 8.08691 13.4404Z" fill="#404096"/>
<path d="M18.4077 1.63364C18.3828 1.85745 18.2999 2.28849 18.2419 2.61177C18.1839 2.92677 18.0678 3.5236 18.0015 3.93806C17.9269 4.34424 17.7777 5.20632 17.6617 5.8446C17.5456 6.48288 17.3964 7.32009 17.3301 7.70969C17.2638 8.09929 17.1312 8.83704 17.0317 9.35097C16.8825 10.1633 16.8659 10.4866 16.9902 10.354C17.0068 10.3374 17.4544 8.3977 17.985 6.05183C18.5238 3.70596 18.988 1.65851 19.0294 1.5093C19.0957 1.24404 19.0957 1.24404 18.7807 1.24404C18.474 1.24404 18.4657 1.24404 18.4077 1.63364Z" fill="#406BC1"/>
<path d="M36.8178 1.32339C36.4614 1.43115 36.1961 1.72128 35.9392 2.27666C35.4584 3.30453 33.9497 6.64512 33.9497 6.66999C33.9497 6.68657 33.8254 6.9684 33.6679 7.30826C33.5187 7.63983 33.27 8.18693 33.1208 8.52679C32.9799 8.85836 32.7395 9.39716 32.582 9.72874C31.7199 11.6104 31.5293 12.0332 31.5707 12.0663C31.5873 12.0829 32.8141 9.77847 34.2896 6.94353C35.7651 4.10031 37.0665 1.69641 37.1743 1.58865C37.282 1.48918 37.4893 1.37313 37.6302 1.33168C37.8623 1.26537 37.854 1.25708 37.4727 1.25708C37.2489 1.25708 36.9505 1.29023 36.8178 1.32339Z" fill="#406BC1"/>
<path d="M13.4751 1.52184C13.4088 1.71249 12.9944 2.7155 11.7675 5.71622C11.4443 6.49542 11.2702 7.02593 11.3199 7.07567C11.3862 7.14198 12.0328 5.87372 13.6907 2.41708L14.2129 1.3229H13.8813C13.6078 1.3229 13.5414 1.35605 13.4751 1.52184Z" fill="#406BC1"/>
<path d="M25.5026 1.49569C25.1627 1.62831 24.3089 2.27488 23.9442 2.67277C23.7535 2.87171 23.4966 3.26131 23.3639 3.52656C23.1567 3.9659 23.1318 4.09852 23.1318 4.88601C23.1318 5.63204 23.1567 5.81441 23.3308 6.17085C23.5297 6.5936 24.2923 7.38109 24.7648 7.65463C25.0052 7.79555 24.9803 7.7541 24.5659 7.30648C24.0022 6.69307 23.7452 6.08796 23.6955 5.21758C23.596 3.75866 24.1929 2.50698 25.3368 1.74437C25.8424 1.4045 25.8839 1.33819 25.5026 1.49569Z" fill="#406BC1"/>
</svg>
