<svg width="44" height="19" viewBox="0 0 44 19" fill="none" xmlns="http://www.w3.org/2000/svg">
<path d="M22.1831 1.2024L20.7314 1.51288V2.74638C20.7314 3.76172 20.7566 3.98828 20.8489 3.98828C20.9161 3.98828 21.5957 3.85402 22.3593 3.69459C23.1313 3.53516 23.7774 3.4009 23.7942 3.4009C23.8194 3.4009 23.8362 2.8303 23.8362 2.14222C23.8362 1.18562 23.811 0.883539 23.7355 0.89193C23.6768 0.900321 22.9719 1.03458 22.1831 1.2024Z" fill="#635BFF"/>
<path d="M10.1155 2.56902C9.51975 2.70328 8.94075 2.82915 8.83167 2.85432L8.63867 2.90467L8.66385 8.124L8.68902 13.3433L8.96593 13.9055C9.28479 14.5517 9.73792 14.9964 10.4008 15.2985C10.7868 15.4747 11.0302 15.525 11.7098 15.5502C12.5574 15.5838 13.5811 15.4243 13.8244 15.2229C13.9083 15.1474 13.9335 14.8118 13.9335 13.9139V12.6972L13.7489 12.7475C13.2706 12.8986 12.4567 12.8986 12.1881 12.7643C11.6595 12.4958 11.6259 12.3364 11.6008 9.80223L11.5672 7.51983L12.7336 7.49466L13.8916 7.46948V6.16885V4.86821L12.7504 4.84304L11.6175 4.81786L11.6511 3.56758L11.6847 2.3089L11.4497 2.31729C11.3155 2.31729 10.7197 2.43476 10.1155 2.56902Z" fill="#635BFF"/>
<path d="M3.44562 4.74085C2.55616 4.90028 1.80934 5.28627 1.2723 5.87366C0.735268 6.46104 0.575835 6.89738 0.525488 7.90433C0.491923 8.67632 0.508706 8.79379 0.701703 9.21335C1.0877 10.0609 1.79256 10.5643 3.42884 11.1601C4.74626 11.6384 5.11547 11.9573 4.93926 12.4607C4.83017 12.7796 4.45257 12.9223 3.73932 12.9139C3.01767 12.8971 2.31281 12.7125 1.33943 12.3013L0.592618 11.9741V13.4425V14.9026L0.903092 15.0285C2.04429 15.5067 4.06657 15.7081 5.21617 15.448C6.06368 15.2634 6.63428 14.9781 7.14614 14.4998C8.1363 13.5768 8.41321 12.0664 7.81744 10.8077C7.41466 9.96856 6.73497 9.49865 5.03995 8.89449C3.99105 8.52527 3.61345 8.27354 3.61345 7.94628C3.61345 7.50155 3.89036 7.34212 4.63717 7.34212C5.48468 7.34212 6.27346 7.5519 7.45662 8.07215C7.53214 8.10572 7.55731 7.78685 7.55731 6.65404V5.18558L6.95314 5.00936C5.80355 4.67372 4.42739 4.57302 3.44562 4.74085Z" fill="#635BFF"/>
<path d="M28.8622 4.85895C28.5517 4.96804 28.1657 5.15265 28.0063 5.27851L27.7042 5.50508L27.6119 5.16943L27.5196 4.82539H26.1854H24.8428V11.8404V18.8555L25.0358 18.8135C25.1365 18.7883 25.8162 18.6457 26.5462 18.4946L27.8636 18.2093L27.872 17.815C27.8804 17.5884 27.8972 17.3702 27.9056 17.3283C27.914 17.2779 27.9307 16.7157 27.9391 16.0696L27.9475 14.8948L28.2664 15.0962C29.0132 15.5829 30.4145 15.7004 31.304 15.3479C32.1683 15.0123 33.0326 14.1984 33.4437 13.3341C33.9137 12.3439 34.0311 11.6978 34.0311 10.1118C34.0311 8.45878 33.9388 7.98887 33.427 6.93997C33.0913 6.26028 32.3948 5.4799 31.8075 5.13586C30.9432 4.64078 29.7936 4.52331 28.8622 4.85895ZM30.0789 7.68679C30.7418 8.13991 31.0942 9.13007 31.0355 10.3636C30.9767 11.5803 30.5656 12.3859 29.8355 12.7215C29.2901 12.9732 28.5685 12.8893 28.1657 12.5201C27.9643 12.3355 27.9643 12.3271 27.9223 10.1286L27.8804 7.92174L28.1909 7.71196C28.7866 7.32597 29.5335 7.30918 30.0789 7.68679Z" fill="#635BFF"/>
<path d="M38.3103 4.71491C36.5817 5.08413 35.3734 6.30085 34.8112 8.23922C34.6433 8.79304 34.6182 9.08673 34.6182 10.1944C34.6266 11.1761 34.6601 11.6293 34.7776 12.032C35.2895 13.8781 36.5146 15.0697 38.2935 15.4556C39.5102 15.7158 41.5577 15.4808 42.5562 14.969L42.8835 14.8095V13.5928C42.8835 12.7956 42.8499 12.3761 42.7996 12.3761C42.7492 12.3761 42.6066 12.4264 42.4807 12.4936C42.3548 12.5523 41.9185 12.6949 41.5073 12.7956C40.4584 13.0558 39.1578 13.0138 38.604 12.7117C38.1844 12.4768 37.79 11.9649 37.7145 11.5537L37.6642 11.2852H40.5759H43.4877L43.4457 9.91746C43.4205 8.89373 43.3618 8.42382 43.2359 8.00426C42.573 5.80577 41.1213 4.631 39.1075 4.66457C38.7634 4.67296 38.4026 4.68974 38.3103 4.71491ZM39.8123 7.36653C40.1899 7.57631 40.5004 8.09657 40.5843 8.65878L40.643 9.0196H39.1075H37.5803L37.639 8.65878C37.8404 7.45045 38.8725 6.8295 39.8123 7.36653Z" fill="#635BFF"/>
<path d="M18.5075 4.87139C18.3229 4.93852 18.0376 5.13991 17.8698 5.31613L17.5677 5.63499L17.4922 5.25739L17.4167 4.87139L16.0992 4.84622L14.7734 4.82105V10.1159V15.4023H16.2839H17.7943V11.8445V8.27822L18.1131 8.01809C18.4991 7.69923 18.9523 7.57336 19.5732 7.61531L20.0599 7.64888V6.24755C20.0599 4.87139 20.0599 4.84622 19.8753 4.79587C19.548 4.71196 18.86 4.74553 18.5075 4.87139Z" fill="#635BFF"/>
<path d="M20.7314 10.1159V15.4023H22.2838H23.8362V10.1159V4.82944H22.2838H20.7314V10.1159Z" fill="#635BFF"/>
</svg>
