<svg width="58" height="17" viewBox="0 0 58 17" fill="none" xmlns="http://www.w3.org/2000/svg">
<path d="M2.04374 0.248114C1.90762 0.38903 1.79418 0.60681 1.78284 0.734916C1.7715 1.02956 1.69209 1.63166 1.60135 2.1697C1.55598 2.4131 1.5106 2.70775 1.49926 2.81023C1.46523 3.15612 1.34045 4.14253 1.29508 4.47561C1.24971 4.77025 1.19299 5.14176 1.04553 6.26909C0.966126 6.85838 0.90941 7.28113 0.841351 7.67825C0.807321 7.8576 0.750605 8.28035 0.716575 8.63905C0.671202 8.98493 0.625829 9.39487 0.603142 9.53579C0.591799 9.67671 0.535083 10.0738 0.48971 10.4325C0.444337 10.7784 0.387621 11.1884 0.364934 11.3293C0.330904 11.4702 0.285531 11.8161 0.251502 12.0979C0.217472 12.3797 0.172099 12.7512 0.138069 12.9306C0.115383 13.1099 0.0586664 13.5455 0.0246366 13.8914C-0.0661094 14.8266 0.0132934 14.865 1.69209 14.8266L3.09866 14.7881L3.4503 12.3285C3.88134 9.27958 3.83597 9.35644 5.45805 9.34363C8.73625 9.33082 10.3924 8.11381 11.1751 5.11614C11.4246 4.14253 11.4133 2.87428 11.1524 2.29781C11.0616 2.09284 10.9822 1.88787 10.9822 1.84944C10.9822 1.81101 10.8234 1.58041 10.6192 1.3242C9.76849 0.273735 8.70222 0.0303335 4.91358 0.0047121C2.40672 -0.0209084 2.29329 -0.0080986 2.04374 0.248114Z" fill="#15406B"/>
<path d="M18.8433 4.63333C18.6958 4.81267 18.5824 5.15856 18.537 5.5685C18.503 5.91438 18.4576 6.34994 18.4236 6.51648C18.3895 6.67021 18.3328 7.08015 18.2988 7.41322C18.174 8.42526 17.9812 9.86004 17.9585 9.98815C17.9245 10.1675 17.7543 11.2308 17.7316 11.3973C17.6295 12.3965 17.4821 13.383 17.3913 13.716C17.2552 14.1772 17.5275 14.3438 18.4009 14.3438C19.2743 14.3438 19.7054 14.1388 19.694 13.7288C19.6827 13.6135 19.7167 13.2805 19.7621 12.9986C19.8075 12.7168 19.8869 12.2044 19.9322 11.8713C19.9889 11.5254 20.0683 11.2052 20.1251 11.1411C20.1818 11.0899 20.7943 11.013 21.4749 10.9874C22.4845 10.9489 22.8248 10.8849 23.2445 10.6543C24.4242 10.001 25.0594 8.73271 25.0934 6.96485C25.1048 6.01687 25.0821 5.90157 24.7758 5.4532C24.4582 4.97921 23.9364 4.63333 23.3465 4.50522C23.1877 4.4796 22.1668 4.42836 21.0779 4.38993C19.1155 4.32587 19.0928 4.33868 18.8433 4.63333ZM22.3937 6.84956C22.6773 7.05453 22.6886 7.10577 22.6206 7.72068C22.5752 8.07937 22.4845 8.46369 22.4164 8.55337C22.1782 8.87363 21.7018 9.05298 21.0325 9.0786L20.3633 9.11703L20.4427 8.68147C20.488 8.45088 20.5675 7.92565 20.6242 7.52852C20.6809 7.11858 20.7489 6.73426 20.7943 6.6574C20.9077 6.43962 22.0307 6.58053 22.3937 6.84956Z" fill="#15406B"/>
<path d="M26.8742 7.78162C26.3978 7.98659 25.048 9.33171 25.048 9.58792C25.048 9.66478 24.9913 9.86975 24.9119 10.0747C24.4468 11.3558 24.5943 12.8034 25.2635 13.6745C25.6151 14.1229 26.4092 14.4688 27.0898 14.4688C27.8157 14.4688 28.8139 14.0844 29.1089 13.7001C29.2336 13.5336 29.245 13.5336 29.2336 13.7001C29.1769 14.3535 29.1883 14.3535 30.2319 14.315L31.2187 14.2766L31.2981 13.8923C31.5136 12.8674 31.6271 12.1757 31.6838 11.7145C31.7065 11.4326 31.7632 11.0868 31.7859 10.933C31.8086 10.7793 31.8653 10.3566 31.9107 9.98504C31.956 9.61354 32.0127 9.19079 32.0354 9.03706C32.2169 8.05065 32.2056 7.98659 31.9107 7.83287C31.5477 7.64071 30.436 7.6279 30.1411 7.82006C30.005 7.89692 29.9369 8.03784 29.971 8.14032C30.005 8.24281 29.8008 8.16594 29.4265 7.93535C28.9274 7.61509 28.7119 7.55103 28.0993 7.56384C27.7023 7.56384 27.1465 7.66633 26.8742 7.78162ZM28.9614 9.66478C30.0163 10.1516 29.7101 12.1244 28.5304 12.5856C27.2145 13.0852 26.2617 12.0347 26.7835 10.6512C26.8629 10.4334 27.1238 10.0747 27.362 9.86975C27.8611 9.42138 28.3375 9.35733 28.9614 9.66478Z" fill="#15406B"/>
<path d="M38.0245 7.81073C37.8997 7.86197 37.7069 8.10538 37.6048 8.34878C37.5027 8.57937 37.3212 8.91244 37.1964 9.07898C37.0603 9.24552 36.9582 9.4633 36.9582 9.56578C36.9582 9.65546 36.9129 9.73232 36.8561 9.73232C36.7994 9.73232 36.6973 9.89886 36.6179 10.1166C36.5385 10.3216 36.4478 10.501 36.4024 10.501C36.3684 10.501 36.2663 10.6675 36.1869 10.8853C36.0961 11.0902 35.994 11.2696 35.9373 11.2696C35.8352 11.2696 35.6651 10.8084 35.4155 9.82199C35.3135 9.39925 35.132 8.82277 35.0185 8.51532L34.803 7.95165L33.8275 7.91322C33.2036 7.8876 32.8179 7.92603 32.7499 8.0157C32.6818 8.11819 32.7612 8.56656 32.9881 9.29676C33.1809 9.92448 33.3624 10.5266 33.3851 10.6291C33.4078 10.7315 33.5212 11.1031 33.6233 11.4618C33.8161 12.1151 33.8842 12.3713 33.8955 12.4866C33.8955 12.525 33.9749 12.73 34.0657 12.935C34.1678 13.1527 34.2132 13.3193 34.1791 13.3193C34.1451 13.3193 34.1564 13.4218 34.2132 13.5371C34.2926 13.7036 34.2585 13.883 34.077 14.1648C32.4776 16.7781 32.4663 16.9062 33.6914 16.9062H34.4854L34.9845 16.317C35.2567 15.9967 35.4836 15.6892 35.4836 15.6252C35.4836 15.5611 35.6197 15.3177 35.8012 15.0871C35.9714 14.8566 36.1642 14.5747 36.2209 14.4594C36.289 14.3441 36.5952 13.8317 36.9015 13.3321C37.2191 12.8197 37.5254 12.3072 37.5821 12.192C37.6502 12.0767 37.7182 11.9486 37.7523 11.9101C37.7863 11.8717 37.9678 11.5899 38.1493 11.2696C38.3421 10.9493 38.5803 10.5778 38.6937 10.4497C38.7958 10.3088 38.8866 10.1551 38.8866 10.1038C38.8866 10.0526 38.9546 9.92448 39.034 9.83481C39.1134 9.74513 39.2949 9.45049 39.4424 9.18147C39.5899 8.91244 39.7827 8.6178 39.8734 8.51532C39.9642 8.41283 40.0209 8.19505 39.9982 8.04132C39.9642 7.7723 39.8961 7.74668 39.1134 7.72106C38.6484 7.70825 38.1606 7.74668 38.0245 7.81073Z" fill="#15406B"/>
<path d="M41.6092 4.4796C41.6092 4.55646 41.5638 4.59489 41.5071 4.54365C41.3597 4.45398 41.1895 4.8511 41.2122 5.24823C41.2236 5.42758 41.1895 5.61974 41.1441 5.6966C41.0988 5.76066 41.0307 6.19622 40.9853 6.6574C40.8606 7.93846 40.8379 8.10499 40.7698 8.45088C40.611 9.2067 40.4409 10.3597 40.4295 10.8208C40.4182 11.0258 40.3842 11.2692 40.3388 11.3333C40.3047 11.4101 40.2367 11.8073 40.2027 12.23C40.0665 13.6776 40.0325 13.9594 39.9758 14.0747C39.8737 14.2669 40.2253 14.3438 41.1555 14.3438C41.7227 14.3438 42.0743 14.2925 42.1537 14.1772C42.2104 14.1003 42.3012 13.7032 42.3465 13.3189C42.3806 12.9346 42.4486 12.435 42.4827 12.23C42.5167 12.0122 42.5507 11.7304 42.5621 11.5895C42.5847 11.1539 42.891 11.0386 44.0594 10.9746C45.2391 10.9233 45.6247 10.8593 45.8516 10.6287C45.931 10.5646 46.0217 10.5262 46.0558 10.5646C46.0785 10.6031 46.26 10.475 46.4414 10.27C46.8498 9.86004 47.3376 9.09141 47.2014 9.09141C47.1561 9.09141 47.1674 9.04017 47.2468 8.98892C47.3149 8.93768 47.4056 8.74552 47.4283 8.57899C47.4623 8.39964 47.5417 8.09218 47.6098 7.90002C47.78 7.40041 47.6779 5.79909 47.451 5.55569C47.3603 5.44039 47.2808 5.31228 47.2808 5.26104C47.2808 5.22261 47.1334 5.06888 46.9405 4.95359C46.7591 4.82548 46.6003 4.76143 46.6003 4.81267C46.6003 4.8511 46.5322 4.82548 46.4414 4.74862C46.2146 4.53084 45.5226 4.45398 43.4582 4.38992C42.1083 4.35149 41.6092 4.3643 41.6092 4.4796ZM44.6719 6.68302C44.6719 6.74707 44.74 6.7855 44.8307 6.7855C45.4206 6.7855 45.2391 8.68147 44.6265 8.89925C44.5018 8.95049 44.0594 9.01454 43.6737 9.05298L42.9477 9.11703L43.0271 8.2331C43.0725 7.75911 43.1632 7.22106 43.2086 7.06734C43.2653 6.9008 43.2767 6.70864 43.2427 6.64459C43.2086 6.56772 43.4695 6.52929 43.9232 6.55491C44.3316 6.58053 44.6719 6.63178 44.6719 6.68302Z" fill="#1596C1"/>
<path d="M11.2659 5.00832C11.1411 5.85382 10.4718 7.21174 9.85931 7.85227C8.81573 8.95398 7.72678 9.35111 5.69634 9.35111C3.92679 9.35111 3.97216 9.29987 3.56381 12.1054C3.39366 13.3096 3.21217 14.4497 3.15545 14.6675C2.99664 15.2696 2.9059 16.2304 2.9853 16.525C3.05336 16.7684 3.14411 16.7812 4.5053 16.7812C5.61694 16.7812 5.99126 16.7428 6.09335 16.6019C6.21813 16.4226 6.29753 16.0254 6.38828 15.1159C6.41096 14.8725 6.44499 14.6547 6.45634 14.6291C6.46768 14.6163 6.49037 14.4882 6.50171 14.3472C6.51305 14.2063 6.54708 14.0654 6.55843 14.027C6.6038 13.9117 6.62648 13.7836 6.71723 13.0406C6.81932 12.1951 6.83066 12.1822 7.97633 12.1438C8.41872 12.131 8.82708 12.0926 8.88379 12.0413C8.95185 12.0029 9.15603 11.9517 9.33752 11.926C9.53036 11.9004 9.70051 11.8492 9.73454 11.7979C9.76856 11.7595 9.87065 11.7083 9.9614 11.6826C10.0521 11.657 10.1542 11.5802 10.1656 11.5161C10.1883 11.452 10.2563 11.4264 10.3017 11.4649C10.4718 11.5802 11.5268 10.3247 11.8217 9.64575C12.1506 8.90274 12.2187 8.59528 12.2981 7.23736C12.3321 6.5584 12.3095 6.0716 12.2187 5.8282C12.1393 5.61042 12.0712 5.41826 12.0599 5.37983C12.0259 5.20048 11.7309 4.66243 11.6175 4.58557C11.3906 4.41903 11.3453 4.47028 11.2659 5.00832Z" fill="#1596C1"/>
<path d="M56.0039 4.63686C56.0039 4.72653 55.9812 4.89307 55.9698 4.99556C55.9471 5.09804 55.9018 5.44393 55.8677 5.76419C55.8337 6.08446 55.777 6.43034 55.743 6.53283C55.6749 6.7378 55.5501 7.85232 55.5274 8.54409C55.5161 8.77468 55.4707 8.96684 55.4367 8.96684C55.4027 8.96684 55.3686 9.0437 55.3686 9.12057C55.3573 9.35116 55.2552 10.2095 55.1645 10.8244C55.1304 11.1062 55.0737 11.529 55.0397 11.7724C55.017 12.0029 54.9716 12.2335 54.9376 12.2848C54.9149 12.336 54.8695 12.7203 54.8355 13.1431C54.8015 13.5658 54.7674 13.9758 54.7561 14.0398C54.688 14.4498 54.7788 14.4882 55.6749 14.4626C56.208 14.4498 56.6277 14.3729 56.6958 14.2832C56.7525 14.2064 56.8319 13.8605 56.8546 13.5274C56.8886 13.2071 56.934 12.8869 56.968 12.8356C57.0248 12.7332 57.1609 11.6571 57.2062 10.9525C57.2176 10.7347 57.2857 10.3376 57.3537 10.0557C57.4558 9.60737 57.5465 8.90279 57.6486 7.81389C57.6713 7.63454 57.7167 7.37833 57.7507 7.23741C57.8528 6.8659 57.9776 5.80262 57.9889 5.12366L58.0003 4.54719L57.0134 4.50875C56.2648 4.48313 56.0152 4.50875 56.0039 4.63686Z" fill="#1596C1"/>
<path d="M49.402 7.79454C49.2092 7.88421 48.9483 8.06356 48.8349 8.17885C48.7101 8.29415 48.5967 8.38382 48.5626 8.3582C48.54 8.33258 48.3358 8.52474 48.1203 8.76814C47.8934 9.02435 47.7573 9.22932 47.814 9.22932C47.8594 9.22932 47.8594 9.28057 47.7913 9.33181C47.6211 9.47272 47.2809 10.2798 47.2241 10.7025C47.1901 10.9075 47.1334 11.2662 47.0994 11.4968C46.9859 12.1758 47.6779 14.1102 47.9614 13.9052C48.0068 13.8668 48.0749 13.9308 48.1089 14.0333C48.2677 14.4817 50.4116 14.5841 50.9901 14.1614C51.1262 14.0589 51.2623 13.9821 51.285 13.9949C51.3077 14.0205 51.4098 13.9564 51.5119 13.8539C51.682 13.7002 51.7047 13.7258 51.7047 14.0205C51.7047 14.3536 51.7047 14.3536 52.5895 14.3536C53.0659 14.3536 53.5196 14.3023 53.5877 14.2511C53.7578 14.123 53.928 13.5209 54.0187 12.6241C54.0868 12.0477 54.2116 11.2406 54.2569 11.0228C54.2796 10.9203 54.3364 10.536 54.3817 10.1901C54.4158 9.83142 54.4611 9.52397 54.4838 9.48553C54.5065 9.4471 54.5519 9.11403 54.5972 8.74252C54.6993 7.84578 54.5405 7.70486 53.497 7.69205C52.8617 7.69205 52.7029 7.74329 52.5101 7.97389C52.3059 8.21729 52.2492 8.2301 52.079 8.06356C51.9656 7.96107 51.7728 7.82016 51.6367 7.73048C51.3304 7.53833 49.8558 7.57676 49.402 7.79454ZM51.4211 9.67769C51.6707 9.78018 51.8295 9.85704 51.7614 9.86985C51.6934 9.86985 51.7047 9.90828 51.7728 9.97234C51.8408 10.0236 51.977 10.2285 52.079 10.4463C52.2265 10.7922 52.2265 10.8819 52.079 11.3431C51.8749 11.9324 51.3871 12.5601 51.0695 12.6241C50.9561 12.6497 50.854 12.6754 50.854 12.6882C50.854 12.7779 50.1167 12.7394 49.8898 12.6369C49.368 12.3935 49.2092 12.1117 49.1525 11.3174C49.0844 10.5488 50.0032 9.49835 50.7405 9.49835C50.8653 9.48553 51.1716 9.57521 51.4211 9.67769Z" fill="#1596C1"/>
</svg>
