<?xml version="1.0" encoding="UTF-8"?>
<svg xmlns="http://www.w3.org/2000/svg" xmlns:xlink="http://www.w3.org/1999/xlink" width="512px" height="512px" viewBox="0 0 512 512" version="1.1">
<g id="surface1">
<path style=" stroke:none;fill-rule:nonzero;fill:rgb(0%,15.686275%,40.784314%);fill-opacity:1;" d="M 349.746094 14.421875 C 353.90625 16.132812 358.066406 17.84375 362.351562 19.605469 C 433.351562 51.957031 476.214844 107.929688 505.15625 179.253906 C 521.5625 231.472656 518.542969 299.390625 497.578125 349.746094 C 495.867188 353.90625 494.15625 358.066406 492.394531 362.351562 C 460.042969 433.351562 404.070312 476.214844 332.746094 505.15625 C 280.527344 521.5625 212.609375 518.542969 162.253906 497.578125 C 158.09375 495.867188 153.933594 494.15625 149.648438 492.394531 C 78.648438 460.042969 35.785156 404.070312 6.84375 332.746094 C -9.5625 280.527344 -6.542969 212.609375 14.421875 162.253906 C 16.132812 158.09375 17.84375 153.933594 19.605469 149.648438 C 51.957031 78.648438 107.929688 35.785156 179.253906 6.84375 C 231.472656 -9.5625 299.390625 -6.542969 349.746094 14.421875 Z M 349.746094 14.421875 "/>
<path style=" stroke:none;fill-rule:nonzero;fill:rgb(93.725491%,16.862746%,17.254902%);fill-opacity:1;" d="M 256 0 C 328.746094 0 389.6875 23.730469 442.054688 74.179688 C 481.539062 114.449219 512 173.851562 512 230.761719 C 427.519531 230.761719 343.039062 230.761719 256 230.761719 C 256 154.609375 256 78.457031 256 0 Z M 256 0 "/>
<path style=" stroke:none;fill-rule:nonzero;fill:rgb(93.725491%,16.862746%,17.254902%);fill-opacity:1;" d="M 256 295.660156 C 340.480469 295.660156 424.960938 295.660156 512 295.660156 C 499.273438 350.8125 499.273438 350.8125 488.5625 371.378906 C 487.332031 373.777344 486.097656 376.175781 484.828125 378.648438 C 451.625 440.390625 397.082031 482.027344 331.226562 505.15625 C 304.707031 512.574219 284.660156 512 256 512 C 256 440.609375 256 369.21875 256 295.660156 Z M 256 295.660156 "/>
<path style=" stroke:none;fill-rule:nonzero;fill:rgb(93.725491%,16.862746%,17.254902%);fill-opacity:1;" d="M 191.097656 7.210938 C 191.097656 80.984375 191.097656 154.753906 191.097656 230.761719 C 128.035156 230.761719 64.972656 230.761719 0 230.761719 C 6.738281 163.386719 34.5625 105.109375 85.648438 59.675781 C 112.992188 38.230469 154.734375 7.210938 191.097656 7.210938 Z M 191.097656 7.210938 "/>
<path style=" stroke:none;fill-rule:nonzero;fill:rgb(93.725491%,16.862746%,17.254902%);fill-opacity:1;" d="M 0 295.660156 C 63.0625 295.660156 126.125 295.660156 191.097656 295.660156 C 191.097656 364.671875 191.097656 433.6875 191.097656 504.789062 C 125.089844 488.285156 71.539062 451.738281 36.054688 393.015625 C 16.902344 359.855469 8.933594 334.378906 0 295.660156 Z M 0 295.660156 "/>
<path style=" stroke:none;fill-rule:nonzero;fill:rgb(96.078432%,94.509804%,95.294118%);fill-opacity:1;" d="M 256 0 C 267.898438 0 279.796875 0 292.054688 0 C 292.054688 64.253906 292.054688 128.503906 292.054688 194.703125 C 363.449219 194.703125 434.839844 194.703125 508.394531 194.703125 C 510.179688 212.550781 510.179688 212.550781 512 230.761719 C 427.519531 230.761719 343.039062 230.761719 256 230.761719 C 256 154.609375 256 78.457031 256 0 Z M 256 0 "/>
<path style=" stroke:none;fill-rule:nonzero;fill:rgb(96.078432%,94.509804%,95.294118%);fill-opacity:1;" d="M 256 295.660156 C 340.480469 295.660156 424.960938 295.660156 512 295.660156 C 504.789062 328.113281 504.789062 328.113281 501.183594 331.71875 C 494.65625 332.054688 488.113281 332.140625 481.578125 332.128906 C 475.296875 332.128906 475.296875 332.128906 468.890625 332.125 C 462.054688 332.097656 462.054688 332.097656 455.085938 332.070312 C 450.449219 332.066406 445.8125 332.058594 441.035156 332.054688 C 428.6875 332.042969 416.339844 332.003906 403.992188 331.964844 C 391.402344 331.929688 378.808594 331.914062 366.21875 331.894531 C 341.496094 331.859375 316.777344 331.785156 292.054688 331.71875 C 292.054688 391.210938 292.054688 450.703125 292.054688 512 C 280.15625 512 268.257812 512 256 512 C 256 440.609375 256 369.21875 256 295.660156 Z M 256 295.660156 "/>
<path style=" stroke:none;fill-rule:nonzero;fill:rgb(94.901961%,94.509804%,95.686275%);fill-opacity:1;" d="M 191.097656 7.210938 C 191.097656 80.984375 191.097656 154.753906 191.097656 230.761719 C 128.035156 230.761719 64.972656 230.761719 0 230.761719 C 1.191406 218.863281 2.378906 206.964844 3.605469 194.703125 C 53.578125 194.703125 103.554688 194.703125 155.042969 194.703125 C 155.042969 136.402344 155.042969 78.097656 155.042969 18.027344 C 183.886719 7.210938 183.886719 7.210938 191.097656 7.210938 Z M 191.097656 7.210938 "/>
<path style=" stroke:none;fill-rule:nonzero;fill:rgb(94.901961%,94.117647%,95.686275%);fill-opacity:1;" d="M 0 295.660156 C 63.0625 295.660156 126.125 295.660156 191.097656 295.660156 C 191.097656 364.671875 191.097656 433.6875 191.097656 504.789062 C 162.253906 497.578125 162.253906 497.578125 155.042969 493.972656 C 155.042969 440.429688 155.042969 386.882812 155.042969 331.71875 C 107.449219 331.71875 59.855469 331.71875 10.816406 331.71875 C 0 299.269531 0 299.269531 0 295.660156 Z M 0 295.660156 "/>
</g>
</svg>
