<?xml version="1.0" encoding="UTF-8"?>
<svg xmlns="http://www.w3.org/2000/svg" xmlns:xlink="http://www.w3.org/1999/xlink" width="512px" height="512px" viewBox="0 0 512 512" version="1.1">
<g id="surface1">
<path style=" stroke:none;fill-rule:nonzero;fill:rgb(99.607843%,77.254903%,12.156863%);fill-opacity:1;" d="M 255.296875 -0.382812 C 256.382812 -0.382812 257.46875 -0.382812 258.585938 -0.382812 C 275.457031 -0.34375 291.703125 0.386719 308.222656 4.097656 C 309.238281 4.320312 310.253906 4.546875 311.300781 4.777344 C 354.148438 14.566406 394.894531 34.175781 427.007812 64.511719 C 428.347656 65.667969 429.691406 66.820312 431.039062 67.96875 C 440.167969 75.953125 448.21875 84.660156 455.679688 94.207031 C 456.714844 95.496094 457.746094 96.78125 458.78125 98.066406 C 485.621094 131.886719 502.691406 172.605469 509.953125 215.039062 C 510.144531 216.117188 510.335938 217.199219 510.535156 218.308594 C 512.308594 229.605469 512.347656 240.84375 512.324219 252.253906 C 512.320312 255.589844 512.34375 258.925781 512.371094 262.261719 C 512.425781 280.539062 510.5625 298.148438 506.113281 315.902344 C 505.847656 316.972656 505.582031 318.039062 505.3125 319.140625 C 495.289062 358.609375 476.515625 394.464844 449.535156 424.960938 C 448.769531 425.839844 448.003906 426.71875 447.214844 427.625 C 437.839844 438.25 427.941406 447.96875 416.769531 456.703125 C 415.808594 457.488281 414.847656 458.273438 413.859375 459.078125 C 403.835938 467.105469 392.988281 473.726562 381.953125 480.257812 C 381.285156 480.65625 380.617188 481.054688 379.929688 481.464844 C 347.742188 500.46875 307.871094 511.949219 270.4375 512.242188 C 269.382812 512.253906 268.332031 512.265625 267.25 512.273438 C 224.253906 512.597656 224.253906 512.597656 203.777344 507.902344 C 202.894531 507.71875 202.015625 507.53125 201.109375 507.339844 C 158.234375 498.230469 116.917969 477.644531 84.992188 447.488281 C 83.652344 446.332031 82.308594 445.179688 80.960938 444.03125 C 71.832031 436.046875 63.78125 427.339844 56.320312 417.792969 C 55.285156 416.503906 54.253906 415.21875 53.21875 413.933594 C 40.902344 398.410156 30.804688 381.515625 22.527344 363.519531 C 22.03125 362.449219 22.03125 362.449219 21.523438 361.351562 C 12.171875 340.960938 5.433594 319.148438 2.046875 296.960938 C 1.867188 295.835938 1.6875 294.714844 1.503906 293.554688 C -0.261719 281.285156 -0.40625 269.085938 -0.382812 256.703125 C -0.382812 255.617188 -0.382812 254.53125 -0.382812 253.414062 C -0.34375 236.546875 0.378906 220.292969 4.097656 203.777344 C 4.328125 202.746094 4.558594 201.714844 4.792969 200.652344 C 9.128906 181.835938 15.398438 163.917969 23.550781 146.433594 C 24.015625 145.4375 24.015625 145.4375 24.488281 144.421875 C 35.003906 122.054688 48.707031 102.058594 65.535156 83.96875 C 66.734375 82.585938 67.929688 81.199219 69.121094 79.808594 C 75.617188 72.386719 82.609375 65.800781 90.3125 59.644531 C 92.183594 58.144531 94.035156 56.625 95.863281 55.074219 C 108.257812 44.613281 121.921875 36.300781 136.191406 28.671875 C 137.167969 28.144531 137.167969 28.144531 138.160156 27.609375 C 161.980469 14.847656 188.371094 6.285156 215.039062 2.046875 C 216.171875 1.867188 217.304688 1.683594 218.472656 1.496094 C 230.730469 -0.265625 242.925781 -0.40625 255.296875 -0.382812 Z M 255.296875 -0.382812 "/>
<path style=" stroke:none;fill-rule:nonzero;fill:rgb(13.725491%,12.156863%,12.54902%);fill-opacity:1;" d="M 73.726562 74.753906 C 74.402344 74.753906 75.078125 74.753906 75.777344 74.753906 C 77.285156 76.28125 77.285156 76.28125 79.027344 78.378906 C 82.621094 82.601562 86.40625 86.546875 90.335938 90.460938 C 91.046875 91.167969 91.753906 91.878906 92.484375 92.609375 C 94.835938 94.964844 97.195312 97.316406 99.550781 99.664062 C 101.246094 101.363281 102.941406 103.058594 104.636719 104.753906 C 109.226562 109.34375 113.816406 113.929688 118.410156 118.511719 C 122.726562 122.824219 127.039062 127.136719 131.355469 131.453125 C 139.898438 139.992188 148.441406 148.527344 156.984375 157.0625 C 165.28125 165.347656 173.574219 173.636719 181.871094 181.925781 C 182.382812 182.4375 182.894531 182.949219 183.421875 183.476562 C 185.988281 186.042969 188.558594 188.609375 191.128906 191.179688 C 212.40625 212.449219 233.691406 233.714844 254.976562 254.976562 C 253.042969 259.183594 250.210938 262.03125 246.933594 265.230469 C 246.339844 265.820312 245.746094 266.410156 245.132812 267.015625 C 243.234375 268.894531 241.328125 270.769531 239.425781 272.640625 C 236.929688 275.09375 234.441406 277.554688 231.957031 280.015625 C 231.355469 280.613281 230.75 281.207031 230.128906 281.820312 C 227.175781 284.765625 224.328125 287.730469 221.644531 290.929688 C 218.703125 294.414062 215.417969 297.449219 212.046875 300.503906 C 205.128906 306.832031 198.464844 313.386719 191.84375 320.019531 C 190.660156 321.203125 189.476562 322.382812 188.292969 323.566406 C 185.84375 326.015625 183.394531 328.46875 180.945312 330.921875 C 177.824219 334.046875 174.699219 337.171875 171.570312 340.292969 C 169.140625 342.71875 166.707031 345.152344 164.277344 347.582031 C 163.128906 348.738281 161.976562 349.886719 160.820312 351.039062 C 153.59375 358.210938 153.59375 358.210938 146.832031 365.816406 C 146.023438 366.746094 145.21875 367.679688 144.382812 368.640625 C 143.707031 368.640625 143.03125 368.640625 142.335938 368.640625 C 142.125 369.183594 141.914062 369.726562 141.695312 370.289062 C 139.707031 373.746094 136.949219 376.339844 134.132812 379.121094 C 133.503906 379.753906 132.875 380.382812 132.226562 381.03125 C 130.148438 383.109375 128.0625 385.179688 125.976562 387.246094 C 124.53125 388.6875 123.089844 390.128906 121.644531 391.570312 C 117.847656 395.359375 114.046875 399.140625 110.242188 402.921875 C 106.359375 406.785156 102.484375 410.648438 98.609375 414.515625 C 91.003906 422.097656 83.390625 429.675781 75.777344 437.246094 C 51.515625 426.113281 33.171875 386.660156 22.527344 363.519531 C 22.03125 362.449219 22.03125 362.449219 21.523438 361.351562 C 12.171875 340.960938 5.433594 319.148438 2.046875 296.960938 C 1.867188 295.835938 1.6875 294.714844 1.503906 293.554688 C -0.261719 281.285156 -0.40625 269.085938 -0.382812 256.703125 C -0.382812 255.617188 -0.382812 254.53125 -0.382812 253.414062 C -0.34375 236.546875 0.378906 220.292969 4.097656 203.777344 C 4.328125 202.746094 4.558594 201.714844 4.792969 200.652344 C 9.128906 181.835938 15.398438 163.917969 23.550781 146.433594 C 24.015625 145.4375 24.015625 145.4375 24.488281 144.421875 C 35.003906 122.0625 48.699219 102.046875 65.535156 83.96875 C 67.488281 81.757812 69.425781 79.535156 71.359375 77.308594 C 72.125 76.433594 72.90625 75.574219 73.726562 74.753906 Z M 73.726562 74.753906 "/>
<path style=" stroke:none;fill-rule:nonzero;fill:rgb(84.313726%,15.294118%,14.901961%);fill-opacity:1;" d="M 255.296875 -0.382812 C 256.382812 -0.382812 257.46875 -0.382812 258.585938 -0.382812 C 275.457031 -0.34375 291.703125 0.386719 308.222656 4.097656 C 309.238281 4.320312 310.253906 4.546875 311.300781 4.777344 C 354.148438 14.566406 394.894531 34.175781 427.007812 64.511719 C 428.347656 65.667969 429.691406 66.820312 431.039062 67.96875 C 440.167969 75.953125 448.21875 84.660156 455.679688 94.207031 C 456.714844 95.496094 457.746094 96.78125 458.78125 98.066406 C 485.792969 132.105469 502.234375 172.492188 509.953125 215.039062 C 510.089844 215.757812 510.222656 216.476562 510.363281 217.214844 C 512.671875 229.695312 512.203125 242.339844 512 254.976562 C 507.183594 253.503906 502.757812 251.519531 498.273438 249.253906 C 497.539062 248.886719 496.808594 248.519531 496.050781 248.140625 C 493.636719 246.933594 491.222656 245.71875 488.808594 244.503906 C 487.113281 243.652344 485.414062 242.804688 483.71875 241.953125 C 479.246094 239.714844 474.78125 237.472656 470.3125 235.226562 C 465.820312 232.972656 461.328125 230.71875 456.835938 228.46875 C 449.535156 224.808594 442.238281 221.148438 434.941406 217.480469 C 433.527344 216.773438 432.113281 216.0625 430.699219 215.351562 C 428.621094 214.3125 426.542969 213.269531 424.464844 212.222656 C 415.828125 207.886719 407.15625 203.625 398.457031 199.410156 C 370.113281 185.664062 341.953125 171.558594 313.789062 157.460938 C 306.476562 153.796875 299.160156 150.140625 291.847656 146.484375 C 278.8125 139.964844 265.777344 133.445312 252.746094 126.925781 C 240.121094 120.605469 227.496094 114.289062 214.867188 107.972656 C 214.082031 107.582031 213.300781 107.191406 212.492188 106.785156 C 208.554688 104.816406 204.621094 102.847656 200.683594 100.878906 C 168.261719 84.664062 135.84375 68.445312 103.425781 52.222656 C 103.425781 51.210938 103.425781 50.195312 103.425781 49.152344 C 116.574219 38.105469 132.980469 29.742188 148.480469 22.527344 C 149.5625 22.023438 149.5625 22.023438 150.667969 21.507812 C 171.054688 12.164062 192.859375 5.433594 215.039062 2.046875 C 216.726562 1.777344 216.726562 1.777344 218.445312 1.503906 C 230.714844 -0.261719 242.914062 -0.40625 255.296875 -0.382812 Z M 255.296875 -0.382812 "/>
<path style=" stroke:none;fill-rule:nonzero;fill:rgb(84.313726%,15.294118%,14.901961%);fill-opacity:1;" d="M 512 257.023438 C 513.574219 318.835938 490.425781 378.742188 449.535156 424.960938 C 448.769531 425.839844 448.003906 426.71875 447.214844 427.625 C 437.839844 438.25 427.941406 447.96875 416.769531 456.703125 C 415.808594 457.488281 414.847656 458.273438 413.859375 459.078125 C 403.835938 467.105469 392.988281 473.726562 381.953125 480.257812 C 381.285156 480.65625 380.617188 481.054688 379.929688 481.464844 C 347.742188 500.46875 307.871094 511.949219 270.4375 512.242188 C 269.382812 512.253906 268.332031 512.265625 267.25 512.273438 C 224.253906 512.597656 224.253906 512.597656 203.777344 507.902344 C 202.457031 507.625 202.457031 507.625 201.109375 507.339844 C 165.878906 499.855469 130.410156 484.695312 102.398438 461.824219 C 105.152344 458.558594 108.691406 456.933594 112.445312 455.078125 C 113.160156 454.71875 113.875 454.359375 114.609375 453.988281 C 117.003906 452.789062 119.402344 451.597656 121.804688 450.402344 C 123.519531 449.542969 125.238281 448.683594 126.957031 447.824219 C 131.628906 445.484375 136.308594 443.152344 140.988281 440.820312 C 145.902344 438.371094 150.8125 435.917969 155.722656 433.460938 C 163.992188 429.328125 172.261719 425.203125 180.535156 421.078125 C 191.085938 415.816406 201.632812 410.546875 212.179688 405.277344 C 221.300781 400.71875 230.425781 396.160156 239.554688 391.605469 C 242.453125 390.15625 245.355469 388.707031 248.253906 387.261719 C 282.667969 370.074219 282.667969 370.074219 295.085938 364.207031 C 312.597656 355.925781 329.859375 347.117188 347.175781 338.433594 C 353.882812 335.070312 360.59375 331.710938 367.300781 328.355469 C 386.359375 318.8125 405.414062 309.265625 424.464844 299.71875 C 435.03125 294.421875 445.601562 289.128906 456.171875 283.839844 C 462.84375 280.5 469.519531 277.152344 476.1875 273.808594 C 480.316406 271.738281 484.449219 269.671875 488.578125 267.605469 C 490.5 266.644531 492.417969 265.679688 494.335938 264.714844 C 496.945312 263.40625 499.554688 262.101562 502.167969 260.796875 C 503.316406 260.214844 503.316406 260.214844 504.492188 259.625 C 509.71875 257.023438 509.71875 257.023438 512 257.023438 Z M 512 257.023438 "/>
<path style=" stroke:none;fill-rule:nonzero;fill:rgb(98.823529%,98.823529%,98.823529%);fill-opacity:1;" d="M 75.777344 182.273438 C 80.644531 186.226562 84.84375 190.367188 88.832031 195.199219 C 92.855469 199.988281 96.9375 204.691406 101.183594 209.28125 C 108.035156 216.707031 108.035156 216.707031 110.785156 219.777344 C 111.628906 220.714844 111.628906 220.714844 112.492188 221.671875 C 113.664062 223.230469 113.664062 223.230469 113.664062 225.28125 C 114.761719 224.769531 115.859375 224.257812 116.992188 223.730469 C 133.40625 216.183594 150.148438 209.472656 166.910156 202.753906 C 166.910156 206.660156 165.640625 208.40625 163.6875 211.785156 C 163.183594 212.664062 163.183594 212.664062 162.667969 213.558594 C 161.945312 214.8125 161.21875 216.066406 160.492188 217.316406 C 159.359375 219.265625 158.234375 221.222656 157.109375 223.175781 C 153.839844 228.859375 150.535156 234.519531 147.125 240.121094 C 146.640625 240.914062 146.160156 241.710938 145.664062 242.53125 C 144.789062 243.964844 143.90625 245.390625 143.007812 246.808594 C 140.851562 250.132812 140.851562 250.132812 140.535156 253.941406 C 141.394531 256.214844 142.378906 257.558594 144 259.363281 C 144.550781 259.984375 145.101562 260.609375 145.667969 261.25 C 146.257812 261.902344 146.847656 262.558594 147.457031 263.230469 C 148.679688 264.617188 149.90625 266 151.128906 267.386719 C 151.726562 268.066406 152.328125 268.746094 152.945312 269.445312 C 155.894531 272.8125 158.695312 276.296875 161.507812 279.777344 C 164.800781 283.796875 168.175781 287.746094 171.570312 291.6875 C 175.105469 295.824219 175.105469 295.824219 175.105469 296.960938 C 170.234375 297.167969 166.175781 296.417969 161.472656 295.167969 C 160.019531 294.789062 158.566406 294.414062 157.117188 294.035156 C 155.996094 293.746094 155.996094 293.746094 154.855469 293.445312 C 151.121094 292.492188 147.371094 291.621094 143.617188 290.753906 C 137.535156 289.339844 131.484375 287.84375 125.457031 286.222656 C 122.703125 285.660156 120.558594 285.386719 117.761719 285.695312 C 116.074219 287.355469 116.074219 287.355469 114.886719 289.722656 C 114.382812 290.609375 113.875 291.496094 113.355469 292.410156 C 112.824219 293.382812 112.292969 294.355469 111.742188 295.359375 C 110.578125 297.410156 109.410156 299.460938 108.242188 301.507812 C 107.632812 302.59375 107.019531 303.679688 106.390625 304.800781 C 103.027344 310.726562 99.550781 316.578125 96.0625 322.433594 C 95.402344 323.5625 94.738281 324.695312 94.054688 325.863281 C 93.4375 326.902344 92.816406 327.945312 92.179688 329.015625 C 91.632812 329.945312 91.082031 330.875 90.519531 331.832031 C 89.8125 332.816406 89.8125 332.816406 89.089844 333.824219 C 88.414062 333.824219 87.734375 333.824219 87.039062 333.824219 C 86.453125 326.1875 85.871094 318.554688 85.289062 310.917969 C 85.09375 308.320312 84.894531 305.722656 84.695312 303.125 C 84.40625 299.390625 84.125 295.65625 83.839844 291.925781 C 83.75 290.761719 83.660156 289.601562 83.570312 288.40625 C 83.488281 287.320312 83.40625 286.234375 83.320312 285.117188 C 83.246094 284.164062 83.175781 283.210938 83.097656 282.226562 C 82.949219 279.621094 82.917969 277.042969 82.945312 274.433594 C 81.695312 274.324219 80.449219 274.210938 79.164062 274.101562 C 72.828125 273.394531 66.683594 271.953125 60.480469 270.527344 C 58.03125 269.972656 55.582031 269.414062 53.132812 268.859375 C 51.9375 268.589844 50.742188 268.316406 49.511719 268.035156 C 46.417969 267.339844 43.316406 266.671875 40.210938 266.019531 C 39.355469 265.839844 38.496094 265.65625 37.613281 265.46875 C 36.039062 265.136719 34.464844 264.8125 32.886719 264.492188 C 31.125 264.117188 29.382812 263.652344 27.648438 263.167969 C 27.308594 262.492188 26.972656 261.816406 26.625 261.121094 C 31.941406 258.878906 37.257812 256.640625 42.574219 254.402344 C 44.378906 253.640625 46.179688 252.882812 47.984375 252.121094 C 52.28125 250.3125 56.582031 248.5 60.882812 246.695312 C 63.746094 245.492188 66.609375 244.28125 69.46875 243.0625 C 70.574219 242.59375 71.679688 242.125 72.816406 241.644531 C 74.21875 241.046875 74.21875 241.046875 75.648438 240.4375 C 77.824219 239.617188 77.824219 239.617188 79.871094 239.617188 C 79.746094 238.582031 79.625 237.550781 79.496094 236.484375 C 75.160156 199.472656 75.160156 199.472656 75.777344 182.273438 Z M 75.777344 182.273438 "/>
</g>
</svg>
