<?xml version="1.0" encoding="iso-8859-1"?>
<!-- Uploaded to: SVG Repo, www.svgrepo.com, Generator: SVG Repo Mixer Tools -->
<svg height="800px" width="800px" version="1.1" id="Layer_1" xmlns="http://www.w3.org/2000/svg" xmlns:xlink="http://www.w3.org/1999/xlink" 
	 viewBox="0 0 511.999 511.999" xml:space="preserve">
<path style="fill:#FFFFFF;" d="M473.103,371.851c0.176-0.611,0.338-1.228,0.479-1.85c0.047-0.201,0.089-0.401,0.131-0.603
	c0.113-0.541,0.213-1.085,0.3-1.634c0.037-0.236,0.076-0.473,0.11-0.711c0.076-0.545,0.131-1.093,0.18-1.643
	c0.021-0.225,0.047-0.447,0.063-0.674c0.052-0.767,0.084-1.537,0.083-2.313l0,0l0,0v-0.006l-0.006-40.904v-0.001l-0.005-26.204
	v-0.002l-0.001-4.213l-0.004-25.574l0,0l-0.008-48.824l-0.005-26.204l-0.006-40.985c-0.001-2.996-0.409-5.93-1.161-8.75
	c-0.405-1.517-0.915-2.997-1.521-4.435c-2.477-5.877-6.574-11.016-11.924-14.74c-0.784-0.545-1.584-1.071-2.421-1.554l-22.874-13.2
	L413.1,94.467l-17.24-9.949l-65.921-38.046l-25.717-14.842l-19.288-11.132l-11.953-6.898c-10.533-6.078-23.509-6.077-34.04,0.006
	l-11.872,6.857l-19.288,11.14l-25.717,14.854l0,0l-65.915,38.07l-28.89,16.686l-21.408,12.365l-11.282,6.517
	c-0.813,0.469-1.59,0.979-2.353,1.507c-3.272,2.266-6.072,5.068-8.331,8.236c-1.517,2.128-2.781,4.423-3.774,6.841
	c-1.654,4.031-2.557,8.399-2.557,12.899l0.007,40.912l0.005,26.204l0.012,73.738l0.001,4.011v0.849v0.002v0.013l0,0v0.005l0,0
	l0.005,26.2l0,0v1.864l0.002,12.617l0.004,26.497v0.006l0,0c0.001,0.773,0.033,1.539,0.084,2.304
	c0.016,0.224,0.042,0.446,0.063,0.669c0.048,0.55,0.105,1.096,0.178,1.638c0.033,0.236,0.072,0.471,0.11,0.706
	c0.086,0.546,0.184,1.087,0.298,1.626c0.042,0.201,0.084,0.403,0.13,0.603c0.14,0.615,0.298,1.222,0.471,1.825
	c0.033,0.113,0.061,0.227,0.095,0.34c0.909,3.042,2.239,5.93,3.941,8.589v0.001l0.002,0.002c1.172,1.832,2.517,3.551,4.026,5.137
	c0.049,0.052,0.098,0.106,0.147,0.158c0.71,0.735,1.454,1.439,2.233,2.112c0.125,0.11,0.254,0.215,0.382,0.322
	c0.785,0.661,1.594,1.3,2.444,1.89c0.784,0.545,1.584,1.07,2.421,1.554l22.552,13.015l21.414,12.359l17.561,10.135l91.644,52.89
	l19.288,11.132l11.953,6.898c10.533,6.078,23.509,6.077,34.04-0.006l11.872-6.857l19.288-11.14l25.717-14.853l55.554-32.086
	l10.363-5.985l26.36-15.224l21.408-12.365l13.813-7.978c0.813-0.469,1.59-0.979,2.353-1.507c0.85-0.59,1.659-1.226,2.445-1.883
	c0.129-0.107,0.259-0.213,0.386-0.322c0.779-0.673,1.526-1.375,2.236-2.11c0.046-0.048,0.09-0.098,0.136-0.146
	c3.725-3.891,6.475-8.609,8.019-13.765C473.045,372.067,473.073,371.958,473.103,371.851z"/>
<path style="fill:#ED1F34;" d="M474.44,295.304v-4.213l-0.005-25.574l-0.008-48.824l-0.001-4.997H300.303V29.369l-15.37-8.871
	l-11.953-6.898c-10.533-6.078-23.509-6.077-34.04,0.006l-11.872,6.857l-15.37,8.877v182.358H37.56l0.001,4.997l0.012,73.738
	l0.001,4.011v0.849v0.002v0.013l0,0v0.005l0,0l0.001,4.992h174.123v182.329l15.37,8.87l11.953,6.898
	c10.533,6.078,23.509,6.077,34.04-0.006l11.872-6.857l15.37-8.877V300.302h97.144h35.363h41.63l-0.001-4.997V295.304z"/>
<path style="fill:#FFE000;" d="M364.497,242.136c-3.469,0-6.477,1.955-7.994,4.822h-91.462v-91.462
	c2.867-1.517,4.822-4.524,4.822-7.994c0-4.993-4.047-9.041-9.041-9.041h-9.644c-4.994,0-9.041,4.048-9.041,9.041
	c0,3.468,1.955,6.477,4.822,7.994v91.462h-91.462c-1.517-2.867-4.524-4.822-7.994-4.822c-4.994,0-9.041,4.048-9.041,9.041v9.644
	c0,4.993,4.047,9.041,9.041,9.041c3.469,0,6.477-1.955,7.994-4.822h91.462v91.462c-2.867,1.517-4.822,4.524-4.822,7.994
	c0,4.993,4.047,9.041,9.041,9.041h9.644c4.994,0,9.041-4.048,9.041-9.041c0-3.468-1.955-6.477-4.822-7.994v-91.462h91.462
	c1.517,2.867,4.524,4.822,7.994,4.822c4.994,0,9.041-4.048,9.041-9.041v-9.644C373.538,246.184,369.491,242.136,364.497,242.136z"/>
<path d="M483.456,149.505c0-3.709-0.493-7.437-1.463-11.075c-0.503-1.887-1.15-3.777-1.928-5.623
	c-3.18-7.542-8.399-13.99-15.091-18.646c-1.113-0.775-2.086-1.398-3.066-1.964L277.499,5.768C270.962,1.995,263.515,0,255.965,0
	c-7.555,0-15.005,1.998-21.547,5.776L50.048,112.263c-0.943,0.545-1.89,1.149-2.985,1.907c-4.086,2.831-7.632,6.335-10.545,10.419
	c-1.911,2.681-3.517,5.592-4.776,8.658c-2.146,5.23-3.234,10.724-3.234,16.332l0.036,212.917c0,0.927,0.034,1.882,0.105,2.917
	c0.017,0.241,0.039,0.481,0.064,0.721l0.013,0.127c0.06,0.694,0.133,1.384,0.229,2.094c0.036,0.259,0.077,0.516,0.133,0.866
	c0.111,0.697,0.236,1.389,0.382,2.084c0.054,0.253,0.108,0.508,0.163,0.745c0.176,0.778,0.377,1.545,0.604,2.341
	c0.04,0.149,0.082,0.298,0.115,0.403c1.143,3.828,2.821,7.485,4.986,10.873c0.025,0.039,0.049,0.076,0.075,0.115
	c1.471,2.283,3.16,4.431,4.998,6.363c0.046,0.051,0.168,0.18,0.215,0.228c0.892,0.925,1.841,1.824,2.826,2.675l0.481,0.405
	c1.098,0.923,2.111,1.705,3.097,2.391c1.115,0.775,2.087,1.397,3.062,1.96L234.501,506.23c6.539,3.773,13.985,5.768,21.534,5.768
	c7.555,0,15.005-1.998,21.547-5.776l184.37-106.487c0.943-0.545,1.89-1.149,2.987-1.908c0.984-0.682,1.996-1.46,3.107-2.388
	l0.475-0.398c0.986-0.85,1.938-1.748,2.85-2.69l0.153-0.162c4.695-4.904,8.205-10.929,10.124-17.344
	c0.053-0.169,0.101-0.339,0.14-0.486c0.224-0.773,0.427-1.554,0.609-2.345c0.058-0.253,0.112-0.508,0.168-0.769
	c0.142-0.684,0.269-1.372,0.379-2.067l0.02-0.121c0.04-0.256,0.08-0.511,0.119-0.787c0.093-0.686,0.168-1.379,0.227-2.063
	l0.014-0.145c0.025-0.239,0.047-0.479,0.063-0.72c0.072-1.058,0.106-2.019,0.105-2.931L483.456,149.505z M454.647,129.003
	c3.881,2.7,6.908,6.446,8.756,10.824c0.452,1.074,0.828,2.169,1.119,3.26c0.567,2.124,0.854,4.283,0.854,6.421l0.008,53.149H309.344
	V45.025l143.526,82.832C453.397,128.161,453.96,128.524,454.647,129.003z M48.47,140.114c0.732-1.783,1.666-3.476,2.773-5.028
	c1.696-2.378,3.754-4.415,6.114-6.051c0.674-0.465,1.222-0.819,1.731-1.111l143.568-82.922v157.653H46.6l-0.01-53.078
	C46.59,146.337,47.223,143.152,48.47,140.114z M57.354,382.999c-0.538-0.375-1.108-0.817-1.814-1.41l-0.262-0.217
	c-0.573-0.495-1.125-1.017-1.577-1.486c-0.033-0.035-0.137-0.148-0.172-0.183c-1.086-1.14-2.072-2.395-2.929-3.73
	c-0.011-0.016-0.02-0.031-0.029-0.047c-1.259-1.966-2.233-4.088-2.887-6.28l-0.075-0.268c-0.128-0.444-0.244-0.891-0.351-1.357
	l-0.094-0.436c-0.081-0.389-0.153-0.781-0.219-1.198l-0.078-0.5c-0.054-0.4-0.094-0.803-0.131-1.221l-0.046-0.476
	c-0.037-0.561-0.063-1.125-0.063-1.7l-0.01-53.143h156.039v157.63L59.131,384.143C58.606,383.839,58.04,383.475,57.354,382.999z
	 M465.348,364.1l-0.051,0.52c-0.035,0.406-0.076,0.811-0.129,1.195l-0.082,0.53c-0.064,0.404-0.137,0.804-0.219,1.197l-0.095,0.441
	c-0.105,0.457-0.224,0.909-0.363,1.389l-0.061,0.224c-1.13,3.759-3.164,7.249-5.902,10.109l-0.083,0.09
	c-0.515,0.532-1.068,1.052-1.639,1.546l-0.286,0.239c-0.676,0.564-1.263,1.019-1.79,1.384c-0.674,0.465-1.222,0.819-1.731,1.111
	l-143.569,82.922V309.344h88.103c4.994,0,9.041-4.048,9.041-9.041c0-4.993-4.047-9.041-9.041-9.041h-97.144
	c-4.994,0-9.041,4.048-9.041,9.041V477.44l-22.723,13.124c-3.796,2.193-8.12,3.351-12.504,3.351c-4.381,0-8.703-1.157-12.495-3.347
	l-22.801-13.159V300.302c0-4.993-4.047-9.041-9.041-9.041H46.616l-0.013-70.523h165.095c4.994,0,9.041-4.048,9.041-9.041V34.559
	l22.723-13.124c3.796-2.192,8.12-3.351,12.504-3.351c4.381,0,8.701,1.159,12.495,3.347l22.801,13.159v177.108
	c0,4.993,4.047,9.041,9.041,9.041h165.081l0.012,70.523H432.81c-4.994,0-9.041,4.048-9.041,9.041s4.047,9.041,9.041,9.041h32.59
	l0.008,53.092C465.41,363.004,465.384,363.566,465.348,364.1z"/>
</svg>