<svg width="18" height="16" viewBox="0 0 18 16" fill="none" xmlns="http://www.w3.org/2000/svg">
<path d="M0 15.4901V10.8878C0 9.58097 0.255682 8.24574 0.767045 6.8821C1.27841 5.51847 1.95312 4.23295 2.79119 3.02557C3.62926 1.81818 4.53835 0.809658 5.51847 0L9.52415 2.36506C8.72869 3.61506 8.07528 4.92188 7.56392 6.28551C7.06676 7.64915 6.81818 9.16903 6.81818 10.8452V15.4901H0Z" fill="#FF6900"/>
<path d="M7.69739 15.4901V10.8878C7.69739 9.58097 7.95307 8.24574 8.46443 6.8821C8.9758 5.51847 9.65051 4.23295 10.4886 3.02557C11.3266 1.81818 12.2357 0.809658 13.2159 0L17.2215 2.36506C16.4261 3.61506 15.7727 4.92188 15.2613 6.28551C14.7641 7.64915 14.5156 9.16903 14.5156 10.8452V15.4901H7.69739Z" fill="#FF6900"/>
</svg>
