<svg width="16" height="16" viewBox="0 0 16 16" fill="none" xmlns="http://www.w3.org/2000/svg">
<g clip-path="url(#clip0_426_21001)">
<path d="M3.33337 14V3.33333C3.33337 2.97971 3.47385 2.64057 3.7239 2.39052C3.97395 2.14048 4.31309 2 4.66671 2H11.3334C11.687 2 12.0261 2.14048 12.2762 2.39052C12.5262 2.64057 12.6667 2.97971 12.6667 3.33333V14L10.6667 12.6667L9.33337 14L8.00004 12.6667L6.66671 14L5.33337 12.6667L3.33337 14Z" stroke="white" stroke-linecap="round" stroke-linejoin="round"/>
<path d="M10 9.33203V7.9987C10 7.64508 9.85952 7.30594 9.60948 7.05589C9.35943 6.80584 9.02029 6.66536 8.66667 6.66536H6M6 6.66536L7.33333 5.33203M6 6.66536L7.33333 7.9987" stroke="#FF6900" stroke-linecap="round" stroke-linejoin="round"/>
</g>
<defs>
<clipPath id="clip0_426_21001">
<rect width="16" height="16" fill="white"/>
</clipPath>
</defs>
</svg>
