<svg width="16" height="16" viewBox="0 0 16 16" fill="none" xmlns="http://www.w3.org/2000/svg">
<g clip-path="url(#clip0_426_20988)">
<path d="M13.99 8.35208C14.0614 7.13729 13.7618 5.9295 13.1308 4.88897C12.4999 3.84844 11.5674 3.02436 10.4572 2.52608C9.34702 2.02779 8.11156 1.87886 6.91476 2.09903C5.71795 2.31921 4.61639 2.89809 3.75622 3.75887C2.89606 4.61964 2.31796 5.72162 2.09863 6.91858C1.8793 8.11554 2.02911 9.3509 2.52819 10.4607C3.02726 11.5706 3.852 12.5024 4.89298 13.1327C5.93396 13.7629 7.14196 14.0617 8.3567 13.9894" stroke="white" stroke-linecap="round" stroke-linejoin="round"/>
<path d="M10.6666 12.668H14.6666" stroke="#FF6900" stroke-linecap="round" stroke-linejoin="round"/>
<path d="M12.6666 10.668V14.668" stroke="#FF6900" stroke-linecap="round" stroke-linejoin="round"/>
<path d="M6 6.66797H6.00667" stroke="white" stroke-linecap="round" stroke-linejoin="round"/>
<path d="M10 6.66797H10.0067" stroke="white" stroke-linecap="round" stroke-linejoin="round"/>
<path d="M6.33337 10C6.77204 10.4267 7.37337 10.6667 8.00004 10.6667C8.62671 10.6667 9.22804 10.4267 9.66671 10" stroke="white" stroke-linecap="round" stroke-linejoin="round"/>
</g>
<defs>
<clipPath id="clip0_426_20988">
<rect width="16" height="16" fill="white"/>
</clipPath>
</defs>
</svg>
