<svg width="16" height="16" viewBox="0 0 16 16" fill="none" xmlns="http://www.w3.org/2000/svg">
<g clip-path="url(#clip0_1053_20395)">
<path d="M2.66667 4.66536C2.66667 4.31174 2.80715 3.9726 3.0572 3.72256C3.30724 3.47251 3.64638 3.33203 4.00001 3.33203H12C12.3536 3.33203 12.6928 3.47251 12.9428 3.72256C13.1929 3.9726 13.3333 4.31174 13.3333 4.66536V12.6654C13.3333 13.019 13.1929 13.3581 12.9428 13.6082C12.6928 13.8582 12.3536 13.9987 12 13.9987H4.00001C3.64638 13.9987 3.30724 13.8582 3.0572 13.6082C2.80715 13.3581 2.66667 13.019 2.66667 12.6654V4.66536Z" stroke="#4F4F4F" stroke-width="1.5" stroke-linecap="round" stroke-linejoin="round"/>
<path d="M10.6667 2V4.66667" stroke="#4F4F4F" stroke-width="1.5" stroke-linecap="round" stroke-linejoin="round"/>
<path d="M5.33333 2V4.66667" stroke="#4F4F4F" stroke-width="1.5" stroke-linecap="round" stroke-linejoin="round"/>
<path d="M2.66667 7.33203H13.3333" stroke="#4F4F4F" stroke-width="1.5" stroke-linecap="round" stroke-linejoin="round"/>
<path d="M5.33333 10H6.66666V11.3333H5.33333V10Z" stroke="#4F4F4F" stroke-width="2" stroke-linecap="round" stroke-linejoin="round"/>
</g>
<defs>
<clipPath id="clip0_1053_20395">
<rect width="16" height="16" fill="white"/>
</clipPath>
</defs>
</svg>
