<svg width="49" height="48" viewBox="0 0 49 48" fill="none" xmlns="http://www.w3.org/2000/svg">
<g clip-path="url(#clip0_54_11253)">
<path d="M6.40002 18C6.40002 16.9391 6.82145 15.9217 7.5716 15.1716C8.32174 14.4214 9.33916 14 10.4 14H38.4C39.4609 14 40.4783 14.4214 41.2285 15.1716C41.9786 15.9217 42.4 16.9391 42.4 18V36C42.4 37.0609 41.9786 38.0783 41.2285 38.8284C40.4783 39.5786 39.4609 40 38.4 40H10.4C9.33916 40 8.32174 39.5786 7.5716 38.8284C6.82145 38.0783 6.40002 37.0609 6.40002 36V18Z" stroke="white" stroke-width="2" stroke-linecap="round" stroke-linejoin="round"/>
<path d="M16.4 14V10C16.4 8.93913 16.8215 7.92172 17.5716 7.17157C18.3217 6.42143 19.3392 6 20.4 6H28.4C29.4609 6 30.4783 6.42143 31.2285 7.17157C31.9786 7.92172 32.4 8.93913 32.4 10V14" stroke="white" stroke-width="2" stroke-linecap="round" stroke-linejoin="round"/>
<path d="M24.4 24V24.02" stroke="white" stroke-width="2" stroke-linecap="round" stroke-linejoin="round"/>
<path d="M6.40002 26C11.9832 28.8134 18.1481 30.2789 24.4 30.2789C30.652 30.2789 36.8169 28.8134 42.4 26" stroke="white" stroke-width="2" stroke-linecap="round" stroke-linejoin="round"/>
</g>
<defs>
<clipPath id="clip0_54_11253">
<rect width="48" height="48" fill="white" transform="translate(0.400024)"/>
</clipPath>
</defs>
</svg>
