<svg width="16" height="16" viewBox="0 0 16 16" fill="none" xmlns="http://www.w3.org/2000/svg">
<g clip-path="url(#clip0_422_14450)">
<path d="M2.66666 6.66536C2.66666 7.01899 2.80713 7.35812 3.05718 7.60817C3.30723 7.85822 3.64637 7.9987 3.99999 7.9987C4.35361 7.9987 4.69275 7.85822 4.9428 7.60817C5.19285 7.35812 5.33332 7.01899 5.33332 6.66536C5.33332 6.31174 5.19285 5.9726 4.9428 5.72256C4.69275 5.47251 4.35361 5.33203 3.99999 5.33203C3.64637 5.33203 3.30723 5.47251 3.05718 5.72256C2.80713 5.9726 2.66666 6.31174 2.66666 6.66536Z" stroke="#1D1D1D" stroke-width="1.5" stroke-linecap="round" stroke-linejoin="round"/>
<path d="M4 2.66797V5.33464" stroke="#1D1D1D" stroke-width="1.5" stroke-linecap="round" stroke-linejoin="round"/>
<path d="M4 8V13.3333" stroke="#1D1D1D" stroke-width="1.5" stroke-linecap="round" stroke-linejoin="round"/>
<path d="M8.79934 9.59803C8.63027 9.47144 8.43354 9.38684 8.22536 9.35117C8.01718 9.31551 7.8035 9.32982 7.60193 9.39291C7.40037 9.45601 7.21667 9.56609 7.06598 9.71408C6.91528 9.86208 6.80191 10.0438 6.73518 10.2441C6.66846 10.4445 6.6503 10.6579 6.68219 10.8667C6.71409 11.0755 6.79513 11.2737 6.91864 11.4451C7.04215 11.6164 7.2046 11.7559 7.39261 11.8522C7.58062 11.9485 7.7888 11.9987 8.00001 11.9987" stroke="#1D1D1D" stroke-width="1.5" stroke-linecap="round" stroke-linejoin="round"/>
<path d="M8 2.66797V9.33464" stroke="#1D1D1D" stroke-width="1.5" stroke-linecap="round" stroke-linejoin="round"/>
<path d="M8 12V13.3333" stroke="#1D1D1D" stroke-width="1.5" stroke-linecap="round" stroke-linejoin="round"/>
<path d="M10.6667 4.66536C10.6667 5.01899 10.8071 5.35812 11.0572 5.60817C11.3072 5.85822 11.6464 5.9987 12 5.9987C12.3536 5.9987 12.6927 5.85822 12.9428 5.60817C13.1928 5.35812 13.3333 5.01899 13.3333 4.66536C13.3333 4.31174 13.1928 3.9726 12.9428 3.72256C12.6927 3.47251 12.3536 3.33203 12 3.33203C11.6464 3.33203 11.3072 3.47251 11.0572 3.72256C10.8071 3.9726 10.6667 4.31174 10.6667 4.66536Z" stroke="#1D1D1D" stroke-width="1.5" stroke-linecap="round" stroke-linejoin="round"/>
<path d="M12 2.66797V3.33464" stroke="#1D1D1D" stroke-width="1.5" stroke-linecap="round" stroke-linejoin="round"/>
<path d="M12 6V7.66667" stroke="#1D1D1D" stroke-width="1.5" stroke-linecap="round" stroke-linejoin="round"/>
<path d="M11.334 12.6654C11.334 13.019 11.4745 13.3581 11.7245 13.6082C11.9746 13.8582 12.3137 13.9987 12.6673 13.9987C13.0209 13.9987 13.3601 13.8582 13.6101 13.6082C13.8602 13.3581 14.0007 13.019 14.0007 12.6654C14.0007 12.3117 13.8602 11.9726 13.6101 11.7226C13.3601 11.4725 13.0209 11.332 12.6673 11.332C12.3137 11.332 11.9746 11.4725 11.7245 11.7226C11.4745 11.9726 11.334 12.3117 11.334 12.6654Z" stroke="#1D1D1D" stroke-width="1.5" stroke-linecap="round" stroke-linejoin="round"/>
<path d="M12.6673 10.332V11.332" stroke="#1D1D1D" stroke-width="1.5" stroke-linecap="round" stroke-linejoin="round"/>
<path d="M12.6673 14V15" stroke="#1D1D1D" stroke-width="1.5" stroke-linecap="round" stroke-linejoin="round"/>
<path d="M14.688 11.5L13.822 12" stroke="#1D1D1D" stroke-width="1.5" stroke-linecap="round" stroke-linejoin="round"/>
<path d="M11.5133 13.332L10.6467 13.832" stroke="#1D1D1D" stroke-width="1.5" stroke-linecap="round" stroke-linejoin="round"/>
<path d="M10.6467 11.5L11.5133 12" stroke="#1D1D1D" stroke-width="1.5" stroke-linecap="round" stroke-linejoin="round"/>
<path d="M13.822 13.332L14.6887 13.832" stroke="#1D1D1D" stroke-width="1.5" stroke-linecap="round" stroke-linejoin="round"/>
</g>
<defs>
<clipPath id="clip0_422_14450">
<rect width="16" height="16" fill="white"/>
</clipPath>
</defs>
</svg>
