<svg width="136" height="102" viewBox="0 0 136 102" fill="none" xmlns="http://www.w3.org/2000/svg">
<path d="M135.779 89.0938H0.220703V89.1615H135.779V89.0938Z" fill="#EBEBEB"/>
<path d="M23.4227 91.6641H14.4434V91.7318H23.4227V91.6641Z" fill="#EBEBEB"/>
<path d="M58.1497 90.9219H46.6191V90.9897H58.1497V90.9219Z" fill="#EBEBEB"/>
<path d="M30.7643 92.6172H25.5615V92.685H30.7643V92.6172Z" fill="#EBEBEB"/>
<path d="M122.196 93.7188H118.066V93.7865H122.196V93.7188Z" fill="#EBEBEB"/>
<path d="M115.652 93.7188H106.355V93.7865H115.652V93.7188Z" fill="#EBEBEB"/>
<path d="M90.1853 91.7812H83.7246V91.849H90.1853V91.7812Z" fill="#EBEBEB"/>
<path d="M64.4754 76.9921H12.1282C11.7176 76.9921 11.3238 76.829 11.0335 76.5387C10.7432 76.2484 10.5801 75.8546 10.5801 75.444V1.85483C10.5837 1.44661 10.7483 1.05633 11.0383 0.768931C11.3282 0.481535 11.7199 0.320297 12.1282 0.320313H64.4754C64.8859 0.320313 65.2797 0.483413 65.57 0.773734C65.8603 1.06405 66.0234 1.45781 66.0234 1.86839V75.444C66.0234 75.8546 65.8603 76.2484 65.57 76.5387C65.2797 76.829 64.8859 76.9921 64.4754 76.9921ZM12.1282 0.374536C11.7358 0.375253 11.3597 0.531442 11.0822 0.808896C10.8048 1.08635 10.6486 1.46245 10.6479 1.85483V75.444C10.6486 75.8364 10.8048 76.2125 11.0822 76.49C11.3597 76.7674 11.7358 76.9236 12.1282 76.9243H64.4754C64.8677 76.9236 65.2438 76.7674 65.5213 76.49C65.7988 76.2125 65.9549 75.8364 65.9557 75.444V1.85483C65.9549 1.46245 65.7988 1.08635 65.5213 0.808896C65.2438 0.531442 64.8677 0.375253 64.4754 0.374536H12.1282Z" fill="#EBEBEB"/>
<path d="M123.12 76.9921H70.7678C70.3574 76.9914 69.9641 76.8281 69.6739 76.5379C69.3838 76.2477 69.2204 75.8544 69.2197 75.444V1.85483C69.224 1.44683 69.3889 1.05696 69.6787 0.769714C69.9685 0.48247 70.3598 0.321003 70.7678 0.320312H123.12C123.528 0.321724 123.918 0.483592 124.207 0.770835C124.496 1.05808 124.66 1.44755 124.663 1.85483V75.444C124.663 75.8537 124.501 76.2466 124.212 76.5368C123.922 76.8269 123.53 76.9907 123.12 76.9921ZM70.7678 0.374536C70.3754 0.375253 69.9993 0.531442 69.7219 0.808896C69.4444 1.08635 69.2882 1.46245 69.2875 1.85483V75.444C69.2882 75.8364 69.4444 76.2125 69.7219 76.49C69.9993 76.7674 70.3754 76.9236 70.7678 76.9243H123.12C123.513 76.9236 123.889 76.7674 124.166 76.49C124.444 76.2125 124.6 75.8364 124.601 75.444V1.85483C124.6 1.46245 124.444 1.08635 124.166 0.808896C123.889 0.531442 123.513 0.375253 123.12 0.374536H70.7678Z" fill="#EBEBEB"/>
<path d="M83.5886 38.6484L112.834 38.6484V9.32445L83.5886 9.32445V38.6484Z" fill="#F0F0F0"/>
<path d="M83.5883 9.32812H83.084V38.6521H83.5883V9.32812Z" fill="#E0E0E0"/>
<path d="M86.1733 36.7969H110.254V11.1763L86.1733 11.1763V36.7969Z" fill="#FAFAFA"/>
<path d="M95.6539 31.2321H103.28C104.934 31.2321 106.04 29.8928 105.75 28.2498L104.267 19.7557C104.102 18.9339 103.665 18.1919 103.025 17.6504C102.385 17.109 101.581 16.7999 100.743 16.7734H93.1352C91.4814 16.7734 90.3752 18.1128 90.6653 19.7557L92.1484 28.2498C92.3119 29.0688 92.7469 29.8087 93.3831 30.3499C94.0192 30.8911 94.8193 31.2019 95.6539 31.2321Z" fill="#F0F0F0"/>
<path d="M28.6797 47.5469H22.1729V87.6857H28.6797V47.5469Z" fill="#F0F0F0"/>
<path d="M57.2308 87.6953H22.8369V89.0807H57.2308V87.6953Z" fill="#F0F0F0"/>
<path d="M28.6804 87.6953H57.8037L57.8037 47.5565L28.6804 47.5565L28.6804 87.6953Z" fill="#F5F5F5"/>
<path d="M29.8519 75.6172H56.6328V68.4489H29.8519V75.6172Z" fill="#F0F0F0"/>
<path d="M29.8519 85.0078H56.6328V77.8395H29.8519V85.0078Z" fill="#F0F0F0"/>
<path d="M53.4623 68.0156H33.0201C32.8434 68.0156 32.7002 68.1589 32.7002 68.3355V68.6799C32.7002 68.8565 32.8434 68.9998 33.0201 68.9998H53.4623C53.639 68.9998 53.7822 68.8565 53.7822 68.6799V68.3355C53.7822 68.1589 53.639 68.0156 53.4623 68.0156Z" fill="#F5F5F5"/>
<path d="M53.4623 77.4062H33.0201C32.8434 77.4062 32.7002 77.5495 32.7002 77.7262V78.0705C32.7002 78.2472 32.8434 78.3904 33.0201 78.3904H53.4623C53.639 78.3904 53.7822 78.2472 53.7822 78.0705V77.7262C53.7822 77.5495 53.639 77.4062 53.4623 77.4062Z" fill="#F5F5F5"/>
<path d="M29.8519 56.9297H56.6328V49.7614H29.8519V56.9297Z" fill="#F0F0F0"/>
<path d="M29.8519 66.2422H56.6328V59.0739H29.8519V66.2422Z" fill="#F0F0F0"/>
<path d="M53.4623 49.3281H33.0201C32.8434 49.3281 32.7002 49.4714 32.7002 49.648V49.9924C32.7002 50.169 32.8434 50.3123 33.0201 50.3123H53.4623C53.639 50.3123 53.7822 50.169 53.7822 49.9924V49.648C53.7822 49.4714 53.639 49.3281 53.4623 49.3281Z" fill="#F5F5F5"/>
<path d="M53.4623 58.6328H33.0201C32.8434 58.6328 32.7002 58.776 32.7002 58.9527V59.2971C32.7002 59.4737 32.8434 59.617 33.0201 59.617H53.4623C53.639 59.617 53.7822 59.4737 53.7822 59.2971V58.9527C53.7822 58.776 53.639 58.6328 53.4623 58.6328Z" fill="#F5F5F5"/>
<path d="M56.7487 7.11719H20.2266V39.1795H56.7487V7.11719Z" fill="#E6E6E6"/>
<path d="M60.6637 5.86719H17.8625C17.815 5.86719 17.7679 5.8766 17.7239 5.89489C17.68 5.91318 17.6401 5.93999 17.6066 5.97376C17.5731 6.00753 17.5466 6.0476 17.5286 6.09166C17.5107 6.13572 17.5016 6.1829 17.502 6.23048C17.502 6.32612 17.54 6.41783 17.6076 6.48546C17.6752 6.55308 17.7669 6.59107 17.8625 6.59107H60.6637C60.7596 6.59107 60.8516 6.55317 60.9197 6.48562C60.9877 6.41808 61.0263 6.32637 61.027 6.23048C61.027 6.13413 60.9888 6.04173 60.9206 5.9736C60.8525 5.90546 60.7601 5.86719 60.6637 5.86719Z" fill="#E6E6E6"/>
<path d="M58.2992 7.11719H20.9502V39.1795H58.2992V7.11719Z" fill="#F0F0F0"/>
<path d="M56.7487 39.1719H20.2266V40.1994H57.8169L56.7487 39.1719Z" fill="#E6E6E6"/>
<path d="M60.8805 39.1719H23.5342L24.5997 40.1994H61.9487L60.8805 39.1719Z" fill="#F0F0F0"/>
<path d="M56.1299 37.0135V9.28906L23.1214 9.28906V37.0135H56.1299Z" fill="#FAFAFA"/>
<path d="M30.6162 37.0135L43.3479 9.28906H49.3612L36.6269 37.0135H30.6162Z" fill="white"/>
<path d="M37.917 37.0135L50.6513 9.28906H52.9938L40.2622 37.0135H37.917Z" fill="white"/>
<path d="M56.1299 37.0135V9.28906H55.8533V37.0135H56.1299Z" fill="#E6E6E6"/>
<g opacity="0.4">
<path d="M23.1464 5.21094H19.4131V31.6692H23.1464V5.21094Z" fill="#F0F0F0"/>
<path d="M24.6024 5.21094H21.6934V31.6692H24.6024V5.21094Z" fill="#E6E6E6"/>
<path d="M26.8798 5.21094H23.1465V31.6692H26.8798V5.21094Z" fill="#F0F0F0"/>
<path d="M28.3358 5.21094H25.4268V31.6692H28.3358V5.21094Z" fill="#E6E6E6"/>
<path d="M30.6132 5.21094H26.8799V31.6692H30.6132V5.21094Z" fill="#F0F0F0"/>
</g>
<g opacity="0.4">
<path d="M54.7425 5.21094H52.5898V31.6692H54.7425V5.21094Z" fill="#F0F0F0"/>
<path d="M55.5778 5.21094H53.9023V31.6692H55.5778V5.21094Z" fill="#E6E6E6"/>
<path d="M56.8929 5.21094H54.7402V31.6692H56.8929V5.21094Z" fill="#F0F0F0"/>
<path d="M57.7302 5.21094H56.0547V31.6692H57.7302V5.21094Z" fill="#E6E6E6"/>
<path d="M59.0452 5.21094H56.8926V31.6692H59.0452V5.21094Z" fill="#F0F0F0"/>
</g>
<path d="M96.9675 58.3909C96.9356 58.7831 97.0207 59.176 97.212 59.5198C97.4033 59.8637 97.6922 60.1431 98.0423 60.3227C98.3924 60.5024 98.7878 60.5742 99.1787 60.5292C99.5696 60.4842 99.9384 60.3243 100.238 60.0697C100.538 59.8151 100.756 59.4773 100.864 59.099C100.972 58.7206 100.966 58.3187 100.846 57.9441C100.725 57.5694 100.497 57.2388 100.189 56.9941C99.8806 56.7494 99.5069 56.6014 99.1147 56.569C98.5885 56.5263 98.0668 56.6942 97.6642 57.0358C97.2616 57.3774 97.011 57.8648 96.9675 58.3909Z" fill="#E0E0E0"/>
<path d="M102.503 61.567C103.592 61.4068 104.344 60.3942 104.184 59.3054C104.024 58.2166 103.011 57.4638 101.923 57.624C100.834 57.7842 100.081 58.7967 100.241 59.8855C100.401 60.9744 101.414 61.7272 102.503 61.567Z" fill="#E0E0E0"/>
<path d="M103.712 59.8523C103.68 60.2445 103.765 60.6373 103.956 60.9812C104.147 61.325 104.436 61.6044 104.786 61.7841C105.137 61.9638 105.532 62.0356 105.923 61.9906C106.314 61.9455 106.683 61.7856 106.983 61.531C107.283 61.2765 107.5 60.9387 107.609 60.5603C107.717 60.182 107.71 59.7801 107.59 59.4054C107.47 59.0308 107.241 58.7002 106.933 58.4555C106.625 58.2107 106.251 58.0628 105.859 58.0304C105.598 58.0085 105.336 58.0383 105.087 58.1181C104.837 58.1979 104.606 58.3261 104.407 58.4954C104.207 58.6647 104.043 58.8717 103.924 59.1045C103.805 59.3374 103.732 59.5915 103.712 59.8523Z" fill="#E0E0E0"/>
<path d="M93.2683 59.43C93.2364 59.8222 93.3214 60.215 93.5128 60.5589C93.7041 60.9027 93.993 61.1821 94.3431 61.3618C94.6931 61.5415 95.0886 61.6133 95.4795 61.5683C95.8704 61.5232 96.2392 61.3633 96.5392 61.1087C96.8392 60.8542 97.0571 60.5164 97.1652 60.138C97.2732 59.7597 97.2667 59.3578 97.1465 58.9831C97.0262 58.6085 96.7976 58.2779 96.4895 58.0332C96.1814 57.7884 95.8077 57.6405 95.4155 57.6081C94.8893 57.5654 94.3676 57.7332 93.965 58.0748C93.5624 58.4164 93.3118 58.9038 93.2683 59.43Z" fill="#E0E0E0"/>
<path d="M108.862 61.567C109.951 61.4068 110.704 60.3942 110.544 59.3054C110.383 58.2166 109.371 57.4638 108.282 57.624C107.193 57.7842 106.44 58.7967 106.601 59.8855C106.761 60.9744 107.773 61.7272 108.862 61.567Z" fill="#E0E0E0"/>
<path d="M93.8628 59.4368C94.6992 58.7214 94.7973 57.4635 94.082 56.6271C93.3666 55.7906 92.1087 55.6925 91.2723 56.4079C90.4359 57.1232 90.3377 58.3812 91.0531 59.2176C91.7684 60.054 93.0264 60.1521 93.8628 59.4368Z" fill="#E0E0E0"/>
<path d="M87.7702 58.9847C87.7383 59.3769 87.8234 59.7697 88.0147 60.1136C88.206 60.4574 88.495 60.7368 88.845 60.9165C89.1951 61.0961 89.5906 61.168 89.9815 61.123C90.3724 61.0779 90.7411 60.918 91.0411 60.6634C91.3412 60.4089 91.559 60.071 91.6671 59.6927C91.7752 59.3144 91.7687 58.9125 91.6484 58.5378C91.5282 58.1632 91.2995 57.8326 90.9914 57.5878C90.6833 57.3431 90.3096 57.1952 89.9175 57.1628C89.3912 57.1201 88.8695 57.2879 88.4669 57.6295C88.0643 57.9711 87.8137 58.4585 87.7702 58.9847Z" fill="#E0E0E0"/>
<path d="M85.4941 59.5234C85.4941 59.5234 85.8357 67.6759 98.9361 67.6759C112.036 67.6759 112.378 59.5234 112.378 59.5234H85.4941Z" fill="#F0F0F0"/>
<path d="M119.853 67.6719H117.361V89.0765H119.853V67.6719Z" fill="#E6E6E6"/>
<path d="M120.518 67.6719H119.051V89.0765H120.518V67.6719Z" fill="#F0F0F0"/>
<path d="M109.253 67.6719H106.762V89.0765H109.253V67.6719Z" fill="#E6E6E6"/>
<path d="M109.719 67.6719H108.252V89.0765H109.719V67.6719Z" fill="#F0F0F0"/>
<path d="M85.6028 70.2734H120.973V67.6788H85.6028V70.2734Z" fill="#F0F0F0"/>
<path d="M74.7943 67.6719H72.3027V89.0765H74.7943V67.6719Z" fill="#E6E6E6"/>
<path d="M75.2607 67.6719H73.7939V89.0765H75.2607V67.6719Z" fill="#F0F0F0"/>
<path d="M71.857 70.2734H84.5371V67.6788H71.857V70.2734Z" fill="#E6E6E6"/>
<path d="M85.392 67.6719H82.9004V89.0765H85.392V67.6719Z" fill="#E6E6E6"/>
<path d="M86.0585 67.6719H84.5918V89.0765H86.0585V67.6719Z" fill="#F0F0F0"/>
<path d="M68.0004 101.326C97.0323 101.326 120.567 99.9515 120.567 98.2565C120.567 96.5616 97.0323 95.1875 68.0004 95.1875C38.9686 95.1875 15.4336 96.5616 15.4336 98.2565C15.4336 99.9515 38.9686 101.326 68.0004 101.326Z" fill="#F5F5F5"/>
<path d="M96.5981 95.5776C96.5984 96.1194 96.4065 96.6438 96.0565 97.0573C95.7065 97.4709 95.2211 97.7468 94.6867 97.836C88.1089 98.9458 81.3916 98.9458 74.8138 97.836C74.2817 97.7445 73.7992 97.4674 73.4518 97.054C73.1044 96.6406 72.9146 96.1176 72.916 95.5776V73.6172H96.6089L96.5981 95.5776Z" fill="#FF6900"/>
<path opacity="0.3" d="M72.9014 74.0156V77.0982C74.3274 77.6269 79.0096 78.0146 84.7492 78.0146C90.4887 78.0146 95.179 77.6269 96.597 77.0982V74.0156H72.9014Z" fill="black"/>
<path d="M97.0423 76.3633C97.0423 77.0601 91.6634 77.624 84.7499 77.624C77.8364 77.624 72.4575 77.0601 72.4575 76.3633L72.2324 73.625H97.2809L97.0423 76.3633Z" fill="#FF6900"/>
<path d="M84.7499 74.8832C91.6631 74.8832 97.2673 74.3199 97.2673 73.6252C97.2673 72.9304 91.6631 72.3672 84.7499 72.3672C77.8367 72.3672 72.2324 72.9304 72.2324 73.6252C72.2324 74.3199 77.8367 74.8832 84.7499 74.8832Z" fill="#FF6900"/>
<path opacity="0.3" d="M84.7499 74.8832C91.6631 74.8832 97.2673 74.3199 97.2673 73.6252C97.2673 72.9304 91.6631 72.3672 84.7499 72.3672C77.8367 72.3672 72.2324 72.9304 72.2324 73.6252C72.2324 74.3199 77.8367 74.8832 84.7499 74.8832Z" fill="black"/>
<path opacity="0.2" d="M76.0792 94.0382C75.8357 94.0375 75.6023 93.9404 75.4301 93.7682C75.2579 93.596 75.1609 93.3627 75.1602 93.1191V80.5285C75.1609 80.2849 75.2579 80.0516 75.4301 79.8794C75.6023 79.7072 75.8357 79.6101 76.0792 79.6094C76.3226 79.6108 76.5555 79.7081 76.7276 79.8801C76.8996 80.0522 76.9969 80.2851 76.9983 80.5285V93.1191C76.9969 93.3624 76.8996 93.5954 76.7276 93.7674C76.5555 93.9395 76.3226 94.0368 76.0792 94.0382Z" fill="black"/>
<path opacity="0.2" d="M93.423 94.0382C93.1795 94.0375 92.9461 93.9404 92.7739 93.7682C92.6017 93.596 92.5046 93.3627 92.5039 93.1191V80.5285C92.5046 80.2849 92.6017 80.0516 92.7739 79.8794C92.9461 79.7072 93.1795 79.6101 93.423 79.6094C93.6663 79.6108 93.8993 79.7081 94.0713 79.8801C94.2434 80.0522 94.3407 80.2851 94.3421 80.5285V93.1191C94.3407 93.3624 94.2434 93.5954 94.0713 93.7674C93.8993 93.9395 93.6663 94.0368 93.423 94.0382Z" fill="black"/>
<path opacity="0.2" d="M87.6398 94.0382C87.3965 94.0368 87.1635 93.9395 86.9915 93.7674C86.8194 93.5954 86.7221 93.3624 86.7207 93.1191V80.5285C86.7221 80.2851 86.8194 80.0522 86.9915 79.8801C87.1635 79.7081 87.3965 79.6108 87.6398 79.6094C87.8833 79.6101 88.1167 79.7072 88.2889 79.8794C88.4611 80.0516 88.5582 80.2849 88.5589 80.5285V93.1191C88.5582 93.3627 88.4611 93.596 88.2889 93.7682C88.1167 93.9404 87.8833 94.0375 87.6398 94.0382Z" fill="black"/>
<path opacity="0.2" d="M81.8605 94.0382C81.6172 94.0368 81.3842 93.9395 81.2122 93.7674C81.0401 93.5954 80.9428 93.3624 80.9414 93.1191V80.5285C80.9428 80.2851 81.0401 80.0522 81.2122 79.8801C81.3842 79.7081 81.6172 79.6108 81.8605 79.6094C82.104 79.6101 82.3374 79.7072 82.5096 79.8794C82.6818 80.0516 82.7789 80.2849 82.7796 80.5285V93.1191C82.7789 93.3627 82.6818 93.596 82.5096 93.7682C82.3374 93.9404 82.104 94.0375 81.8605 94.0382Z" fill="black"/>
<path d="M52.514 23.1486C52.514 23.3974 52.4402 23.6406 52.302 23.8475C52.1638 24.0544 51.9673 24.2156 51.7374 24.3108C51.5076 24.406 51.2546 24.431 51.0106 24.3824C50.7666 24.3339 50.5424 24.2141 50.3665 24.0381C50.1906 23.8622 50.0708 23.638 50.0222 23.394C49.9737 23.15 49.9986 22.8971 50.0938 22.6672C50.189 22.4373 50.3503 22.2409 50.5571 22.1026C50.764 21.9644 51.0072 21.8906 51.256 21.8906C51.5897 21.8906 51.9096 22.0232 52.1456 22.2591C52.3815 22.495 52.514 22.815 52.514 23.1486Z" fill="#263238"/>
<path d="M50.2452 23.3285C50.2329 23.3288 50.2208 23.3257 50.2103 23.3194C50.1997 23.3132 50.1911 23.3041 50.1855 23.2932C50.1024 23.1405 50.0502 22.9729 50.0318 22.7999C50.0135 22.627 50.0293 22.4521 50.0786 22.2854C50.1278 22.1186 50.2094 21.9631 50.3187 21.8279C50.428 21.6926 50.5628 21.5802 50.7156 21.4971C50.8683 21.4139 51.0359 21.3617 51.2089 21.3433C51.3818 21.325 51.5566 21.3409 51.7234 21.3901C51.8902 21.4393 52.0457 21.5209 52.1809 21.6302C52.3162 21.7395 52.4286 21.8744 52.5117 22.0271C52.5197 22.043 52.5213 22.0614 52.5163 22.0785C52.5113 22.0956 52.4999 22.1102 52.4846 22.1193C52.4768 22.1236 52.4682 22.1263 52.4593 22.1272C52.4504 22.1282 52.4414 22.1274 52.4329 22.1249C52.4243 22.1224 52.4163 22.1182 52.4094 22.1126C52.4024 22.1069 52.3967 22.1 52.3924 22.0922C52.2418 21.8153 51.9873 21.6097 51.6851 21.5204C51.3828 21.4312 51.0575 21.4657 50.7806 21.6164C50.5038 21.767 50.2982 22.0214 50.2089 22.3237C50.1197 22.626 50.1542 22.9513 50.3048 23.2281C50.3091 23.236 50.3118 23.2446 50.3128 23.2534C50.3138 23.2623 50.3129 23.2713 50.3104 23.2799C50.3079 23.2884 50.3037 23.2964 50.2981 23.3034C50.2925 23.3103 50.2856 23.3161 50.2777 23.3203C50.2676 23.3255 50.2565 23.3283 50.2452 23.3285Z" fill="#263238"/>
<path d="M49.0225 28.8913C48.7775 28.8903 48.5375 28.8214 48.3292 28.6923C48.1209 28.5631 47.9525 28.3788 47.8427 28.1597C47.7329 27.9406 47.686 27.6954 47.7071 27.4512C47.7282 27.2071 47.8166 26.9736 47.9625 26.7766C48.0664 26.6374 48.1968 26.52 48.3461 26.4311C48.4954 26.3423 48.6608 26.2837 48.8327 26.2588C48.8415 26.2573 48.8505 26.2575 48.8591 26.2596C48.8678 26.2617 48.8759 26.2655 48.883 26.2708C48.8901 26.2762 48.8961 26.2829 48.9005 26.2906C48.9049 26.2983 48.9077 26.3069 48.9087 26.3157C48.911 26.3333 48.9063 26.3511 48.8957 26.3653C48.885 26.3795 48.8693 26.389 48.8517 26.3916C48.54 26.4373 48.2592 26.6049 48.0711 26.8576C47.883 27.1103 47.8029 27.4274 47.8486 27.7391C47.8943 28.0508 48.0619 28.3316 48.3146 28.5197C48.5673 28.7078 48.8843 28.7879 49.196 28.7422C49.214 28.7393 49.2324 28.7437 49.2471 28.7544C49.2619 28.7651 49.2718 28.7812 49.2747 28.7992C49.2775 28.8171 49.2732 28.8355 49.2625 28.8503C49.2518 28.865 49.2357 28.8749 49.2177 28.8778C49.153 28.8863 49.0878 28.8909 49.0225 28.8913Z" fill="#263238"/>
<path d="M55.8577 30.9454C55.6034 30.945 55.3547 30.8706 55.142 30.7312C55.1269 30.7212 55.1162 30.7057 55.1121 30.6881C55.1081 30.6704 55.111 30.6519 55.1203 30.6363C55.1307 30.6216 55.1463 30.6115 55.164 30.6079C55.1816 30.6044 55.1999 30.6078 55.2152 30.6173C55.4794 30.7888 55.801 30.8483 56.1091 30.7827C56.4172 30.7171 56.6867 30.5318 56.8581 30.2676C57.0296 30.0033 57.0891 29.6818 57.0235 29.3737C56.958 29.0655 56.7727 28.7961 56.5084 28.6246C56.4933 28.6146 56.4826 28.5992 56.4786 28.5815C56.4745 28.5638 56.4774 28.5453 56.4867 28.5297C56.4971 28.515 56.5127 28.5049 56.5304 28.5014C56.548 28.4978 56.5664 28.5012 56.5816 28.5107C56.8755 28.7021 57.0816 29.0021 57.1548 29.3451C57.2279 29.6881 57.1622 30.0461 56.972 30.3408C56.8781 30.4874 56.7559 30.6137 56.6125 30.7124C56.4691 30.8111 56.3074 30.8802 56.137 30.9155C56.0451 30.9348 55.9516 30.9448 55.8577 30.9454Z" fill="#263238"/>
<path d="M50.552 27.0727C51.5342 27.0727 52.3305 26.2764 52.3305 25.2942C52.3305 24.3119 51.5342 23.5156 50.552 23.5156C49.5697 23.5156 48.7734 24.3119 48.7734 25.2942C48.7734 26.2764 49.5697 27.0727 50.552 27.0727Z" fill="#263238"/>
<path d="M52.2204 29.3476C53.1415 28.4264 53.1415 26.933 52.2204 26.0118C51.2993 25.0907 49.8058 25.0907 48.8847 26.0118C47.9635 26.933 47.9635 28.4264 48.8847 29.3476C49.8058 30.2687 51.2993 30.2687 52.2204 29.3476Z" fill="#263238"/>
<path d="M50.8005 33.2944C52.241 33.2944 53.4087 32.1267 53.4087 30.6863C53.4087 29.2458 52.241 28.0781 50.8005 28.0781C49.3601 28.0781 48.1924 29.2458 48.1924 30.6863C48.1924 32.1267 49.3601 33.2944 50.8005 33.2944Z" fill="#263238"/>
<path d="M55.9484 31.4567C56.2793 30.0548 55.411 28.6501 54.0091 28.3192C52.6072 27.9883 51.2025 28.8566 50.8716 30.2585C50.5407 31.6604 51.4089 33.0651 52.8109 33.396C54.2128 33.7269 55.6175 32.8586 55.9484 31.4567Z" fill="#263238"/>
<path d="M62.0612 36.2291C62.0612 36.4406 62.0612 36.709 62.0802 36.953C62.0991 37.197 62.0991 37.4573 62.1154 37.7094C62.1506 38.2137 62.1859 38.7234 62.2401 39.2304C62.3377 40.248 62.4742 41.2611 62.6495 42.2696C62.6956 42.519 62.7363 42.7739 62.7878 43.0233L62.9071 43.6387C62.9369 43.7364 62.9071 43.7174 62.8691 43.7147C62.8311 43.712 62.8691 43.7635 63.0291 43.7635C63.4385 43.7224 63.8371 43.6076 64.2057 43.4246C64.4226 43.327 64.6449 43.2212 64.8672 43.1074C65.0895 42.9935 65.3146 42.8634 65.5179 42.7495L66.3096 43.6632C66.1207 43.8795 65.9198 44.0849 65.7077 44.2786C65.4989 44.4774 65.278 44.663 65.0462 44.8344C64.8032 45.0172 64.5467 45.1812 64.2789 45.3251C63.9742 45.4914 63.6474 45.6138 63.3083 45.6884C63.0992 45.734 62.885 45.7522 62.6712 45.7426C62.4102 45.7275 62.1545 45.6631 61.9175 45.5528C61.6654 45.4345 61.4409 45.2645 61.2587 45.054C61.1021 44.8709 60.9741 44.6653 60.8791 44.444C60.8055 44.2746 60.7456 44.0997 60.7002 43.9207L60.5944 43.5249C60.5185 43.2538 60.4562 42.9962 60.3911 42.7305C60.1375 41.6647 59.942 40.5859 59.8055 39.4988C59.7377 38.9566 59.6835 38.4143 59.6509 37.8585C59.6347 37.5874 59.6211 37.3163 59.613 37.0289C59.6049 36.7415 59.613 36.4867 59.613 36.1641L62.0612 36.2291Z" fill="#FFB573"/>
<path d="M60.7447 33.3256C63.0573 35.096 62.9652 38.4334 62.9652 38.4334L58.8279 39.423C58.8279 39.423 57.5591 36.0666 58.0742 34.8384C58.611 33.5588 59.4434 32.3279 60.7447 33.3256Z" fill="#FF6900"/>
<path opacity="0.7" d="M60.7447 33.3256C63.0573 35.096 62.9652 38.4334 62.9652 38.4334L58.8279 39.423C58.8279 39.423 57.5591 36.0666 58.0742 34.8384C58.611 33.5588 59.4434 32.3279 60.7447 33.3256Z" fill="white"/>
<path d="M65.3626 43.0792L66.0458 41.9297L67.7592 43.7624C67.7592 43.7624 66.5311 44.5487 65.2568 43.9875L65.3626 43.0792Z" fill="#FFB573"/>
<path d="M66.8891 41.375L69.0878 42.6709L67.7594 43.7581L66.0459 41.9254L66.8891 41.375Z" fill="#FFB573"/>
<path d="M47.7998 96.2733L50.1639 96.501L51.6334 90.9621L49.2665 90.7344L47.7998 96.2733Z" fill="#FFB573"/>
<path d="M35.6807 91.6142L37.8035 92.7258L40.3276 87.7209L38.2048 86.6094L35.6807 91.6142Z" fill="#FFB573"/>
<path d="M38.3701 91.7449L36.4723 89.8172C36.4408 89.7834 36.3978 89.7625 36.3518 89.7585C36.3057 89.7545 36.2598 89.7677 36.2229 89.7955L34.4796 91.0779C34.4373 91.1119 34.4027 91.1545 34.3779 91.2027C34.3531 91.251 34.3386 91.3039 34.3356 91.3581C34.3325 91.4123 34.3409 91.4665 34.3601 91.5172C34.3793 91.568 34.4089 91.6141 34.4471 91.6527C35.1195 92.3142 35.4773 92.5989 36.3124 93.4475C36.8275 93.968 37.8848 95.1962 38.5952 95.9174C39.3055 96.6385 40.0538 95.9743 39.8233 95.611C38.7877 93.9843 38.6141 92.9622 38.5491 92.1353C38.5373 91.9881 38.4739 91.8499 38.3701 91.7449Z" fill="#263238"/>
<path d="M50.5326 95.7737H47.6669C47.6156 95.7742 47.5659 95.7914 47.5253 95.8228C47.4847 95.8541 47.4554 95.8978 47.4419 95.9472L46.8291 98.2002C46.8138 98.2537 46.8113 98.3101 46.8218 98.3648C46.8323 98.4195 46.8555 98.4709 46.8895 98.515C46.9236 98.5591 46.9675 98.5945 47.0177 98.6185C47.068 98.6424 47.1232 98.6542 47.1789 98.6529C48.1847 98.6529 48.6619 98.6529 49.9172 98.6529H53.7589C54.8027 98.6529 55.0223 97.5983 54.5885 97.5007C52.6527 97.0723 51.5357 96.4813 50.9393 95.9174C50.8262 95.8207 50.6813 95.7694 50.5326 95.7737Z" fill="#263238"/>
<path opacity="0.2" d="M51.6311 90.9621L50.8747 93.817H48.4482L49.2643 90.7344L51.6311 90.9621Z" fill="black"/>
<path opacity="0.2" d="M38.2018 86.6094L40.3273 87.7237L39.0259 90.302L36.9004 89.1877L38.2018 86.6094Z" fill="black"/>
<path d="M60.0458 32.9798C60.0458 32.9798 61.0923 33.438 57.5841 47.3191L47.8401 46.476C48.3471 42.5258 48.5613 40.0803 47.3711 31.776C48.7601 31.6134 50.1591 31.5508 51.5571 31.589C53.0392 31.6114 54.5178 31.7391 55.9818 31.9712C57.3526 32.2385 58.709 32.5752 60.0458 32.9798Z" fill="#FF6900"/>
<path opacity="0.7" d="M60.0458 32.9798C60.0458 32.9798 61.0923 33.438 57.5841 47.3191L47.8401 46.476C48.3471 42.5258 48.5613 40.0803 47.3711 31.776C48.7601 31.6134 50.1591 31.5508 51.5571 31.589C53.0392 31.6114 54.5178 31.7391 55.9818 31.9712C57.3526 32.2385 58.709 32.5752 60.0458 32.9798Z" fill="white"/>
<path d="M51.5574 31.5C51.5574 31.5 51.0152 31.5 50.3509 31.5C49.9578 32.1046 51.6171 33.8696 53.7263 35.6047C54.236 34.0241 55.0385 34.0295 55.0385 34.0295L51.5574 31.5Z" fill="white"/>
<path d="M55.9791 31.9375C55.9791 31.9375 56.2258 31.9727 56.8168 32.1083C57.2072 32.7129 57.4268 34.2257 56.2746 35.5433C55.8218 33.9166 55.041 34.0631 55.041 34.0631L55.9791 31.9375Z" fill="white"/>
<path d="M52.4252 26.6406C52.5824 28.0884 52.634 30.7074 51.5576 31.5858C51.5576 31.5858 52.7072 32.7624 55.0388 34.0584C56.7305 32.8872 55.9822 31.9681 55.9822 31.9681C54.426 31.4529 54.5697 30.279 54.9412 29.1945L52.4252 26.6406Z" fill="#FFB573"/>
<path opacity="0.2" d="M53.4523 27.6797L54.9407 29.1898C54.8493 29.4408 54.7804 29.6994 54.7346 29.9625C54.1382 29.8242 53.2706 29.2007 53.2598 28.5608C53.2702 28.2579 53.3354 27.9594 53.4523 27.6797Z" fill="black"/>
<path d="M58.0156 21.9219C59.0133 22.8057 59.3061 24.9584 58.3572 26.4197C58.0723 24.9383 57.9577 23.4293 58.0156 21.9219Z" fill="#263238"/>
<path d="M52.121 23.5993C51.9474 25.9824 51.8254 26.9883 52.8557 28.3628C54.4065 30.4315 57.3725 30.1197 58.2536 27.8369C59.048 25.7791 59.1971 22.2275 57.0092 20.9749C56.5284 20.6943 55.9837 20.5417 55.4271 20.5318C54.8705 20.5218 54.3206 20.6549 53.8302 20.9182C53.3397 21.1816 52.925 21.5663 52.6257 22.0358C52.3265 22.5052 52.1527 23.0435 52.121 23.5993Z" fill="#FFB573"/>
<path d="M51.8034 25.5215C53.5657 25.4537 54.5417 23.1492 54.0998 22.1759C56.0979 23.217 59.1236 24.0358 58.7874 22.6965C58.3346 20.8881 56.1467 19.5624 53.4545 20.5275C51.8956 21.2053 50.5617 22.6965 51.8034 25.5215Z" fill="#263238"/>
<path d="M51.2669 25.521C51.3421 25.9767 51.5933 26.3846 51.9663 26.657C52.4652 27.0121 52.9207 26.6163 52.9559 26.0388C52.9884 25.5156 52.7688 24.7022 52.1832 24.5775C52.055 24.552 51.9224 24.5591 51.7976 24.598C51.6728 24.6368 51.5596 24.7063 51.4685 24.8001C51.3774 24.8939 51.3113 25.009 51.276 25.1349C51.2408 25.2608 51.2377 25.3936 51.2669 25.521Z" fill="#FFB573"/>
<path d="M57.584 47.3182C57.584 47.3182 59.7882 61.701 58.5601 70.9406C57.6301 77.9219 51.6303 92.9851 51.6303 92.9851L47.7344 92.8794C47.7344 92.8794 51.7577 78.2798 52.5901 72.5456C54.0134 62.7258 50.4483 46.7109 50.4483 46.7109L57.584 47.3182Z" fill="#263238"/>
<path opacity="0.2" d="M53.7836 50.2656L51.7041 53.5434C52.3303 57.4299 52.7277 61.3497 52.8943 65.2828C55.8169 60.0502 54.4451 53.0337 53.7836 50.2656Z" fill="black"/>
<path d="M52.2372 93.2002L47.3408 93.0674L47.639 91.4922L52.6981 91.522L52.2372 93.2002Z" fill="#FF6900"/>
<path d="M55.453 47.1544C55.453 47.1544 53.8263 63.0797 50.1093 71.7446C47.1026 78.7394 39.9343 89.9284 39.9343 89.9284L37.0713 88.2529C37.0713 88.2529 41.6803 75.8114 43.9549 71.1482C49.5047 59.7152 44.3426 50.5433 47.84 46.4766L55.453 47.1544Z" fill="#263238"/>
<path d="M40.2467 90.1746L36.5947 88.171L37.1885 86.6094L41.079 88.8054L40.2467 90.1746Z" fill="#FF6900"/>
<path d="M47.742 45.8899L47.2269 46.7249C47.1889 46.7873 47.2621 46.8659 47.376 46.874L57.5944 47.7579C57.6812 47.7579 57.7598 47.728 57.7679 47.6738L57.9333 46.809C57.9333 46.7493 57.8709 46.6924 57.776 46.6842L47.9074 45.8302C47.877 45.8256 47.846 45.8286 47.8171 45.8391C47.7883 45.8495 47.7624 45.8669 47.742 45.8899Z" fill="#FF6900"/>
<path d="M48.9738 47.108L48.7027 47.0863C48.6512 47.0863 48.6133 47.051 48.6187 47.0185L48.841 45.8961C48.841 45.8608 48.8979 45.8392 48.9494 45.8446L49.2206 45.8663C49.2748 45.8663 49.3127 45.9015 49.3046 45.934L49.085 47.0565C49.0742 47.089 49.0226 47.1134 48.9738 47.108Z" fill="#263238"/>
<path d="M56.8445 47.7954L56.5734 47.7737C56.5192 47.7737 56.4812 47.7385 56.4894 47.7059L56.7117 46.5835C56.7117 46.551 56.7659 46.5266 56.8174 46.532L57.0885 46.5537C57.1401 46.5537 57.178 46.5889 57.1726 46.6215L56.9503 47.7439C56.9449 47.7819 56.8852 47.8008 56.8445 47.7954Z" fill="#263238"/>
<path d="M52.9074 47.4544L52.6363 47.43C52.5848 47.43 52.5469 47.3947 52.5523 47.3622L52.7746 46.2398C52.7746 46.2072 52.8288 46.1828 52.883 46.1883L53.1542 46.2127C53.2057 46.2127 53.2436 46.2479 53.2382 46.2804L53.0159 47.4029C53.0105 47.4354 52.9617 47.4571 52.9074 47.4544Z" fill="#263238"/>
<path d="M55.8548 24.7872C55.8277 24.9797 55.9091 25.1505 56.0338 25.1668C56.1585 25.1831 56.2832 25.0421 56.3049 24.8496C56.3266 24.6571 56.2479 24.4863 56.1232 24.47C55.9985 24.4538 55.8792 24.5947 55.8548 24.7872Z" fill="#263238"/>
<path d="M58.0287 25.0763C58.0043 25.2688 58.0857 25.4396 58.2104 25.4559C58.3351 25.4721 58.4598 25.3311 58.4815 25.1387C58.5032 24.9462 58.4273 24.7754 58.3026 24.7591C58.1779 24.7428 58.0558 24.8838 58.0287 25.0763Z" fill="#263238"/>
<path d="M58.2402 24.758L58.7228 24.6875C58.7228 24.6875 58.4409 25.0156 58.2402 24.758Z" fill="#263238"/>
<path d="M57.1748 25.2891C57.2878 25.7507 57.4629 26.1949 57.6954 26.6094C57.5881 26.6664 57.4697 26.6993 57.3485 26.7059C57.2272 26.7125 57.1059 26.6925 56.9932 26.6474L57.1748 25.2891Z" fill="#ED893E"/>
<path d="M55.8655 27.2216C55.4842 27.0973 55.1643 26.8327 54.9708 26.4814C54.966 26.4702 54.9655 26.4576 54.9695 26.446C54.9735 26.4345 54.9817 26.4249 54.9925 26.4191C55.004 26.4134 55.0173 26.4125 55.0295 26.4166C55.0417 26.4206 55.0518 26.4293 55.0576 26.4408C55.178 26.652 55.3466 26.8318 55.5497 26.9656C55.7527 27.0994 55.9845 27.1834 56.2261 27.2107C56.2383 27.2107 56.25 27.2156 56.2587 27.2242C56.2673 27.2329 56.2722 27.2446 56.2722 27.2568C56.2722 27.2691 56.2673 27.2808 56.2587 27.2894C56.25 27.2981 56.2383 27.3029 56.2261 27.3029C56.1032 27.2894 55.9823 27.2621 55.8655 27.2216Z" fill="#263238"/>
<path d="M54.8648 23.6695C54.8491 23.6629 54.8351 23.6527 54.8242 23.6396C54.8152 23.631 54.8081 23.6207 54.8033 23.6093C54.7984 23.5979 54.7959 23.5856 54.7959 23.5732C54.7959 23.5608 54.7984 23.5485 54.8033 23.5371C54.8081 23.5257 54.8152 23.5154 54.8242 23.5068C54.957 23.388 55.1167 23.3032 55.2896 23.2598C55.4624 23.2163 55.6432 23.2155 55.8164 23.2574C55.8283 23.2608 55.8393 23.2665 55.8489 23.2743C55.8585 23.282 55.8664 23.2916 55.8723 23.3025C55.8781 23.3133 55.8817 23.3253 55.8828 23.3375C55.8839 23.3498 55.8825 23.3622 55.8788 23.3739C55.8719 23.398 55.8557 23.4183 55.8339 23.4304C55.8121 23.4426 55.7863 23.4457 55.7622 23.439C55.6196 23.4073 55.4715 23.4099 55.3301 23.4467C55.1886 23.4834 55.058 23.5533 54.9489 23.6505C54.9371 23.6595 54.9234 23.6659 54.9089 23.6692C54.8944 23.6725 54.8794 23.6725 54.8648 23.6695Z" fill="#263238"/>
<path d="M58.9423 24.2522C58.9281 24.2467 58.9152 24.2384 58.9043 24.2278C58.8093 24.1163 58.6893 24.0287 58.5541 23.9722C58.4189 23.9157 58.2723 23.8918 58.1262 23.9025C58.1138 23.9052 58.101 23.9053 58.0886 23.9028C58.0763 23.9002 58.0645 23.895 58.0543 23.8876C58.044 23.8802 58.0355 23.8706 58.0292 23.8597C58.0229 23.8487 58.019 23.8365 58.0178 23.8239C58.0139 23.7991 58.0199 23.7737 58.0347 23.7534C58.0494 23.7331 58.0716 23.7194 58.0964 23.7154C58.2734 23.6995 58.4516 23.7261 58.6162 23.7931C58.7808 23.8601 58.927 23.9654 59.0426 24.1004C59.0558 24.1161 59.0635 24.1356 59.0647 24.156C59.0659 24.1764 59.0604 24.1967 59.0491 24.2138C59.0378 24.2309 59.0213 24.2438 59.0021 24.2508C58.9828 24.2577 58.9618 24.2582 58.9423 24.2522Z" fill="#263238"/>
<path d="M61.0867 44.7011C61.2623 44.1542 61.5438 43.6472 61.9152 43.2092C62.2867 42.7711 62.7408 42.4105 63.2516 42.1479C63.7624 41.8853 64.3199 41.7259 64.8923 41.6788C65.4647 41.6317 66.0408 41.6978 66.5877 41.8733C67.1346 42.0488 67.6415 42.3304 68.0796 42.7018C68.5177 43.0732 68.8783 43.5273 69.1409 44.0381C69.4034 44.549 69.5628 45.1065 69.6099 45.6789C69.6571 46.2513 69.591 46.8274 69.4154 47.3743L67.7291 52.6502L59.4004 49.9743L61.0867 44.7011Z" fill="#FF6900"/>
<path opacity="0.3" d="M61.0867 44.7011C61.2623 44.1542 61.5438 43.6472 61.9152 43.2092C62.2867 42.7711 62.7408 42.4105 63.2516 42.1479C63.7624 41.8853 64.3199 41.7259 64.8923 41.6788C65.4647 41.6317 66.0408 41.6978 66.5877 41.8733C67.1346 42.0488 67.6415 42.3304 68.0796 42.7018C68.5177 43.0732 68.8783 43.5273 69.1409 44.0381C69.4034 44.549 69.5628 45.1065 69.6099 45.6789C69.6571 46.2513 69.591 46.8274 69.4154 47.3743L67.7291 52.6502L59.4004 49.9743L61.0867 44.7011Z" fill="black"/>
<path d="M52.8699 42.067L51.3463 46.8115C51.3239 46.8797 51.3154 46.9516 51.321 47.0231C51.3267 47.0946 51.3465 47.1643 51.3793 47.2281C51.4121 47.2919 51.4572 47.3485 51.512 47.3948C51.5668 47.441 51.6303 47.4759 51.6987 47.4974L59.3984 49.97L61.0902 44.7049C61.4452 43.6015 62.2237 42.6842 63.2546 42.1545C64.2856 41.6248 65.4847 41.526 66.5884 41.8799L58.3709 39.2392C57.2664 38.8861 56.067 38.9855 55.0357 39.5156C54.0044 40.0458 53.2255 40.9633 52.8699 42.067Z" fill="#FF6900"/>
<path d="M57.0011 45.665L59.124 39.0579C59.1313 39.0341 59.1334 39.0091 59.1302 38.9845C59.127 38.9599 59.1186 38.9363 59.1055 38.9152C59.0924 38.8941 59.0749 38.8761 59.0542 38.8624C59.0336 38.8486 59.0102 38.8395 58.9857 38.8355L56.8168 38.5156L56.5457 39.3724L58.1263 39.8793L56.3369 45.4481L57.0011 45.665Z" fill="#263238"/>
<path d="M55.8737 45.2998C55.8247 45.4529 55.8221 45.6171 55.8664 45.7716C55.9107 45.9262 55.9997 46.0642 56.1223 46.1681C56.245 46.2721 56.3957 46.3374 56.5554 46.3557C56.7151 46.3741 56.8767 46.3447 57.0197 46.2713C57.1627 46.1979 57.2808 46.0838 57.359 45.9433C57.4372 45.8028 57.472 45.6424 57.459 45.4821C57.446 45.3219 57.3859 45.1691 57.2861 45.043C57.1864 44.9169 57.0515 44.8233 56.8985 44.7738C56.7967 44.7409 56.6894 44.7284 56.5827 44.737C56.476 44.7457 56.3721 44.7753 56.2769 44.8241C56.1817 44.873 56.0971 44.9401 56.0279 45.0218C55.9587 45.1034 55.9063 45.1979 55.8737 45.2998Z" fill="#263238"/>
<path d="M59.7991 50.7574L70.4811 54.187C70.5199 54.1996 70.5608 54.2045 70.6015 54.2012C70.6422 54.198 70.6818 54.1867 70.7181 54.168C70.7544 54.1494 70.7867 54.1237 70.813 54.0925C70.8393 54.0614 70.8592 54.0253 70.8715 53.9864C70.8845 53.9476 70.8897 53.9066 70.8866 53.8658C70.8835 53.825 70.8723 53.7852 70.8536 53.7488C70.8349 53.7125 70.8091 53.6802 70.7777 53.6539C70.7463 53.6277 70.71 53.608 70.6709 53.596L59.3979 49.9766C59.3476 50.1333 59.3616 50.3036 59.4368 50.4501C59.5121 50.5965 59.6424 50.707 59.7991 50.7574Z" fill="#FF6900"/>
<path opacity="0.2" d="M59.7991 50.7574L64.1641 52.1591C64.2031 52.1717 64.2442 52.1766 64.285 52.1734C64.3259 52.1702 64.3657 52.1589 64.4023 52.1403C64.4388 52.1216 64.4713 52.096 64.4978 52.0648C64.5244 52.0336 64.5446 51.9974 64.5572 51.9584C64.582 51.88 64.5748 51.795 64.5372 51.7219C64.4997 51.6488 64.4347 51.5935 64.3566 51.568L59.3979 49.9766C59.3476 50.1333 59.3616 50.3036 59.4368 50.4501C59.5121 50.5965 59.6424 50.707 59.7991 50.7574Z" fill="black"/>
<path d="M48.5179 35.6023L48.3688 35.7677L48.2007 35.9602C48.0868 36.0903 47.973 36.2313 47.8645 36.3642C47.6422 36.6353 47.4307 36.9254 47.2328 37.2182C46.4136 38.3777 45.7687 39.651 45.3187 40.9976C45.2103 41.3337 45.11 41.6699 45.0313 42.0142C45.0042 42.1146 45.0015 42.1552 44.988 42.2013C44.9859 42.2411 44.9859 42.2809 44.988 42.3206C44.9836 42.363 44.9836 42.4057 44.988 42.448C44.988 42.4968 45.0801 42.6107 45.3025 42.7192C45.5697 42.8394 45.8513 42.925 46.1402 42.974C46.8376 43.0849 47.5436 43.1312 48.2495 43.1123C48.9869 43.1123 49.7352 43.0472 50.4835 42.9686C51.2318 42.89 51.9909 42.7924 52.7256 42.6812L53.0212 43.8551C51.5079 44.3476 49.9509 44.6935 48.3715 44.8881C47.5399 44.9963 46.6991 45.0145 45.8637 44.9423C45.386 44.8975 44.917 44.7862 44.4701 44.6115C44.2021 44.5041 43.9502 44.3599 43.7218 44.1832C43.4528 43.9723 43.2312 43.7072 43.0712 43.4051C42.7958 42.8384 42.7221 42.1947 42.8624 41.5805C42.9275 41.1656 43.0224 40.7671 43.1335 40.3496C43.3463 39.5481 43.6293 38.767 43.9794 38.0153C44.3304 37.2618 44.7392 36.5367 45.2021 35.8463C45.4353 35.502 45.6847 35.1685 45.945 34.8405C46.0778 34.6778 46.2161 34.5179 46.3517 34.3579L46.5713 34.122C46.6499 34.038 46.7123 33.9702 46.8207 33.8672L48.5179 35.6023Z" fill="#FFB573"/>
<path d="M52.1345 42.9355L54.0323 41.9297L54.1163 43.9685C54.1163 43.9685 52.7607 44.5297 51.9854 43.9115L52.1345 42.9355Z" fill="#FFB573"/>
<path d="M55.5968 41.7734L55.3121 43.6523L54.1192 43.9668L54.0352 41.928L55.5968 41.7734Z" fill="#FFB573"/>
<path d="M47.3713 31.7825C46.1757 31.994 44.5029 35.4209 44.5029 35.4209L47.515 38.1321C47.515 38.1321 49.909 35.5185 49.7816 33.9623C49.6731 32.6474 48.8923 31.5114 47.3713 31.7825Z" fill="#FF6900"/>
<path opacity="0.7" d="M47.3713 31.7825C46.1757 31.994 44.5029 35.4209 44.5029 35.4209L47.515 38.1321C47.515 38.1321 49.909 35.5185 49.7816 33.9623C49.6731 32.6474 48.8923 31.5114 47.3713 31.7825Z" fill="white"/>
<path d="M39.3031 92.7892C39.2716 92.7933 39.2397 92.7933 39.2082 92.7892C38.9072 92.7729 38.5873 92.312 38.4219 92.0409C38.4168 92.0333 38.4141 92.0243 38.4141 92.0151C38.4141 92.006 38.4168 91.997 38.4219 91.9894C38.4269 91.9813 38.4343 91.9751 38.4431 91.9717C38.452 91.9683 38.4616 91.9678 38.4707 91.9704C38.5683 91.9894 39.4115 92.1792 39.5172 92.4638C39.5282 92.4948 39.531 92.528 39.5253 92.5603C39.5196 92.5926 39.5056 92.6229 39.4847 92.6482C39.4413 92.7139 39.3775 92.7634 39.3031 92.7892ZM38.5629 92.1005C38.8042 92.472 39.0428 92.6943 39.2136 92.7051C39.2525 92.7059 39.2909 92.6965 39.3251 92.678C39.3594 92.6595 39.3882 92.6324 39.4088 92.5994C39.4205 92.5875 39.4285 92.5725 39.4319 92.5561C39.4352 92.5398 39.4338 92.5228 39.4278 92.5072C39.3627 92.3337 38.8557 92.171 38.5629 92.1005Z" fill="#FF6900"/>
<path d="M39.2157 92.0581C38.9657 92.1269 38.7034 92.138 38.4485 92.0907C38.4405 92.0881 38.4333 92.0835 38.4276 92.0773C38.4219 92.0711 38.4179 92.0636 38.4159 92.0554C38.4121 92.0483 38.4102 92.0404 38.4102 92.0324C38.4102 92.0243 38.4121 92.0164 38.4159 92.0093C38.4376 91.9903 38.9311 91.5077 39.2754 91.5321C39.3179 91.5328 39.3597 91.5434 39.3974 91.5632C39.4351 91.583 39.4676 91.6113 39.4923 91.646C39.5219 91.6777 39.5401 91.7184 39.544 91.7616C39.5479 91.8048 39.5374 91.8481 39.514 91.8846C39.4361 91.9734 39.3314 92.0343 39.2157 92.0581ZM38.5623 92.0147C38.8335 92.0527 39.3404 91.9849 39.4462 91.8304C39.4624 91.806 39.476 91.768 39.4272 91.7057C39.4108 91.6819 39.389 91.6623 39.3635 91.6486C39.3381 91.635 39.3097 91.6276 39.2808 91.627C39.0449 91.6108 38.7033 91.8873 38.5623 92.0147Z" fill="#FF6900"/>
<path d="M51.543 96.149C51.2808 96.1427 51.0201 96.1091 50.7649 96.0487C50.756 96.0455 50.7482 96.0396 50.7428 96.0318C50.7373 96.0241 50.7344 96.0148 50.7344 96.0053C50.7344 95.9958 50.7373 95.9866 50.7428 95.9788C50.7482 95.971 50.756 95.9651 50.7649 95.9619C50.8815 95.905 51.9198 95.4197 52.1801 95.6041C52.2036 95.6201 52.2223 95.6421 52.2342 95.6679C52.2462 95.6937 52.2509 95.7222 52.2479 95.7505C52.2466 95.8034 52.2333 95.8554 52.2089 95.9024C52.1844 95.9494 52.1496 95.9902 52.1069 96.0216C51.9368 96.1219 51.7397 96.1664 51.543 96.149ZM50.9276 95.9863C51.2339 96.0433 51.8033 96.1192 52.0391 95.943C52.0694 95.9192 52.0942 95.8892 52.112 95.8551C52.1297 95.821 52.14 95.7835 52.1422 95.745C52.1445 95.7331 52.1432 95.7208 52.1384 95.7096C52.1335 95.6985 52.1254 95.6891 52.1151 95.6827C51.9686 95.5824 51.3559 95.7966 50.9194 95.9863H50.9276Z" fill="#FF6900"/>
<path d="M50.7735 96.0209C50.7637 96.0236 50.7534 96.0236 50.7436 96.0209C50.7371 96.0148 50.7322 96.0071 50.7293 95.9986C50.7265 95.9901 50.7258 95.981 50.7274 95.9721C50.7274 95.9288 50.9741 94.9067 51.5407 94.9717C51.6817 94.9907 51.7197 95.0585 51.7278 95.1154C51.763 95.3865 51.1096 95.8989 50.7979 96.0291L50.7735 96.0209ZM51.4838 95.0531C51.1259 95.0531 50.9171 95.6495 50.8467 95.8881C51.1856 95.7092 51.66 95.2835 51.6302 95.1181C51.6302 95.1046 51.6302 95.0666 51.5244 95.0558L51.4838 95.0531Z" fill="#FF6900"/>
<path d="M56.0713 24.4767L56.5512 24.4062C56.5512 24.4062 56.2665 24.7343 56.0713 24.4767Z" fill="#263238"/>
<path d="M72.7523 47.1413L62.2547 49.3102C62.0752 49.3439 61.8896 49.3061 61.7376 49.2048C61.5856 49.1034 61.4793 48.9467 61.4414 48.768L60.9506 46.4906L60.7744 45.6502L61.0835 44.6904C61.1265 44.5526 61.1781 44.4177 61.238 44.2864C61.2448 44.2656 61.2539 44.2456 61.2651 44.2268C61.4383 43.8318 61.6715 43.466 61.9565 43.1423L62.4987 43.0285L71.4998 41.1605C71.6793 41.1267 71.8649 41.1646 72.0169 41.2659C72.1689 41.3672 72.2752 41.524 72.3131 41.7027L73.2702 46.3117C73.3094 46.4902 73.2771 46.677 73.1803 46.832C73.0836 46.9871 72.9299 47.0981 72.7523 47.1413Z" fill="#FF6900"/>
<path opacity="0.3" d="M72.2318 41.4606L67.1673 46.6118L66.0828 46.1726L61.8643 44.4619L61.2705 44.2206C61.4437 43.8256 61.6769 43.4598 61.9619 43.1361L62.5041 43.0222L71.5052 41.1542C71.643 41.1267 71.786 41.1412 71.9155 41.1958C72.0451 41.2504 72.1552 41.3427 72.2318 41.4606Z" fill="black"/>
<path d="M72.2315 41.465L66.0826 46.1852L65.6813 46.4942L61.8179 44.5774L61.2432 44.3063C61.2499 44.2855 61.259 44.2655 61.2703 44.2467C61.4434 43.8517 61.6767 43.4859 61.9616 43.1622L62.5039 43.0483L71.5049 41.1803C71.6406 41.1506 71.7821 41.1618 71.9114 41.2125C72.0407 41.2631 72.1521 41.351 72.2315 41.465Z" fill="#FF6900"/>
<path opacity="0.2" d="M72.2315 41.465L66.0826 46.1852L65.6813 46.4942L61.8179 44.5774L61.2432 44.3063C61.2499 44.2855 61.259 44.2655 61.2703 44.2467C61.4434 43.8517 61.6767 43.4859 61.9616 43.1622L62.5039 43.0483L71.5049 41.1803C71.6406 41.1506 71.7821 41.1618 71.9114 41.2125C72.0407 41.2631 72.1521 41.351 72.2315 41.465Z" fill="white"/>
<path d="M85.5676 56.6516L82.3684 60.1002C82.2421 60.2346 82.0679 60.3138 81.8836 60.3204C81.6993 60.327 81.5198 60.2605 81.3842 60.1354L73.5381 52.8288C73.403 52.703 73.3235 52.5286 73.3169 52.3441C73.3102 52.1595 73.3771 51.9799 73.5029 51.8447L76.7129 48.3961C76.7751 48.3285 76.8501 48.2739 76.9335 48.2355C77.0169 48.1971 77.1072 48.1756 77.199 48.1723C77.2908 48.169 77.3823 48.184 77.4683 48.2164C77.5542 48.2487 77.6329 48.2978 77.6998 48.3608L85.5432 55.6674C85.6448 55.762 85.7159 55.8848 85.7473 56.0201C85.7787 56.1553 85.769 56.2969 85.7194 56.4266C85.6855 56.5116 85.6337 56.5883 85.5676 56.6516Z" fill="#FF6900"/>
<path opacity="0.3" d="M85.7093 56.4408L78.5735 55.2777L76.917 48.2287C77.0434 48.1705 77.1843 48.151 77.3218 48.1727C77.4593 48.1944 77.5873 48.2563 77.6897 48.3507L85.5331 55.6573C85.6397 55.7538 85.7139 55.8808 85.7454 56.0211C85.777 56.1614 85.7644 56.308 85.7093 56.4408Z" fill="black"/>
<path d="M85.7093 56.4399L78.7606 54.3685L76.917 48.2521C77.0434 48.1939 77.1843 48.1744 77.3218 48.1961C77.4593 48.2178 77.5873 48.2798 77.6897 48.3741L85.5331 55.6807C85.6348 55.7753 85.7058 55.8981 85.7372 56.0334C85.7686 56.1686 85.7589 56.3102 85.7093 56.4399Z" fill="#FF6900"/>
<path opacity="0.2" d="M85.7093 56.4399L78.7606 54.3685L76.917 48.2521C77.0434 48.1939 77.1843 48.1744 77.3218 48.1961C77.4593 48.2178 77.5873 48.2798 77.6897 48.3741L85.5331 55.6807C85.6348 55.7753 85.7058 55.8981 85.7372 56.0334C85.7686 56.1686 85.7589 56.3102 85.7093 56.4399Z" fill="white"/>
<path d="M88.3578 62.3424L91.8823 66.458C91.9496 66.5367 92.0002 66.6283 92.0309 66.7273C92.0617 66.8262 92.0719 66.9304 92.061 67.0334C92.05 67.1365 92.0182 67.2362 91.9675 67.3265C91.9167 67.4168 91.848 67.4958 91.7657 67.5587L84.1094 73.5233C83.9807 73.6007 83.8278 73.6276 83.6805 73.5985C83.5331 73.5694 83.4019 73.4866 83.3123 73.366L80.555 70.2211C80.5032 70.1606 80.4603 70.0931 80.4276 70.0204C80.3764 69.9207 80.3551 69.8083 80.3661 69.6968C80.3772 69.5852 80.4202 69.4792 80.49 69.3915L87.2679 62.3126C87.3737 62.198 87.5135 62.1204 87.6667 62.0911C87.82 62.0618 87.9785 62.0824 88.1192 62.1499C88.2102 62.1984 88.2912 62.2637 88.3578 62.3424Z" fill="#FF6900"/>
<path opacity="0.3" d="M88.1191 62.1464L86.4354 69.6346L80.4383 70.0169C80.3872 69.9171 80.3658 69.8048 80.3769 69.6932C80.3879 69.5816 80.4309 69.4756 80.5007 69.3879L87.2786 62.309C87.3837 62.1968 87.5215 62.1206 87.6725 62.0914C87.8234 62.0622 87.9797 62.0814 88.1191 62.1464Z" fill="black"/>
<path d="M88.1186 62.1481L85.2963 70.0946L80.4325 70.0187C80.3813 69.9189 80.3599 69.8065 80.371 69.695C80.3821 69.5834 80.4251 69.4774 80.4948 69.3897L87.2728 62.3108C87.3782 62.1974 87.517 62.1205 87.6691 62.0912C87.8212 62.062 87.9786 62.0819 88.1186 62.1481Z" fill="#FF6900"/>
<path opacity="0.2" d="M88.1186 62.1481L85.2963 70.0946L80.4325 70.0187C80.3813 69.9189 80.3599 69.8065 80.371 69.695C80.3821 69.5834 80.4251 69.4774 80.4948 69.3897L87.2728 62.3108C87.3782 62.1974 87.517 62.1205 87.6691 62.0912C87.8212 62.062 87.9786 62.0819 88.1186 62.1481Z" fill="white"/>
</svg>
