<svg width="21" height="21" viewBox="0 0 21 21" fill="none" xmlns="http://www.w3.org/2000/svg">
<g clip-path="url(#clip0_102_8757)">
<path d="M10.75 0.259766C16.2731 0.259766 20.75 4.73726 20.75 10.2598C20.75 15.783 16.2731 20.2598 10.75 20.2598C5.22681 20.2598 0.75 15.7829 0.75 10.2598C0.75 4.73726 5.22688 0.259766 10.75 0.259766Z" fill="#3B5998"/>
<path d="M11.9675 7.14399H13.2563V5.24023H11.7413V5.2471C9.90565 5.31211 9.52943 6.34397 9.49627 7.42773H9.49249V8.37838H8.24252V10.2427H9.49249V15.2402H11.3763V10.2427H12.9194L13.2175 8.37838H11.3769V7.80402C11.3769 7.43776 11.6206 7.14399 11.9675 7.14399Z" fill="white"/>
</g>
<defs>
<clipPath id="clip0_102_8757">
<rect width="20" height="20" fill="white" transform="translate(0.75 0.259766)"/>
</clipPath>
</defs>
</svg>
