<svg width="15" height="14" viewBox="0 0 15 14" fill="none" xmlns="http://www.w3.org/2000/svg">
<g clip-path="url(#clip0_489_724)">
<path d="M6.91666 8.74996C6.91666 9.3688 7.1625 9.96229 7.60008 10.3999C8.03767 10.8375 8.63116 11.0833 9.25 11.0833C9.86884 11.0833 10.4623 10.8375 10.8999 10.3999C11.3375 9.96229 11.5833 9.3688 11.5833 8.74996C11.5833 8.13112 11.3375 7.53763 10.8999 7.10004C10.4623 6.66246 9.86884 6.41663 9.25 6.41663C8.63116 6.41663 8.03767 6.66246 7.60008 7.10004C7.1625 7.53763 6.91666 8.13112 6.91666 8.74996Z" stroke="white" stroke-width="1.5" stroke-linecap="round" stroke-linejoin="round"/>
<path d="M11.2917 10.7916L12.75 12.25" stroke="white" stroke-width="2" stroke-linecap="round" stroke-linejoin="round"/>
<path d="M2.83334 3.5H12.1667" stroke="white" stroke-width="2" stroke-linecap="round" stroke-linejoin="round"/>
<path d="M2.83334 7H5.16667" stroke="white" stroke-width="2" stroke-linecap="round" stroke-linejoin="round"/>
<path d="M2.83334 10.5H5.16667" stroke="white" stroke-width="2" stroke-linecap="round" stroke-linejoin="round"/>
</g>
<defs>
<clipPath id="clip0_489_724">
<rect width="14" height="14" fill="white" transform="translate(0.5)"/>
</clipPath>
</defs>
</svg>
