<svg width="16" height="16" viewBox="0 0 16 16" fill="none" xmlns="http://www.w3.org/2000/svg">
<g clip-path="url(#clip0_616_3210)">
<path d="M6 7.33337C6 7.86381 6.21071 8.37251 6.58579 8.74759C6.96086 9.12266 7.46957 9.33337 8 9.33337C8.53043 9.33337 9.03914 9.12266 9.41421 8.74759C9.78929 8.37251 10 7.86381 10 7.33337C10 6.80294 9.78929 6.29423 9.41421 5.91916C9.03914 5.54409 8.53043 5.33337 8 5.33337C7.46957 5.33337 6.96086 5.54409 6.58579 5.91916C6.21071 6.29423 6 6.80294 6 7.33337Z" stroke="#4F4F4F" stroke-width="1.5" stroke-linecap="round" stroke-linejoin="round"/>
<path d="M8.52178 14.2173C8.27724 14.3213 8.00721 14.3497 7.74636 14.2991C7.48551 14.2485 7.24573 14.1212 7.05778 13.9333L4.22845 11.1047C3.60757 10.4837 3.1496 9.7191 2.89522 8.87866C2.64083 8.03822 2.59789 7.14797 2.77021 6.28695C2.94253 5.42593 3.32478 4.62078 3.88302 3.94297C4.44126 3.26517 5.15822 2.73568 5.97024 2.40152C6.78227 2.06736 7.66425 1.93887 8.53786 2.02745C9.41148 2.11603 10.2497 2.41895 10.9781 2.9093C11.7066 3.39966 12.3026 4.06228 12.7135 4.83835C13.1243 5.61441 13.3371 6.47991 13.3331 7.358" stroke="#4F4F4F" stroke-width="1.5" stroke-linecap="round" stroke-linejoin="round"/>
<path d="M14.0805 13.4139C14.3603 13.1343 14.5508 12.7779 14.628 12.3899C14.7052 12.0019 14.6657 11.5998 14.5143 11.2343C14.363 10.8688 14.1066 10.5564 13.7777 10.3366C13.4488 10.1168 13.0621 9.99951 12.6665 9.99951C12.2709 9.99951 11.8842 10.1168 11.5553 10.3366C11.2264 10.5564 10.97 10.8688 10.8187 11.2343C10.6673 11.5998 10.6278 12.0019 10.705 12.3899C10.7822 12.7779 10.9727 13.1343 11.2525 13.4139C11.5312 13.6933 12.0025 14.1106 12.6665 14.6666C13.3672 14.0733 13.8392 13.6559 14.0805 13.4139Z" stroke="#4F4F4F" stroke-width="1.5" stroke-linecap="round" stroke-linejoin="round"/>
<path d="M12.6665 12V12.0067" stroke="#4F4F4F" stroke-width="1.5" stroke-linecap="round" stroke-linejoin="round"/>
</g>
<defs>
<clipPath id="clip0_616_3210">
<rect width="16" height="16" fill="white"/>
</clipPath>
</defs>
</svg>
