<svg width="16" height="16" viewBox="0 0 16 16" fill="none" xmlns="http://www.w3.org/2000/svg">
<g clip-path="url(#clip0_616_2952)">
<path d="M6.3335 2H9.66683C9.93205 2 10.1864 2.10536 10.3739 2.29289C10.5615 2.48043 10.6668 2.73478 10.6668 3C10.6668 3.61884 10.421 4.21233 9.98341 4.64992C9.54583 5.0875 8.95233 5.33333 8.3335 5.33333H7.66683C7.04799 5.33333 6.4545 5.0875 6.01691 4.64992C5.57933 4.21233 5.3335 3.61884 5.3335 3C5.3335 2.73478 5.43885 2.48043 5.62639 2.29289C5.81393 2.10536 6.06828 2 6.3335 2Z" stroke="#4F4F4F" stroke-width="1.5" stroke-linecap="round" stroke-linejoin="round"/>
<path d="M2.6665 11.3334V10.6667C2.6665 9.25222 3.22841 7.89566 4.2286 6.89547C5.22879 5.89528 6.58535 5.33337 7.99984 5.33337C9.41432 5.33337 10.7709 5.89528 11.7711 6.89547C12.7713 7.89566 13.3332 9.25222 13.3332 10.6667V11.3334C13.3332 12.0406 13.0522 12.7189 12.5521 13.219C12.052 13.7191 11.3737 14 10.6665 14H5.33317C4.62593 14 3.94765 13.7191 3.44755 13.219C2.94746 12.7189 2.6665 12.0406 2.6665 11.3334Z" stroke="#4F4F4F" stroke-width="1.5" stroke-linecap="round" stroke-linejoin="round"/>
</g>
<defs>
<clipPath id="clip0_616_2952">
<rect width="16" height="16" fill="white"/>
</clipPath>
</defs>
</svg>
