<svg width="16" height="17" viewBox="0 0 16 17" fill="none" xmlns="http://www.w3.org/2000/svg">
<g clip-path="url(#clip0_179_20484)">
<path d="M6.33331 2.5H9.66665C9.93186 2.5 10.1862 2.60536 10.3738 2.79289C10.5613 2.98043 10.6666 3.23478 10.6666 3.5C10.6666 4.11884 10.4208 4.71233 9.98323 5.14992C9.54564 5.5875 8.95215 5.83333 8.33331 5.83333H7.66665C7.04781 5.83333 6.45432 5.5875 6.01673 5.14992C5.57915 4.71233 5.33331 4.11884 5.33331 3.5C5.33331 3.23478 5.43867 2.98043 5.62621 2.79289C5.81374 2.60536 6.0681 2.5 6.33331 2.5Z" stroke="#4F4F4F" stroke-width="1.5" stroke-linecap="round" stroke-linejoin="round"/>
<path d="M2.66669 11.833V11.1663C2.66669 9.75185 3.22859 8.3953 4.22878 7.3951C5.22898 6.39491 6.58553 5.83301 8.00002 5.83301C9.41451 5.83301 10.7711 6.39491 11.7713 7.3951C12.7715 8.3953 13.3334 9.75185 13.3334 11.1663V11.833C13.3334 12.5403 13.0524 13.2185 12.5523 13.7186C12.0522 14.2187 11.3739 14.4997 10.6667 14.4997H5.33335C4.62611 14.4997 3.94783 14.2187 3.44774 13.7186C2.94764 13.2185 2.66669 12.5403 2.66669 11.833Z" stroke="#4F4F4F" stroke-width="1.5" stroke-linecap="round" stroke-linejoin="round"/>
</g>
<defs>
<clipPath id="clip0_179_20484">
<rect width="16" height="16" fill="white" transform="translate(0 0.5)"/>
</clipPath>
</defs>
</svg>
