<svg width="48" height="48" viewBox="0 0 48 48" fill="none" xmlns="http://www.w3.org/2000/svg">
<g clip-path="url(#clip0_317_9745)">
<path d="M21 40H10C8.93913 40 7.92172 39.5786 7.17157 38.8284C6.42143 38.0783 6 37.0609 6 36V18C6 16.9391 6.42143 15.9217 7.17157 15.1716C7.92172 14.4214 8.93913 14 10 14H12C13.0609 14 14.0783 13.5786 14.8284 12.8284C15.5786 12.0783 16 11.0609 16 10C16 9.46957 16.2107 8.96086 16.5858 8.58579C16.9609 8.21071 17.4696 8 18 8H30C30.5304 8 31.0391 8.21071 31.4142 8.58579C31.7893 8.96086 32 9.46957 32 10C32 11.0609 32.4214 12.0783 33.1716 12.8284C33.9217 13.5786 34.9391 14 36 14H38C39.0609 14 40.0783 14.4214 40.8284 15.1716C41.5786 15.9217 42 16.9391 42 18V22" stroke="white" stroke-width="2" stroke-linecap="round" stroke-linejoin="round"/>
<path d="M28.82 22.4244C28.3033 21.7281 27.6418 21.1521 26.881 20.736C26.1203 20.3199 25.2784 20.0736 24.4134 20.0141C23.5483 19.9547 22.6807 20.0834 21.8702 20.3914C21.0596 20.6995 20.3255 21.1795 19.7183 21.7986C19.1112 22.4176 18.6454 23.1609 18.353 23.9772C18.0607 24.7935 17.9488 25.6635 18.025 26.5272C18.1012 27.391 18.3637 28.2279 18.7944 28.9805C19.2251 29.733 19.8138 30.3833 20.52 30.8864" stroke="white" stroke-width="2" stroke-linecap="round" stroke-linejoin="round"/>
<path d="M36 43.9992L42.7 37.4312C43.1109 37.0325 43.4377 36.5556 43.6612 36.0285C43.8847 35.5014 44.0003 34.9349 44.0012 34.3624C44.0022 33.7898 43.8884 33.2229 43.6666 32.6951C43.4448 32.1673 43.1196 31.6893 42.71 31.2892C41.8743 30.4719 40.7524 30.0133 39.5834 30.011C38.4145 30.0088 37.2909 30.4631 36.452 31.2772L36.004 31.7172L35.558 31.2772C34.7224 30.4605 33.6009 30.0022 32.4324 30C31.264 29.9978 30.1408 30.4517 29.302 31.2652C28.891 31.6638 28.564 32.1407 28.3404 32.6677C28.1167 33.1947 28.0009 33.7612 27.9998 34.3337C27.9986 34.9062 28.1122 35.4732 28.3338 36.001C28.5554 36.5289 28.8806 37.0071 29.29 37.4072L36 43.9992Z" stroke="white" stroke-width="2" stroke-linecap="round" stroke-linejoin="round"/>
</g>
<defs>
<clipPath id="clip0_317_9745">
<rect width="48" height="48" fill="white"/>
</clipPath>
</defs>
</svg>
