<svg width="16" height="17" viewBox="0 0 16 17" fill="none" xmlns="http://www.w3.org/2000/svg">
<g clip-path="url(#clip0_179_20478)">
<path d="M11.8666 13.711L10.4186 14.4697C10.3757 14.492 10.3273 14.502 10.279 14.4985C10.2307 14.495 10.1843 14.4781 10.145 14.4497C10.1058 14.4214 10.0751 14.3827 10.0566 14.3379C10.038 14.2932 10.0323 14.2442 10.04 14.1963L10.3166 12.589L9.14531 11.451C9.11035 11.4172 9.08559 11.3742 9.07387 11.3271C9.06215 11.2799 9.06393 11.2303 9.07902 11.1841C9.0941 11.1379 9.12188 11.0968 9.15918 11.0656C9.19649 11.0344 9.24181 11.0143 9.28998 11.0077L10.9086 10.773L11.6326 9.31099C11.6543 9.26745 11.6877 9.23081 11.729 9.2052C11.7703 9.17959 11.818 9.16602 11.8666 9.16602C11.9153 9.16602 11.9629 9.17959 12.0043 9.2052C12.0456 9.23081 12.079 9.26745 12.1006 9.31099L12.8246 10.773L14.4433 11.0077C14.4913 11.0146 14.5365 11.0348 14.5736 11.066C14.6108 11.0972 14.6384 11.1382 14.6535 11.1844C14.6685 11.2305 14.6704 11.2799 14.6588 11.327C14.6472 11.3741 14.6227 11.4171 14.588 11.451L13.4166 12.589L13.6926 14.1957C13.7009 14.2436 13.6956 14.2928 13.6773 14.3379C13.659 14.3829 13.6284 14.4219 13.589 14.4505C13.5497 14.479 13.5031 14.4959 13.4546 14.4993C13.4061 14.5027 13.3576 14.4924 13.3146 14.4697L11.8666 13.711Z" stroke="#4F4F4F" stroke-width="1.5" stroke-linecap="round" stroke-linejoin="round"/>
<path d="M4.1333 13.711L2.6853 14.4697C2.64233 14.492 2.59399 14.502 2.54568 14.4985C2.49736 14.495 2.45098 14.4781 2.4117 14.4497C2.37242 14.4214 2.34179 14.3827 2.32324 14.3379C2.30469 14.2932 2.29894 14.2442 2.30664 14.1963L2.5833 12.589L1.41197 11.451C1.37701 11.4172 1.35225 11.3742 1.34053 11.3271C1.32881 11.2799 1.33059 11.2303 1.34568 11.1841C1.36077 11.1379 1.38854 11.0968 1.42585 11.0656C1.46315 11.0344 1.50847 11.0143 1.55664 11.0077L3.1753 10.773L3.8993 9.31099C3.92096 9.26745 3.95433 9.23081 3.99567 9.2052C4.03701 9.17959 4.08467 9.16602 4.1333 9.16602C4.18194 9.16602 4.2296 9.17959 4.27094 9.2052C4.31228 9.23081 4.34565 9.26745 4.3673 9.31099L5.0913 10.773L6.70997 11.0077C6.758 11.0146 6.80313 11.0348 6.84027 11.066C6.87741 11.0972 6.90507 11.1382 6.92012 11.1844C6.93518 11.2305 6.93702 11.2799 6.92545 11.327C6.91387 11.3741 6.88935 11.4171 6.85464 11.451L5.6833 12.589L5.9593 14.1957C5.96759 14.2436 5.96227 14.2928 5.94396 14.3379C5.92564 14.3829 5.89507 14.4219 5.8557 14.4505C5.81633 14.479 5.76975 14.4959 5.72125 14.4993C5.67274 14.5027 5.62426 14.4924 5.5813 14.4697L4.1333 13.711Z" stroke="#4F4F4F" stroke-width="1.5" stroke-linecap="round" stroke-linejoin="round"/>
<path d="M8 7.04498L6.552 7.80364C6.50903 7.82601 6.46069 7.83599 6.41238 7.83247C6.36406 7.82895 6.31768 7.81208 6.2784 7.78372C6.23912 7.75537 6.20849 7.71666 6.18994 7.67191C6.17139 7.62716 6.16564 7.57814 6.17334 7.53031L6.45 5.92298L5.27867 4.78498C5.24371 4.75118 5.21895 4.70823 5.20723 4.66104C5.19551 4.61384 5.19729 4.5643 5.21238 4.51807C5.22746 4.47184 5.25524 4.43079 5.29255 4.39959C5.32985 4.36839 5.37517 4.34831 5.42334 4.34164L7.042 4.10698L7.766 2.64498C7.78766 2.60143 7.82103 2.56479 7.86237 2.53918C7.90371 2.51357 7.95137 2.5 8 2.5C8.04863 2.5 8.0963 2.51357 8.13764 2.53918C8.17898 2.56479 8.21235 2.60143 8.234 2.64498L8.958 4.10698L10.5767 4.34164C10.6247 4.34855 10.6698 4.36876 10.707 4.39999C10.7441 4.43121 10.7718 4.47221 10.7868 4.51834C10.8019 4.56446 10.8037 4.61388 10.7921 4.661C10.7806 4.70813 10.756 4.75107 10.7213 4.78498L9.55 5.92298L9.826 7.52964C9.83429 7.57755 9.82897 7.62683 9.81066 7.67187C9.79234 7.71691 9.76177 7.75591 9.7224 7.78445C9.68303 7.81298 9.63645 7.82991 9.58795 7.8333C9.53944 7.8367 9.49096 7.82642 9.448 7.80364L8 7.04498Z" stroke="#4F4F4F" stroke-width="1.5" stroke-linecap="round" stroke-linejoin="round"/>
</g>
<defs>
<clipPath id="clip0_179_20478">
<rect width="16" height="16" fill="white" transform="translate(0 0.5)"/>
</clipPath>
</defs>
</svg>
