<svg width="136" height="101" viewBox="0 0 136 101" fill="none" xmlns="http://www.w3.org/2000/svg">
<path d="M135.779 88.7734H0.220703V88.8412H135.779V88.7734Z" fill="#EBEBEB"/>
<path d="M23.4232 91.3438H14.4438V91.4115H23.4232V91.3438Z" fill="#EBEBEB"/>
<path d="M58.1502 90.6016H46.6196V90.6693H58.1502V90.6016Z" fill="#EBEBEB"/>
<path d="M30.7647 92.2969H25.562V92.3647H30.7647V92.2969Z" fill="#EBEBEB"/>
<path d="M122.196 93.3984H118.067V93.4662H122.196V93.3984Z" fill="#EBEBEB"/>
<path d="M115.651 93.3984H106.354V93.4662H115.651V93.3984Z" fill="#EBEBEB"/>
<path d="M90.1853 91.4609H83.7246V91.5287H90.1853V91.4609Z" fill="#EBEBEB"/>
<path d="M64.4754 76.6718H12.1282C11.7176 76.6718 11.3238 76.5087 11.0335 76.2184C10.7432 75.9281 10.5801 75.5343 10.5801 75.1237V1.53452C10.5837 1.1263 10.7483 0.736013 11.0383 0.448618C11.3282 0.161223 11.7199 -1.56505e-05 12.1282 1.13938e-09H64.4754C64.8859 1.13938e-09 65.2797 0.1631 65.57 0.453421C65.8603 0.743742 66.0234 1.1375 66.0234 1.54808V75.1237C66.0234 75.5343 65.8603 75.9281 65.57 76.2184C65.2797 76.5087 64.8859 76.6718 64.4754 76.6718ZM12.1282 0.0542235C11.7358 0.0549402 11.3597 0.211129 11.0822 0.488584C10.8048 0.766038 10.6486 1.14214 10.6479 1.53452V75.1237C10.6486 75.5161 10.8048 75.8922 11.0822 76.1697C11.3597 76.4471 11.7358 76.6033 12.1282 76.604H64.4754C64.8677 76.6033 65.2438 76.4471 65.5213 76.1697C65.7988 75.8922 65.9549 75.5161 65.9557 75.1237V1.53452C65.9549 1.14214 65.7988 0.766038 65.5213 0.488584C65.2438 0.211129 64.8677 0.0549402 64.4754 0.0542235H12.1282Z" fill="#EBEBEB"/>
<path d="M123.12 76.6718H70.7678C70.3574 76.6711 69.9641 76.5078 69.6739 76.2176C69.3838 75.9274 69.2204 75.5341 69.2197 75.1237V1.53452C69.224 1.12652 69.3889 0.736645 69.6787 0.449401C69.9685 0.162157 70.3598 0.000690884 70.7678 0H123.12C123.528 0.00141103 123.918 0.16328 124.207 0.450522C124.496 0.737764 124.66 1.12724 124.663 1.53452V75.1237C124.663 75.5334 124.501 75.9263 124.212 76.2165C123.922 76.5066 123.53 76.6704 123.12 76.6718ZM70.7678 0.0542235C70.3754 0.0549402 69.9993 0.211129 69.7219 0.488584C69.4444 0.766038 69.2882 1.14214 69.2875 1.53452V75.1237C69.2882 75.5161 69.4444 75.8922 69.7219 76.1697C69.9993 76.4471 70.3754 76.6033 70.7678 76.604H123.12C123.513 76.6033 123.889 76.4471 124.166 76.1697C124.444 75.8922 124.6 75.5161 124.601 75.1237V1.53452C124.6 1.14214 124.444 0.766038 124.166 0.488584C123.889 0.211129 123.513 0.0549402 123.12 0.0542235H70.7678Z" fill="#EBEBEB"/>
<path d="M83.5886 38.3281L112.834 38.3281V9.00414L83.5886 9.00414V38.3281Z" fill="#F0F0F0"/>
<path d="M83.5887 9.00781H83.0845V38.3318H83.5887V9.00781Z" fill="#E0E0E0"/>
<path d="M86.1728 36.4766H110.253V10.856L86.1728 10.856V36.4766Z" fill="#FAFAFA"/>
<path d="M95.6534 30.9118H103.28C104.934 30.9118 106.04 29.5725 105.75 27.9295L104.267 19.4354C104.102 18.6135 103.664 17.8716 103.024 17.3301C102.384 16.7887 101.58 16.4796 100.742 16.4531H93.1347C91.4809 16.4531 90.3748 17.7924 90.6649 19.4354L92.1479 27.9295C92.3114 28.7485 92.7464 29.4884 93.3826 30.0296C94.0187 30.5708 94.8188 30.8816 95.6534 30.9118Z" fill="#F0F0F0"/>
<path d="M28.6801 47.2266H22.1733V87.3654H28.6801V47.2266Z" fill="#F0F0F0"/>
<path d="M57.2313 87.375H22.8374V88.7604H57.2313V87.375Z" fill="#F0F0F0"/>
<path d="M28.6799 87.375H57.8032L57.8032 47.2362L28.6799 47.2362L28.6799 87.375Z" fill="#F5F5F5"/>
<path d="M29.8514 75.2969H56.6323V68.1285H29.8514V75.2969Z" fill="#F0F0F0"/>
<path d="M29.8514 84.6875H56.6323V77.5192H29.8514V84.6875Z" fill="#F0F0F0"/>
<path d="M53.4623 67.6953H33.0201C32.8434 67.6953 32.7002 67.8385 32.7002 68.0152V68.3596C32.7002 68.5362 32.8434 68.6795 33.0201 68.6795H53.4623C53.639 68.6795 53.7822 68.5362 53.7822 68.3596V68.0152C53.7822 67.8385 53.639 67.6953 53.4623 67.6953Z" fill="#F5F5F5"/>
<path d="M53.4623 77.0859H33.0201C32.8434 77.0859 32.7002 77.2292 32.7002 77.4059V77.7502C32.7002 77.9269 32.8434 78.0701 33.0201 78.0701H53.4623C53.639 78.0701 53.7822 77.9269 53.7822 77.7502V77.4059C53.7822 77.2292 53.639 77.0859 53.4623 77.0859Z" fill="#F5F5F5"/>
<path d="M29.8514 56.6094H56.6323V49.4411H29.8514V56.6094Z" fill="#F0F0F0"/>
<path d="M29.8514 65.9219H56.6323V58.7535H29.8514V65.9219Z" fill="#F0F0F0"/>
<path d="M53.4623 49.0078H33.0201C32.8434 49.0078 32.7002 49.151 32.7002 49.3277V49.672C32.7002 49.8487 32.8434 49.992 33.0201 49.992H53.4623C53.639 49.992 53.7822 49.8487 53.7822 49.672V49.3277C53.7822 49.151 53.639 49.0078 53.4623 49.0078Z" fill="#F5F5F5"/>
<path d="M53.4623 58.3125H33.0201C32.8434 58.3125 32.7002 58.4557 32.7002 58.6324V58.9767C32.7002 59.1534 32.8434 59.2967 33.0201 59.2967H53.4623C53.639 59.2967 53.7822 59.1534 53.7822 58.9767V58.6324C53.7822 58.4557 53.639 58.3125 53.4623 58.3125Z" fill="#F5F5F5"/>
<path d="M56.7487 6.79688H20.2266V38.8591H56.7487V6.79688Z" fill="#E6E6E6"/>
<path d="M60.6637 5.54688H17.8625C17.815 5.54687 17.7679 5.55629 17.7239 5.57458C17.68 5.59287 17.6401 5.61967 17.6066 5.65344C17.5731 5.68722 17.5466 5.72729 17.5286 5.77135C17.5107 5.81541 17.5016 5.86259 17.502 5.91017C17.502 6.00581 17.54 6.09752 17.6076 6.16514C17.6752 6.23277 17.7669 6.27076 17.8625 6.27076H60.6637C60.7596 6.27076 60.8516 6.23286 60.9197 6.16531C60.9877 6.09776 61.0263 6.00605 61.027 5.91017C61.027 5.81382 60.9888 5.72141 60.9206 5.65328C60.8525 5.58515 60.7601 5.54688 60.6637 5.54688Z" fill="#E6E6E6"/>
<path d="M58.2997 6.79688H20.9507V38.8591H58.2997V6.79688Z" fill="#F0F0F0"/>
<path d="M56.7487 38.8516H20.2266V39.8791H57.8169L56.7487 38.8516Z" fill="#E6E6E6"/>
<path d="M60.8805 38.8516H23.5342L24.5997 39.8791H61.9487L60.8805 38.8516Z" fill="#F0F0F0"/>
<path d="M56.1304 36.6931V8.96875L23.1219 8.96875V36.6931H56.1304Z" fill="#FAFAFA"/>
<path d="M30.6157 36.6931L43.3474 8.96875H49.3607L36.6264 36.6931H30.6157Z" fill="white"/>
<path d="M37.917 36.6931L50.6513 8.96875H52.9938L40.2622 36.6931H37.917Z" fill="white"/>
<path d="M56.1304 36.6931V8.96875H55.8538V36.6931H56.1304Z" fill="#E6E6E6"/>
<g opacity="0.4">
<path d="M23.1464 4.89062H19.4131V31.3489H23.1464V4.89062Z" fill="#F0F0F0"/>
<path d="M24.6024 4.89062H21.6934V31.3489H24.6024V4.89062Z" fill="#E6E6E6"/>
<path d="M26.8798 4.89062H23.1465V31.3489H26.8798V4.89062Z" fill="#F0F0F0"/>
<path d="M28.3354 4.89062H25.4263V31.3489H28.3354V4.89062Z" fill="#E6E6E6"/>
<path d="M30.6132 4.89062H26.8799V31.3489H30.6132V4.89062Z" fill="#F0F0F0"/>
</g>
<g opacity="0.4">
<path d="M54.742 4.89062H52.5894V31.3489H54.742V4.89062Z" fill="#F0F0F0"/>
<path d="M55.5774 4.89062H53.9019V31.3489H55.5774V4.89062Z" fill="#E6E6E6"/>
<path d="M56.8919 4.89062H54.7393V31.3489H56.8919V4.89062Z" fill="#F0F0F0"/>
<path d="M57.7297 4.89062H56.0542V31.3489H57.7297V4.89062Z" fill="#E6E6E6"/>
<path d="M59.0448 4.89062H56.8921V31.3489H59.0448V4.89062Z" fill="#F0F0F0"/>
</g>
<path d="M96.9685 58.0706C96.9366 58.4628 97.0216 58.8557 97.2129 59.1995C97.4043 59.5433 97.6932 59.8228 98.0433 60.0024C98.3933 60.1821 98.7888 60.2539 99.1797 60.2089C99.5706 60.1639 99.9394 60.0039 100.239 59.7494C100.539 59.4948 100.757 59.157 100.865 58.7787C100.973 58.4003 100.967 57.9984 100.847 57.6238C100.726 57.2491 100.498 56.9185 100.19 56.6738C99.8816 56.429 99.5079 56.2811 99.1157 56.2487C98.5895 56.206 98.0678 56.3738 97.6652 56.7154C97.2626 57.057 97.012 57.5444 96.9685 58.0706Z" fill="#E0E0E0"/>
<path d="M102.502 61.2467C103.591 61.0864 104.344 60.0739 104.184 58.9851C104.024 57.8963 103.011 57.1435 101.922 57.3037C100.833 57.4639 100.081 58.4764 100.241 59.5652C100.401 60.6541 101.413 61.4069 102.502 61.2467Z" fill="#E0E0E0"/>
<path d="M103.712 59.532C103.68 59.9242 103.765 60.317 103.956 60.6609C104.147 61.0047 104.436 61.2841 104.786 61.4638C105.137 61.6434 105.532 61.7153 105.923 61.6703C106.314 61.6252 106.683 61.4653 106.983 61.2107C107.283 60.9562 107.5 60.6184 107.609 60.24C107.717 59.8617 107.71 59.4598 107.59 59.0851C107.47 58.7105 107.241 58.3799 106.933 58.1351C106.625 57.8904 106.251 57.7425 105.859 57.7101C105.598 57.6882 105.336 57.718 105.087 57.7978C104.837 57.8776 104.606 58.0058 104.407 58.1751C104.207 58.3444 104.043 58.5514 103.924 58.7842C103.805 59.0171 103.732 59.2712 103.712 59.532Z" fill="#E0E0E0"/>
<path d="M93.2683 59.1097C93.2364 59.5019 93.3214 59.8947 93.5128 60.2386C93.7041 60.5824 93.993 60.8618 94.3431 61.0415C94.6931 61.2211 95.0886 61.293 95.4795 61.248C95.8704 61.2029 96.2392 61.043 96.5392 60.7884C96.8392 60.5339 97.0571 60.1961 97.1652 59.8177C97.2732 59.4394 97.2667 59.0375 97.1465 58.6628C97.0262 58.2882 96.7976 57.9576 96.4895 57.7128C96.1814 57.4681 95.8077 57.3202 95.4155 57.2878C94.8893 57.2451 94.3676 57.4129 93.965 57.7545C93.5624 58.0961 93.3118 58.5835 93.2683 59.1097Z" fill="#E0E0E0"/>
<path d="M108.863 61.2467C109.951 61.0864 110.704 60.0739 110.544 58.9851C110.384 57.8963 109.371 57.1435 108.283 57.3037C107.194 57.4639 106.441 58.4764 106.601 59.5652C106.761 60.6541 107.774 61.4069 108.863 61.2467Z" fill="#E0E0E0"/>
<path d="M93.8628 59.1165C94.6992 58.4011 94.7973 57.1432 94.082 56.3067C93.3666 55.4703 92.1087 55.3722 91.2723 56.0876C90.4359 56.8029 90.3377 58.0609 91.0531 58.8973C91.7684 59.7337 93.0264 59.8318 93.8628 59.1165Z" fill="#E0E0E0"/>
<path d="M87.7697 58.6644C87.7378 59.0566 87.8229 59.4494 88.0142 59.7933C88.2055 60.1371 88.4945 60.4165 88.8445 60.5962C89.1946 60.7758 89.5901 60.8477 89.981 60.8026C90.3719 60.7576 90.7406 60.5977 91.0407 60.3431C91.3407 60.0885 91.5585 59.7507 91.6666 59.3724C91.7747 58.9941 91.7682 58.5922 91.648 58.2175C91.5277 57.8429 91.2991 57.5123 90.991 57.2675C90.6829 57.0228 90.3091 56.8749 89.917 56.8425C89.3907 56.7997 88.869 56.9676 88.4664 57.3092C88.0638 57.6508 87.8133 58.1382 87.7697 58.6644Z" fill="#E0E0E0"/>
<path d="M85.4946 59.2031C85.4946 59.2031 85.8362 67.3556 98.9366 67.3556C112.037 67.3556 112.379 59.2031 112.379 59.2031H85.4946Z" fill="#F0F0F0"/>
<path d="M119.854 67.3516H117.362V88.7562H119.854V67.3516Z" fill="#E6E6E6"/>
<path d="M120.518 67.3516H119.052V88.7562H120.518V67.3516Z" fill="#F0F0F0"/>
<path d="M109.253 67.3516H106.761V88.7562H109.253V67.3516Z" fill="#E6E6E6"/>
<path d="M109.72 67.3516H108.253V88.7562H109.72V67.3516Z" fill="#F0F0F0"/>
<path d="M85.6033 69.9531H120.973V67.3585H85.6033V69.9531Z" fill="#F0F0F0"/>
<path d="M74.7938 67.3516H72.3022V88.7562H74.7938V67.3516Z" fill="#E6E6E6"/>
<path d="M75.2602 67.3516H73.7935V88.7562H75.2602V67.3516Z" fill="#F0F0F0"/>
<path d="M71.8575 69.9531H84.5376V67.3585H71.8575V69.9531Z" fill="#E6E6E6"/>
<path d="M85.392 67.3516H82.9004V88.7562H85.392V67.3516Z" fill="#E6E6E6"/>
<path d="M86.059 67.3516H84.5923V88.7562H86.059V67.3516Z" fill="#F0F0F0"/>
<path d="M67.9999 101.005C97.0318 101.005 120.567 99.6312 120.567 97.9362C120.567 96.2412 97.0318 94.8672 67.9999 94.8672C38.9681 94.8672 15.4331 96.2412 15.4331 97.9362C15.4331 99.6312 38.9681 101.005 67.9999 101.005Z" fill="#F5F5F5"/>
<path d="M96.5981 95.2573C96.5984 95.7991 96.4065 96.3234 96.0565 96.737C95.7065 97.1506 95.2211 97.4265 94.6867 97.5157C88.1089 98.6255 81.3916 98.6255 74.8138 97.5157C74.2817 97.4241 73.7992 97.1471 73.4518 96.7337C73.1044 96.3203 72.9146 95.7973 72.916 95.2573V73.2969H96.6089L96.5981 95.2573Z" fill="#FF6900"/>
<path opacity="0.3" d="M72.9019 73.6953V76.7779C74.3279 77.3066 79.0101 77.6943 84.7497 77.6943C90.4892 77.6943 95.1795 77.3066 96.5975 76.7779V73.6953H72.9019Z" fill="black"/>
<path d="M97.0423 76.043C97.0423 76.7397 91.6634 77.3037 84.7499 77.3037C77.8364 77.3037 72.4575 76.7397 72.4575 76.043L72.2324 73.3047H97.2809L97.0423 76.043Z" fill="#FF6900"/>
<path d="M84.7499 74.5628C91.6631 74.5628 97.2673 73.9996 97.2673 73.3049C97.2673 72.6101 91.6631 72.0469 84.7499 72.0469C77.8367 72.0469 72.2324 72.6101 72.2324 73.3049C72.2324 73.9996 77.8367 74.5628 84.7499 74.5628Z" fill="#FF6900"/>
<path opacity="0.3" d="M84.7499 74.5628C91.6631 74.5628 97.2673 73.9996 97.2673 73.3049C97.2673 72.6101 91.6631 72.0469 84.7499 72.0469C77.8367 72.0469 72.2324 72.6101 72.2324 73.3049C72.2324 73.9996 77.8367 74.5628 84.7499 74.5628Z" fill="black"/>
<path opacity="0.2" d="M76.0797 93.7179C75.8362 93.7172 75.6028 93.6201 75.4306 93.4479C75.2584 93.2757 75.1614 93.0423 75.1606 92.7988V80.2081C75.1614 79.9646 75.2584 79.7313 75.4306 79.559C75.6028 79.3868 75.8362 79.2898 76.0797 79.2891C76.323 79.2905 76.556 79.3878 76.728 79.5598C76.9001 79.7319 76.9974 79.9648 76.9988 80.2081V92.7988C76.9974 93.0421 76.9001 93.2751 76.728 93.4471C76.556 93.6192 76.323 93.7165 76.0797 93.7179Z" fill="black"/>
<path opacity="0.2" d="M93.423 93.7179C93.1795 93.7172 92.9461 93.6201 92.7739 93.4479C92.6017 93.2757 92.5046 93.0423 92.5039 92.7988V80.2081C92.5046 79.9646 92.6017 79.7313 92.7739 79.559C92.9461 79.3868 93.1795 79.2898 93.423 79.2891C93.6663 79.2905 93.8993 79.3878 94.0713 79.5598C94.2434 79.7319 94.3407 79.9648 94.3421 80.2081V92.7988C94.3407 93.0421 94.2434 93.2751 94.0713 93.4471C93.8993 93.6192 93.6663 93.7165 93.423 93.7179Z" fill="black"/>
<path opacity="0.2" d="M87.6403 93.7179C87.397 93.7165 87.164 93.6192 86.992 93.4471C86.8199 93.2751 86.7226 93.0421 86.7212 92.7988V80.2081C86.7226 79.9648 86.8199 79.7319 86.992 79.5598C87.164 79.3878 87.397 79.2905 87.6403 79.2891C87.8838 79.2898 88.1172 79.3868 88.2894 79.559C88.4616 79.7313 88.5586 79.9646 88.5594 80.2081V92.7988C88.5586 93.0423 88.4616 93.2757 88.2894 93.4479C88.1172 93.6201 87.8838 93.7172 87.6403 93.7179Z" fill="black"/>
<path opacity="0.2" d="M81.86 93.7179C81.6167 93.7165 81.3837 93.6192 81.2117 93.4471C81.0396 93.2751 80.9423 93.0421 80.9409 92.7988V80.2081C80.9423 79.9648 81.0396 79.7319 81.2117 79.5598C81.3837 79.3878 81.6167 79.2905 81.86 79.2891C82.1035 79.2898 82.3369 79.3868 82.5091 79.559C82.6813 79.7313 82.7784 79.9646 82.7791 80.2081V92.7988C82.7784 93.0423 82.6813 93.2757 82.5091 93.4479C82.3369 93.6201 82.1035 93.7172 81.86 93.7179Z" fill="black"/>
<path d="M52.514 22.8283C52.514 23.0771 52.4402 23.3203 52.302 23.5272C52.1638 23.7341 51.9673 23.8953 51.7374 23.9905C51.5076 24.0857 51.2546 24.1106 51.0106 24.0621C50.7666 24.0136 50.5424 23.8938 50.3665 23.7178C50.1906 23.5419 50.0708 23.3177 50.0222 23.0737C49.9737 22.8297 49.9986 22.5768 50.0938 22.3469C50.189 22.117 50.3503 21.9205 50.5571 21.7823C50.764 21.6441 51.0072 21.5703 51.256 21.5703C51.5897 21.5703 51.9096 21.7028 52.1456 21.9388C52.3815 22.1747 52.514 22.4947 52.514 22.8283Z" fill="#263238"/>
<path d="M50.2452 23.0081C50.2329 23.0085 50.2208 23.0053 50.2103 22.9991C50.1997 22.9929 50.1911 22.9838 50.1855 22.9729C50.1024 22.8202 50.0502 22.6525 50.0318 22.4796C50.0135 22.3067 50.0293 22.1318 50.0786 21.965C50.1278 21.7983 50.2094 21.6428 50.3187 21.5075C50.428 21.3723 50.5628 21.2599 50.7156 21.1767C50.8683 21.0936 51.0359 21.0414 51.2089 21.023C51.3818 21.0047 51.5566 21.0206 51.7234 21.0698C51.8902 21.119 52.0457 21.2006 52.1809 21.3099C52.3162 21.4192 52.4286 21.554 52.5117 21.7068C52.5197 21.7227 52.5213 21.7411 52.5163 21.7582C52.5113 21.7753 52.4999 21.7899 52.4846 21.799C52.4768 21.8033 52.4682 21.806 52.4593 21.8069C52.4504 21.8079 52.4414 21.8071 52.4329 21.8046C52.4243 21.802 52.4163 21.7979 52.4094 21.7922C52.4024 21.7866 52.3967 21.7797 52.3924 21.7718C52.2418 21.495 51.9873 21.2894 51.6851 21.2001C51.3828 21.1109 51.0575 21.1454 50.7806 21.296C50.5038 21.4467 50.2982 21.7011 50.2089 22.0034C50.1197 22.3057 50.1542 22.631 50.3048 22.9078C50.3091 22.9157 50.3118 22.9243 50.3128 22.9331C50.3138 22.942 50.3129 22.951 50.3104 22.9596C50.3079 22.9681 50.3037 22.9761 50.2981 22.983C50.2925 22.99 50.2856 22.9958 50.2777 23C50.2676 23.0052 50.2565 23.008 50.2452 23.0081Z" fill="#263238"/>
<path d="M49.0225 28.571C48.7775 28.57 48.5375 28.5011 48.3292 28.372C48.1209 28.2428 47.9525 28.0585 47.8427 27.8394C47.7329 27.6203 47.686 27.3751 47.7071 27.1309C47.7282 26.8868 47.8166 26.6533 47.9625 26.4563C48.0664 26.3171 48.1968 26.1997 48.3461 26.1108C48.4954 26.022 48.6608 25.9634 48.8327 25.9385C48.8415 25.9369 48.8505 25.9372 48.8591 25.9393C48.8678 25.9414 48.8759 25.9452 48.883 25.9505C48.8901 25.9559 48.8961 25.9626 48.9005 25.9703C48.9049 25.978 48.9077 25.9866 48.9087 25.9954C48.911 26.013 48.9063 26.0308 48.8957 26.045C48.885 26.0592 48.8693 26.0686 48.8517 26.0713C48.54 26.117 48.2592 26.2846 48.0711 26.5373C47.883 26.79 47.8029 27.1071 47.8486 27.4188C47.8943 27.7305 48.0619 28.0113 48.3146 28.1994C48.5673 28.3875 48.8843 28.4676 49.196 28.4219C49.214 28.419 49.2324 28.4234 49.2471 28.4341C49.2619 28.4448 49.2718 28.4609 49.2747 28.4788C49.2775 28.4968 49.2732 28.5152 49.2625 28.5299C49.2518 28.5447 49.2357 28.5546 49.2177 28.5575C49.153 28.566 49.0878 28.5706 49.0225 28.571Z" fill="#263238"/>
<path d="M55.8572 30.625C55.6029 30.6247 55.3542 30.5503 55.1415 30.4109C55.1264 30.4009 55.1157 30.3854 55.1116 30.3678C55.1076 30.3501 55.1105 30.3315 55.1198 30.316C55.1302 30.3013 55.1458 30.2912 55.1635 30.2876C55.1811 30.2841 55.1994 30.2875 55.2147 30.297C55.4789 30.4685 55.8005 30.528 56.1086 30.4624C56.4167 30.3968 56.6862 30.2115 56.8577 29.9473C57.0291 29.683 57.0886 29.3615 57.0231 29.0533C56.9575 28.7452 56.7722 28.4758 56.5079 28.3043C56.4928 28.2943 56.4821 28.2789 56.4781 28.2612C56.474 28.2435 56.4769 28.225 56.4862 28.2094C56.4966 28.1947 56.5123 28.1846 56.5299 28.1811C56.5475 28.1775 56.5659 28.1809 56.5811 28.1904C56.875 28.3818 57.0811 28.6818 57.1543 29.0248C57.2275 29.3678 57.1617 29.7258 56.9715 30.0205C56.8776 30.1671 56.7554 30.2934 56.612 30.3921C56.4686 30.4908 56.3069 30.5599 56.1365 30.5952C56.0446 30.6145 55.9511 30.6245 55.8572 30.625Z" fill="#263238"/>
<path d="M50.5515 26.7524C51.5337 26.7524 52.33 25.9561 52.33 24.9738C52.33 23.9916 51.5337 23.1953 50.5515 23.1953C49.5692 23.1953 48.7729 23.9916 48.7729 24.9738C48.7729 25.9561 49.5692 26.7524 50.5515 26.7524Z" fill="#263238"/>
<path d="M52.2209 29.0272C53.142 28.1061 53.142 26.6126 52.2209 25.6915C51.2997 24.7704 49.8063 24.7704 48.8851 25.6915C47.964 26.6126 47.964 28.1061 48.8851 29.0272C49.8063 29.9484 51.2997 29.9484 52.2209 29.0272Z" fill="#263238"/>
<path d="M50.801 32.9741C52.2414 32.9741 53.4092 31.8064 53.4092 30.366C53.4092 28.9255 52.2414 27.7578 50.801 27.7578C49.3606 27.7578 48.1929 28.9255 48.1929 30.366C48.1929 31.8064 49.3606 32.9741 50.801 32.9741Z" fill="#263238"/>
<path d="M55.9484 31.1364C56.2793 29.7345 55.411 28.3298 54.0091 27.9989C52.6072 27.668 51.2025 28.5362 50.8716 29.9382C50.5407 31.3401 51.4089 32.7448 52.8109 33.0757C54.2128 33.4066 55.6175 32.5383 55.9484 31.1364Z" fill="#263238"/>
<path d="M62.0607 35.9088C62.0607 36.1203 62.0607 36.3887 62.0797 36.6327C62.0986 36.8767 62.0986 37.137 62.1149 37.3891C62.1502 37.8934 62.1854 38.4031 62.2396 38.9101C62.3372 39.9277 62.4737 40.9407 62.649 41.9493C62.6951 42.1987 62.7358 42.4536 62.7873 42.703L62.9066 43.3184C62.9364 43.416 62.9066 43.3971 62.8686 43.3944C62.8307 43.3916 62.8686 43.4432 63.0286 43.4432C63.438 43.4021 63.8367 43.2873 64.2052 43.1043C64.4221 43.0067 64.6444 42.9009 64.8667 42.787C65.0891 42.6732 65.3141 42.543 65.5174 42.4292L66.3091 43.3428C66.1202 43.5592 65.9193 43.7646 65.7072 43.9583C65.4984 44.1571 65.2775 44.3427 65.0457 44.5141C64.8028 44.6969 64.5463 44.8609 64.2784 45.0048C63.9737 45.1711 63.6469 45.2935 63.3078 45.3681C63.0987 45.4137 62.8845 45.4319 62.6707 45.4223C62.4097 45.4072 62.154 45.3428 61.917 45.2325C61.6649 45.1142 61.4405 44.9442 61.2582 44.7337C61.1016 44.5506 60.9737 44.345 60.8786 44.1237C60.805 43.9543 60.7451 43.7793 60.6997 43.6004L60.5939 43.2046C60.518 42.9335 60.4557 42.6759 60.3906 42.4102C60.137 41.3444 59.9415 40.2655 59.805 39.1785C59.7372 38.6363 59.683 38.094 59.6505 37.5382C59.6342 37.2671 59.6206 36.996 59.6125 36.7086C59.6044 36.4212 59.6125 36.1664 59.6125 35.8438L62.0607 35.9088Z" fill="#FFB573"/>
<path d="M60.7452 33.0053C63.0578 34.7757 62.9657 38.1131 62.9657 38.1131L58.8284 39.1027C58.8284 39.1027 57.5596 35.7463 58.0747 34.5181C58.6115 33.2384 59.4438 32.0076 60.7452 33.0053Z" fill="#FF6900"/>
<path opacity="0.7" d="M60.7452 33.0053C63.0578 34.7757 62.9657 38.1131 62.9657 38.1131L58.8284 39.1027C58.8284 39.1027 57.5596 35.7463 58.0747 34.5181C58.6115 33.2384 59.4438 32.0076 60.7452 33.0053Z" fill="white"/>
<path d="M65.3626 42.7589L66.0458 41.6094L67.7592 43.4421C67.7592 43.4421 66.5311 44.2284 65.2568 43.6671L65.3626 42.7589Z" fill="#FFB573"/>
<path d="M66.8891 41.0547L69.0878 42.3506L67.7594 43.4378L66.0459 41.6051L66.8891 41.0547Z" fill="#FFB573"/>
<path d="M47.7998 95.953L50.1639 96.1807L51.6334 90.6418L49.2665 90.4141L47.7998 95.953Z" fill="#FFB573"/>
<path d="M35.6807 91.2939L37.8035 92.4055L40.3276 87.4006L38.2048 86.2891L35.6807 91.2939Z" fill="#FFB573"/>
<path d="M38.3701 91.4246L36.4723 89.4969C36.4408 89.4631 36.3978 89.4422 36.3518 89.4382C36.3057 89.4342 36.2598 89.4474 36.2229 89.4752L34.4796 90.7576C34.4373 90.7916 34.4027 90.8341 34.3779 90.8824C34.3531 90.9307 34.3386 90.9836 34.3356 91.0378C34.3325 91.0919 34.3409 91.1462 34.3601 91.1969C34.3793 91.2477 34.4089 91.2938 34.4471 91.3324C35.1195 91.9939 35.4773 92.2786 36.3124 93.1272C36.8275 93.6477 37.8848 94.8759 38.5952 95.597C39.3055 96.3182 40.0538 95.654 39.8233 95.2907C38.7877 93.664 38.6141 92.6419 38.5491 91.815C38.5373 91.6678 38.4739 91.5295 38.3701 91.4246Z" fill="#263238"/>
<path d="M50.5326 95.4534H47.6669C47.6156 95.4539 47.5659 95.4711 47.5253 95.5024C47.4847 95.5338 47.4554 95.5774 47.4419 95.6269L46.8291 97.8799C46.8138 97.9334 46.8113 97.9898 46.8218 98.0445C46.8323 98.0992 46.8555 98.1506 46.8895 98.1947C46.9236 98.2387 46.9675 98.2742 47.0177 98.2982C47.068 98.3221 47.1232 98.3339 47.1789 98.3326C48.1847 98.3326 48.6619 98.3326 49.9172 98.3326H53.7589C54.8027 98.3326 55.0223 97.278 54.5885 97.1804C52.6527 96.752 51.5357 96.161 50.9393 95.5971C50.8262 95.5003 50.6813 95.4491 50.5326 95.4534Z" fill="#263238"/>
<path opacity="0.2" d="M51.6307 90.6418L50.8742 93.4967H48.4478L49.2638 90.4141L51.6307 90.6418Z" fill="black"/>
<path opacity="0.2" d="M38.2022 86.2891L40.3278 87.4033L39.0264 89.9817L36.9009 88.8674L38.2022 86.2891Z" fill="black"/>
<path d="M60.0458 32.6595C60.0458 32.6595 61.0923 33.1177 57.5841 46.9988L47.8401 46.1557C48.3471 42.2055 48.5613 39.76 47.3711 31.4557C48.7601 31.293 50.1591 31.2305 51.5571 31.2686C53.0392 31.2911 54.5178 31.4188 55.9818 31.6509C57.3526 31.9182 58.709 32.2548 60.0458 32.6595Z" fill="#FF6900"/>
<path opacity="0.7" d="M60.0458 32.6595C60.0458 32.6595 61.0923 33.1177 57.5841 46.9988L47.8401 46.1557C48.3471 42.2055 48.5613 39.76 47.3711 31.4557C48.7601 31.293 50.1591 31.2305 51.5571 31.2686C53.0392 31.2911 54.5178 31.4188 55.9818 31.6509C57.3526 31.9182 58.709 32.2548 60.0458 32.6595Z" fill="white"/>
<path d="M51.5569 31.1797C51.5569 31.1797 51.0147 31.1797 50.3504 31.1797C49.9573 31.7843 51.6166 33.5492 53.7259 35.2844C54.2356 33.7038 55.0381 33.7092 55.0381 33.7092L51.5569 31.1797Z" fill="white"/>
<path d="M55.9791 31.6172C55.9791 31.6172 56.2258 31.6524 56.8168 31.788C57.2072 32.3926 57.4268 33.9054 56.2746 35.223C55.8218 33.5963 55.041 33.7427 55.041 33.7427L55.9791 31.6172Z" fill="white"/>
<path d="M52.4247 26.3203C52.5819 27.7681 52.6335 30.3871 51.5571 31.2655C51.5571 31.2655 52.7067 32.4421 55.0383 33.7381C56.73 32.5668 55.9818 31.6478 55.9818 31.6478C54.4255 31.1326 54.5692 29.9587 54.9407 28.8742L52.4247 26.3203Z" fill="#FFB573"/>
<path opacity="0.2" d="M53.4523 27.3594L54.9407 28.8695C54.8493 29.1205 54.7804 29.379 54.7346 29.6422C54.1382 29.5039 53.2706 28.8803 53.2598 28.2405C53.2702 27.9376 53.3354 27.639 53.4523 27.3594Z" fill="black"/>
<path d="M58.0151 21.6016C59.0128 22.4854 59.3056 24.6381 58.3567 26.0994C58.0718 24.618 57.9572 23.109 58.0151 21.6016Z" fill="#263238"/>
<path d="M52.1214 23.279C51.9479 25.6621 51.8259 26.668 52.8562 28.0425C54.407 30.1111 57.373 29.7994 58.2541 27.5166C59.0485 25.4588 59.1976 21.9072 57.0097 20.6546C56.5289 20.374 55.9842 20.2214 55.4276 20.2115C54.871 20.2015 54.3211 20.3346 53.8306 20.5979C53.3402 20.8613 52.9255 21.246 52.6262 21.7154C52.327 22.1849 52.1532 22.7232 52.1214 23.279Z" fill="#FFB573"/>
<path d="M51.8039 25.2012C53.5662 25.1334 54.5422 22.8289 54.1003 21.8556C56.0984 22.8967 59.1241 23.7155 58.7879 22.3762C58.3351 20.5678 56.1472 19.2421 53.455 20.2072C51.8961 20.885 50.5622 22.3762 51.8039 25.2012Z" fill="#263238"/>
<path d="M51.2669 25.2007C51.3421 25.6564 51.5933 26.0643 51.9663 26.3367C52.4652 26.6918 52.9207 26.296 52.9559 25.7185C52.9884 25.1953 52.7688 24.3819 52.1832 24.2572C52.055 24.2317 51.9224 24.2388 51.7976 24.2776C51.6728 24.3165 51.5596 24.386 51.4685 24.4798C51.3774 24.5736 51.3113 24.6887 51.276 24.8146C51.2408 24.9405 51.2377 25.0732 51.2669 25.2007Z" fill="#FFB573"/>
<path d="M57.584 46.9979C57.584 46.9979 59.7882 61.3807 58.5601 70.6203C57.6301 77.6016 51.6303 92.6648 51.6303 92.6648L47.7344 92.5591C47.7344 92.5591 51.7577 77.9594 52.5901 72.2253C54.0134 62.4055 50.4483 46.3906 50.4483 46.3906L57.584 46.9979Z" fill="#263238"/>
<path opacity="0.2" d="M53.7831 49.9453L51.7036 53.2231C52.3298 57.1096 52.7272 61.0294 52.8938 64.9625C55.8165 59.7299 54.4446 52.7134 53.7831 49.9453Z" fill="black"/>
<path d="M52.2377 92.8799L47.3413 92.7471L47.6395 91.1719L52.6986 91.2017L52.2377 92.8799Z" fill="#FF6900"/>
<path d="M55.453 46.834C55.453 46.834 53.8263 62.7594 50.1093 71.4243C47.1026 78.4191 39.9343 89.6081 39.9343 89.6081L37.0713 87.9326C37.0713 87.9326 41.6803 75.4911 43.9549 70.8279C49.5047 59.3949 44.3426 50.223 47.84 46.1562L55.453 46.834Z" fill="#263238"/>
<path d="M40.2467 89.8542L36.5947 87.8507L37.1885 86.2891L41.079 88.4851L40.2467 89.8542Z" fill="#FF6900"/>
<path d="M47.7425 45.5696L47.2274 46.4046C47.1894 46.4669 47.2626 46.5456 47.3765 46.5537L57.5949 47.4375C57.6816 47.4375 57.7603 47.4077 57.7684 47.3535L57.9338 46.4886C57.9338 46.429 57.8714 46.3721 57.7765 46.3639L47.9079 45.5099C47.8775 45.5053 47.8465 45.5083 47.8176 45.5187C47.7888 45.5292 47.7629 45.5466 47.7425 45.5696Z" fill="#FF6900"/>
<path d="M48.9734 46.7877L48.7022 46.766C48.6507 46.766 48.6128 46.7307 48.6182 46.6982L48.8405 45.5758C48.8405 45.5405 48.8974 45.5188 48.949 45.5243L49.2201 45.546C49.2743 45.546 49.3122 45.5812 49.3041 45.6137L49.0845 46.7362C49.0737 46.7687 49.0222 46.7931 48.9734 46.7877Z" fill="#263238"/>
<path d="M56.8441 47.4751L56.5729 47.4534C56.5187 47.4534 56.4808 47.4182 56.4889 47.3856L56.7112 46.2632C56.7112 46.2307 56.7654 46.2063 56.8169 46.2117L57.0881 46.2334C57.1396 46.2334 57.1775 46.2686 57.1721 46.3012L56.9498 47.4236C56.9444 47.4615 56.8847 47.4805 56.8441 47.4751Z" fill="#263238"/>
<path d="M52.9074 47.1341L52.6363 47.1097C52.5848 47.1097 52.5469 47.0744 52.5523 47.0419L52.7746 45.9195C52.7746 45.8869 52.8288 45.8625 52.883 45.8679L53.1542 45.8923C53.2057 45.8923 53.2436 45.9276 53.2382 45.9601L53.0159 47.0825C53.0105 47.1151 52.9617 47.1368 52.9074 47.1341Z" fill="#263238"/>
<path d="M55.8543 24.4669C55.8272 24.6594 55.9086 24.8302 56.0333 24.8465C56.158 24.8628 56.2827 24.7218 56.3044 24.5293C56.3261 24.3368 56.2475 24.166 56.1227 24.1497C55.998 24.1334 55.8787 24.2744 55.8543 24.4669Z" fill="#263238"/>
<path d="M58.0287 24.756C58.0043 24.9485 58.0857 25.1193 58.2104 25.1355C58.3351 25.1518 58.4598 25.0108 58.4815 24.8183C58.5032 24.6259 58.4273 24.455 58.3026 24.4388C58.1779 24.4225 58.0558 24.5635 58.0287 24.756Z" fill="#263238"/>
<path d="M58.2402 24.4377L58.7228 24.3672C58.7228 24.3672 58.4409 24.6952 58.2402 24.4377Z" fill="#263238"/>
<path d="M57.1748 24.9688C57.2878 25.4304 57.4629 25.8745 57.6954 26.2891C57.5881 26.3461 57.4697 26.379 57.3485 26.3856C57.2272 26.3921 57.1059 26.3722 56.9932 26.327L57.1748 24.9688Z" fill="#ED893E"/>
<path d="M55.865 26.9013C55.4837 26.777 55.1638 26.5124 54.9703 26.1611C54.9655 26.1499 54.965 26.1373 54.969 26.1257C54.973 26.1142 54.9812 26.1046 54.992 26.0988C55.0035 26.0931 55.0168 26.0922 55.029 26.0963C55.0412 26.1003 55.0513 26.109 55.0571 26.1205C55.1775 26.3317 55.3461 26.5115 55.5492 26.6453C55.7522 26.7791 55.984 26.8631 56.2256 26.8904C56.2378 26.8904 56.2495 26.8953 56.2582 26.9039C56.2668 26.9126 56.2717 26.9243 56.2717 26.9365C56.2717 26.9487 56.2668 26.9605 56.2582 26.9691C56.2495 26.9778 56.2378 26.9826 56.2256 26.9826C56.1027 26.9691 55.9818 26.9418 55.865 26.9013Z" fill="#263238"/>
<path d="M54.8648 23.3491C54.8491 23.3426 54.8351 23.3324 54.8242 23.3193C54.8152 23.3107 54.8081 23.3004 54.8033 23.289C54.7984 23.2776 54.7959 23.2653 54.7959 23.2529C54.7959 23.2405 54.7984 23.2282 54.8033 23.2168C54.8081 23.2054 54.8152 23.1951 54.8242 23.1865C54.957 23.0677 55.1167 22.9829 55.2896 22.9395C55.4624 22.896 55.6432 22.8952 55.8164 22.937C55.8283 22.9405 55.8393 22.9462 55.8489 22.9539C55.8585 22.9617 55.8664 22.9713 55.8723 22.9822C55.8781 22.993 55.8817 23.005 55.8828 23.0172C55.8839 23.0295 55.8825 23.0419 55.8788 23.0536C55.8719 23.0776 55.8557 23.0979 55.8339 23.1101C55.8121 23.1223 55.7863 23.1254 55.7622 23.1187C55.6196 23.087 55.4715 23.0896 55.3301 23.1263C55.1886 23.1631 55.058 23.233 54.9489 23.3302C54.9371 23.3392 54.9234 23.3456 54.9089 23.3489C54.8944 23.3521 54.8794 23.3522 54.8648 23.3491Z" fill="#263238"/>
<path d="M58.9428 23.9319C58.9286 23.9264 58.9157 23.9181 58.9048 23.9075C58.8098 23.796 58.6898 23.7084 58.5546 23.6519C58.4194 23.5953 58.2728 23.5715 58.1267 23.5822C58.1143 23.5849 58.1015 23.585 58.0891 23.5824C58.0767 23.5799 58.065 23.5747 58.0548 23.5673C58.0445 23.5598 58.036 23.5503 58.0297 23.5393C58.0234 23.5284 58.0195 23.5162 58.0182 23.5036C58.0143 23.4788 58.0204 23.4534 58.0352 23.4331C58.0499 23.4128 58.0721 23.3991 58.0969 23.3951C58.2739 23.3792 58.4521 23.4058 58.6167 23.4728C58.7813 23.5398 58.9275 23.6451 59.0431 23.7801C59.0562 23.7958 59.064 23.8153 59.0652 23.8357C59.0663 23.8561 59.0609 23.8764 59.0496 23.8935C59.0383 23.9105 59.0218 23.9235 59.0026 23.9304C58.9833 23.9374 58.9623 23.9379 58.9428 23.9319Z" fill="#263238"/>
<path d="M61.0867 44.3807C61.2623 43.8339 61.5438 43.3269 61.9152 42.8889C62.2867 42.4508 62.7408 42.0902 63.2516 41.8276C63.7624 41.565 64.3199 41.4056 64.8923 41.3585C65.4647 41.3114 66.0408 41.3775 66.5877 41.553C67.1346 41.7285 67.6415 42.01 68.0796 42.3815C68.5177 42.7529 68.8783 43.207 69.1409 43.7178C69.4034 44.2286 69.5628 44.7862 69.6099 45.3586C69.6571 45.931 69.591 46.5071 69.4154 47.054L67.7291 52.3299L59.4004 49.654L61.0867 44.3807Z" fill="#FF6900"/>
<path opacity="0.3" d="M61.0867 44.3807C61.2623 43.8339 61.5438 43.3269 61.9152 42.8889C62.2867 42.4508 62.7408 42.0902 63.2516 41.8276C63.7624 41.565 64.3199 41.4056 64.8923 41.3585C65.4647 41.3114 66.0408 41.3775 66.5877 41.553C67.1346 41.7285 67.6415 42.01 68.0796 42.3815C68.5177 42.7529 68.8783 43.207 69.1409 43.7178C69.4034 44.2286 69.5628 44.7862 69.6099 45.3586C69.6571 45.931 69.591 46.5071 69.4154 47.054L67.7291 52.3299L59.4004 49.654L61.0867 44.3807Z" fill="black"/>
<path d="M52.8694 41.7467L51.3458 46.4912C51.3235 46.5594 51.3149 46.6313 51.3205 46.7028C51.3262 46.7743 51.346 46.844 51.3788 46.9078C51.4116 46.9716 51.4567 47.0282 51.5115 47.0744C51.5663 47.1207 51.6298 47.1556 51.6982 47.1771L59.3979 49.6497L61.0897 44.3846C61.4447 43.2812 62.2232 42.3639 63.2541 41.8342C64.2851 41.3044 65.4842 41.2057 66.5879 41.5596L58.3704 38.9189C57.2659 38.5658 56.0665 38.6652 55.0352 39.1953C54.0039 39.7254 53.2251 40.643 52.8694 41.7467Z" fill="#FF6900"/>
<path d="M57.0011 45.3447L59.124 38.7375C59.1313 38.7138 59.1334 38.6888 59.1302 38.6642C59.127 38.6396 59.1186 38.616 59.1055 38.5949C59.0924 38.5738 59.0749 38.5558 59.0542 38.5421C59.0336 38.5283 59.0102 38.5192 58.9857 38.5152L56.8168 38.1953L56.5457 39.052L58.1263 39.559L56.3369 45.1278L57.0011 45.3447Z" fill="#263238"/>
<path d="M55.8732 44.9795C55.8242 45.1326 55.8216 45.2968 55.8659 45.4513C55.9102 45.6059 55.9992 45.7439 56.1219 45.8478C56.2445 45.9518 56.3952 46.0171 56.5549 46.0354C56.7146 46.0538 56.8762 46.0244 57.0192 45.951C57.1622 45.8776 57.2803 45.7635 57.3585 45.623C57.4367 45.4825 57.4715 45.322 57.4585 45.1618C57.4456 45.0016 57.3854 44.8488 57.2856 44.7227C57.1859 44.5966 57.051 44.5029 56.898 44.4535C56.7962 44.4206 56.6889 44.4081 56.5822 44.4167C56.4756 44.4253 56.3716 44.4549 56.2764 44.5038C56.1812 44.5527 56.0966 44.6198 56.0274 44.7014C55.9582 44.7831 55.9058 44.8775 55.8732 44.9795Z" fill="#263238"/>
<path d="M59.7996 50.4371L70.4816 53.8667C70.5204 53.8793 70.5613 53.8842 70.602 53.8809C70.6427 53.8777 70.6823 53.8664 70.7186 53.8477C70.7549 53.8291 70.7871 53.8034 70.8135 53.7722C70.8398 53.7411 70.8597 53.705 70.872 53.6661C70.885 53.6273 70.8901 53.5863 70.8871 53.5455C70.884 53.5047 70.8728 53.4649 70.8541 53.4285C70.8354 53.3921 70.8096 53.3599 70.7782 53.3336C70.7468 53.3074 70.7105 53.2877 70.6714 53.2757L59.3984 49.6562C59.348 49.813 59.3621 49.9833 59.4373 50.1297C59.5125 50.2762 59.6429 50.3867 59.7996 50.4371Z" fill="#FF6900"/>
<path opacity="0.2" d="M59.7996 50.4371L64.1646 51.8387C64.2036 51.8514 64.2447 51.8563 64.2855 51.8531C64.3264 51.8498 64.3662 51.8386 64.4027 51.82C64.4393 51.8013 64.4717 51.7757 64.4983 51.7445C64.5249 51.7133 64.5451 51.6771 64.5577 51.6381C64.5825 51.5597 64.5753 51.4747 64.5377 51.4016C64.5002 51.3285 64.4352 51.2732 64.3571 51.2477L59.3984 49.6562C59.348 49.813 59.3621 49.9833 59.4373 50.1297C59.5125 50.2762 59.6429 50.3867 59.7996 50.4371Z" fill="black"/>
<path d="M48.5184 35.282L48.3693 35.4474L48.2012 35.6399C48.0873 35.77 47.9734 35.911 47.865 36.0439C47.6427 36.315 47.4312 36.6051 47.2333 36.8979C46.4141 38.0574 45.7692 39.3307 45.3192 40.6772C45.2108 41.0134 45.1105 41.3496 45.0318 41.6939C45.0047 41.7942 45.002 41.8349 44.9884 41.881C44.9864 41.9207 44.9864 41.9606 44.9884 42.0003C44.9841 42.0427 44.9841 42.0854 44.9884 42.1277C44.9884 42.1765 45.0806 42.2904 45.3029 42.3988C45.5702 42.5191 45.8517 42.6047 46.1407 42.6537C46.838 42.7645 47.5441 42.8108 48.25 42.792C48.9874 42.792 49.7357 42.7269 50.484 42.6483C51.2323 42.5696 51.9914 42.472 52.7261 42.3609L53.0216 43.5348C51.5084 44.0273 49.9514 44.3732 48.372 44.5678C47.5404 44.676 46.6996 44.6942 45.8642 44.622C45.3865 44.5772 44.9175 44.4658 44.4706 44.2912C44.2026 44.1838 43.9507 44.0396 43.7223 43.8629C43.4533 43.6519 43.2317 43.3868 43.0717 43.0848C42.7962 42.5181 42.7226 41.8744 42.8629 41.2601C42.928 40.8453 43.0229 40.4468 43.134 40.0293C43.3468 39.2278 43.6298 38.4467 43.9799 37.695C44.3309 36.9415 44.7397 36.2164 45.2026 35.526C45.4358 35.1817 45.6852 34.8482 45.9455 34.5202C46.0783 34.3575 46.2166 34.1976 46.3522 34.0376L46.5718 33.8017C46.6504 33.7177 46.7128 33.6499 46.8212 33.5469L48.5184 35.282Z" fill="#FFB573"/>
<path d="M52.1345 42.6152L54.0323 41.6094L54.1163 43.6482C54.1163 43.6482 52.7607 44.2094 51.9854 43.5912L52.1345 42.6152Z" fill="#FFB573"/>
<path d="M55.5968 41.4531L55.3121 43.332L54.1192 43.6465L54.0352 41.6077L55.5968 41.4531Z" fill="#FFB573"/>
<path d="M47.3713 31.4622C46.1757 31.6737 44.5029 35.1006 44.5029 35.1006L47.515 37.8118C47.515 37.8118 49.909 35.1982 49.7816 33.642C49.6731 32.3271 48.8923 31.1911 47.3713 31.4622Z" fill="#FF6900"/>
<path opacity="0.7" d="M47.3713 31.4622C46.1757 31.6737 44.5029 35.1006 44.5029 35.1006L47.515 37.8118C47.515 37.8118 49.909 35.1982 49.7816 33.642C49.6731 32.3271 48.8923 31.1911 47.3713 31.4622Z" fill="white"/>
<path d="M39.3031 92.4689C39.2716 92.473 39.2397 92.473 39.2082 92.4689C38.9072 92.4526 38.5873 91.9917 38.4219 91.7206C38.4168 91.713 38.4141 91.704 38.4141 91.6948C38.4141 91.6856 38.4168 91.6767 38.4219 91.6691C38.4269 91.661 38.4343 91.6548 38.4431 91.6514C38.452 91.648 38.4616 91.6475 38.4707 91.6501C38.5683 91.6691 39.4115 91.8588 39.5172 92.1435C39.5282 92.1744 39.531 92.2077 39.5253 92.24C39.5196 92.2723 39.5056 92.3026 39.4847 92.3279C39.4413 92.3936 39.3775 92.4431 39.3031 92.4689ZM38.5629 91.7802C38.8042 92.1517 39.0428 92.374 39.2136 92.3848C39.2525 92.3856 39.2909 92.3762 39.3251 92.3577C39.3594 92.3392 39.3882 92.3121 39.4088 92.2791C39.4205 92.2672 39.4285 92.2521 39.4319 92.2358C39.4352 92.2194 39.4338 92.2025 39.4278 92.1869C39.3627 92.0134 38.8557 91.8507 38.5629 91.7802Z" fill="#FF6900"/>
<path d="M39.2157 91.7378C38.9657 91.8066 38.7034 91.8177 38.4485 91.7703C38.4405 91.7678 38.4333 91.7632 38.4276 91.757C38.4219 91.7508 38.4179 91.7433 38.4159 91.7351C38.4121 91.728 38.4102 91.7201 38.4102 91.712C38.4102 91.704 38.4121 91.6961 38.4159 91.689C38.4376 91.67 38.9311 91.1874 39.2754 91.2118C39.3179 91.2125 39.3597 91.2231 39.3974 91.2429C39.4351 91.2627 39.4676 91.291 39.4923 91.3257C39.5219 91.3574 39.5401 91.3981 39.544 91.4413C39.5479 91.4845 39.5374 91.5278 39.514 91.5643C39.4361 91.6531 39.3314 91.714 39.2157 91.7378ZM38.5623 91.6944C38.8335 91.7324 39.3404 91.6646 39.4462 91.5101C39.4624 91.4857 39.476 91.4477 39.4272 91.3854C39.4108 91.3615 39.389 91.342 39.3635 91.3283C39.3381 91.3146 39.3097 91.3072 39.2808 91.3067C39.0449 91.2905 38.7033 91.567 38.5623 91.6944Z" fill="#FF6900"/>
<path d="M51.5435 95.8287C51.2813 95.8224 51.0206 95.7888 50.7654 95.7284C50.7564 95.7252 50.7487 95.7193 50.7433 95.7115C50.7378 95.7038 50.7349 95.6945 50.7349 95.685C50.7349 95.6755 50.7378 95.6662 50.7433 95.6585C50.7487 95.6507 50.7564 95.6448 50.7654 95.6416C50.882 95.5847 51.9203 95.0994 52.1806 95.2838C52.2041 95.2998 52.2228 95.3218 52.2347 95.3476C52.2466 95.3734 52.2514 95.4019 52.2484 95.4302C52.2471 95.4831 52.2338 95.5351 52.2093 95.5821C52.1849 95.6291 52.15 95.6698 52.1074 95.7013C51.9373 95.8015 51.7401 95.8461 51.5435 95.8287ZM50.928 95.666C51.2344 95.723 51.8038 95.7989 52.0396 95.6226C52.0699 95.5989 52.0947 95.5689 52.1124 95.5348C52.1302 95.5007 52.1405 95.4631 52.1427 95.4247C52.145 95.4128 52.1437 95.4005 52.1389 95.3893C52.134 95.3782 52.1259 95.3688 52.1155 95.3624C51.9691 95.2621 51.3564 95.4762 50.9199 95.666H50.928Z" fill="#FF6900"/>
<path d="M50.7739 95.7006C50.7642 95.7033 50.7539 95.7033 50.7441 95.7006C50.7376 95.6945 50.7327 95.6868 50.7298 95.6783C50.727 95.6698 50.7263 95.6607 50.7279 95.6518C50.7279 95.6085 50.9746 94.5863 51.5412 94.6514C51.6822 94.6704 51.7201 94.7382 51.7283 94.7951C51.7635 95.0662 51.1101 95.5786 50.7983 95.7088L50.7739 95.7006ZM51.4843 94.7327C51.1264 94.7327 50.9176 95.3292 50.8471 95.5678C51.186 95.3889 51.6605 94.9632 51.6307 94.7978C51.6307 94.7843 51.6307 94.7463 51.5249 94.7355L51.4843 94.7327Z" fill="#FF6900"/>
<path d="M56.0713 24.1564L56.5512 24.0859C56.5512 24.0859 56.2665 24.414 56.0713 24.1564Z" fill="#263238"/>
<path d="M72.7528 46.821L62.2552 48.9899C62.0757 49.0236 61.8901 48.9858 61.7381 48.8845C61.5861 48.7831 61.4798 48.6264 61.4418 48.4477L60.9511 46.1703L60.7749 45.3298L61.084 44.3701C61.127 44.2323 61.1786 44.0974 61.2385 43.9661C61.2453 43.9453 61.2544 43.9253 61.2656 43.9065C61.4388 43.5115 61.672 43.1457 61.957 42.822L62.4992 42.7081L71.5003 40.8401C71.6798 40.8064 71.8654 40.8443 72.0174 40.9456C72.1694 41.0469 72.2757 41.2037 72.3136 41.3824L73.2707 45.9914C73.3099 46.1699 73.2776 46.3567 73.1808 46.5117C73.0841 46.6668 72.9304 46.7778 72.7528 46.821Z" fill="#FF6900"/>
<path opacity="0.3" d="M72.2322 41.1403L67.1678 46.2915L66.0833 45.8523L61.8647 44.1415L61.271 43.9002C61.4442 43.5053 61.6774 43.1395 61.9623 42.8158L62.5046 42.7019L71.5057 40.8339C71.6435 40.8064 71.7865 40.8209 71.916 40.8755C72.0456 40.9301 72.1557 41.0223 72.2322 41.1403Z" fill="black"/>
<path d="M72.2325 41.1447L66.0836 45.8648L65.6823 46.1739L61.8189 44.2571L61.2441 43.986C61.2509 43.9652 61.26 43.9452 61.2712 43.9264C61.4444 43.5314 61.6776 43.1656 61.9626 42.8419L62.5048 42.728L71.5059 40.86C71.6416 40.8303 71.7831 40.8415 71.9124 40.8921C72.0417 40.9428 72.1531 41.0307 72.2325 41.1447Z" fill="#FF6900"/>
<path opacity="0.2" d="M72.2325 41.1447L66.0836 45.8648L65.6823 46.1739L61.8189 44.2571L61.2441 43.986C61.2509 43.9652 61.26 43.9452 61.2712 43.9264C61.4444 43.5314 61.6776 43.1656 61.9626 42.8419L62.5048 42.728L71.5059 40.86C71.6416 40.8303 71.7831 40.8415 71.9124 40.8921C72.0417 40.9428 72.1531 41.0307 72.2325 41.1447Z" fill="white"/>
<path d="M85.5685 56.3313L82.3694 59.7799C82.2431 59.9143 82.0689 59.9934 81.8845 60C81.7002 60.0066 81.5208 59.9402 81.3852 59.8151L73.5391 52.5085C73.404 52.3826 73.3244 52.2083 73.3178 52.0238C73.3112 51.8392 73.3781 51.6596 73.5039 51.5244L76.7139 48.0758C76.7761 48.0082 76.851 47.9536 76.9345 47.9152C77.0179 47.8768 77.1081 47.8553 77.1999 47.852C77.2917 47.8487 77.3833 47.8637 77.4692 47.8961C77.5552 47.9284 77.6339 47.9775 77.7007 48.0405L85.5441 55.3471C85.6458 55.4417 85.7169 55.5645 85.7483 55.6997C85.7797 55.835 85.77 55.9766 85.7204 56.1063C85.6864 56.1913 85.6347 56.268 85.5685 56.3313Z" fill="#FF6900"/>
<path opacity="0.3" d="M85.7093 56.1205L78.5735 54.9574L76.917 47.9084C77.0434 47.8502 77.1843 47.8307 77.3218 47.8524C77.4593 47.8741 77.5873 47.936 77.6897 48.0304L85.5331 55.337C85.6397 55.4334 85.7139 55.5605 85.7454 55.7008C85.777 55.8411 85.7644 55.9877 85.7093 56.1205Z" fill="black"/>
<path d="M85.7093 56.1196L78.7606 54.0482L76.917 47.9318C77.0434 47.8736 77.1843 47.8541 77.3218 47.8758C77.4593 47.8975 77.5873 47.9595 77.6897 48.0538L85.5331 55.3604C85.6348 55.455 85.7058 55.5778 85.7372 55.7131C85.7686 55.8483 85.7589 55.9899 85.7093 56.1196Z" fill="#FF6900"/>
<path opacity="0.2" d="M85.7093 56.1196L78.7606 54.0482L76.917 47.9318C77.0434 47.8736 77.1843 47.8541 77.3218 47.8758C77.4593 47.8975 77.5873 47.9595 77.6897 48.0538L85.5331 55.3604C85.6348 55.455 85.7058 55.5778 85.7372 55.7131C85.7686 55.8483 85.7589 55.9899 85.7093 56.1196Z" fill="white"/>
<path d="M88.3583 62.0221L91.8828 66.1377C91.9501 66.2164 92.0007 66.308 92.0314 66.407C92.0621 66.5059 92.0724 66.6101 92.0615 66.7131C92.0505 66.8162 92.0187 66.9159 91.968 67.0062C91.9172 67.0965 91.8485 67.1755 91.7662 67.2384L84.1099 73.203C83.9812 73.2804 83.8283 73.3073 83.681 73.2782C83.5336 73.2491 83.4024 73.1663 83.3128 73.0457L80.5555 69.9008C80.5037 69.8403 80.4608 69.7727 80.4281 69.7001C80.3769 69.6004 80.3556 69.488 80.3666 69.3765C80.3777 69.2649 80.4207 69.1589 80.4904 69.0711L87.2684 61.9923C87.3742 61.8777 87.514 61.8001 87.6672 61.7708C87.8205 61.7415 87.979 61.7621 88.1197 61.8296C88.2107 61.8781 88.2916 61.9434 88.3583 62.0221Z" fill="#FF6900"/>
<path opacity="0.3" d="M88.1196 61.826L86.4359 69.3143L80.4388 69.6966C80.3876 69.5968 80.3663 69.4844 80.3774 69.3729C80.3884 69.2613 80.4314 69.1553 80.5012 69.0676L87.2791 61.9887C87.3842 61.8765 87.522 61.8003 87.673 61.7711C87.8239 61.7419 87.9802 61.7611 88.1196 61.826Z" fill="black"/>
<path d="M88.1196 61.8278L85.2973 69.7743L80.4335 69.6983C80.3823 69.5986 80.3609 69.4862 80.372 69.3747C80.383 69.2631 80.426 69.1571 80.4958 69.0694L87.2737 61.9905C87.3792 61.8771 87.518 61.8002 87.6701 61.7709C87.8222 61.7417 87.9796 61.7616 88.1196 61.8278Z" fill="#FF6900"/>
<path opacity="0.2" d="M88.1196 61.8278L85.2973 69.7743L80.4335 69.6983C80.3823 69.5986 80.3609 69.4862 80.372 69.3747C80.383 69.2631 80.426 69.1571 80.4958 69.0694L87.2737 61.9905C87.3792 61.8771 87.518 61.8002 87.6701 61.7709C87.8222 61.7417 87.9796 61.7616 88.1196 61.8278Z" fill="white"/>
</svg>
