<svg width="32" height="32" viewBox="0 0 32 32" fill="none" xmlns="http://www.w3.org/2000/svg">
<g clip-path="url(#clip0_237_17312)">
<path d="M4 11.9997C4 11.2924 4.28095 10.6142 4.78105 10.1141C5.28115 9.61396 5.95942 9.33301 6.66667 9.33301H25.3333C26.0406 9.33301 26.7189 9.61396 27.219 10.1141C27.719 10.6142 28 11.2924 28 11.9997V23.9997C28 24.7069 27.719 25.3852 27.219 25.8853C26.7189 26.3854 26.0406 26.6663 25.3333 26.6663H6.66667C5.95942 26.6663 5.28115 26.3854 4.78105 25.8853C4.28095 25.3852 4 24.7069 4 23.9997V11.9997Z" stroke="#FF6900" stroke-width="1.5" stroke-linecap="round" stroke-linejoin="round"/>
<path d="M10.6666 9.33333V6.66667C10.6666 5.95942 10.9476 5.28115 11.4477 4.78105C11.9478 4.28095 12.626 4 13.3333 4H18.6666C19.3739 4 20.0521 4.28095 20.5522 4.78105C21.0523 5.28115 21.3333 5.95942 21.3333 6.66667V9.33333" stroke="#FF6900" stroke-width="1.5" stroke-linecap="round" stroke-linejoin="round"/>
<path d="M16 16V16.0133" stroke="#FF6900" stroke-width="1.5" stroke-linecap="round" stroke-linejoin="round"/>
<path d="M4 17.333C7.72211 19.2086 11.832 20.1856 16 20.1856C20.168 20.1856 24.2779 19.2086 28 17.333" stroke="#1D1D1D" stroke-width="1.5" stroke-linecap="round" stroke-linejoin="round"/>
</g>
<defs>
<clipPath id="clip0_237_17312">
<rect width="32" height="32" fill="white"/>
</clipPath>
</defs>
</svg>
