<svg width="20" height="20" viewBox="0 0 20 20" fill="none" xmlns="http://www.w3.org/2000/svg">
<g clip-path="url(#clip0_925_2527)">
<path d="M14.5834 8.74997L15.4167 7.91663C15.6356 7.69776 15.8092 7.43793 15.9276 7.15196C16.0461 6.86599 16.1071 6.5595 16.1071 6.24997C16.1071 5.94044 16.0461 5.63394 15.9276 5.34797C15.8092 5.06201 15.6356 4.80217 15.4167 4.5833C15.1978 4.36443 14.938 4.19081 14.652 4.07236C14.3661 3.95391 14.0596 3.89294 13.75 3.89294C13.4405 3.89294 13.134 3.95391 12.848 4.07236C12.5621 4.19081 12.3022 4.36443 12.0834 4.5833L3.33337 13.3333V16.6666H6.66671L8.33337 15" stroke="#FF6900" stroke-width="1.5" stroke-linecap="round" stroke-linejoin="round"/>
<path d="M11.25 5.41663L14.5833 8.74996" stroke="#FF6900" stroke-width="1.5" stroke-linecap="round" stroke-linejoin="round"/>
<path d="M14.8333 17.3475L13.0233 18.2958C12.9696 18.3238 12.9091 18.3362 12.8488 18.3318C12.7884 18.3275 12.7304 18.3064 12.6813 18.2709C12.6322 18.2355 12.5939 18.1871 12.5707 18.1311C12.5475 18.0752 12.5403 18.0139 12.55 17.9541L12.8958 15.945L11.4316 14.5225C11.3879 14.4802 11.357 14.4265 11.3423 14.3676C11.3277 14.3086 11.3299 14.2466 11.3488 14.1889C11.3676 14.1311 11.4023 14.0797 11.449 14.0407C11.4956 14.0018 11.5522 13.9767 11.6125 13.9683L13.6358 13.675L14.5408 11.8475C14.5679 11.793 14.6096 11.7473 14.6612 11.7152C14.7129 11.6832 14.7725 11.6663 14.8333 11.6663C14.8941 11.6663 14.9537 11.6832 15.0053 11.7152C15.057 11.7473 15.0987 11.793 15.1258 11.8475L16.0308 13.675L18.0541 13.9683C18.1142 13.9769 18.1706 14.0022 18.217 14.0412C18.2634 14.0803 18.298 14.1315 18.3168 14.1892C18.3356 14.2468 18.3379 14.3086 18.3235 14.3675C18.309 14.4264 18.2783 14.4801 18.235 14.5225L16.7708 15.945L17.1158 17.9533C17.1261 18.0132 17.1195 18.0748 17.0966 18.1311C17.0737 18.1874 17.0355 18.2362 16.9863 18.2718C16.9371 18.3075 16.8788 18.3286 16.8182 18.3329C16.7576 18.3371 16.697 18.3243 16.6433 18.2958L14.8333 17.3475Z" stroke="#1D1D1D" stroke-width="1.5" stroke-linecap="round" stroke-linejoin="round"/>
</g>
<defs>
<clipPath id="clip0_925_2527">
<rect width="20" height="20" fill="white"/>
</clipPath>
</defs>
</svg>
