<svg width="20" height="20" viewBox="0 0 20 20" fill="none" xmlns="http://www.w3.org/2000/svg">
<g clip-path="url(#clip0_925_2608)">
<path d="M8.33325 10.8333C8.33325 11.2753 8.50885 11.6992 8.82141 12.0118C9.13397 12.3244 9.55789 12.5 9.99992 12.5C10.4419 12.5 10.8659 12.3244 11.1784 12.0118C11.491 11.6992 11.6666 11.2753 11.6666 10.8333C11.6666 10.3913 11.491 9.96734 11.1784 9.65478C10.8659 9.34222 10.4419 9.16663 9.99992 9.16663C9.55789 9.16663 9.13397 9.34222 8.82141 9.65478C8.50885 9.96734 8.33325 10.3913 8.33325 10.8333Z" stroke="#FF6900" stroke-width="1.5" stroke-linecap="round" stroke-linejoin="round"/>
<path d="M6.66675 17.5V16.6667C6.66675 16.2246 6.84234 15.8007 7.1549 15.4882C7.46746 15.1756 7.89139 15 8.33341 15H11.6667C12.1088 15 12.5327 15.1756 12.8453 15.4882C13.1578 15.8007 13.3334 16.2246 13.3334 16.6667V17.5" stroke="#FF6900" stroke-width="1.5" stroke-linecap="round" stroke-linejoin="round"/>
<path d="M12.5 4.16667C12.5 4.60869 12.6756 5.03262 12.9882 5.34518C13.3007 5.65774 13.7246 5.83333 14.1667 5.83333C14.6087 5.83333 15.0326 5.65774 15.3452 5.34518C15.6577 5.03262 15.8333 4.60869 15.8333 4.16667C15.8333 3.72464 15.6577 3.30072 15.3452 2.98816C15.0326 2.67559 14.6087 2.5 14.1667 2.5C13.7246 2.5 13.3007 2.67559 12.9882 2.98816C12.6756 3.30072 12.5 3.72464 12.5 4.16667Z" stroke="#FF6900" stroke-width="1.5" stroke-linecap="round" stroke-linejoin="round"/>
<path d="M14.1667 8.33337H15.8334C16.2754 8.33337 16.6994 8.50897 17.0119 8.82153C17.3245 9.13409 17.5001 9.55801 17.5001 10V10.8334" stroke="#1D1D1D" stroke-width="1.5" stroke-linecap="round" stroke-linejoin="round"/>
<path d="M4.16675 4.16667C4.16675 4.60869 4.34234 5.03262 4.6549 5.34518C4.96746 5.65774 5.39139 5.83333 5.83341 5.83333C6.27544 5.83333 6.69937 5.65774 7.01193 5.34518C7.32449 5.03262 7.50008 4.60869 7.50008 4.16667C7.50008 3.72464 7.32449 3.30072 7.01193 2.98816C6.69937 2.67559 6.27544 2.5 5.83341 2.5C5.39139 2.5 4.96746 2.67559 4.6549 2.98816C4.34234 3.30072 4.16675 3.72464 4.16675 4.16667Z" stroke="#1D1D1D" stroke-width="2" stroke-linecap="round" stroke-linejoin="round"/>
<path d="M2.5 10.8334V10C2.5 9.55801 2.67559 9.13409 2.98816 8.82153C3.30072 8.50897 3.72464 8.33337 4.16667 8.33337H5.83333" stroke="#1D1D1D" stroke-width="2" stroke-linecap="round" stroke-linejoin="round"/>
</g>
<defs>
<clipPath id="clip0_925_2608">
<rect width="20" height="20" fill="white"/>
</clipPath>
</defs>
</svg>
