<svg width="20" height="20" viewBox="0 0 20 20" fill="none" xmlns="http://www.w3.org/2000/svg">
<g clip-path="url(#clip0_925_2579)">
<path d="M8.75 16.6667H4.16667C3.72464 16.6667 3.30072 16.4911 2.98816 16.1786C2.67559 15.866 2.5 15.4421 2.5 15V7.50004C2.5 7.05801 2.67559 6.63409 2.98816 6.32153C3.30072 6.00897 3.72464 5.83337 4.16667 5.83337H5C5.44203 5.83337 5.86595 5.65778 6.17851 5.34522C6.49107 5.03266 6.66667 4.60873 6.66667 4.16671C6.66667 3.94569 6.75446 3.73373 6.91074 3.57745C7.06702 3.42117 7.27899 3.33337 7.5 3.33337H12.5C12.721 3.33337 12.933 3.42117 13.0893 3.57745C13.2455 3.73373 13.3333 3.94569 13.3333 4.16671C13.3333 4.60873 13.5089 5.03266 13.8215 5.34522C14.134 5.65778 14.558 5.83337 15 5.83337H15.8333C16.2754 5.83337 16.6993 6.00897 17.0118 6.32153C17.3244 6.63409 17.5 7.05801 17.5 7.50004V9.16671" stroke="#FF6900" stroke-width="1.5" stroke-linecap="round" stroke-linejoin="round"/>
<path d="M12.0083 9.34331C11.793 9.05319 11.5174 8.81317 11.2004 8.63979C10.8835 8.46642 10.5327 8.36381 10.1722 8.33902C9.8118 8.31423 9.45028 8.36787 9.11256 8.49622C8.77484 8.62458 8.46895 8.8246 8.21596 9.08253C7.96298 9.34046 7.7689 9.65015 7.64709 9.99029C7.52529 10.3304 7.47866 10.6929 7.5104 11.0528C7.54215 11.4127 7.65153 11.7614 7.83099 12.075C8.01046 12.3886 8.25576 12.6595 8.55 12.8691" stroke="#1D1D1D" stroke-width="1.5" stroke-linecap="round" stroke-linejoin="round"/>
<path d="M14.9999 18.3334L17.7916 15.5967C17.9628 15.4306 18.099 15.2319 18.1921 15.0122C18.2852 14.7926 18.3334 14.5566 18.3338 14.318C18.3342 14.0795 18.2868 13.8433 18.1944 13.6233C18.102 13.4034 17.9664 13.2042 17.7958 13.0376C17.4475 12.697 16.9801 12.5059 16.493 12.505C16.006 12.504 15.5378 12.6933 15.1883 13.0326L15.0016 13.2159L14.8158 13.0326C14.4676 12.6922 14.0003 12.5013 13.5135 12.5004C13.0266 12.4994 12.5586 12.6886 12.2091 13.0276C12.0379 13.1936 11.9016 13.3923 11.8084 13.6119C11.7152 13.8315 11.667 14.0675 11.6665 14.3061C11.666 14.5446 11.7134 14.7809 11.8057 15.0008C11.898 15.2208 12.0335 15.42 12.2041 15.5867L14.9999 18.3334Z" stroke="#363636" stroke-width="2" stroke-linecap="round" stroke-linejoin="round"/>
</g>
<defs>
<clipPath id="clip0_925_2579">
<rect width="20" height="20" fill="white"/>
</clipPath>
</defs>
</svg>
