<svg width="16" height="17" viewBox="0 0 16 17" fill="none" xmlns="http://www.w3.org/2000/svg">
<g clip-path="url(#clip0_358_22820)">
<path d="M14 8.5C14 9.28793 13.8448 10.0681 13.5433 10.7961C13.2417 11.5241 12.7998 12.1855 12.2426 12.7426C11.6855 13.2998 11.0241 13.7417 10.2961 14.0433C9.56815 14.3448 8.78793 14.5 8 14.5C7.21207 14.5 6.43185 14.3448 5.7039 14.0433C4.97595 13.7417 4.31451 13.2998 3.75736 12.7426C3.20021 12.1855 2.75825 11.5241 2.45672 10.7961C2.15519 10.0681 2 9.28793 2 8.5C2 6.9087 2.63214 5.38258 3.75736 4.25736C4.88258 3.13214 6.4087 2.5 8 2.5C9.5913 2.5 11.1174 3.13214 12.2426 4.25736C13.3679 5.38258 14 6.9087 14 8.5Z" stroke="#4F4F4F" stroke-width="1.5" stroke-linecap="round" stroke-linejoin="round"/>
<path d="M9.33335 6.50033C9.33335 6.85395 9.19288 7.19309 8.94283 7.44313C8.69278 7.69318 8.35364 7.83366 8.00002 7.83366C7.6464 7.83366 7.30726 7.69318 7.05721 7.44313C6.80716 7.19309 6.66669 6.85395 6.66669 6.50033C6.66669 6.1467 6.80716 5.80756 7.05721 5.55752C7.30726 5.30747 7.6464 5.16699 8.00002 5.16699C8.35364 5.16699 8.69278 5.30747 8.94283 5.55752C9.19288 5.80756 9.33335 6.1467 9.33335 6.50033Z" stroke="#4F4F4F" stroke-width="1.5" stroke-linecap="round" stroke-linejoin="round"/>
<path d="M8 11.167H8.00667" stroke="#4F4F4F" stroke-width="1.5" stroke-linecap="round" stroke-linejoin="round"/>
</g>
<defs>
<clipPath id="clip0_358_22820">
<rect width="16" height="16" fill="white" transform="translate(0 0.5)"/>
</clipPath>
</defs>
</svg>
