<svg width="16" height="17" viewBox="0 0 16 17" fill="none" xmlns="http://www.w3.org/2000/svg">
<g clip-path="url(#clip0_381_12863)">
<path d="M5.66667 6.83333C6.03486 6.83333 6.33333 6.53486 6.33333 6.16667C6.33333 5.79848 6.03486 5.5 5.66667 5.5C5.29848 5.5 5 5.79848 5 6.16667C5 6.53486 5.29848 6.83333 5.66667 6.83333Z" fill="#363636" stroke="#1D1D1D" stroke-width="1.5" stroke-linecap="round" stroke-linejoin="round"/>
<path d="M2.6665 5.16602V7.73868C2.6665 8.09668 2.8085 8.44002 3.06184 8.69335L8.4725 14.104C8.59787 14.2294 8.7467 14.3289 8.9105 14.3967C9.0743 14.4646 9.24987 14.4995 9.42717 14.4995C9.60447 14.4995 9.78004 14.4646 9.94384 14.3967C10.1076 14.3289 10.2565 14.2294 10.3818 14.104L13.6045 10.8813C13.7299 10.756 13.8293 10.6072 13.8972 10.4434C13.9651 10.2795 14 10.104 14 9.92668C14 9.74938 13.9651 9.57382 13.8972 9.41001C13.8293 9.24621 13.7299 9.09738 13.6045 8.97202L8.19317 3.56135C7.94013 3.30835 7.597 3.16615 7.23917 3.16602H4.6665C4.13607 3.16602 3.62736 3.37673 3.25229 3.7518C2.87722 4.12687 2.6665 4.63558 2.6665 5.16602Z" stroke="#1D1D1D" stroke-width="1.5" stroke-linecap="round" stroke-linejoin="round"/>
</g>
<defs>
<clipPath id="clip0_381_12863">
<rect width="16" height="16" fill="white" transform="translate(0 0.5)"/>
</clipPath>
</defs>
</svg>
