<svg width="16" height="16" viewBox="0 0 16 16" fill="none" xmlns="http://www.w3.org/2000/svg">
<g clip-path="url(#clip0_313_9529)">
<path d="M7.33333 8.00065C7.33333 8.17746 7.40357 8.34703 7.5286 8.47206C7.65362 8.59708 7.82319 8.66732 8 8.66732C8.17681 8.66732 8.34638 8.59708 8.47141 8.47206C8.59643 8.34703 8.66667 8.17746 8.66667 8.00065C8.66667 7.82384 8.59643 7.65427 8.47141 7.52925C8.34638 7.40422 8.17681 7.33398 8 7.33398C7.82319 7.33398 7.65362 7.40422 7.5286 7.52925C7.40357 7.65427 7.33333 7.82384 7.33333 8.00065Z" stroke="#FF6900" stroke-linecap="round" stroke-linejoin="round"/>
<path d="M8 4.66602C7.34073 4.66602 6.69626 4.86151 6.1481 5.22778C5.59993 5.59405 5.17269 6.11465 4.9204 6.72374C4.66811 7.33282 4.6021 8.00305 4.73071 8.64965C4.85933 9.29625 5.1768 9.8902 5.64298 10.3564C6.10915 10.8225 6.70309 11.14 7.3497 11.2686C7.9963 11.3973 8.66652 11.3312 9.27561 11.0789C9.8847 10.8267 10.4053 10.3994 10.7716 9.85125C11.1378 9.30309 11.3333 8.65862 11.3333 7.99935" stroke="#FF6900" stroke-linecap="round" stroke-linejoin="round"/>
<path d="M8.66667 2.03741C7.43071 1.89875 6.18221 2.1476 5.09387 2.74953C4.00552 3.35145 3.13112 4.27671 2.59163 5.39732C2.05213 6.51792 1.8742 7.77848 2.08244 9.00463C2.29068 10.2308 2.87481 11.3619 3.75403 12.2416C4.63324 13.1212 5.76408 13.7059 6.99013 13.9148C8.21617 14.1237 9.47683 13.9464 10.5977 13.4074C11.7186 12.8685 12.6443 11.9946 13.2468 10.9065C13.8492 9.81848 14.0987 8.5701 13.9607 7.33408" stroke="#FF6900" stroke-linecap="round" stroke-linejoin="round"/>
<path d="M10 4V6H12L14 4H12V2L10 4Z" stroke="#FF6900" stroke-linecap="round" stroke-linejoin="round"/>
<path d="M10 6L8 8" stroke="#FF6900" stroke-linecap="round" stroke-linejoin="round"/>
</g>
<defs>
<clipPath id="clip0_313_9529">
<rect width="16" height="16" fill="white"/>
</clipPath>
</defs>
</svg>
