<svg width="16" height="16" viewBox="0 0 16 16" fill="none" xmlns="http://www.w3.org/2000/svg">
<g clip-path="url(#clip0_431_22255)">
<path d="M10 6.66577L13.0353 5.14844C13.1369 5.09766 13.2499 5.07369 13.3633 5.0788C13.4768 5.08391 13.5871 5.11793 13.6837 5.17764C13.7804 5.23735 13.8602 5.32075 13.9155 5.41995C13.9709 5.51915 13.9999 5.63084 14 5.74444V10.2538C13.9999 10.3674 13.9709 10.4791 13.9155 10.5783C13.8602 10.6775 13.7804 10.7609 13.6837 10.8206C13.5871 10.8803 13.4768 10.9143 13.3633 10.9194C13.2499 10.9245 13.1369 10.9005 13.0353 10.8498L10 9.33244V6.66577Z" stroke="white" stroke-linecap="round" stroke-linejoin="round"/>
<path d="M2 5.33333C2 4.97971 2.14048 4.64057 2.39052 4.39052C2.64057 4.14048 2.97971 4 3.33333 4H8.66667C9.02029 4 9.35943 4.14048 9.60948 4.39052C9.85952 4.64057 10 4.97971 10 5.33333V10.6667C10 11.0203 9.85952 11.3594 9.60948 11.6095C9.35943 11.8595 9.02029 12 8.66667 12H3.33333C2.97971 12 2.64057 11.8595 2.39052 11.6095C2.14048 11.3594 2 11.0203 2 10.6667V5.33333Z" stroke="#FF6900" stroke-linecap="round" stroke-linejoin="round"/>
</g>
<defs>
<clipPath id="clip0_431_22255">
<rect width="16" height="16" fill="white"/>
</clipPath>
</defs>
</svg>
