<svg width="16" height="16" viewBox="0 0 16 16" fill="none" xmlns="http://www.w3.org/2000/svg">
<g clip-path="url(#clip0_616_1543)">
<path d="M5.3335 4.66667C5.3335 5.37391 5.61445 6.05219 6.11454 6.55229C6.61464 7.05238 7.29292 7.33333 8.00016 7.33333C8.70741 7.33333 9.38568 7.05238 9.88578 6.55229C10.3859 6.05219 10.6668 5.37391 10.6668 4.66667C10.6668 3.95942 10.3859 3.28115 9.88578 2.78105C9.38568 2.28095 8.70741 2 8.00016 2C7.29292 2 6.61464 2.28095 6.11454 2.78105C5.61445 3.28115 5.3335 3.95942 5.3335 4.66667Z" stroke="#4F4F4F" stroke-width="1.5" stroke-linecap="round" stroke-linejoin="round"/>
<path d="M4 14V12.6667C4 11.9594 4.28095 11.2811 4.78105 10.781C5.28115 10.281 5.95942 10 6.66667 10H7.66667" stroke="#4F4F4F" stroke-width="1.5" stroke-linecap="round" stroke-linejoin="round"/>
<path d="M10 12C10 12.5304 10.2107 13.0391 10.5858 13.4142C10.9609 13.7893 11.4696 14 12 14C12.5304 14 13.0391 13.7893 13.4142 13.4142C13.7893 13.0391 14 12.5304 14 12C14 11.4696 13.7893 10.9609 13.4142 10.5858C13.0391 10.2107 12.5304 10 12 10C11.4696 10 10.9609 10.2107 10.5858 10.5858C10.2107 10.9609 10 11.4696 10 12Z" stroke="#4F4F4F" stroke-width="1.5" stroke-linecap="round" stroke-linejoin="round"/>
<path d="M13.4668 13.4667L14.6668 14.6667" stroke="#4F4F4F" stroke-width="1.5" stroke-linecap="round" stroke-linejoin="round"/>
</g>
<defs>
<clipPath id="clip0_616_1543">
<rect width="16" height="16" fill="white"/>
</clipPath>
</defs>
</svg>
