<svg width="16" height="16" viewBox="0 0 16 16" fill="none" xmlns="http://www.w3.org/2000/svg">
<g clip-path="url(#clip0_486_34462)">
<path d="M5.33334 4.66667C5.33334 5.37391 5.61429 6.05219 6.11439 6.55229C6.61449 7.05238 7.29277 7.33333 8.00001 7.33333C8.70725 7.33333 9.38553 7.05238 9.88563 6.55229C10.3857 6.05219 10.6667 5.37391 10.6667 4.66667C10.6667 3.95942 10.3857 3.28115 9.88563 2.78105C9.38553 2.28095 8.70725 2 8.00001 2C7.29277 2 6.61449 2.28095 6.11439 2.78105C5.61429 3.28115 5.33334 3.95942 5.33334 4.66667Z" stroke="#1D1D1D" stroke-width="1.5" stroke-linecap="round" stroke-linejoin="round"/>
<path d="M4 14V12.6667C4 11.9594 4.28095 11.2811 4.78105 10.781C5.28115 10.281 5.95942 10 6.66667 10H9" stroke="#1D1D1D" stroke-width="1.5" stroke-linecap="round" stroke-linejoin="round"/>
<path d="M12.28 10.4062C12.41 10.2762 12.5644 10.173 12.7342 10.1027C12.9041 10.0323 13.0861 9.99609 13.27 9.99609C13.4539 9.99609 13.6359 10.0323 13.8058 10.1027C13.9756 10.173 14.13 10.2762 14.26 10.4062C14.39 10.5362 14.4931 10.6905 14.5635 10.8604C14.6339 11.0302 14.6701 11.2123 14.6701 11.3962C14.6701 11.58 14.6339 11.7621 14.5635 11.9319C14.4931 12.1018 14.39 12.2562 14.26 12.3862L12 14.6662H10V12.6662L12.28 10.4062Z" stroke="#1D1D1D" stroke-width="1.5" stroke-linecap="round" stroke-linejoin="round"/>
</g>
<defs>
<clipPath id="clip0_486_34462">
<rect width="16" height="16" fill="white"/>
</clipPath>
</defs>
</svg>
