<svg width="16" height="17" viewBox="0 0 16 17" fill="none" xmlns="http://www.w3.org/2000/svg">
<g clip-path="url(#clip0_179_20466)">
<path d="M5.33331 5.16667C5.33331 5.87391 5.61426 6.55219 6.11436 7.05229C6.61446 7.55238 7.29274 7.83333 7.99998 7.83333C8.70722 7.83333 9.3855 7.55238 9.8856 7.05229C10.3857 6.55219 10.6666 5.87391 10.6666 5.16667C10.6666 4.45942 10.3857 3.78115 9.8856 3.28105C9.3855 2.78095 8.70722 2.5 7.99998 2.5C7.29274 2.5 6.61446 2.78095 6.11436 3.28105C5.61426 3.78115 5.33331 4.45942 5.33331 5.16667Z" stroke="#4F4F4F" stroke-width="1.5" stroke-linecap="round" stroke-linejoin="round"/>
<path d="M4 14.5V13.1667C4 12.4594 4.28095 11.7811 4.78105 11.281C5.28115 10.781 5.95942 10.5 6.66667 10.5H7.66667" stroke="#4F4F4F" stroke-width="1.5" stroke-linecap="round" stroke-linejoin="round"/>
<path d="M10 12.5C10 13.0304 10.2107 13.5391 10.5858 13.9142C10.9609 14.2893 11.4696 14.5 12 14.5C12.5304 14.5 13.0391 14.2893 13.4142 13.9142C13.7893 13.5391 14 13.0304 14 12.5C14 11.9696 13.7893 11.4609 13.4142 11.0858C13.0391 10.7107 12.5304 10.5 12 10.5C11.4696 10.5 10.9609 10.7107 10.5858 11.0858C10.2107 11.4609 10 11.9696 10 12.5Z" stroke="#4F4F4F" stroke-width="1.5" stroke-linecap="round" stroke-linejoin="round"/>
<path d="M13.4667 13.9668L14.6667 15.1668" stroke="#4F4F4F" stroke-width="1.5" stroke-linecap="round" stroke-linejoin="round"/>
</g>
<defs>
<clipPath id="clip0_179_20466">
<rect width="16" height="16" fill="white" transform="translate(0 0.5)"/>
</clipPath>
</defs>
</svg>
