<svg width="16" height="16" viewBox="0 0 16 16" fill="none" xmlns="http://www.w3.org/2000/svg">
<g clip-path="url(#clip0_431_34161)">
<path d="M11.3333 12.668H14" stroke="white" stroke-linecap="round" stroke-linejoin="round"/>
<path d="M9.33333 13.3346H4C3.46957 13.3346 2.96086 13.1239 2.58579 12.7488C2.21071 12.3738 2 11.8651 2 11.3346C2 10.8042 2.21071 10.2955 2.58579 9.92042C2.96086 9.54535 3.46957 9.33464 4 9.33464H11.3333C10.8029 9.33464 10.2942 9.54535 9.91912 9.92042C9.54405 10.2955 9.33333 10.8042 9.33333 11.3346M14 10.0013V4.0013C14 3.64768 13.8595 3.30854 13.6095 3.05849C13.3594 2.80844 13.0203 2.66797 12.6667 2.66797H6C5.64638 2.66797 5.30724 2.80844 5.05719 3.05849C4.80714 3.30854 4.66667 3.64768 4.66667 4.0013V9.33464" stroke="#FF6900" stroke-linecap="round" stroke-linejoin="round"/>
</g>
<defs>
<clipPath id="clip0_431_34161">
<rect width="16" height="16" fill="white"/>
</clipPath>
</defs>
</svg>
